<?xml version="1.0" encoding="utf-8"?>
<!-- Generator: Adobe Illustrator 16.0.0, SVG Export Plug-In . SVG Version: 6.00 Build 0)  -->
<!DOCTYPE svg PUBLIC "-//W3C//DTD SVG 1.1//EN" "http://www.w3.org/Graphics/SVG/1.1/DTD/svg11.dtd">
<svg version="1.1" id="Layer_1" xmlns="http://www.w3.org/2000/svg" xmlns:xlink="http://www.w3.org/1999/xlink" x="0px" y="0px"
	 width="1780px" height="368px" viewBox="0 0 1780 368" enable-background="new 0 0 1780 368" xml:space="preserve">
<g display="none">
	
		<image display="inline" overflow="visible" enable-background="new    " width="369" height="369" xlink:href="pattern.jpg"  transform="matrix(1 0 0 1 -1.4119 2.441406e-04)">
	</image>
	<g display="inline">
		
			<image overflow="visible" enable-background="new    " width="369" height="369" xlink:href="pattern.jpg"  transform="matrix(1 0 0 1 365.4241 2.441406e-04)">
		</image>
	</g>
	<g display="inline">
		
			<image overflow="visible" enable-background="new    " width="369" height="369" xlink:href="pattern.jpg"  transform="matrix(1 0 0 1 733.26 2.441406e-04)">
		</image>
	</g>
	<g display="inline">
		
			<image overflow="visible" enable-background="new    " width="369" height="369" xlink:href="pattern.jpg"  transform="matrix(1 0 0 1 1101.094 2.441406e-04)">
		</image>
	</g>
	<g display="inline">
		
			<image overflow="visible" enable-background="new    " width="369" height="369" xlink:href="pattern.jpg"  transform="matrix(1 0 0 1 1467.9299 2.441406e-04)">
		</image>
	</g>
	<g display="inline">
		
			<image overflow="visible" enable-background="new    " width="369" height="369" xlink:href="pattern.jpg"  transform="matrix(1 0 0 1 1833.7659 2.441406e-04)">
		</image>
	</g>
</g>
<image display="none" overflow="visible" enable-background="new    " width="540" height="70" xlink:href="../plane/gif_plane_eng.gif"  transform="matrix(1 0 0 1 219.0139 36.6331)">
</image>
<path fill="#A7E9E4" d="M1019.078,110.1c-2.158-3.95-6.351-6.629-11.167-6.629c-2.304,0-4.461,0.616-6.322,1.686
	c-0.78-2.077-2.779-3.558-5.13-3.558c-0.564,0-1.109,0.085-1.621,0.244c-2.574-5.967-8.509-10.144-15.42-10.144
	c-9.272,0-16.789,7.516-16.789,16.788c0,0.902,0.071,1.788,0.21,2.651c-4.034,2.098-6.791,6.313-6.791,11.175
	c0,6.955,5.638,12.594,12.593,12.594h47.369c6.955,0,12.593-5.639,12.593-12.594C1028.604,116.417,1024.55,111.47,1019.078,110.1z"
	/>
<path fill="#A7E9E4" d="M1461.279,104.715h-2.761c-0.95-4.206-4.703-7.348-9.195-7.348c-1.262,0-2.463,0.252-3.562,0.701
	c-2.458-3.52-6.535-5.824-11.153-5.824c-7.226,0-13.131,5.637-13.566,12.751c-3.489,0.922-6.068,4.093-6.068,7.875
	c0,4.503,3.652,8.154,8.154,8.154h38.153c4.502,0,8.153-3.651,8.153-8.154C1469.431,108.365,1465.781,104.715,1461.279,104.715z"/>
<path fill="#A7E9E4" d="M595.047,21.165h-3.522c-1.216-5.368-6.007-9.383-11.743-9.383c-1.614,0-3.15,0.323-4.557,0.898
	c-3.137-4.492-8.337-7.438-14.233-7.438c-9.22,0-16.74,7.196-17.301,16.276c-4.466,1.171-7.768,5.223-7.768,10.059
	c0,5.748,4.662,10.411,10.411,10.411h48.713c5.748,0,10.409-4.662,10.409-10.411C605.455,25.826,600.795,21.165,595.047,21.165z"/>
<path fill="#A7E9E4" d="M933.481,33.789c0.033-0.258,0.061-0.518,0.061-0.784c0-5.236-4.241-9.479-9.478-9.479h-0.408
	c-1.533,0-2.959,0.397-4.235,1.041c-2.369-4.965-7.42-8.404-13.289-8.404c-8.135,0-14.729,6.595-14.729,14.729
	c0,0.442,0.027,0.876,0.068,1.307c-0.026,0.233-0.043,0.469-0.043,0.709c0,3.485,2.826,6.312,6.312,6.312h29.533
	c3.002,0,5.484-2.108,6.122-4.918h0.016c0.008-0.052,0.014-0.105,0.021-0.157c0.024-0.119,0.066-0.232,0.083-0.354
	C933.503,33.791,933.492,33.79,933.481,33.789z"/>
<path fill="#A7E9E4" d="M1557.609,34.979c0.018-0.137,0.032-0.275,0.032-0.416c0-2.776-2.248-5.025-5.023-5.025h-0.217
	c-0.812,0-1.569,0.21-2.245,0.552c-1.256-2.632-3.935-4.455-7.045-4.455c-4.312,0-7.808,3.496-7.808,7.808
	c0,0.234,0.015,0.464,0.035,0.692c-0.014,0.124-0.021,0.249-0.021,0.376c0,1.848,1.497,3.346,3.346,3.346h15.655
	c1.591,0,2.908-1.117,3.245-2.606h0.009c0.005-0.028,0.007-0.055,0.012-0.083c0.014-0.063,0.036-0.123,0.044-0.188
	C1557.62,34.979,1557.615,34.979,1557.609,34.979z"/>
<path fill="#A7E9E4" d="M153.63,43.173c0.021-0.167,0.039-0.336,0.039-0.508c0-3.395-2.75-6.145-6.145-6.145h-0.265
	c-0.994,0-1.918,0.258-2.746,0.675c-1.536-3.219-4.811-5.449-8.616-5.449c-5.274,0-9.549,4.275-9.549,9.549
	c0,0.287,0.018,0.568,0.044,0.847c-0.017,0.151-0.028,0.304-0.028,0.46c0,2.259,1.832,4.092,4.092,4.092h19.147
	c1.946,0,3.556-1.367,3.969-3.188h0.01c0.005-0.034,0.009-0.068,0.014-0.102c0.016-0.077,0.043-0.15,0.054-0.229
	C153.645,43.174,153.637,43.174,153.63,43.173z"/>
<path fill="#A7E9E4" d="M1704.793,95.605c-0.352-4.915-4.438-8.794-9.443-8.794h-0.408c-0.085,0-0.166,0.014-0.25,0.016
	c-1.336-1.475-3.262-2.403-5.408-2.403c-0.272,0-0.54,0.019-0.805,0.048c-2.695-3.079-6.646-5.027-11.061-5.027
	c-8.135,0-14.729,6.597-14.729,14.729c0,0.464,0.03,0.92,0.074,1.372c-0.04,0.289-0.074,0.58-0.074,0.88
	c0,3.487,2.827,6.313,6.312,6.313h29.54c3.484,0,6.312-2.827,6.312-6.313C1704.854,96.148,1704.829,95.874,1704.793,95.605z"/>
<path fill="#A7E9E4" d="M71.155,89.168c-0.756,0-1.484,0.108-2.182,0.293c-1.849-3.81-5.745-6.444-10.264-6.444
	c-1.912,0-3.703,0.488-5.286,1.319c-1.105-0.363-2.285-0.567-3.513-0.567c-6.208,0-11.24,5.032-11.24,11.239
	c0,6.208,5.032,11.24,11.24,11.24c0.512,0,1.011-0.045,1.504-0.112h18.835c0.296,0.031,0.599,0.049,0.904,0.049
	c4.698,0,8.507-3.81,8.507-8.508C79.662,92.978,75.853,89.168,71.155,89.168z"/>
</svg>
