<?xml version="1.0" encoding="utf-8"?>
<!-- Generator: Adobe Illustrator 16.0.0, SVG Export Plug-In . SVG Version: 6.00 Build 0)  -->
<!DOCTYPE svg PUBLIC "-//W3C//DTD SVG 1.1//EN" "http://www.w3.org/Graphics/SVG/1.1/DTD/svg11.dtd">
<svg version="1.1" id="Layer_1" xmlns="http://www.w3.org/2000/svg" xmlns:xlink="http://www.w3.org/1999/xlink" x="0px" y="0px"
	 width="1780px" height="368px" viewBox="24.5 0.479 1780 368" enable-background="new 24.5 0.479 1780 368" xml:space="preserve">
<g display="none">
	
		<image display="inline" overflow="visible" enable-background="new    " width="369" height="369" xlink:href="pattern.jpg"  transform="matrix(1 0 0 1 -1.4119 2.441406e-04)">
	</image>
	<g display="inline">
		
			<image overflow="visible" enable-background="new    " width="369" height="369" xlink:href="pattern.jpg"  transform="matrix(1 0 0 1 365.4241 2.441406e-04)">
		</image>
	</g>
	<g display="inline">
		
			<image overflow="visible" enable-background="new    " width="369" height="369" xlink:href="pattern.jpg"  transform="matrix(1 0 0 1 733.2605 2.441406e-04)">
		</image>
	</g>
	<g display="inline">
		
			<image overflow="visible" enable-background="new    " width="369" height="369" xlink:href="pattern.jpg"  transform="matrix(1 0 0 1 1101.094 2.441406e-04)">
		</image>
	</g>
	<g display="inline">
		
			<image overflow="visible" enable-background="new    " width="369" height="369" xlink:href="pattern.jpg"  transform="matrix(1 0 0 1 1467.9299 2.441406e-04)">
		</image>
	</g>
	<g display="inline">
		
			<image overflow="visible" enable-background="new    " width="369" height="369" xlink:href="pattern.jpg"  transform="matrix(1 0 0 1 1833.7649 2.441406e-04)">
		</image>
	</g>
</g>
<image display="none" overflow="visible" enable-background="new    " width="540" height="70" xlink:href="../plane/gif_plane_eng.gif"  transform="matrix(1 0 0 1 219.0139 36.6331)">
</image>
<g>
	<path fill="#F7DF31" d="M1498.541,82.817c0,22.777-18.466,41.242-41.244,41.242c-22.771,0-41.236-18.465-41.236-41.242
		c0-22.774,18.465-41.239,41.236-41.239C1480.075,41.577,1498.541,60.042,1498.541,82.817z"/>
	<path opacity="0.1" fill="#F7DF31" enable-background="new    " d="M1526.599,82.817c0,38.273-31.027,69.301-69.303,69.301
		c-38.271,0-69.298-31.027-69.298-69.301c0-38.271,31.027-69.298,69.298-69.298C1495.572,13.519,1526.599,44.546,1526.599,82.817z"
		/>
</g>
</svg>
