<?xml version="1.0" encoding="utf-8"?>
<!-- Generator: Adobe Illustrator 16.0.0, SVG Export Plug-In . SVG Version: 6.00 Build 0)  -->
<!DOCTYPE svg PUBLIC "-//W3C//DTD SVG 1.1//EN" "http://www.w3.org/Graphics/SVG/1.1/DTD/svg11.dtd">
<svg version="1.1" id="Layer_1" xmlns="http://www.w3.org/2000/svg" xmlns:xlink="http://www.w3.org/1999/xlink" x="0px" y="0px"
	 width="1780px" height="368px" viewBox="0 0 1780 368" enable-background="new 0 0 1780 368" xml:space="preserve">
<g display="none">
	
		<image display="inline" overflow="visible" enable-background="new    " width="369" height="369" xlink:href="pattern.jpg"  transform="matrix(1 0 0 1 -1.4119 2.441406e-04)">
	</image>
	<g display="inline">
		
			<image overflow="visible" enable-background="new    " width="369" height="369" xlink:href="pattern.jpg"  transform="matrix(1 0 0 1 365.4241 2.441406e-04)">
		</image>
	</g>
	<g display="inline">
		
			<image overflow="visible" enable-background="new    " width="369" height="369" xlink:href="pattern.jpg"  transform="matrix(1 0 0 1 733.26 2.441406e-04)">
		</image>
	</g>
	<g display="inline">
		
			<image overflow="visible" enable-background="new    " width="369" height="369" xlink:href="pattern.jpg"  transform="matrix(1 0 0 1 1101.094 2.441406e-04)">
		</image>
	</g>
	<g display="inline">
		
			<image overflow="visible" enable-background="new    " width="369" height="369" xlink:href="pattern.jpg"  transform="matrix(1 0 0 1 1467.9299 2.441406e-04)">
		</image>
	</g>
	<g display="inline">
		
			<image overflow="visible" enable-background="new    " width="369" height="369" xlink:href="pattern.jpg"  transform="matrix(1 0 0 1 1833.7659 2.441406e-04)">
		</image>
	</g>
</g>
<image display="none" overflow="visible" enable-background="new    " width="540" height="70" xlink:href="../plane/gif_plane_eng.gif"  transform="matrix(1 0 0 1 219.0139 36.6331)">
</image>
<g opacity="0.9">
	<path fill="#A7E9E4" d="M396.094,30.857h-58.995c-1.255,0-2.271,1.021-2.271,2.273s1.018,2.271,2.271,2.271h58.995
		c1.254,0,2.271-1.018,2.271-2.271S397.348,30.857,396.094,30.857z"/>
	<path fill="#A7E9E4" d="M1174.281,113.303h-37.062c-0.789,0-1.433,1.018-1.433,2.273c0,1.255,0.644,2.271,1.433,2.271h37.062
		c0.787,0,1.429-1.018,1.429-2.271C1175.709,114.321,1175.069,113.303,1174.281,113.303z"/>
	<path fill="#A7E9E4" d="M500.993,10.064h-37.062c-0.789,0-1.428,1.021-1.428,2.274s0.639,2.271,1.428,2.271h37.062
		c0.789,0,1.431-1.018,1.431-2.271C502.424,11.082,501.782,10.064,500.993,10.064z"/>
	<path fill="#A7E9E4" d="M893.009,82.5h-37.064c-0.789,0-1.428,1.02-1.428,2.272s0.639,2.273,1.428,2.273h37.064
		c0.789,0,1.428-1.021,1.428-2.273S893.798,82.5,893.009,82.5z"/>
	<path fill="#A7E9E4" d="M60.363,49.529h37.064c0.79,0,1.428-1.018,1.428-2.271c0-1.257-0.639-2.274-1.428-2.274H60.363
		c-0.786,0-1.428,1.021-1.428,2.274C58.936,48.511,59.574,49.529,60.363,49.529z"/>
	<path fill="#A7E9E4" d="M1313.727,31.586h-37.064c-0.788,0-1.43,1.018-1.43,2.271c0,1.256,0.641,2.273,1.43,2.273h37.064
		c0.786,0,1.428-1.021,1.428-2.273S1314.513,31.586,1313.727,31.586z"/>
	<path fill="#A7E9E4" d="M1669.976,47.148h-47.062c-1.002,0-1.812,1.066-1.812,2.381c0,1.315,0.812,2.384,1.812,2.384h47.062
		c1.001,0,1.812-1.066,1.812-2.384C1671.786,48.214,1670.977,47.148,1669.976,47.148z"/>
</g>
</svg>
