<?xml version="1.0" encoding="utf-8"?>
<!-- Generator: Adobe Illustrator 16.0.0, SVG Export Plug-In . SVG Version: 6.00 Build 0)  -->
<!DOCTYPE svg PUBLIC "-//W3C//DTD SVG 1.1//EN" "http://www.w3.org/Graphics/SVG/1.1/DTD/svg11.dtd">
<svg version="1.1" id="Layer_1" xmlns="http://www.w3.org/2000/svg" xmlns:xlink="http://www.w3.org/1999/xlink" x="0px" y="0px"
	 width="1780px" height="368px" viewBox="0 0 1780 368" enable-background="new 0 0 1780 368" xml:space="preserve">
<g display="none">
	
		<image display="inline" overflow="visible" enable-background="new    " width="369" height="369" xlink:href="pattern.jpg"  transform="matrix(1 0 0 1 -1.4119 2.441406e-04)">
	</image>
	<g display="inline">
		
			<image overflow="visible" enable-background="new    " width="369" height="369" xlink:href="pattern.jpg"  transform="matrix(1 0 0 1 365.4241 2.441406e-04)">
		</image>
	</g>
	<g display="inline">
		
			<image overflow="visible" enable-background="new    " width="369" height="369" xlink:href="pattern.jpg"  transform="matrix(1 0 0 1 733.26 2.441406e-04)">
		</image>
	</g>
	<g display="inline">
		
			<image overflow="visible" enable-background="new    " width="369" height="369" xlink:href="pattern.jpg"  transform="matrix(1 0 0 1 1101.094 2.441406e-04)">
		</image>
	</g>
	<g display="inline">
		
			<image overflow="visible" enable-background="new    " width="369" height="369" xlink:href="pattern.jpg"  transform="matrix(1 0 0 1 1467.9299 2.441406e-04)">
		</image>
	</g>
	<g display="inline">
		
			<image overflow="visible" enable-background="new    " width="369" height="369" xlink:href="pattern.jpg"  transform="matrix(1 0 0 1 1833.7659 2.441406e-04)">
		</image>
	</g>
</g>
<path opacity="0.9" fill="#A7E9E4" enable-background="new    " d="M1475.565,103.278h-4.828
	c-1.662-7.356-8.226-12.851-16.082-12.851c-2.207,0-4.309,0.441-6.229,1.223c-4.299-6.156-11.43-10.183-19.507-10.183
	c-12.638,0-22.966,9.858-23.725,22.301c-6.103,1.612-10.613,7.158-10.613,13.773c0,7.875,6.388,14.258,14.262,14.258h66.729
	c7.874,0,14.258-6.383,14.258-14.258C1489.823,109.661,1483.439,103.278,1475.565,103.278z"/>
<path opacity="0.9" fill="#A7E9E4" enable-background="new    " d="M595.047,21.165h-3.522c-1.216-5.368-6.007-9.383-11.743-9.383
	c-1.612,0-3.148,0.321-4.557,0.896c-3.137-4.492-8.337-7.438-14.233-7.438c-9.22,0-16.738,7.194-17.301,16.274
	c-4.466,1.171-7.768,5.224-7.768,10.061c0,5.748,4.662,10.409,10.411,10.409h48.713c5.748,0,10.408-4.66,10.408-10.409
	C605.453,25.826,600.795,21.165,595.047,21.165z"/>
<path opacity="0.9" fill="#A7E9E4" enable-background="new    " d="M925.836,31.571c0.021-0.166,0.038-0.331,0.038-0.499
	c0-3.331-2.696-6.03-6.028-6.03h-0.26c-0.976,0-1.883,0.253-2.693,0.662c-1.507-3.158-4.721-5.345-8.453-5.345
	c-5.176,0-9.369,4.195-9.369,9.369c0,0.282,0.018,0.557,0.044,0.833c-0.018,0.147-0.027,0.298-0.027,0.451
	c0,2.216,1.797,4.015,4.015,4.015h18.785c1.91,0,3.489-1.341,3.895-3.128h0.01c0.006-0.033,0.011-0.066,0.014-0.1
	c0.015-0.076,0.041-0.146,0.053-0.225C925.85,31.572,925.842,31.572,925.836,31.571z"/>
<path opacity="0.9" fill="#A7E9E4" enable-background="new    " d="M374.546,137.124c0.012-0.094,0.022-0.188,0.022-0.285
	c0-1.905-1.542-3.447-3.447-3.447h-0.148c-0.558,0-1.076,0.145-1.54,0.378c-0.861-1.805-2.698-3.055-4.832-3.055
	c-2.957,0-5.355,2.397-5.355,5.355c0,0.161,0.011,0.318,0.024,0.475c-0.009,0.085-0.016,0.17-0.016,0.258
	c0,1.267,1.027,2.295,2.296,2.295h10.737c1.091,0,1.995-0.766,2.226-1.788h0.006c0.003-0.02,0.005-0.039,0.008-0.058
	c0.009-0.042,0.024-0.083,0.03-0.128C374.554,137.125,374.55,137.125,374.546,137.124z"/>
<path opacity="0.9" fill="#A7E9E4" enable-background="new    " d="M1704.793,95.605c-0.354-4.915-4.438-8.794-9.443-8.794h-0.408
	c-0.085,0-0.166,0.016-0.25,0.018c-1.336-1.477-3.262-2.403-5.408-2.403c-0.271,0-0.54,0.019-0.805,0.048
	c-2.695-3.079-6.646-5.027-11.061-5.027c-8.137,0-14.729,6.599-14.729,14.729c0,0.464,0.03,0.92,0.074,1.372
	c-0.04,0.289-0.074,0.58-0.074,0.88c0,3.487,2.827,6.312,6.312,6.312h29.541c3.483,0,6.312-2.825,6.312-6.312
	C1704.854,96.148,1704.827,95.874,1704.793,95.605z"/>
<path opacity="0.9" fill="#A7E9E4" enable-background="new    " d="M76.273,86.835c-1.079,0-2.115,0.152-3.113,0.418
	c-2.638-5.438-8.198-9.195-14.646-9.195c-2.728,0-5.284,0.697-7.543,1.882c-1.577-0.518-3.261-0.81-5.012-0.81
	c-8.858,0-16.039,7.181-16.039,16.038c0,8.858,7.181,16.039,16.039,16.039c0.73,0,1.442-0.064,2.146-0.16h26.876
	c0.422,0.044,0.854,0.07,1.288,0.07c6.704,0,12.142-5.436,12.142-12.14C88.413,92.271,82.977,86.835,76.273,86.835z"/>
</svg>
