<?xml version="1.0" encoding="utf-8"?>
<!-- Generator: Adobe Illustrator 16.0.0, SVG Export Plug-In . SVG Version: 6.00 Build 0)  -->
<!DOCTYPE svg PUBLIC "-//W3C//DTD SVG 1.1//EN" "http://www.w3.org/Graphics/SVG/1.1/DTD/svg11.dtd">
<svg version="1.1" id="Layer_1" xmlns="http://www.w3.org/2000/svg" xmlns:xlink="http://www.w3.org/1999/xlink" x="0px" y="0px"
	 width="1780px" height="368px" viewBox="24.5 0.479 1780 368" enable-background="new 24.5 0.479 1780 368" xml:space="preserve">
<g display="none">
	
		<image display="inline" overflow="visible" enable-background="new    " width="369" height="369" xlink:href="pattern.jpg"  transform="matrix(1 0 0 1 -1.4119 2.441406e-04)">
	</image>
	<g display="inline">
		
			<image overflow="visible" enable-background="new    " width="369" height="369" xlink:href="pattern.jpg"  transform="matrix(1 0 0 1 365.4241 2.441406e-04)">
		</image>
	</g>
	<g display="inline">
		
			<image overflow="visible" enable-background="new    " width="369" height="369" xlink:href="pattern.jpg"  transform="matrix(1 0 0 1 733.2605 2.441406e-04)">
		</image>
	</g>
	<g display="inline">
		
			<image overflow="visible" enable-background="new    " width="369" height="369" xlink:href="pattern.jpg"  transform="matrix(1 0 0 1 1101.094 2.441406e-04)">
		</image>
	</g>
	<g display="inline">
		
			<image overflow="visible" enable-background="new    " width="369" height="369" xlink:href="pattern.jpg"  transform="matrix(1 0 0 1 1467.9299 2.441406e-04)">
		</image>
	</g>
	<g display="inline">
		
			<image overflow="visible" enable-background="new    " width="369" height="369" xlink:href="pattern.jpg"  transform="matrix(1 0 0 1 1833.7649 2.441406e-04)">
		</image>
	</g>
</g>
<image display="none" overflow="visible" enable-background="new    " width="540" height="70" xlink:href="../plane/gif_plane_eng.gif"  transform="matrix(1 0 0 1 219.0139 36.6331)">
</image>
<path fill="#A7E9E4" d="M1019.079,110.1c-2.159-3.95-6.351-6.629-11.167-6.629c-2.304,0-4.461,0.616-6.323,1.686
	c-0.78-2.078-2.779-3.558-5.13-3.558c-0.564,0-1.109,0.085-1.621,0.244c-2.574-5.967-8.508-10.144-15.42-10.144
	c-9.272,0-16.789,7.516-16.789,16.789c0,0.902,0.072,1.788,0.21,2.651c-4.034,2.098-6.791,6.313-6.791,11.175
	c0,6.955,5.638,12.593,12.593,12.593h47.369c6.955,0,12.593-5.638,12.593-12.593C1028.604,116.417,1024.55,111.47,1019.079,110.1z"
	/>
<path fill="#A7E9E4" d="M1466.021,104.238h-3.446c-1.188-5.252-5.873-9.175-11.483-9.175c-1.575,0-3.075,0.314-4.448,0.875
	c-3.068-4.395-8.159-7.272-13.926-7.272c-9.021,0-16.394,7.038-16.938,15.921c-4.358,1.152-7.577,5.111-7.577,9.833
	c0,5.623,4.56,10.181,10.181,10.181h47.639c5.621,0,10.18-4.559,10.18-10.181C1476.2,108.796,1471.642,104.238,1466.021,104.238z"/>
<path fill="#A7E9E4" d="M662.816,22.521h-3.896c-1.344-5.938-6.644-10.379-12.989-10.379c-1.785,0-3.484,0.357-5.04,0.993
	c-3.47-4.969-9.222-8.227-15.743-8.227c-10.198,0-18.516,7.959-19.137,18.003c-4.94,1.296-8.592,5.778-8.592,11.126
	c0,6.358,5.157,11.516,11.516,11.516h53.881c6.357,0,11.514-5.156,11.514-11.516C674.329,27.677,669.174,22.521,662.816,22.521z"/>
<path fill="#A7E9E4" d="M924.064,23.527h-0.408c-1.533,0-2.959,0.397-4.236,1.041c-2.369-4.965-7.419-8.405-13.289-8.405
	c-8.134,0-14.728,6.595-14.728,14.729c0,1.176,0.152,2.312,0.412,3.41h41.596c0.06-0.428,0.131-0.854,0.131-1.297
	C933.541,27.769,929.3,23.527,924.064,23.527z"/>
<path fill="#A7E9E4" d="M1695.35,86.811h-0.408c-1.533,0-2.959,0.397-4.236,1.041c-2.368-4.965-7.42-8.406-13.288-8.406
	c-8.134,0-14.728,6.596-14.728,14.729c0,1.176,0.152,2.312,0.412,3.41h41.596c0.06-0.428,0.131-0.854,0.131-1.297
	C1704.828,91.053,1700.586,86.811,1695.35,86.811z"/>
<path fill="#A7E9E4" d="M176.998,44.373c0.058-0.429,0.131-0.852,0.131-1.295c0-5.234-4.243-9.479-9.479-9.479h-0.407
	c-1.533,0-2.959,0.396-4.236,1.042c-2.37-4.966-7.42-8.405-13.289-8.405c-8.133,0-14.728,6.594-14.728,14.728
	c0,1.179,0.152,2.313,0.412,3.41H176.998L176.998,44.373z"/>
<path fill="#A7E9E4" d="M87.342,96.119h-0.74c-2.766,0-5.34,0.717-7.647,1.881c-4.279-8.97-13.401-15.183-23.998-15.183
	c-14.69,0-26.599,11.908-26.599,26.601c0,2.125,0.277,4.178,0.746,6.158h75.121c0.104-0.773,0.235-1.541,0.235-2.341
	C104.459,103.783,96.797,96.119,87.342,96.119z"/>
</svg>
