<?xml version="1.0" encoding="utf-8"?>
<!-- Generator: Adobe Illustrator 16.0.0, SVG Export Plug-In . SVG Version: 6.00 Build 0)  -->
<!DOCTYPE svg PUBLIC "-//W3C//DTD SVG 1.1//EN" "http://www.w3.org/Graphics/SVG/1.1/DTD/svg11.dtd">
<svg version="1.1" id="Layer_1" xmlns="http://www.w3.org/2000/svg" xmlns:xlink="http://www.w3.org/1999/xlink" x="0px" y="0px"
	 width="1780px" height="368px" viewBox="0 0 1780 368" enable-background="new 0 0 1780 368" xml:space="preserve">
<g display="none">
	
		<image display="inline" overflow="visible" enable-background="new    " width="369" height="369" xlink:href="pattern.jpg"  transform="matrix(1 0 0 1 -1.4119 2.441406e-04)">
	</image>
	<g display="inline">
		
			<image overflow="visible" enable-background="new    " width="369" height="369" xlink:href="pattern.jpg"  transform="matrix(1 0 0 1 365.4241 2.441406e-04)">
		</image>
	</g>
	<g display="inline">
		
			<image overflow="visible" enable-background="new    " width="369" height="369" xlink:href="pattern.jpg"  transform="matrix(1 0 0 1 733.26 2.441406e-04)">
		</image>
	</g>
	<g display="inline">
		
			<image overflow="visible" enable-background="new    " width="369" height="369" xlink:href="pattern.jpg"  transform="matrix(1 0 0 1 1101.094 2.441406e-04)">
		</image>
	</g>
	<g display="inline">
		
			<image overflow="visible" enable-background="new    " width="369" height="369" xlink:href="pattern.jpg"  transform="matrix(1 0 0 1 1467.9299 2.441406e-04)">
		</image>
	</g>
	<g display="inline">
		
			<image overflow="visible" enable-background="new    " width="369" height="369" xlink:href="pattern.jpg"  transform="matrix(1 0 0 1 1833.7659 2.441406e-04)">
		</image>
	</g>
</g>
<path opacity="0.9" fill="#A7E9E4" enable-background="new    " d="M1011.028,111.064c-1.507-2.762-4.439-4.634-7.807-4.634
	c-1.611,0-3.119,0.431-4.419,1.178c-0.546-1.451-1.943-2.487-3.587-2.487c-0.395,0-0.775,0.06-1.133,0.171
	c-1.8-4.172-5.95-7.092-10.78-7.092c-6.483,0-11.738,5.254-11.738,11.736c0,0.631,0.049,1.25,0.146,1.854
	c-2.82,1.466-4.747,4.414-4.747,7.812c0,4.863,3.941,8.806,8.804,8.806h33.117c4.862,0,8.804-3.943,8.804-8.806
	C1017.689,115.48,1014.855,112.022,1011.028,111.064z"/>
<path opacity="0.9" fill="#A7E9E4" enable-background="new    " d="M1557.609,34.979c0.02-0.137,0.032-0.273,0.032-0.416
	c0-2.774-2.248-5.023-5.023-5.023h-0.217c-0.812,0-1.568,0.21-2.245,0.552c-1.256-2.632-3.935-4.455-7.045-4.455
	c-4.312,0-7.808,3.496-7.808,7.808c0,0.234,0.015,0.466,0.035,0.692c-0.016,0.124-0.021,0.249-0.021,0.376
	c0,1.848,1.497,3.346,3.346,3.346h15.655c1.591,0,2.908-1.116,3.245-2.604h0.009c0.005-0.028,0.007-0.057,0.013-0.083
	c0.015-0.063,0.035-0.123,0.043-0.188C1557.618,34.979,1557.615,34.979,1557.609,34.979z"/>
<path opacity="0.9" fill="#A7E9E4" enable-background="new    " d="M153.63,43.173c0.021-0.167,0.039-0.336,0.039-0.508
	c0-3.396-2.75-6.146-6.146-6.146h-0.265c-0.994,0-1.918,0.258-2.746,0.675c-1.536-3.219-4.811-5.447-8.616-5.447
	c-5.272,0-9.549,4.273-9.549,9.549c0,0.287,0.02,0.566,0.044,0.847c-0.017,0.151-0.028,0.304-0.028,0.46
	c0,2.259,1.832,4.092,4.094,4.092h19.146c1.946,0,3.558-1.365,3.969-3.188h0.012c0.005-0.034,0.009-0.068,0.014-0.104
	c0.016-0.075,0.043-0.148,0.054-0.229C153.645,43.174,153.637,43.174,153.63,43.173z"/>
<path opacity="0.9" fill="#A7E9E4" enable-background="new    " d="M1169.427,60.121c0.024-0.19,0.044-0.381,0.044-0.576
	c0-3.854-3.117-6.973-6.972-6.973h-0.3c-1.128,0-2.176,0.292-3.115,0.766c-1.742-3.652-5.457-6.18-9.775-6.18
	c-5.981,0-10.833,4.849-10.833,10.833c0,0.326,0.023,0.643,0.052,0.961c-0.02,0.172-0.032,0.345-0.032,0.521
	c0,2.562,2.078,4.642,4.643,4.642h21.72c2.207,0,4.036-1.549,4.503-3.616h0.012c0.008-0.04,0.012-0.078,0.016-0.118
	c0.02-0.086,0.05-0.169,0.063-0.26C1169.444,60.122,1169.436,60.122,1169.427,60.121z"/>
<path opacity="0.9" fill="#A7E9E4" enable-background="new    " d="M1756.454,112.88c0.01-0.07,0.017-0.142,0.017-0.213
	c0-1.429-1.156-2.586-2.586-2.586h-0.111c-0.418,0-0.807,0.108-1.154,0.284c-0.646-1.354-2.024-2.292-3.626-2.292
	c-2.218,0-4.018,1.798-4.018,4.018c0,0.121,0.009,0.238,0.02,0.356c-0.008,0.063-0.013,0.128-0.013,0.193
	c0,0.95,0.771,1.722,1.723,1.722h8.055c0.818,0,1.497-0.575,1.67-1.341h0.004c0.004-0.015,0.005-0.029,0.006-0.043
	c0.008-0.032,0.019-0.062,0.024-0.096C1756.461,112.881,1756.458,112.881,1756.454,112.88z"/>
<path opacity="0.9" fill="#A7E9E4" enable-background="new    " d="M1233.641,29.331c0.009-0.069,0.017-0.139,0.017-0.21
	c0-1.408-1.14-2.547-2.547-2.547H1231c-0.411,0-0.794,0.106-1.138,0.279c-0.637-1.333-1.993-2.257-3.57-2.257
	c-2.185,0-3.957,1.771-3.957,3.957c0,0.119,0.008,0.235,0.019,0.351c-0.007,0.062-0.012,0.125-0.012,0.19
	c0,0.936,0.759,1.696,1.696,1.696h7.934c0.807,0,1.475-0.566,1.645-1.321h0.005c0.002-0.014,0.004-0.028,0.006-0.043
	c0.007-0.031,0.018-0.062,0.022-0.095C1233.648,29.332,1233.644,29.332,1233.641,29.331z"/>
<path opacity="0.9" fill="#A7E9E4" enable-background="new    " d="M406.17,37.873c-0.569,0-1.116,0.08-1.642,0.22
	c-1.391-2.868-4.324-4.85-7.724-4.85c-1.439,0-2.787,0.368-3.979,0.993c-0.832-0.273-1.72-0.427-2.643-0.427
	c-4.672,0-8.459,3.787-8.459,8.458c0,4.672,3.787,8.459,8.459,8.459c0.385,0,0.761-0.034,1.132-0.084h14.174
	c0.223,0.023,0.451,0.037,0.679,0.037c3.536,0,6.404-2.867,6.404-6.403C412.573,40.74,409.706,37.873,406.17,37.873z"/>
</svg>
