<?xml version="1.0" encoding="utf-8"?>
<!-- Generator: Adobe Illustrator 16.0.0, SVG Export Plug-In . SVG Version: 6.00 Build 0)  -->
<!DOCTYPE svg PUBLIC "-//W3C//DTD SVG 1.1//EN" "http://www.w3.org/Graphics/SVG/1.1/DTD/svg11.dtd">
<svg version="1.1" id="Layer_1" xmlns="http://www.w3.org/2000/svg" xmlns:xlink="http://www.w3.org/1999/xlink" x="0px" y="0px"
	 width="1780px" height="368px" viewBox="0 0 1780 368" enable-background="new 0 0 1780 368" xml:space="preserve">
<g display="none">
	
		<image display="inline" overflow="visible" enable-background="new    " width="369" height="369" xlink:href="pattern.jpg"  transform="matrix(1 0 0 1 -1.4119 2.441406e-04)">
	</image>
	<g display="inline">
		
			<image overflow="visible" enable-background="new    " width="369" height="369" xlink:href="pattern.jpg"  transform="matrix(1 0 0 1 365.4241 2.441406e-04)">
		</image>
	</g>
	<g display="inline">
		
			<image overflow="visible" enable-background="new    " width="369" height="369" xlink:href="pattern.jpg"  transform="matrix(1 0 0 1 733.26 2.441406e-04)">
		</image>
	</g>
	<g display="inline">
		
			<image overflow="visible" enable-background="new    " width="369" height="369" xlink:href="pattern.jpg"  transform="matrix(1 0 0 1 1101.094 2.441406e-04)">
		</image>
	</g>
	<g display="inline">
		
			<image overflow="visible" enable-background="new    " width="369" height="369" xlink:href="pattern.jpg"  transform="matrix(1 0 0 1 1467.9299 2.441406e-04)">
		</image>
	</g>
	<g display="inline">
		
			<image overflow="visible" enable-background="new    " width="369" height="369" xlink:href="pattern.jpg"  transform="matrix(1 0 0 1 1833.7659 2.441406e-04)">
		</image>
	</g>
</g>
<path opacity="0.9" fill="#A7E9E4" enable-background="new    " d="M1475.565,103.278h-4.828
	c-1.662-7.355-8.226-12.851-16.082-12.851c-2.207,0-4.309,0.441-6.229,1.223c-4.299-6.155-11.431-10.183-19.508-10.183
	c-12.638,0-22.966,9.858-23.725,22.301c-6.103,1.612-10.613,7.158-10.613,13.773c0,7.875,6.389,14.258,14.263,14.258h66.729
	c7.874,0,14.258-6.383,14.258-14.258C1489.823,109.661,1483.439,103.278,1475.565,103.278z"/>
<path opacity="0.9" fill="#A7E9E4" enable-background="new    " d="M595.047,21.165h-3.522c-1.216-5.368-6.007-9.383-11.743-9.383
	c-1.611,0-3.147,0.32-4.557,0.896c-3.137-4.492-8.337-7.438-14.233-7.438c-9.22,0-16.737,7.194-17.301,16.274
	c-4.466,1.171-7.768,5.224-7.768,10.062c0,5.747,4.662,10.408,10.411,10.408h48.713c5.748,0,10.408-4.659,10.408-10.408
	C605.452,25.826,600.795,21.165,595.047,21.165z"/>
<path opacity="0.9" fill="#A7E9E4" enable-background="new    " d="M1623.444,27.49c0.021-0.166,0.037-0.331,0.037-0.499
	c0-3.33-2.695-6.029-6.027-6.029h-0.26c-0.977,0-1.884,0.253-2.693,0.662c-1.507-3.158-4.721-5.346-8.453-5.346
	c-5.176,0-9.369,4.195-9.369,9.369c0,0.282,0.019,0.558,0.044,0.833c-0.018,0.147-0.026,0.298-0.026,0.451
	c0,2.216,1.797,4.015,4.015,4.015h18.785c1.91,0,3.489-1.341,3.895-3.128h0.011c0.006-0.032,0.011-0.065,0.014-0.1
	c0.015-0.076,0.041-0.146,0.053-0.225C1623.457,27.49,1623.449,27.49,1623.444,27.49z"/>
<path opacity="0.9" fill="#A7E9E4" enable-background="new    " d="M374.546,137.124c0.012-0.095,0.021-0.188,0.021-0.285
	c0-1.905-1.542-3.447-3.446-3.447h-0.148c-0.558,0-1.076,0.146-1.54,0.378c-0.861-1.805-2.698-3.055-4.832-3.055
	c-2.957,0-5.354,2.396-5.354,5.354c0,0.161,0.011,0.318,0.023,0.476c-0.009,0.085-0.016,0.17-0.016,0.258
	c0,1.267,1.026,2.295,2.296,2.295h10.737c1.091,0,1.994-0.766,2.226-1.788h0.006c0.003-0.02,0.005-0.039,0.008-0.058
	c0.01-0.042,0.024-0.083,0.03-0.128C374.554,137.125,374.55,137.125,374.546,137.124z"/>
<path opacity="0.9" fill="#A7E9E4" enable-background="new    " d="M76.273,86.835c-1.079,0-2.114,0.151-3.112,0.418
	c-2.639-5.438-8.198-9.195-14.646-9.195c-2.728,0-5.284,0.697-7.543,1.882c-1.577-0.518-3.261-0.81-5.012-0.81
	c-8.858,0-16.039,7.181-16.039,16.038s7.181,16.039,16.039,16.039c0.729,0,1.441-0.064,2.146-0.16h26.876
	c0.422,0.044,0.854,0.07,1.288,0.07c6.704,0,12.143-5.437,12.143-12.141C88.413,92.271,82.977,86.835,76.273,86.835z"/>
<path opacity="0.9" fill="#A7E9E4" enable-background="new    " d="M1011.028,111.064c-1.507-2.762-4.438-4.634-7.807-4.634
	c-1.611,0-3.119,0.431-4.419,1.178c-0.546-1.45-1.943-2.486-3.587-2.486c-0.396,0-0.775,0.06-1.133,0.171
	c-1.801-4.172-5.95-7.092-10.78-7.092c-6.483,0-11.738,5.254-11.738,11.735c0,0.631,0.049,1.25,0.146,1.854
	c-2.82,1.466-4.747,4.414-4.747,7.812c0,4.863,3.94,8.807,8.804,8.807h33.117c4.861,0,8.804-3.943,8.804-8.807
	C1017.689,115.48,1014.855,112.022,1011.028,111.064z"/>
<path opacity="0.9" fill="#A7E9E4" enable-background="new    " d="M153.63,43.173c0.021-0.167,0.039-0.336,0.039-0.508
	c0-3.396-2.75-6.146-6.146-6.146h-0.265c-0.994,0-1.918,0.258-2.746,0.675c-1.536-3.219-4.811-5.446-8.616-5.446
	c-5.271,0-9.549,4.272-9.549,9.549c0,0.287,0.021,0.565,0.044,0.847c-0.017,0.151-0.028,0.304-0.028,0.46
	c0,2.259,1.832,4.092,4.095,4.092h19.146c1.946,0,3.559-1.364,3.969-3.188h0.013c0.005-0.034,0.009-0.068,0.014-0.104
	c0.016-0.074,0.043-0.147,0.054-0.229C153.645,43.174,153.637,43.174,153.63,43.173z"/>
<path opacity="0.9" fill="#A7E9E4" enable-background="new    " d="M1756.453,112.88c0.011-0.07,0.018-0.143,0.018-0.213
	c0-1.43-1.156-2.586-2.586-2.586h-0.111c-0.418,0-0.807,0.107-1.154,0.283c-0.646-1.354-2.023-2.292-3.626-2.292
	c-2.218,0-4.018,1.799-4.018,4.019c0,0.121,0.009,0.238,0.02,0.355c-0.008,0.063-0.013,0.129-0.013,0.193
	c0,0.95,0.771,1.722,1.723,1.722h8.056c0.817,0,1.497-0.574,1.67-1.341h0.004c0.004-0.015,0.005-0.028,0.006-0.043
	c0.009-0.032,0.02-0.062,0.024-0.096C1756.461,112.881,1756.457,112.881,1756.453,112.88z"/>
</svg>
