<?xml version="1.0" encoding="utf-8"?>
<!-- Generator: Adobe Illustrator 16.0.0, SVG Export Plug-In . SVG Version: 6.00 Build 0)  -->
<!DOCTYPE svg PUBLIC "-//W3C//DTD SVG 1.1//EN" "http://www.w3.org/Graphics/SVG/1.1/DTD/svg11.dtd">
<svg version="1.1" id="Layer_1" xmlns="http://www.w3.org/2000/svg" xmlns:xlink="http://www.w3.org/1999/xlink" x="0px" y="0px"
	 width="1780px" height="368px" viewBox="0 0 1780 368" enable-background="new 0 0 1780 368" xml:space="preserve">
<g display="none">
	
		<image display="inline" overflow="visible" enable-background="new    " width="369" height="369" xlink:href="pattern.jpg"  transform="matrix(1 0 0 1 -1.4119 2.441406e-04)">
	</image>
	<g display="inline">
		
			<image overflow="visible" enable-background="new    " width="369" height="369" xlink:href="pattern.jpg"  transform="matrix(1 0 0 1 365.4241 2.441406e-04)">
		</image>
	</g>
	<g display="inline">
		
			<image overflow="visible" enable-background="new    " width="369" height="369" xlink:href="pattern.jpg"  transform="matrix(1 0 0 1 733.26 2.441406e-04)">
		</image>
	</g>
	<g display="inline">
		
			<image overflow="visible" enable-background="new    " width="369" height="369" xlink:href="pattern.jpg"  transform="matrix(1 0 0 1 1101.094 2.441406e-04)">
		</image>
	</g>
	<g display="inline">
		
			<image overflow="visible" enable-background="new    " width="369" height="369" xlink:href="pattern.jpg"  transform="matrix(1 0 0 1 1467.9299 2.441406e-04)">
		</image>
	</g>
	<g display="inline">
		
			<image overflow="visible" enable-background="new    " width="369" height="369" xlink:href="pattern.jpg"  transform="matrix(1 0 0 1 1833.7659 2.441406e-04)">
		</image>
	</g>
</g>
<path fill="#A7E9E4" d="M451.177,126.622c0,1.315-1.162,2.383-2.594,2.383h-67.316c-1.434,0-2.596-1.066-2.596-2.383l0,0
	c0-1.314,1.163-2.381,2.596-2.381h67.316C450.015,124.241,451.177,125.308,451.177,126.622L451.177,126.622z"/>
<path fill="#A7E9E4" d="M1691,106.613c0,1.256-0.642,2.272-1.429,2.272h-13.603c-0.789,0-1.43-1.018-1.43-2.272l0,0
	c0-1.256,0.641-2.273,1.43-2.273h13.603C1690.36,104.338,1691,105.357,1691,106.613L1691,106.613z"/>
<path fill="#A7E9E4" d="M1426.492,33.064c0,1.256-0.642,2.273-1.429,2.273h-63.678c-0.789,0-1.431-1.019-1.431-2.273l0,0
	c0-1.256,0.642-2.272,1.431-2.272h63.678C1425.852,30.79,1426.492,31.808,1426.492,33.064L1426.492,33.064z"/>
<path fill="#A7E9E4" d="M687.988,28.517c0,1.256-0.639,2.273-1.428,2.273h-21.726c-0.788,0-1.428-1.019-1.428-2.273l0,0
	c0-1.256,0.64-2.272,1.428-2.272h21.726C687.349,26.243,687.988,27.261,687.988,28.517L687.988,28.517z"/>
<path fill="#A7E9E4" d="M1149.595,122.073c0,1.257-0.639,2.273-1.428,2.273h-51.811c-0.789,0-1.428-1.018-1.428-2.273l0,0
	c0-1.256,0.639-2.272,1.428-2.272h51.811C1148.956,119.8,1149.595,120.818,1149.595,122.073L1149.595,122.073z"/>
<path fill="#A7E9E4" d="M166.267,42.741c0,1.256-0.639,2.272-1.428,2.272h-37.064c-0.789,0-1.428-1.018-1.428-2.272l0,0
	c0-1.257,0.639-2.273,1.428-2.273h37.064C165.628,40.468,166.267,41.486,166.267,42.741L166.267,42.741z"/>
</svg>
