<?xml version="1.0" encoding="utf-8"?>
<!-- Generator: Adobe Illustrator 16.0.0, SVG Export Plug-In . SVG Version: 6.00 Build 0)  -->
<!DOCTYPE svg PUBLIC "-//W3C//DTD SVG 1.1//EN" "http://www.w3.org/Graphics/SVG/1.1/DTD/svg11.dtd">
<svg version="1.1" id="Layer_1" xmlns="http://www.w3.org/2000/svg" xmlns:xlink="http://www.w3.org/1999/xlink" x="0px" y="0px"
	 width="149.236px" height="114.523px" viewBox="0 0 149.236 114.523" enable-background="new 0 0 149.236 114.523"
	 xml:space="preserve">
<g>
	<g>
		<g>
			<path fill="#42CCCD" d="M85.562,40.455v73.957h20.296h12.564h20.296V40.455H85.562z"/>
		</g>
		<g>
			<rect x="91.187" y="75.782" fill="#37A5A2" width="8.504" height="9.665"/>
		</g>
		<g>
			<rect x="91.187" y="63.219" fill="#37A5A2" width="8.504" height="9.663"/>
		</g>
		<g>
			<rect x="91.187" y="51.621" fill="#37A5A2" width="8.504" height="8.697"/>
		</g>
		<g opacity="0.9">
			<rect x="91.187" y="74.785" fill="#FFFEF8" width="8.504" height="9.666"/>
		</g>
		<g opacity="0.9">
			<rect x="91.187" y="62.222" fill="#FFFEF8" width="8.504" height="9.665"/>
		</g>
		<g opacity="0.9">
			<rect x="91.187" y="50.624" fill="#FFFEF8" width="8.504" height="8.698"/>
		</g>
		<g>
			<rect x="102.254" y="75.782" fill="#37A5A2" width="8.504" height="9.665"/>
		</g>
		<g>
			<rect x="102.254" y="63.219" fill="#37A5A2" width="8.504" height="9.663"/>
		</g>
		<g>
			<rect x="102.254" y="51.621" fill="#37A5A2" width="8.504" height="8.697"/>
		</g>
		<g opacity="0.9">
			<rect x="102.254" y="74.785" fill="#FFFEF8" width="8.504" height="9.666"/>
		</g>
		<g opacity="0.9">
			<rect x="102.254" y="62.222" fill="#FFFEF8" width="8.504" height="9.665"/>
		</g>
		<g opacity="0.9">
			<rect x="102.254" y="50.624" fill="#FFFEF8" width="8.504" height="8.698"/>
		</g>
		<g>
			<rect x="113.322" y="75.782" fill="#37A5A2" width="8.505" height="9.665"/>
		</g>
		<g>
			<rect x="113.322" y="63.219" fill="#37A5A2" width="8.505" height="9.663"/>
		</g>
		<g>
			<rect x="113.322" y="51.621" fill="#37A5A2" width="8.505" height="8.697"/>
		</g>
		<g opacity="0.9">
			<rect x="113.322" y="74.785" fill="#FFFEF8" width="8.505" height="9.666"/>
		</g>
		<g opacity="0.9">
			<rect x="113.322" y="62.222" fill="#FFFEF8" width="8.505" height="9.665"/>
		</g>
		<g opacity="0.9">
			<rect x="113.322" y="50.624" fill="#FFFEF8" width="8.505" height="8.698"/>
		</g>
		<g>
			<rect x="124.389" y="75.782" fill="#37A5A2" width="8.504" height="9.665"/>
		</g>
		<g>
			<rect x="124.389" y="63.219" fill="#37A5A2" width="8.504" height="9.663"/>
		</g>
		<g>
			<rect x="124.389" y="51.621" fill="#37A5A2" width="8.504" height="8.697"/>
		</g>
		<g opacity="0.9">
			<rect x="124.389" y="74.785" fill="#FFFEF8" width="8.504" height="9.666"/>
		</g>
		<g opacity="0.9">
			<rect x="124.389" y="62.222" fill="#FFFEF8" width="8.504" height="9.665"/>
		</g>
		<g opacity="0.9">
			<rect x="124.389" y="50.624" fill="#FFFEF8" width="8.504" height="8.698"/>
		</g>
		<g>
			<g>
				<polygon fill="#FFFEF8" points="120.088,114.523 125.153,114.523 125.153,95.106 120.088,97.107 				"/>
			</g>
			<g>
				<polygon fill="#FFFEF8" points="103.993,97.107 98.928,95.106 98.928,114.445 103.993,114.445 				"/>
			</g>
		</g>
		<g>
			<polygon fill="#37A5A2" points="138.718,43.158 85.684,43.158 85.684,43.166 85.684,43.244 85.684,45.33 85.687,45.33
				138.718,45.33 			"/>
		</g>
		<g>
			<polygon fill="#42CCCD" points="138.718,18.521 85.684,18.521 85.684,18.61 85.684,19.493 85.684,43.158 85.687,43.158
				138.718,43.158 			"/>
		</g>
		<g>
			<path fill="#FFFEF8" d="M94.534,26.69h2.768c1.262,0,2.177,0.18,2.746,0.539c0.57,0.357,0.854,0.93,0.854,1.711
				c0,0.532-0.125,0.968-0.375,1.309c-0.249,0.34-0.58,0.545-0.993,0.614v0.062c0.562,0.125,0.971,0.36,1.22,0.705
				c0.249,0.346,0.374,0.804,0.374,1.375c0,0.812-0.293,1.443-0.879,1.897s-1.382,0.681-2.389,0.681h-3.326V26.69z M96.419,30.212
				h1.095c0.512,0,0.881-0.078,1.11-0.235c0.229-0.158,0.344-0.42,0.344-0.785c0-0.34-0.125-0.585-0.374-0.732
				c-0.25-0.147-0.645-0.223-1.184-0.223h-0.991V30.212z M96.419,31.709v2.317h1.229c0.52,0,0.902-0.101,1.149-0.299
				c0.248-0.197,0.371-0.502,0.371-0.912c0-0.738-0.527-1.106-1.581-1.106H96.419L96.419,31.709z"/>
			<path fill="#FFFEF8" d="M108.971,35.583l-0.646-2.116h-3.242l-0.646,2.116h-2.032l3.14-8.93h2.306l3.151,8.93H108.971z
				 M107.875,31.886c-0.597-1.919-0.933-3.005-1.006-3.256c-0.076-0.251-0.129-0.449-0.162-0.597
				c-0.135,0.521-0.518,1.803-1.149,3.853H107.875z"/>
			<path fill="#FFFEF8" d="M120.633,35.583h-2.396l-3.868-6.727h-0.056c0.078,1.188,0.116,2.035,0.116,2.542v4.185h-1.685V26.69
				h2.378l3.861,6.66h0.043c-0.061-1.155-0.092-1.974-0.092-2.451V26.69h1.697L120.633,35.583L120.633,35.583z"/>
			<path fill="#FFFEF8" d="M130.648,35.583h-2.142l-2.329-3.746l-0.797,0.571v3.175h-1.886V26.69h1.886v4.068l0.742-1.046
				l2.408-3.022h2.093l-3.103,3.936L130.648,35.583z"/>
		</g>
		<polygon fill="#37A5A2" points="120.216,95.994 120.215,95.994 119.088,95.994 104.993,95.994 103.866,95.994 103.866,97.121
			103.866,114.523 104.993,114.523 119.088,114.523 119.089,114.523 120.215,114.523 120.215,97.121 120.216,97.121 		"/>
	</g>
	<g>
		<g>
			<polygon fill="#37A5A2" points="54.285,66.9 85.404,52.854 85.404,60.513 65.395,69.261 57.203,72.844 48.871,75.49 			"/>
		</g>
		<g>
			<polygon fill="#40C1BD" points="54.285,66.9 62.266,62.274 69.106,58.474 85.684,49.138 85.684,59.077 51.063,73.469 			"/>
		</g>
		<g>
			<polygon fill="#40C1BD" points="34.648,76.55 35.01,73.018 47.139,67.895 49.208,64.484 54.285,66.9 49.109,75.414 			"/>
		</g>
		<g>
			<g>
				<path fill="#F9A235" d="M48.416,71.117c0,0.411-0.326,0.769-0.73,0.797l-4.182,0.299c-0.402,0.028-0.73-0.279-0.73-0.691v-7.158
					c0-0.413,0.328-0.771,0.73-0.8l4.182-0.299c0.404-0.029,0.73,0.282,0.73,0.693V71.117z"/>
			</g>
			<g>
				<path fill="#F9A235" d="M42.07,71.227c0,0.603-0.325,1.11-0.729,1.141l-4.186,0.299c-0.402,0.031-0.729-0.435-0.729-1.037
					V61.168c0-0.603,0.326-1.111,0.729-1.143l4.186-0.3c0.402-0.028,0.729,0.438,0.729,1.04V71.227z"/>
			</g>
			<g>
				<path fill="#F88236" d="M48.416,68.452c0,0.581-1.263,1.143-2.82,1.253c-1.557,0.112-2.821-0.269-2.821-0.85v1.101
					c0,0.583,1.265,0.961,2.821,0.851c1.559-0.111,2.82-0.671,2.82-1.254V68.452z"/>
			</g>
			<g>
				<path fill="#F88236" d="M48.416,66.605c0,0.583-1.263,1.143-2.82,1.254c-1.557,0.113-2.821-0.269-2.821-0.851v1.104
					c0,0.58,1.265,0.96,2.821,0.849c1.559-0.111,2.82-0.673,2.82-1.253V66.605z"/>
			</g>
			<g>
				<path fill="#F88236" d="M48.416,64.762c0,0.579-1.263,1.141-2.82,1.253c-1.557,0.111-2.821-0.27-2.821-0.852v1.103
					c0,0.581,1.265,0.961,2.821,0.85c1.559-0.111,2.82-0.671,2.82-1.254V64.762z"/>
			</g>
			<g>
				<path fill="#F9A235" d="M48.416,62.915c0,0.58-1.263,1.142-2.82,1.252c-1.557,0.113-2.821-0.268-2.821-0.85
					c0-0.58,1.265-1.146,2.821-1.258C47.154,61.948,48.416,62.332,48.416,62.915"/>
			</g>
			<g>
				<path fill="#F88236" d="M48.416,62.912c0,0.583-1.263,1.145-2.82,1.255c-1.557,0.113-2.821-0.268-2.821-0.851v1.103
					c0,0.581,1.265,0.961,2.821,0.851c1.559-0.111,2.82-0.671,2.82-1.254V62.912z"/>
			</g>
			<g>
				<path fill="#F88236" d="M48.416,70.399c0,0.583-1.263,1.144-2.82,1.256c-1.557,0.112-2.821-0.27-2.821-0.852v1.101
					c0,0.583,1.265,0.962,2.821,0.851c1.559-0.11,2.82-0.67,2.82-1.253V70.399z"/>
			</g>
			<g>
				<path fill="#F88236" d="M42.068,68.905c0,0.582-1.262,1.143-2.817,1.254c-1.56,0.113-2.822-0.27-2.822-0.851v1.101
					c0,0.583,1.263,0.964,2.822,0.854c1.556-0.112,2.817-0.674,2.817-1.256V68.905z"/>
			</g>
			<g>
				<path fill="#F88236" d="M42.068,67.06c0,0.582-1.262,1.143-2.817,1.256c-1.56,0.111-2.822-0.271-2.822-0.854v1.104
					c0,0.58,1.263,0.962,2.822,0.85c1.556-0.11,2.817-0.673,2.817-1.253V67.06z"/>
			</g>
			<g>
				<path fill="#F88236" d="M42.068,65.215c0,0.581-1.262,1.144-2.817,1.255c-1.56,0.111-2.822-0.271-2.822-0.853v1.101
					c0,0.582,1.263,0.966,2.822,0.854c1.556-0.112,2.817-0.673,2.817-1.255V65.215z"/>
			</g>
			<g>
				<path fill="#F88236" d="M42.068,63.366c0,0.583-1.262,1.146-2.817,1.256c-1.56,0.112-2.822-0.27-2.822-0.853v1.103
					c0,0.581,1.263,0.963,2.822,0.853c1.556-0.112,2.817-0.674,2.817-1.255V63.366z"/>
			</g>
			<g>
				<path fill="#F88236" d="M42.068,61.522c0,0.58-1.262,1.143-2.817,1.255c-1.56,0.111-2.822-0.271-2.822-0.854v1.103
					c0,0.58,1.263,0.964,2.822,0.851c1.556-0.11,2.817-0.673,2.817-1.254V61.522z"/>
			</g>
			<g>
				<path fill="#F9A235" d="M42.068,59.675c0,0.582-1.262,1.145-2.817,1.257c-1.56,0.11-2.822-0.271-2.822-0.854
					c0-0.58,1.263-1.142,2.822-1.253C40.806,58.712,42.068,59.094,42.068,59.675"/>
			</g>
			<g>
				<path fill="#F88236" d="M42.068,59.675c0,0.582-1.262,1.145-2.817,1.257c-1.56,0.11-2.822-0.271-2.822-0.854v1.101
					c0,0.586,1.263,0.967,2.822,0.854c1.556-0.111,2.817-0.671,2.817-1.256V59.675z"/>
			</g>
			<g>
				<path fill="#F88236" d="M42.068,70.854c0,0.582-1.262,1.145-2.817,1.256c-1.56,0.112-2.822-0.271-2.822-0.854v1.102
					c0,0.583,1.263,0.964,2.822,0.852c1.556-0.11,2.817-0.671,2.817-1.254V70.854z"/>
			</g>
		</g>
	</g>
	<g>
		<g>
			<polygon fill="#349994" points="107.353,66.9 138.672,52.854 138.672,60.513 118.535,69.261 110.29,72.844 101.905,75.49 			"/>
		</g>
		<g>
			<polygon fill="#3AAFAC" points="107.319,66.9 115.299,62.274 122.14,58.474 138.718,49.138 138.718,59.077 104.097,73.469 			"/>
		</g>
		<g>
			<polygon fill="#3AAFAC" points="87.682,76.55 88.043,73.018 100.172,67.895 102.242,64.484 107.319,66.9 102.143,75.414 			"/>
		</g>
		<g>
			<g>
				<path fill="#F9A235" d="M101.45,71.117c0,0.411-0.32,0.769-0.719,0.797l-4.103,0.299c-0.396,0.028-0.716-0.279-0.716-0.691
					v-7.158c0-0.413,0.32-0.771,0.716-0.8l4.103-0.299c0.397-0.029,0.719,0.282,0.719,0.693V71.117z"/>
			</g>
			<g>
				<path fill="#F9A235" d="M95.224,71.227c0,0.603-0.32,1.11-0.716,1.141l-4.104,0.299c-0.396,0.031-0.716-0.435-0.716-1.037
					V61.168c0-0.603,0.32-1.111,0.716-1.143l4.104-0.3c0.396-0.028,0.716,0.438,0.716,1.04V71.227z"/>
			</g>
			<g>
				<path fill="#F88236" d="M101.45,68.452c0,0.581-1.238,1.143-2.769,1.253c-1.526,0.112-2.767-0.269-2.767-0.85v1.101
					c0,0.583,1.238,0.961,2.767,0.851c1.529-0.111,2.769-0.671,2.769-1.254V68.452z"/>
			</g>
			<g>
				<path fill="#F88236" d="M101.45,66.605c0,0.583-1.238,1.143-2.769,1.254c-1.526,0.113-2.767-0.269-2.767-0.851v1.104
					c0,0.58,1.238,0.96,2.767,0.849c1.529-0.111,2.769-0.673,2.769-1.253V66.605z"/>
			</g>
			<g>
				<path fill="#F88236" d="M101.45,64.762c0,0.579-1.238,1.141-2.769,1.253c-1.526,0.111-2.767-0.27-2.767-0.852v1.103
					c0,0.581,1.238,0.961,2.767,0.85c1.529-0.111,2.769-0.671,2.769-1.254V64.762z"/>
			</g>
			<g>
				<path fill="#F9A235" d="M101.45,62.915c0,0.58-1.238,1.142-2.769,1.252c-1.526,0.113-2.767-0.268-2.767-0.85
					c0-0.58,1.238-1.146,2.767-1.258C100.211,61.948,101.45,62.332,101.45,62.915"/>
			</g>
			<g>
				<path fill="#F88236" d="M101.45,62.912c0,0.583-1.238,1.145-2.769,1.255c-1.526,0.113-2.767-0.268-2.767-0.851v1.103
					c0,0.581,1.238,0.961,2.767,0.851c1.529-0.111,2.769-0.671,2.769-1.254V62.912z"/>
			</g>
			<g>
				<path fill="#F88236" d="M101.45,70.399c0,0.583-1.238,1.144-2.769,1.256c-1.526,0.112-2.767-0.27-2.767-0.852v1.101
					c0,0.583,1.238,0.962,2.767,0.851c1.529-0.11,2.769-0.67,2.769-1.253V70.399z"/>
			</g>
			<g>
				<path fill="#F88236" d="M95.223,68.905c0,0.582-1.239,1.143-2.766,1.254c-1.529,0.113-2.77-0.27-2.77-0.851v1.101
					c0,0.583,1.239,0.964,2.77,0.854c1.525-0.112,2.766-0.674,2.766-1.256V68.905z"/>
			</g>
			<g>
				<path fill="#F88236" d="M95.223,67.06c0,0.582-1.239,1.143-2.766,1.256c-1.529,0.111-2.77-0.271-2.77-0.854v1.104
					c0,0.58,1.239,0.962,2.77,0.85c1.525-0.11,2.766-0.673,2.766-1.253V67.06z"/>
			</g>
			<g>
				<path fill="#F88236" d="M95.223,65.215c0,0.581-1.239,1.144-2.766,1.255c-1.529,0.111-2.77-0.271-2.77-0.853v1.101
					c0,0.582,1.239,0.966,2.77,0.854c1.525-0.112,2.766-0.673,2.766-1.255V65.215z"/>
			</g>
			<g>
				<path fill="#F88236" d="M95.223,63.366c0,0.583-1.239,1.146-2.766,1.256c-1.529,0.112-2.77-0.27-2.77-0.853v1.103
					c0,0.581,1.239,0.963,2.77,0.853c1.525-0.112,2.766-0.674,2.766-1.255V63.366z"/>
			</g>
			<g>
				<path fill="#F88236" d="M95.223,61.522c0,0.58-1.239,1.143-2.766,1.255c-1.529,0.111-2.77-0.271-2.77-0.854v1.103
					c0,0.58,1.239,0.964,2.77,0.851c1.525-0.11,2.766-0.673,2.766-1.254V61.522z"/>
			</g>
			<g>
				<path fill="#F9A235" d="M95.223,59.675c0,0.582-1.239,1.145-2.766,1.257c-1.529,0.11-2.77-0.271-2.77-0.854
					c0-0.58,1.239-1.142,2.77-1.253C93.984,58.712,95.223,59.094,95.223,59.675"/>
			</g>
			<g>
				<path fill="#F88236" d="M95.223,59.675c0,0.582-1.239,1.145-2.766,1.257c-1.529,0.11-2.77-0.271-2.77-0.854v1.101
					c0,0.586,1.239,0.967,2.77,0.854c1.525-0.111,2.766-0.671,2.766-1.256V59.675z"/>
			</g>
			<g>
				<path fill="#F88236" d="M95.223,70.854c0,0.582-1.239,1.145-2.766,1.256c-1.529,0.112-2.77-0.271-2.77-0.854v1.102
					c0,0.583,1.239,0.964,2.77,0.852c1.525-0.11,2.766-0.671,2.766-1.254V70.854z"/>
			</g>
		</g>
	</g>
</g>
</svg>
