<?xml version="1.0" encoding="utf-8"?>
<!-- Generator: Adobe Illustrator 16.0.0, SVG Export Plug-In . SVG Version: 6.00 Build 0)  -->
<!DOCTYPE svg PUBLIC "-//W3C//DTD SVG 1.1//EN" "http://www.w3.org/Graphics/SVG/1.1/DTD/svg11.dtd">
<svg version="1.1" id="Layer_1" xmlns="http://www.w3.org/2000/svg" xmlns:xlink="http://www.w3.org/1999/xlink" x="0px" y="0px"
	 width="53.156px" height="96.001px" viewBox="0 0 53.156 96.001" enable-background="new 0 0 53.156 96.001" xml:space="preserve">
<g>
	<path fill="#F9A235" d="M0,21.934V95.89h20.296H32.86h20.296V21.934H0z"/>
	<rect x="4.831" y="57.26" fill="#DB6A2C" width="7.731" height="9.665"/>
	<rect x="4.831" y="44.696" fill="#DB6A2C" width="7.731" height="9.665"/>
	<rect x="4.831" y="33.099" fill="#DB6A2C" width="7.731" height="8.698"/>
	<rect x="16.429" y="57.26" fill="#DB6A2C" width="7.731" height="9.665"/>
	<rect x="16.429" y="44.696" fill="#DB6A2C" width="7.731" height="9.665"/>
	<rect x="16.429" y="33.099" fill="#DB6A2C" width="7.731" height="8.698"/>
	<rect x="28.993" y="57.26" fill="#DB6A2C" width="6.766" height="9.665"/>
	<rect x="28.993" y="44.696" fill="#DB6A2C" width="6.766" height="9.665"/>
	<rect x="28.993" y="33.099" fill="#DB6A2C" width="6.766" height="8.698"/>
	<rect x="40.591" y="57.26" fill="#DB6A2C" width="7.731" height="9.665"/>
	<rect x="40.591" y="44.696" fill="#DB6A2C" width="7.731" height="9.665"/>
	<rect x="40.591" y="33.099" fill="#DB6A2C" width="7.731" height="8.698"/>
	<rect x="4.831" y="56.263" opacity="0.9" fill="#FFFEF8" width="7.731" height="9.666"/>
	<rect x="4.831" y="43.7" opacity="0.9" fill="#FFFEF8" width="7.731" height="9.665"/>
	<rect x="4.831" y="32.102" opacity="0.9" fill="#FFFEF8" width="7.731" height="8.699"/>
	<rect x="16.429" y="56.263" opacity="0.9" fill="#FFFEF8" width="7.731" height="9.666"/>
	<polygon opacity="0.9" fill="#FFFEF8" points="33.525,95.636 24.16,91.66 24.16,77.66 33.525,77.651 	"/>
	<rect x="16.429" y="43.7" opacity="0.9" fill="#FFFEF8" width="7.731" height="9.665"/>
	<rect x="16.429" y="32.102" opacity="0.9" fill="#FFFEF8" width="7.731" height="8.699"/>
	<rect x="28.993" y="56.263" opacity="0.9" fill="#FFFEF8" width="6.766" height="9.666"/>
	<rect x="28.993" y="43.7" opacity="0.9" fill="#FFFEF8" width="6.766" height="9.665"/>
	<rect x="28.993" y="32.102" opacity="0.9" fill="#FFFEF8" width="6.766" height="8.699"/>
	<rect x="40.591" y="56.263" opacity="0.9" fill="#FFFEF8" width="7.731" height="9.666"/>
	<rect x="40.591" y="43.7" opacity="0.9" fill="#FFFEF8" width="7.731" height="9.665"/>
	<rect x="40.591" y="32.102" opacity="0.9" fill="#FFFEF8" width="7.731" height="8.699"/>
	<polygon fill="#DB6A2C" points="53.156,24.636 0.122,24.636 0.122,24.644 0.122,24.722 0.122,26.808 0.125,26.808 53.156,26.808 	
		"/>
	<polygon fill="#F88236" points="53.156,0 0.122,0 0.122,0.088 0.122,0.971 0.122,24.636 0.125,24.636 53.156,24.636 	"/>
	<rect x="33.525" y="77.472" fill="#DB6A2C" width="1.128" height="18.529"/>
	<rect x="18.304" y="77.472" fill="#DB6A2C" width="1.127" height="18.529"/>
	<rect x="18.304" y="77.472" fill="#DB6A2C" width="16.35" height="1.127"/>
	<g>
		<path fill="#FFFEF8" d="M8.972,8.167h2.768c1.262,0,2.178,0.18,2.747,0.539s0.854,0.93,0.854,1.712
			c0,0.532-0.125,0.967-0.374,1.308c-0.249,0.34-0.581,0.545-0.995,0.614v0.061c0.564,0.125,0.971,0.361,1.221,0.706
			c0.249,0.345,0.373,0.803,0.373,1.375c0,0.811-0.293,1.444-0.879,1.898s-1.381,0.681-2.387,0.681H8.972V8.167z M10.858,11.689
			h1.094c0.512,0,0.882-0.079,1.111-0.237c0.229-0.158,0.344-0.419,0.344-0.785c0-0.34-0.125-0.585-0.375-0.733
			c-0.249-0.148-0.644-0.222-1.183-0.222h-0.991V11.689z M10.858,13.186v2.317h1.229c0.519,0,0.902-0.1,1.149-0.298
			c0.247-0.198,0.371-0.502,0.371-0.912c0-0.738-0.527-1.107-1.581-1.107H10.858z"/>
		<path fill="#FFFEF8" d="M23.409,17.061l-0.645-2.117h-3.242l-0.645,2.117h-2.032l3.139-8.93h2.306l3.15,8.93H23.409z
			 M22.313,13.362c-0.596-1.918-0.932-3.003-1.006-3.254c-0.075-0.251-0.129-0.45-0.162-0.596c-0.133,0.519-0.516,1.803-1.148,3.851
			H22.313z"/>
		<path fill="#FFFEF8" d="M35.071,17.061h-2.396l-3.868-6.728h-0.055c0.077,1.188,0.116,2.036,0.116,2.542v4.185h-1.686V8.167h2.379
			l3.862,6.661h0.042c-0.061-1.156-0.091-1.973-0.091-2.451V8.167h1.696V17.061z"/>
		<path fill="#FFFEF8" d="M45.087,17.061h-2.142l-2.329-3.747l-0.797,0.572v3.175h-1.887V8.167h1.887v4.069l0.742-1.046l2.408-3.023
			h2.092l-3.102,3.936L45.087,17.061z"/>
	</g>
</g>
</svg>
