<?xml version="1.0" encoding="utf-8"?>
<!-- Generator: Adobe Illustrator 16.0.0, SVG Export Plug-In . SVG Version: 6.00 Build 0)  -->
<!DOCTYPE svg PUBLIC "-//W3C//DTD SVG 1.1//EN" "http://www.w3.org/Graphics/SVG/1.1/DTD/svg11.dtd">
<svg version="1.1" id="Layer_1" xmlns="http://www.w3.org/2000/svg" xmlns:xlink="http://www.w3.org/1999/xlink" x="0px" y="0px"
	 width="149.236px" height="114.523px" viewBox="0 0 149.236 114.523" enable-background="new 0 0 149.236 114.523"
	 xml:space="preserve">
<g>
	<g>
		<g>
			<path fill="#42CCCD" d="M85.684,40.455v73.957h20.174h12.564h20.296V40.455H85.684z"/>
		</g>
		<g>
			<rect x="91.187" y="75.782" fill="#37A5A2" width="8.504" height="9.665"/>
		</g>
		<g>
			<rect x="91.187" y="63.219" fill="#37A5A2" width="8.504" height="9.663"/>
		</g>
		<g>
			<rect x="91.187" y="51.621" fill="#37A5A2" width="8.504" height="8.697"/>
		</g>
		<g opacity="0.9">
			<rect x="91.187" y="74.785" fill="#FFFEF8" width="8.504" height="9.666"/>
		</g>
		<g opacity="0.9">
			<rect x="91.187" y="62.222" fill="#FFFEF8" width="8.504" height="9.665"/>
		</g>
		<g opacity="0.9">
			<rect x="91.187" y="50.624" fill="#FFFEF8" width="8.504" height="8.698"/>
		</g>
		<g>
			<rect x="102.254" y="75.782" fill="#37A5A2" width="8.504" height="9.665"/>
		</g>
		<g>
			<rect x="102.254" y="63.219" fill="#37A5A2" width="8.504" height="9.663"/>
		</g>
		<g>
			<rect x="102.254" y="51.621" fill="#37A5A2" width="8.504" height="8.697"/>
		</g>
		<g opacity="0.9">
			<rect x="102.254" y="74.785" fill="#FFFEF8" width="8.504" height="9.666"/>
		</g>
		<g opacity="0.9">
			<rect x="102.254" y="62.222" fill="#FFFEF8" width="8.504" height="9.665"/>
		</g>
		<g opacity="0.9">
			<rect x="102.254" y="50.624" fill="#FFFEF8" width="8.504" height="8.698"/>
		</g>
		<g>
			<rect x="113.322" y="75.782" fill="#37A5A2" width="8.505" height="9.665"/>
		</g>
		<g>
			<rect x="113.322" y="63.219" fill="#37A5A2" width="8.505" height="9.663"/>
		</g>
		<g>
			<rect x="113.322" y="51.621" fill="#37A5A2" width="8.505" height="8.697"/>
		</g>
		<g opacity="0.9">
			<rect x="113.322" y="74.785" fill="#FFFEF8" width="8.505" height="9.666"/>
		</g>
		<g opacity="0.9">
			<rect x="113.322" y="62.222" fill="#FFFEF8" width="8.505" height="9.665"/>
		</g>
		<g opacity="0.9">
			<rect x="113.322" y="50.624" fill="#FFFEF8" width="8.505" height="8.698"/>
		</g>
		<g>
			<rect x="124.389" y="75.782" fill="#37A5A2" width="8.504" height="9.665"/>
		</g>
		<g>
			<rect x="124.389" y="63.219" fill="#37A5A2" width="8.504" height="9.663"/>
		</g>
		<g>
			<rect x="124.389" y="51.621" fill="#37A5A2" width="8.504" height="8.697"/>
		</g>
		<g opacity="0.9">
			<rect x="124.389" y="74.785" fill="#FFFEF8" width="8.504" height="9.666"/>
		</g>
		<g opacity="0.9">
			<rect x="124.389" y="62.222" fill="#FFFEF8" width="8.504" height="9.665"/>
		</g>
		<g opacity="0.9">
			<rect x="124.389" y="50.624" fill="#FFFEF8" width="8.504" height="8.698"/>
		</g>
		<g>
			<g>
				<polygon fill="#FFFEF8" points="120.088,114.523 125.153,114.523 125.153,95.106 120.088,97.107 				"/>
			</g>
			<g>
				<polygon fill="#FFFEF8" points="103.993,97.107 98.928,95.106 98.928,114.445 103.993,114.445 				"/>
			</g>
		</g>
		<g>
			<polygon fill="#37A5A2" points="138.718,43.158 85.684,43.158 85.684,43.166 85.684,43.244 85.684,45.33 85.687,45.33 
				138.718,45.33 			"/>
		</g>
		<g>
			<polygon fill="#42CCCD" points="138.718,18.521 85.684,18.521 85.684,18.61 85.684,19.493 85.684,43.158 85.687,43.158 
				138.718,43.158 			"/>
		</g>
		<g>
			<path fill="#FFFEF8" d="M94.534,26.69h2.768c1.262,0,2.177,0.18,2.746,0.539c0.57,0.357,0.854,0.93,0.854,1.711
				c0,0.532-0.125,0.968-0.375,1.309c-0.249,0.34-0.58,0.545-0.993,0.614v0.062c0.562,0.125,0.971,0.36,1.22,0.705
				c0.249,0.346,0.374,0.804,0.374,1.375c0,0.812-0.293,1.443-0.879,1.897s-1.382,0.681-2.389,0.681h-3.326V26.69z M96.419,30.212
				h1.095c0.512,0,0.881-0.078,1.11-0.235c0.229-0.158,0.344-0.42,0.344-0.785c0-0.34-0.125-0.585-0.374-0.732
				c-0.25-0.147-0.645-0.223-1.184-0.223h-0.991V30.212z M96.419,31.709v2.317h1.229c0.52,0,0.902-0.101,1.149-0.299
				c0.248-0.197,0.371-0.502,0.371-0.912c0-0.738-0.527-1.106-1.581-1.106H96.419L96.419,31.709z"/>
			<path fill="#FFFEF8" d="M108.971,35.583l-0.646-2.116h-3.242l-0.646,2.116h-2.032l3.14-8.93h2.306l3.151,8.93H108.971z
				 M107.875,31.886c-0.597-1.919-0.933-3.005-1.006-3.256c-0.076-0.251-0.129-0.449-0.162-0.597
				c-0.135,0.521-0.518,1.803-1.149,3.853H107.875z"/>
			<path fill="#FFFEF8" d="M120.633,35.583h-2.396l-3.868-6.727h-0.056c0.078,1.188,0.116,2.035,0.116,2.542v4.185h-1.685V26.69
				h2.378l3.861,6.66h0.043c-0.061-1.155-0.092-1.974-0.092-2.451V26.69h1.697L120.633,35.583L120.633,35.583z"/>
			<path fill="#FFFEF8" d="M130.648,35.583h-2.142l-2.329-3.746l-0.797,0.571v3.175h-1.886V26.69h1.886v4.068l0.742-1.046
				l2.408-3.022h2.093l-3.103,3.936L130.648,35.583z"/>
		</g>
		<polygon fill="#37A5A2" points="120.216,95.994 120.215,95.994 119.088,95.994 104.993,95.994 103.866,95.994 103.866,97.121 
			103.866,114.523 104.993,114.523 119.088,114.523 119.089,114.523 120.215,114.523 120.215,97.121 120.216,97.121 		"/>
	</g>
	<polygon fill="#37A5A2" points="50.561,50.952 85.708,51.621 85.562,59.368 63.561,59.368 53.811,59.368 43.895,58.372 	"/>
	<polygon fill="#40C1BD" points="50.561,50.952 59.78,50.785 85.708,49.117 85.708,58.056 46.229,57.306 	"/>
	<polygon fill="#40C1BD" points="43.954,33.279 41.961,33.808 44.317,43.409 41.897,44.72 43.895,58.372 50.561,50.952 	"/>
	<g>
		<polygon fill="#37A5A2" points="147.979,91.829 145.377,54.186 141.042,59.228 141.042,74.706 141.29,92.006 142.352,95.179 		"/>
		<polygon fill="#40C1BD" points="147.979,91.829 148.98,49.54 138.541,49.288 138.592,59.728 141.788,59.812 145.266,55.412 
			142.1,60.581 142.458,91.829 		"/>
		<polygon fill="#40C1BD" points="147.518,98.803 145.417,98.954 144.551,94.8 142.352,95.179 141.29,92.006 147.975,91.706 		"/>
	</g>
</g>
</svg>
