<?xml version="1.0" encoding="utf-8"?>
<!-- Generator: Adobe Illustrator 16.0.0, SVG Export Plug-In . SVG Version: 6.00 Build 0)  -->
<!DOCTYPE svg PUBLIC "-//W3C//DTD SVG 1.1//EN" "http://www.w3.org/Graphics/SVG/1.1/DTD/svg11.dtd">
<svg version="1.1" id="Layer_1" xmlns="http://www.w3.org/2000/svg" xmlns:xlink="http://www.w3.org/1999/xlink" x="0px" y="0px"
	 width="25.512px" height="25.512px" viewBox="0 0 25.512 25.512" enable-background="new 0 0 25.512 25.512" xml:space="preserve">
<circle fill="#FFFDF6" cx="12.802" cy="12.711" r="11.338"/>
<g>
	<path fill="#E24D42" d="M14.43,7.06l-0.696,7.51h-1.868l-0.693-7.51H14.43z M14.297,16.863c0,0.402-0.146,0.75-0.439,1.049
		c-0.293,0.3-0.646,0.447-1.057,0.447c-0.407,0-0.76-0.147-1.058-0.447c-0.299-0.299-0.447-0.646-0.447-1.049
		c0-0.406,0.148-0.758,0.447-1.057c0.298-0.301,0.651-0.447,1.058-0.447c0.411,0,0.764,0.146,1.057,0.447
		C14.152,16.105,14.297,16.456,14.297,16.863z"/>
</g>
</svg>
