<?xml version="1.0" encoding="utf-8"?>
<!-- Generator: Adobe Illustrator 16.0.0, SVG Export Plug-In . SVG Version: 6.00 Build 0)  -->
<!DOCTYPE svg PUBLIC "-//W3C//DTD SVG 1.1//EN" "http://www.w3.org/Graphics/SVG/1.1/DTD/svg11.dtd">
<svg version="1.1" id="Layer_1" xmlns="http://www.w3.org/2000/svg" xmlns:xlink="http://www.w3.org/1999/xlink" x="0px" y="0px"
	 width="28.347px" height="28.347px" viewBox="0 0 28.347 28.347" enable-background="new 0 0 28.347 28.347" xml:space="preserve">
<path fill-rule="evenodd" clip-rule="evenodd" fill="#FFFFFF" d="M11.53,24.601c0-0.039-0.001-0.08-0.001-0.123
	c0-3.08,0-6.158,0-9.238c0-0.033-0.004-0.064-0.004-0.104c-0.033-0.002-0.061-0.008-0.09-0.008c-0.865,0-1.73,0-2.596,0.002
	c-0.123,0-0.125,0-0.125-0.141c-0.002-0.389,0-0.779,0-1.17c0-0.762-0.002-1.525-0.002-2.285c0-0.047,0.002-0.094,0.008-0.139
	c0.006-0.057,0.014-0.064,0.062-0.066c0.018-0.002,0.036,0,0.053,0c0.865,0,1.73,0,2.596,0c0.098,0,0.098,0,0.098-0.115
	c0.001-1.121,0.001-2.242,0.004-3.365c0-0.078,0.006-0.158,0.012-0.236c0.002-0.049,0.002-0.092,0.041-0.133
	c0.023-0.025,0.023-0.08,0.029-0.123c0.006-0.076-0.002-0.152,0.036-0.223c0.012-0.023,0.005-0.059,0.008-0.088
	c0.002-0.074,0.002-0.148,0.008-0.221c0.002-0.025,0.01-0.062,0.025-0.07c0.046-0.027,0.048-0.078,0.057-0.125
	c0.006-0.033,0.01-0.07,0.016-0.105c0.004-0.012,0.006-0.031,0.014-0.035c0.061-0.023,0.055-0.084,0.057-0.137
	c0.002-0.059,0.014-0.104,0.076-0.105c0.004-0.047,0.004-0.088,0.012-0.129c0.004-0.021,0.014-0.053,0.027-0.059
	c0.041-0.02,0.053-0.061,0.057-0.1c0.002-0.059,0.025-0.096,0.074-0.105c0.027-0.068-0.006-0.166,0.092-0.188
	c0.008-0.051,0.016-0.1,0.066-0.125c0.018-0.01,0.024-0.051,0.034-0.078c0.006-0.016,0.004-0.039,0.014-0.047
	c0.041-0.033,0.07-0.07,0.084-0.129c0.004-0.014,0.037-0.018,0.062-0.029c0.008-0.041,0.021-0.086,0.07-0.094
	c0.004,0,0.006-0.004,0.006-0.004c0.018-0.094,0.105-0.094,0.156-0.146c0.006-0.008,0.014-0.016,0.02-0.023
	c0.035-0.059,0.035-0.059,0.088-0.076c0.008-0.053,0.033-0.094,0.09-0.092c0.012-0.047,0.031-0.076,0.07-0.102
	s0.058-0.086,0.113-0.096c0.018-0.105,0.102-0.076,0.164-0.105c0.01-0.043,0.031-0.078,0.08-0.082c0.01,0,0.021-0.021,0.023-0.035
	c0.008-0.041,0.031-0.053,0.062-0.055c0.037-0.002,0.064-0.014,0.076-0.061c0.002-0.016,0.025-0.029,0.043-0.035
	c0.025-0.01,0.055-0.012,0.084-0.02c0.012-0.002,0.027-0.006,0.031-0.014c0.027-0.062,0.082-0.062,0.127-0.076
	c0.029-0.008,0.049-0.014,0.061-0.049c0.006-0.018,0.029-0.033,0.047-0.037c0.047-0.01,0.098-0.014,0.144-0.016
	C14.015,4.038,14.042,4.038,14.058,4c0.006-0.016,0.025-0.027,0.039-0.031c0.045-0.014,0.09-0.021,0.135-0.029
	c0.031-0.006,0.059-0.012,0.076-0.049c0.01-0.018,0.041-0.027,0.062-0.029c0.074-0.008,0.148-0.01,0.223-0.014
	c0.035-0.004,0.061-0.012,0.086-0.047c0.021-0.025,0.068-0.037,0.104-0.041c0.088-0.01,0.178-0.014,0.268-0.014
	c0.701,0,1.402-0.002,2.104,0c0.222,0,0.442,0.008,0.665,0.014c0.049,0.002,0.1,0.006,0.15,0.018
	c0.019,0.004,0.041,0.016,0.051,0.031c0.02,0.027,0.041,0.031,0.064,0.031c0.049,0.002,0.096,0.004,0.145,0.006
	c0.062,0.002,0.07,0.01,0.074,0.08c0.002,0.045,0.004,0.088,0.004,0.131c0,1.008,0,2.016,0,3.021c0,0.139,0,0.139-0.117,0.139
	c-0.627,0-1.252,0-1.877,0.002c-0.041,0-0.082-0.002-0.123,0.002c-0.043,0.006-0.088,0.01-0.127,0.045
	c-0.027,0.025-0.072,0.027-0.109,0.033c-0.082,0.008-0.164,0.012-0.246,0.016c-0.023,0.004-0.051,0-0.059,0.033
	c-0.01,0.039-0.036,0.047-0.066,0.053c-0.029,0.006-0.061,0.01-0.092,0.016c-0.035,0.006-0.068,0.012-0.088,0.057
	c-0.012,0.023-0.045,0.035-0.078,0.057c-0.008,0.045-0.031,0.086-0.089,0.084c-0.022,0.053-0.041,0.104-0.065,0.148
	c-0.012,0.021-0.037,0.031-0.06,0.049c-0.007,0.035-0.019,0.074-0.026,0.115c-0.004,0.027-0.01,0.053-0.039,0.061
	s-0.029,0.037-0.035,0.064C15,8.104,15.004,8.165,14.948,8.2c-0.011,0.008-0.011,0.043-0.013,0.066
	c-0.008,0.127-0.016,0.252-0.025,0.377c-0.002,0.047-0.005,0.092-0.043,0.123c-0.014,0.012-0.016,0.045-0.016,0.068
	c-0.004,0.086-0.006,0.174-0.006,0.262c0,0.707,0,1.414,0,2.121c-0.002,0.111,0,0.111,0.101,0.111c1.019,0,2.038,0,3.058,0
	c0.121,0,0.127,0,0.125,0.141c0,0.09-0.008,0.18-0.017,0.27c-0.001,0.02-0.007,0.049-0.021,0.057
	c-0.043,0.027-0.041,0.07-0.041,0.113c-0.004,0.207-0.008,0.414-0.014,0.623c-0.002,0.061-0.004,0.125-0.057,0.168
	c-0.012,0.012-0.014,0.039-0.016,0.061c-0.004,0.084-0.006,0.168-0.012,0.254c-0.005,0.066-0.01,0.137-0.014,0.203
	c-0.002,0.039-0.01,0.072-0.037,0.102c-0.016,0.016-0.02,0.053-0.02,0.082c-0.008,0.158-0.012,0.316-0.019,0.475
	c-0.002,0.035-0.007,0.07-0.013,0.105c-0.002,0.016-0.008,0.038-0.018,0.042c-0.047,0.021-0.041,0.07-0.043,0.111
	c-0.006,0.207-0.011,0.414-0.014,0.623c0,0.033-0.006,0.07-0.012,0.105c-0.002,0.012-0.002,0.033-0.01,0.037
	c-0.058,0.031-0.049,0.094-0.058,0.146c-0.009,0.078-0.013,0.082-0.079,0.082c-0.082,0.002-0.164,0-0.246,0
	c-0.812,0-1.625,0-2.438,0c-0.027,0-0.053,0-0.084,0c-0.004,0.031-0.008,0.055-0.008,0.078c0,3.102,0.002,6.203,0.002,9.307
	c0,0.029,0.002,0.059,0.004,0.088C13.744,24.601,12.636,24.601,11.53,24.601z"/>
</svg>
