<?xml version="1.0" encoding="utf-8"?>
<!-- Generator: Adobe Illustrator 16.0.0, SVG Export Plug-In . SVG Version: 6.00 Build 0)  -->
<!DOCTYPE svg PUBLIC "-//W3C//DTD SVG 1.1//EN" "http://www.w3.org/Graphics/SVG/1.1/DTD/svg11.dtd">
<svg version="1.1" id="Layer_1" xmlns="http://www.w3.org/2000/svg" xmlns:xlink="http://www.w3.org/1999/xlink" x="0px" y="0px"
	 width="135.074px" height="35.655px" viewBox="0 0 135.074 35.655" enable-background="new 0 0 135.074 35.655"
	 xml:space="preserve">
<g>
	<g>
		<path fill="none" d="M28.24,3.391c-1.109,1.471-2.229,2.934-3.32,4.4C26.011,6.324,27.13,4.861,28.24,3.391z"/>
		<path fill="none" d="M27.703,14.26c-0.199-0.557-0.887-1.857-0.959-1.969c-0.426-0.695-0.924-1.301-1.479-1.857
			c-0.439-0.445-0.928-0.822-1.43-1.172c-0.744-0.523-1.539-0.965-2.385-1.275c-1.145-0.426-2.35-0.646-3.574-0.65l0.018-3.668
			l-0.018,3.668c-1.092-0.008-2.186,0.111-3.256,0.459c-0.4,0.127-0.785,0.328-1.174,0.506c-0.271,0.123-1.641,0.922-2.027,1.221
			c-0.242,0.189-0.492,0.365-0.717,0.576c-0.086,0.082-0.164,0.176-0.252,0.262c-0.48,0.479-0.91,0.99-1.287,1.543
			c-0.762,1.121-1.293,2.361-1.582,3.67c-0.26,1.188-0.336,2.416-0.174,3.64c0.105,0.777,0.318,1.543,0.604,2.299
			c0.109,0.285,0.236,0.564,0.369,0.838c0.08,0.162,0.133,0.33,0.221,0.488c0.033,0.059,0.043,0.123,0.076,0.178
			c0.756,1.326,1.766,2.414,2.916,3.26c1.275,0.936,2.73,1.535,4.264,1.83c1.459,0.283,2.967,0.25,4.449-0.111
			c0.928-0.227,1.846-0.539,2.723-1.033h0.004c0.639-0.369,1.225-0.795,1.764-1.264c0.473-0.42,0.9-0.887,1.287-1.371
			c0.957-1.217,1.607-2.619,1.957-4.104v-0.004c0.279-1.186,0.383-2.414,0.236-3.642c-0.018-0.182-0.051-0.355-0.088-0.539
			C28.091,15.441,27.916,14.846,27.703,14.26z"/>
		<path fill="#C22E30" d="M10.451,10.359c0.088-0.086,0.166-0.18,0.252-0.262L5.746,4.721C5.55,4.9,5.482,4.961,5.294,5.146
			C4.521,5.92,3.726,6.869,3.111,7.773l6.053,4.129C9.541,11.35,9.97,10.838,10.451,10.359z"/>
		<path fill="#F4B62A" d="M9.164,11.902L3.111,7.773C1.72,9.814,0.947,11.6,0.427,14.01l0,0l7.154,1.562
			C7.871,14.264,8.402,13.023,9.164,11.902z"/>
		<path fill="#E95D2E" d="M7.582,15.572L0.427,14.01H0.423c-0.467,2.146-0.545,4.012-0.246,6.183l7.23-0.98
			C7.246,17.988,7.322,16.76,7.582,15.572z"/>
		<path fill="#C22E30" d="M7.408,19.212l-7.23,0.98H0.173c0.182,1.35,0.506,2.627,0.99,3.91l6.848-2.592
			C7.726,20.755,7.513,19.99,7.408,19.212z"/>
		<path fill="#ED5E2C" d="M8.011,21.511l-6.848,2.592c0.191,0.498,0.381,0.936,0.611,1.424l6.605-3.178
			C8.248,22.076,8.121,21.796,8.011,21.511z"/>
		<path fill="#C22E30" d="M8.38,22.349l-6.605,3.178c0.156,0.312,0.311,0.623,0.48,0.92c2.092-1.188,4.115-2.34,6.346-3.609
			C8.513,22.679,8.46,22.511,8.38,22.349z"/>
		<path fill="#F4B62A" d="M8.677,23.015c-0.033-0.055-0.043-0.119-0.076-0.178c-2.23,1.27-4.254,2.422-6.346,3.609
			c1.25,2.283,2.877,4.127,5.023,5.707l4.314-5.879C10.443,25.429,9.433,24.341,8.677,23.015z"/>
		<path fill="#C22E30" d="M11.593,26.275l-4.314,5.879h0.002c2.158,1.582,4.449,2.631,6.846,3.137
			c0.574-2.396,1.152-4.789,1.73-7.186C14.324,27.81,12.869,27.21,11.593,26.275z"/>
		<path fill="#F4B62A" d="M15.857,28.105c-0.578,2.396-1.156,4.789-1.73,7.186c2.525,0.537,5.174,0.484,7.912-0.189l-1.732-7.107
			C18.824,28.355,17.316,28.388,15.857,28.105z"/>
		<path fill="#C22E30" d="M23.033,26.96c1.193,2.1,2.385,4.199,3.6,6.338c1.066-0.6,2.066-1.309,2.992-2.139
			c-1.611-1.824-3.217-3.643-4.828-5.463C24.257,26.166,23.671,26.591,23.033,26.96z"/>
		<path fill="#E95D2E" d="M23.029,26.96c-0.877,0.494-1.795,0.807-2.723,1.033l1.732,7.107c1.666-0.404,3.191-1.012,4.594-1.803
			c-1.215-2.139-2.406-4.238-3.6-6.338H23.029z"/>
		<path fill="#F4B62A" d="M24.796,25.697c1.611,1.82,3.217,3.639,4.828,5.463c0.77-0.693,1.492-1.461,2.168-2.32l-5.709-4.514
			C25.697,24.81,25.269,25.277,24.796,25.697z"/>
		<path fill="#C22E30" d="M26.083,24.326l5.709,4.514c1.701-2.152,2.725-4.271,3.357-6.938l-7.109-1.68
			C27.691,21.707,27.041,23.109,26.083,24.326z"/>
		<path fill="#F4B62A" d="M35.503,15.723l-7.227,0.854c0.146,1.229,0.043,2.457-0.236,3.642l7.105,1.68l0.004,0.004
			C35.648,19.763,35.757,17.91,35.503,15.723z"/>
		<polygon fill="#8F9292" points="28.041,20.218 28.041,20.222 35.15,21.902 35.146,21.898 		"/>
		<path fill="#C22E30" d="M28.277,16.576l7.227-0.854c-0.033-0.256-0.09-0.656-0.135-0.918l-7.18,1.232
			C28.226,16.221,28.259,16.395,28.277,16.576z"/>
		<path fill="#ED5E2C" d="M28.189,16.037l7.18-1.232c-0.184-1.076-0.422-1.973-0.791-3.002l-6.875,2.457
			C27.916,14.846,28.091,15.441,28.189,16.037z"/>
		<path fill="#F4B62A" d="M27.703,14.26l6.875-2.457c-0.455-1.287-0.893-2.191-1.607-3.354l-6.227,3.842
			C26.816,12.402,27.503,13.703,27.703,14.26z"/>
		<path fill="#ED5E2C" d="M26.744,12.291l6.227-3.842c-0.719-1.164-1.539-2.186-2.5-3.162l-5.205,5.146
			C25.82,10.99,26.318,11.596,26.744,12.291z"/>
		<path fill="#C22E30" d="M23.835,9.262c0.502,0.35,0.99,0.727,1.43,1.172l5.205-5.146c-0.727-0.73-1.463-1.336-2.23-1.896
			c-1.109,1.471-2.229,2.934-3.32,4.4C24.554,8.283,24.193,8.77,23.835,9.262z"/>
		<path fill="#ED5E2C" d="M23.835,9.262c0.357-0.492,0.719-0.979,1.084-1.471c1.092-1.467,2.211-2.93,3.32-4.4
			c-1.279-0.934-2.631-1.688-4.242-2.283l-2.547,6.879C22.296,8.297,23.091,8.738,23.835,9.262z"/>
		<path fill="#F4B62A" d="M17.894,3.668l-0.018,3.668c1.225,0.004,2.43,0.225,3.574,0.65l2.547-6.879
			C21.939,0.344,20.103,0.012,17.912,0l0,0l0,0L17.894,3.668z"/>
		<path fill="#E95D2E" d="M17.876,7.336l0.018-3.668L17.912,0l0,0c-1.918-0.008-3.682,0.258-5.506,0.842l2.215,6.953
			C15.691,7.447,16.785,7.328,17.876,7.336z"/>
		<path fill="#C22E30" d="M14.621,7.795l-2.215-6.953c-0.777,0.254-1.283,0.449-2.027,0.785l3.068,6.674
			C13.835,8.123,14.22,7.922,14.621,7.795z"/>
		<path fill="#F4B62A" d="M13.447,8.301l-3.068-6.674c-1.242,0.574-2.371,1.25-3.447,2.088l4.488,5.807
			C11.806,9.223,13.175,8.424,13.447,8.301z"/>
		<path fill="#E95D2E" d="M11.419,9.521L6.931,3.715c-0.43,0.33-0.791,0.641-1.186,1.006l4.957,5.377
			C10.927,9.887,11.177,9.711,11.419,9.521z"/>
	</g>
	<g>
		<g>
			<g>
				<path fill="#C22E30" d="M41.05,26.097c-0.65,0-1.1-0.072-1.514-0.145v-2.018c0.289,0.109,0.686,0.178,1.115,0.178
					c0.85,0,1.334-0.361,1.334-1.674V10.205h2.346v12.322C44.332,24.529,43.517,26.097,41.05,26.097z"/>
				<path fill="#C22E30" d="M52.996,22.386c0-0.416,0.018-1.102,0.105-1.605l-0.037-0.018c-0.523,1.062-1.564,1.803-3.023,1.803
					c-2.035,0-2.686-1.301-2.686-2.865v-4.523c-0.434-0.072-1.029-0.145-1.549-0.178v-1.441c1.188-0.145,2.611-0.199,3.855-0.162
					v5.746c0,0.936,0.252,1.494,1.098,1.494c1.17,0,2.088-1.332,2.088-2.9v-4.322h2.291v7.187c0.436,0.072,1.045,0.145,1.568,0.18
					v1.441C55.574,22.369,54.185,22.421,52.996,22.386z"/>
				<path fill="#C22E30" d="M69.513,22.369v-5.677c0-0.955-0.213-1.551-1.062-1.551c-1.008,0-2.053,1.189-2.053,2.939v4.289h-2.27
					v-5.677c0-0.881-0.18-1.551-1.064-1.551c-1.062,0-2.053,1.262-2.053,2.939v4.289H58.72v-7.191
					c-0.43-0.072-1.041-0.145-1.564-0.178v-1.441c1.135-0.145,2.539-0.199,3.729-0.162c0,0.43-0.035,1.098-0.107,1.623h0.018
					c0.541-1.104,1.623-1.805,2.955-1.805c1.582,0,2.252,0.936,2.469,1.805c0.414-0.887,1.404-1.805,2.916-1.805
					c1.734,0,2.688,0.955,2.688,2.992v6.162H69.513z"/>
				<path fill="#C22E30" d="M73.332,15v-1.441c1.135-0.145,2.506-0.199,3.695-0.162c0,0.447-0.02,1.043-0.092,1.51h0.037
					c0.502-1.045,1.459-1.672,2.811-1.672c2.125,0,3.277,1.527,3.277,4.18c0,3.115-1.619,5.076-4.719,5.076
					c-0.434,0-0.777-0.018-1.152-0.068v4.285h-2.291V15.178C74.466,15.105,73.853,15.033,73.332,15z M79.115,15.123
					c-1.207,0-1.926,1.406-1.926,2.938v2.486c0.357,0.107,0.736,0.162,1.207,0.162c1.314,0,2.25-0.826,2.25-3.046
					C80.646,15.986,80.16,15.123,79.115,15.123z"/>
				<path fill="#C22E30" d="M87.22,22.566c-0.863,0-1.729-0.094-2.482-0.289l0.141-2.182c0.686,0.238,1.658,0.434,2.543,0.434
					c1.186,0,2.107-0.488,2.107-1.604c0-2.324-5.102-1.263-5.102-5.259c0-2.164,1.711-3.66,4.631-3.66
					c0.688,0,1.479,0.092,2.197,0.217l-0.123,2.053c-0.686-0.193-1.441-0.32-2.178-0.32c-1.355,0-2.039,0.609-2.039,1.475
					c0,2.182,5.117,1.369,5.117,5.173C92.033,20.886,90.21,22.566,87.22,22.566z"/>
				<path fill="#C22E30" d="M97.023,22.548c-1.984,0-2.594-0.723-2.594-2.811v-4.542h-1.551v-1.781h1.531v-2.758l2.307-0.613v3.371
					h2.178v1.781h-2.178v3.927c0,1.156,0.271,1.479,1.062,1.479c0.379,0,0.791-0.055,1.115-0.145v1.857
					C98.32,22.458,97.652,22.548,97.023,22.548z"/>
				<path fill="#C22E30" d="M105.562,22.386c0-0.521,0.018-1.066,0.086-1.533l-0.014-0.018c-0.434,1.008-1.533,1.713-2.865,1.713
					c-1.623,0-2.559-0.922-2.559-2.359c0-2.146,2.127-3.281,5.17-3.281V16.42c0-0.936-0.451-1.42-1.748-1.42
					c-0.811,0-1.891,0.268-2.648,0.697l-0.195-1.922c0.898-0.33,2.053-0.561,3.205-0.561c2.883,0,3.693,1.15,3.693,3.115v4.271
					c0.434,0.072,1.047,0.145,1.568,0.18v1.441C108.121,22.369,106.732,22.421,105.562,22.386z M105.38,18.404
					c-2.432,0-2.973,0.701-2.973,1.423c0,0.574,0.396,0.953,1.064,0.953c1.135,0,1.908-1.08,1.908-2.164V18.404z"/>
				<path fill="#C22E30" d="M113.121,15.215h0.037c0.434-1.137,1.301-2.127,2.848-2l-0.109,2.27
					c-1.658-0.344-2.482,0.74-2.482,3.226v3.658h-2.291v-7.191c-0.434-0.072-1.045-0.145-1.568-0.178v-1.441
					c1.135-0.145,2.525-0.199,3.73-0.162C113.285,13.861,113.23,14.584,113.121,15.215z"/>
				<path fill="#C22E30" d="M120.947,22.548c-1.979,0-2.59-0.723-2.59-2.811v-4.542h-1.553v-1.781h1.535v-2.758l2.305-0.613v3.371
					h2.18v1.781h-2.18v3.927c0,1.156,0.271,1.479,1.062,1.479c0.379,0,0.791-0.055,1.117-0.145v1.857
					C122.248,22.458,121.58,22.548,120.947,22.548z"/>
			</g>
		</g>
		<path fill="#C22E30" d="M129.519,9.977c-0.531-0.205-1.139-0.332-1.756-0.332c-1.309,0-2.248,0.824-2.248,2.305
			c0,1.402,0.766,2.23,2.111,2.23c0.311,0,0.588-0.043,0.842-0.119v-2.305h1.275v3.158c-0.658,0.264-1.471,0.41-2.266,0.41
			c-2.1,0-3.348-1.234-3.348-3.254c0-2.082,1.414-3.566,3.713-3.566c0.652,0,1.303,0.123,1.871,0.289L129.519,9.977z"/>
		<path fill="#C22E30" d="M135.033,12.988h-3.02c-0.012,0.918,0.439,1.357,1.344,1.357c0.48,0,1-0.107,1.424-0.307l0.115,0.973
			c-0.521,0.205-1.135,0.312-1.746,0.312c-1.549,0-2.414-0.775-2.414-2.492c0-1.492,0.824-2.588,2.287-2.588
			c1.422,0,2.051,0.969,2.051,2.176C135.074,12.586,135.062,12.785,135.033,12.988z M132.984,11.162
			c-0.52,0-0.881,0.387-0.951,0.973h1.793C133.845,11.527,133.511,11.162,132.984,11.162z"/>
	</g>
</g>
</svg>
