<?xml version="1.0" encoding="utf-8"?>
<!-- Generator: Adobe Illustrator 16.0.0, SVG Export Plug-In . SVG Version: 6.00 Build 0)  -->
<!DOCTYPE svg PUBLIC "-//W3C//DTD SVG 1.1//EN" "http://www.w3.org/Graphics/SVG/1.1/DTD/svg11.dtd">
<svg version="1.1" id="Layer_1" xmlns="http://www.w3.org/2000/svg" xmlns:xlink="http://www.w3.org/1999/xlink" x="0px" y="0px"
	 width="85.787px" height="16.346px" viewBox="49.287 10.362 85.787 16.346" enable-background="new 49.287 10.362 85.787 16.346"
	 xml:space="preserve">
<g>
	<g>
		<g>
			<g>
				<path fill="#C22E30" d="M50.646,26.159c-0.583,0-0.987-0.065-1.359-0.13v-1.812c0.26,0.099,0.616,0.159,1.001,0.159
					c0.763,0,1.197-0.323,1.197-1.502V11.889h2.107v11.064C53.594,24.751,52.862,26.159,50.646,26.159z"/>
				<path fill="#C22E30" d="M61.374,22.827c0-0.374,0.016-0.989,0.094-1.441l-0.033-0.017c-0.47,0.955-1.404,1.619-2.714,1.619
					c-1.828,0-2.412-1.168-2.412-2.572v-4.062c-0.39-0.064-0.924-0.13-1.391-0.16v-1.294c1.067-0.13,2.344-0.179,3.462-0.146v5.16
					c0,0.841,0.226,1.341,0.985,1.341c1.05,0,1.875-1.195,1.875-2.604v-3.881h2.056v6.454c0.392,0.063,0.938,0.13,1.408,0.161v1.294
					C63.688,22.812,62.441,22.86,61.374,22.827z"/>
				<path fill="#C22E30" d="M76.205,22.812v-5.098c0-0.857-0.192-1.393-0.953-1.393c-0.906,0-1.845,1.068-1.845,2.64v3.851h-2.038
					v-5.098c0-0.791-0.161-1.393-0.955-1.393c-0.954,0-1.843,1.133-1.843,2.64v3.851h-2.058v-6.457
					c-0.387-0.064-0.936-0.13-1.405-0.16v-1.294c1.02-0.13,2.281-0.179,3.349-0.146c0,0.387-0.031,0.987-0.097,1.458h0.018
					c0.485-0.991,1.457-1.62,2.653-1.62c1.42,0,2.021,0.84,2.216,1.62c0.372-0.796,1.262-1.62,2.619-1.62
					c1.558,0,2.413,0.857,2.413,2.687v5.532H76.205z"/>
				<path fill="#C22E30" d="M79.634,16.195v-1.294c1.02-0.13,2.25-0.179,3.318-0.146c0,0.401-0.019,0.937-0.082,1.356h0.032
					c0.451-0.939,1.311-1.501,2.524-1.501c1.908,0,2.942,1.372,2.942,3.754c0,2.796-1.454,4.558-4.237,4.558
					c-0.39,0-0.697-0.017-1.035-0.062v3.848h-2.056V16.355C80.652,16.289,80.103,16.225,79.634,16.195z M84.827,16.305
					c-1.084,0-1.73,1.262-1.73,2.638v2.232c0.32,0.096,0.661,0.146,1.084,0.146c1.18,0,2.021-0.742,2.021-2.735
					C86.202,17.08,85.766,16.305,84.827,16.305z"/>
				<path fill="#C22E30" d="M92.105,22.989c-0.775,0-1.554-0.085-2.229-0.26l0.126-1.959c0.616,0.215,1.489,0.39,2.284,0.39
					c1.064,0,1.892-0.438,1.892-1.44c0-2.086-4.58-1.134-4.58-4.721c0-1.943,1.536-3.287,4.157-3.287
					c0.617,0,1.328,0.083,1.972,0.195l-0.109,1.843c-0.617-0.173-1.294-0.287-1.956-0.287c-1.216,0-1.83,0.547-1.83,1.325
					c0,1.958,4.595,1.229,4.595,4.645C96.427,21.481,94.79,22.989,92.105,22.989z"/>
				<path fill="#C22E30" d="M100.907,22.972c-1.781,0-2.329-0.647-2.329-2.523V16.37h-1.394v-1.599h1.375v-2.477l2.071-0.55v3.027
					h1.956v1.599h-1.956v3.527c0,1.037,0.242,1.328,0.954,1.328c0.34,0,0.71-0.05,1.001-0.131v1.667
					C102.071,22.892,101.472,22.972,100.907,22.972z"/>
				<path fill="#C22E30" d="M108.575,22.827c0-0.469,0.016-0.958,0.076-1.377l-0.013-0.016c-0.39,0.904-1.376,1.537-2.572,1.537
					c-1.457,0-2.299-0.827-2.299-2.118c0-1.926,1.91-2.945,4.643-2.945V17.47c0-0.841-0.403-1.275-1.569-1.275
					c-0.729,0-1.697,0.24-2.377,0.625l-0.176-1.725c0.807-0.296,1.844-0.503,2.878-0.503c2.589,0,3.316,1.032,3.316,2.797v3.835
					c0.39,0.064,0.939,0.13,1.407,0.161v1.294C110.872,22.812,109.625,22.86,108.575,22.827z M108.41,19.251
					c-2.184,0-2.669,0.63-2.669,1.278c0,0.515,0.355,0.855,0.955,0.855c1.019,0,1.713-0.97,1.713-1.942L108.41,19.251L108.41,19.251
					z"/>
				<path fill="#C22E30" d="M115.362,16.388h0.033c0.389-1.021,1.168-1.91,2.557-1.796l-0.098,2.038
					c-1.489-0.309-2.229,0.665-2.229,2.897v3.284h-2.058v-6.457c-0.39-0.064-0.938-0.13-1.407-0.16v-1.294
					c1.019-0.13,2.267-0.179,3.349-0.146C115.51,15.172,115.46,15.822,115.362,16.388z"/>
				<path fill="#C22E30" d="M122.389,22.972c-1.776,0-2.325-0.647-2.325-2.523V16.37h-1.395v-1.599h1.378v-2.477l2.07-0.55v3.027
					h1.957v1.599h-1.957v3.527c0,1.037,0.243,1.328,0.954,1.328c0.339,0,0.71-0.05,1.001-0.131v1.667
					C123.557,22.892,122.958,22.972,122.389,22.972z"/>
			</g>
		</g>
		<path fill="#C22E30" d="M130.087,11.684c-0.478-0.184-1.023-0.298-1.577-0.298c-1.176,0-2.019,0.74-2.019,2.07
			c0,1.258,0.688,2.002,1.895,2.002c0.28,0,0.527-0.039,0.756-0.107v-2.069h1.146v2.836c-0.592,0.236-1.322,0.368-2.036,0.368
			c-1.885,0-3.006-1.109-3.006-2.923c0-1.87,1.27-3.202,3.334-3.202c0.586,0,1.17,0.111,1.68,0.26L130.087,11.684z"/>
		<path fill="#C22E30" d="M135.038,14.388h-2.712c-0.012,0.824,0.394,1.219,1.206,1.219c0.431,0,0.898-0.097,1.279-0.275
			l0.104,0.874c-0.469,0.184-1.02,0.28-1.568,0.28c-1.391,0-2.167-0.695-2.167-2.237c0-1.34,0.739-2.324,2.053-2.324
			c1.277,0,1.842,0.87,1.842,1.954C135.074,14.028,135.063,14.206,135.038,14.388z M133.197,12.749c-0.467,0-0.79,0.347-0.854,0.873
			h1.609C133.972,13.076,133.671,12.749,133.197,12.749z"/>
	</g>
</g>
</svg>
