<?xml version="1.0" encoding="utf-8"?>
<!-- Generator: Adobe Illustrator 16.0.0, SVG Export Plug-In . SVG Version: 6.00 Build 0)  -->
<!DOCTYPE svg PUBLIC "-//W3C//DTD SVG 1.1//EN" "http://www.w3.org/Graphics/SVG/1.1/DTD/svg11.dtd">
<svg version="1.1" id="Layer_1" xmlns="http://www.w3.org/2000/svg" xmlns:xlink="http://www.w3.org/1999/xlink" x="0px" y="0px"
	 width="84.096px" height="63.065px" viewBox="12.731 83.288 84.096 63.065" enable-background="new 12.731 83.288 84.096 63.065"
	 xml:space="preserve">
<g>
	<path fill="#42CCCD" d="M95.649,107.711c-1.921-2.039-4.56-3.12-7.08-2.88c-1.319,0.121-2.28,0.359-3.119,0.601
		c-1.08-0.241-2.161-0.718-3.48-0.601c-0.602,0-2.76,0.359-4.92,1.08c-4.2-10.918-15.72-18.72-29.518-18.72
		c-4.44,0-8.643,0.84-12.361,2.28c-4.079-2.038-12.36-6.12-12.36-6.12c-0.6-0.241-1.199,0.241-1.079,0.961l3.721,11.161
		c-2.882,2.639-5.279,5.76-6.841,9.24l-0.722,0.718c-0.238,0.24-0.599,0.479-0.959,0.603l-1.199,0.355l-1.081,0.242
		c-0.6,0.119-1.197,0.48-1.56,0.959c-0.239,0.242-0.359,0.602-0.359,0.96v12.239c0,0.48,0.12,0.842,0.48,1.201
		c0.357,0.36,0.839,0.6,1.32,0.842l1.559,0.357c0.481,0.122,0.96,0.361,1.321,0.6l0.959,0.602c1.92,4.8,5.4,8.881,9.72,12.001
		l1.319,8.28c0.121,0.357,0.241,0.838,0.602,1.076c0.359,0.363,0.84,0.604,1.318,0.604h6.84c0.359,0,0.841-0.125,1.2-0.361
		c0.36-0.243,0.722-0.603,0.722-1.081l0.719-3.122c2.16,0.482,4.44,0.603,6.722,0.603c2.639,0,5.158-0.24,7.679-0.84l0.719,3.359
		c0.119,0.479,0.36,0.838,0.721,1.081c0.359,0.236,0.719,0.361,1.2,0.361h6.839c0.48,0,0.961-0.241,1.319-0.604
		c0.24-0.238,0.481-0.719,0.603-1.076l1.438-9.002c6.481-5.041,10.561-12.358,10.561-20.639c0-1.799-0.239-3.6-0.601-5.279
		c1.321-0.602,2.4-1.082,3.72-1.441c0,0,0.601-0.119,0.36,0c-2.039,2.521-2.158,6.721,0.12,8.879c0.961,0.961,2.161,1.32,3.48,1.32
		s2.64-0.478,3.6-1.56c1.561-1.679,2.521-5.519,0.479-8.042c-0.239-0.358-0.838-0.959-0.838-0.959
		c2.159-0.838,6.598,2.161,6.959,2.161C97.447,109.991,96.851,108.909,95.649,107.711z M87.368,114.554
		c-0.839,0.837-2.158,0.959-2.998,0.119c-1.2-1.082-1.081-3.841,0.12-5.041l0.24-0.239c0.239-0.36,0.599-0.6,0.959-0.842
		c0.72,0.358,1.319,0.842,2.039,1.8C88.689,111.554,88.089,113.833,87.368,114.554z"/>
	<g>
		<path fill="#37A5A2" d="M26.812,106.462c0-1.32,1.079-2.4,2.4-2.4c0.254,0,0.495,0.051,0.724,0.122
			c-0.387-0.269-0.858-0.431-1.364-0.431c-1.321,0-2.402,1.078-2.402,2.398c0,1.064,0.71,1.964,1.675,2.275
			C27.223,107.991,26.812,107.273,26.812,106.462z"/>
		<path opacity="0.5" fill="#FFFEF8" d="M30.971,106.152c0-0.812-0.412-1.531-1.034-1.968c-0.229-0.071-0.47-0.122-0.724-0.122
			c-1.321,0-2.4,1.08-2.4,2.4c0,0.811,0.41,1.529,1.032,1.965c0.231,0.074,0.472,0.124,0.728,0.124
			C29.891,108.551,30.971,107.474,30.971,106.152z"/>
		<path opacity="0.6" fill="#FFFEF8" d="M30.971,106.152c0-0.812-0.412-1.531-1.034-1.968c-0.229-0.071-0.47-0.122-0.724-0.122
			c-1.321,0-2.4,1.08-2.4,2.4c0,0.811,0.41,1.529,1.032,1.965c0.231,0.074,0.472,0.124,0.728,0.124
			C29.891,108.551,30.971,107.474,30.971,106.152z"/>
	</g>
	<g>
		<path fill="#37A5A2" d="M35.151,96.678v-0.171c0-0.143-0.197-1.412,1.001-1.713c0.174,0,5.393-1.912,12.351-1.912
			c7.479,0,12.559,2.559,12.559,2.559c0.039,0.008,0.066-0.015,0.095-0.032c-0.107-0.37-0.282-0.687-0.505-0.919
			c-0.176-0.184-0.369-0.328-0.592-0.387c0,0-4.871-1.914-12.35-1.914c-6.958,0-12.176,1.914-12.349,1.914
			c-0.696,0.175-1.219,1.048-1.219,2.09v0.173c0.159,1.115,0.903,1.784,1.561,1.622c0.061-0.017,0.123-0.025,0.179-0.057
			c0.127-0.062,0.292-0.143,0.489-0.229C35.774,97.56,35.233,97.253,35.151,96.678z"/>
		<path opacity="0.5" fill="#FFFEF8" d="M37.691,97.775c0.063-0.007,0.132-0.015,0.182-0.027
			C37.921,97.735,38.009,97.651,37.691,97.775z"/>
		<path opacity="0.6" fill="#FFFEF8" d="M59.363,97.76c1.045,0.345,1.739-0.35,1.739-1.567c0,0,0-0.176,0.173,0
			c0-0.283-0.049-0.543-0.119-0.784c-0.028,0.018-0.056,0.04-0.095,0.032c0,0-5.08-2.559-12.559-2.559
			c-6.958,0-12.177,1.912-12.351,1.912c-1.198,0.301-1.001,1.57-1.001,1.713v0.171c0.082,0.575,0.623,0.882,1.22,1.024
			c1.449-0.646,4.891-1.856,11.164-1.856C55.362,95.846,58.319,97.236,59.363,97.76z"/>
	</g>
	<path fill="#F88236" d="M44.067,121.523c-1.09-1.107-1.637-2.713-1.637-4.816c0-2.114,0.475-3.781,1.421-5.002
		c0.39-0.508,0.839-0.905,1.343-1.202v6.338h1.636v-6.905c0.267-0.043,0.542-0.068,0.829-0.068c0.328,0,0.64,0.033,0.939,0.083
		v6.891h1.637v-6.272c0.456,0.287,0.864,0.667,1.226,1.137c0.937,1.221,1.406,2.888,1.406,5.002h2.325
		c0-2.652-0.686-4.76-2.059-6.324c-0.808-0.926-1.774-1.568-2.898-1.945v-1.773h-1.637v1.419c-0.306-0.032-0.616-0.054-0.939-0.054
		c-0.282,0-0.558,0.014-0.829,0.039v-1.404h-1.636v1.727c-1.182,0.374-2.193,1.036-3.03,1.992c-1.372,1.564-2.058,3.672-2.058,6.324
		c0,2.641,0.797,4.697,2.39,6.174c0.103,0.092,0.206,0.172,0.312,0.262h-1.946v1.9h12.507v-1.9h-6.181
		C46.031,122.996,44.992,122.462,44.067,121.523z"/>
	<g>
		<path fill="#37A5A2" d="M40.811,141.789c-6.454-0.969-10.92-4.039-12.72-5.396c0.075,0.636,0.375,1.642,0.375,2.349
			c2.448,1.693,6.057,3.857,11.954,4.744L40.811,141.789z"/>
	</g>
	<g>
		<path fill="#37A5A2" d="M68.049,135.671l-0.496,0.406c-4.948,4.158-10.081,5.008-12.342,5.475c0.09,0.578,0.25,1.164,0.365,1.703
			c1.72-0.305,6.75-1.32,12.083-5.144C67.812,137.159,68.049,136.591,68.049,135.671z"/>
	</g>
	<polygon fill="#37A5A2" points="79.417,109.128 77.273,106.555 78.009,109.753 	"/>
	<path fill="#37A5A2" d="M81.73,108.888c1.542-0.781,3.469,0.03,3.469,0.03l0.49-0.367c0,0-1.977-0.898-3.533-0.365
		C81.928,108.264,81.73,108.888,81.73,108.888z"/>
	<path fill="#37A5A2" d="M85.481,105.403l3.501,2.529l0.823-0.167c0,0-1.729-1.21-4.205-2.275
		C85.317,105.368,85.481,105.403,85.481,105.403z"/>
</g>
</svg>
