<?xml version="1.0" encoding="utf-8"?>
<!-- Generator: Adobe Illustrator 16.0.0, SVG Export Plug-In . SVG Version: 6.00 Build 0)  -->
<!DOCTYPE svg PUBLIC "-//W3C//DTD SVG 1.1//EN" "http://www.w3.org/Graphics/SVG/1.1/DTD/svg11.dtd">
<svg version="1.1" id="Layer_1" xmlns="http://www.w3.org/2000/svg" xmlns:xlink="http://www.w3.org/1999/xlink" x="0px" y="0px"
	 width="28.347px" height="28.347px" viewBox="0 0 28.347 28.347" enable-background="new 0 0 28.347 28.347" xml:space="preserve">
<path fill-rule="evenodd" clip-rule="evenodd" fill="#FFFDF6" d="M6.224,14.159c0.008-2.198,2.297-3.602,4.168-2.538
	c0.311,0.174,0.525,0.15,0.816,0c1.516-0.795,3.043-1.564,4.561-2.357c0.111-0.057,0.234-0.221,0.244-0.344
	c0.117-1.596,1.326-2.783,2.852-2.781c1.537,0.004,2.814,1.264,2.83,2.83c0.012,1.117-0.451,1.996-1.367,2.557
	c-0.98,0.598-2.002,0.607-2.959-0.031c-0.357-0.24-0.602-0.219-0.943-0.037c-1.434,0.76-2.881,1.494-4.316,2.248
	c-0.096,0.051-0.234,0.205-0.217,0.273c0.061,0.243-0.174,0.542,0.195,0.731c1.533,0.783,3.055,1.592,4.574,2.404
	c0.191,0.102,0.299,0.029,0.439-0.082c1.361-1.061,3.252-0.738,4.148,0.725c0.568,0.93,0.617,1.914,0.121,2.895
	c-0.49,0.973-1.289,1.508-2.328,1.553c-1.678,0.078-2.863-1.047-3.027-2.787c-0.01-0.104-0.094-0.242-0.18-0.287
	c-1.654-0.84-3.311-1.672-4.977-2.488c-0.107-0.053-0.297,0.006-0.418,0.07c-1.385,0.758-3.082,0.301-3.826-1.092
	c-0.232-0.434-0.324-0.949-0.48-1.428C6.164,14.181,6.195,14.169,6.224,14.159z"/>
</svg>
