<?xml version="1.0" encoding="utf-8"?>
<!-- Generator: Adobe Illustrator 16.0.0, SVG Export Plug-In . SVG Version: 6.00 Build 0)  -->
<!DOCTYPE svg PUBLIC "-//W3C//DTD SVG 1.1//EN" "http://www.w3.org/Graphics/SVG/1.1/DTD/svg11.dtd">
<svg version="1.1" id="Layer_1" xmlns="http://www.w3.org/2000/svg" xmlns:xlink="http://www.w3.org/1999/xlink" x="0px" y="0px"
	 width="70.209px" height="52.647px" viewBox="0 0 70.209 52.647" enable-background="new 0 0 70.209 52.647" xml:space="preserve">
<g>
	<path fill="#F9A235" d="M69.226,20.389c-1.604-1.703-3.807-2.604-5.911-2.404c-1.102,0.1-1.903,0.3-2.604,0.5
		c-0.901-0.2-1.803-0.601-2.905-0.5c-0.501,0-2.304,0.3-4.107,0.902C50.19,9.77,40.573,3.258,29.053,3.258
		c-3.707,0-7.213,0.702-10.319,1.904C15.328,3.458,8.415,0.052,8.415,0.052c-0.501-0.201-1.002,0.2-0.901,0.801l3.105,9.317
		c-2.405,2.204-4.407,4.809-5.711,7.714l-0.601,0.601c-0.2,0.201-0.501,0.401-0.802,0.501l-1.001,0.3l-0.902,0.201
		c-0.501,0.1-1.001,0.4-1.302,0.801C0.101,20.489,0,20.79,0,21.09V31.31c0,0.4,0.101,0.701,0.401,1.001
		c0.3,0.301,0.701,0.501,1.102,0.702l1.302,0.3c0.401,0.101,0.802,0.3,1.103,0.501l0.801,0.501
		c1.603,4.007,4.508,7.413,8.115,10.019l1.102,6.912c0.101,0.301,0.201,0.701,0.501,0.901c0.3,0.3,0.702,0.501,1.101,0.501h5.711
		c0.3,0,0.701-0.101,1.001-0.301c0.301-0.2,0.602-0.5,0.602-0.9l0.601-2.605c1.803,0.4,3.707,0.501,5.61,0.501
		c2.204,0,4.308-0.2,6.412-0.702l0.601,2.807c0.1,0.4,0.3,0.7,0.601,0.9c0.301,0.2,0.601,0.301,1.003,0.301h5.709
		c0.401,0,0.802-0.201,1.103-0.501c0.2-0.2,0.4-0.601,0.501-0.901l1.201-7.514c5.411-4.208,8.816-10.318,8.816-17.23
		c0-1.504-0.199-3.006-0.501-4.409c1.103-0.501,2.004-0.902,3.105-1.202c0,0,0.502-0.101,0.301,0
		c-1.702,2.104-1.803,5.611,0.101,7.414c0.802,0.801,1.804,1.102,2.905,1.102s2.204-0.4,3.005-1.303
		c1.303-1.402,2.104-4.608,0.401-6.712c-0.2-0.3-0.7-0.801-0.7-0.801c1.803-0.701,5.509,1.803,5.81,1.803
		C70.728,22.292,70.228,21.391,69.226,20.389z M62.312,26.099c-0.701,0.702-1.803,0.803-2.504,0.102
		c-1.002-0.902-0.901-3.207,0.1-4.208l0.2-0.201c0.2-0.3,0.502-0.501,0.802-0.701c0.602,0.3,1.102,0.701,1.703,1.502
		C63.415,23.595,62.913,25.499,62.312,26.099z"/>
	<g>
		<path fill="#E2982B" d="M11.756,19.345c0-1.102,0.901-2.003,2.004-2.003c0.212,0,0.413,0.042,0.605,0.104
			c-0.325-0.227-0.717-0.362-1.141-0.362c-1.102,0-2.004,0.902-2.004,2.003c0,0.89,0.592,1.64,1.398,1.899
			C12.099,20.623,11.756,20.023,11.756,19.345z"/>
		<path opacity="0.5" fill="#FFFEF8" d="M15.228,19.086c0-0.678-0.343-1.278-0.863-1.641c-0.192-0.062-0.393-0.104-0.605-0.104
			c-1.103,0-2.004,0.902-2.004,2.003c0,0.678,0.343,1.278,0.862,1.641c0.192,0.062,0.394,0.104,0.605,0.104
			C14.326,21.09,15.228,20.189,15.228,19.086z"/>
		<path opacity="0.5" fill="#FFFEF8" d="M15.228,19.086c0-0.678-0.343-1.278-0.863-1.641c-0.192-0.062-0.393-0.104-0.605-0.104
			c-1.103,0-2.004,0.902-2.004,2.003c0,0.678,0.343,1.278,0.862,1.641c0.192,0.062,0.394,0.104,0.605,0.104
			C14.326,21.09,15.228,20.189,15.228,19.086z"/>
	</g>
	<g>
		<path fill="#E2982B" d="M18.718,11.18v-0.145c0-0.12-0.165-1.179,0.836-1.431c0.145,0,4.501-1.597,10.311-1.597
			c6.244,0,10.484,2.136,10.484,2.136c0.034,0.009,0.057-0.01,0.08-0.026c-0.091-0.307-0.235-0.575-0.423-0.769
			c-0.146-0.151-0.308-0.273-0.493-0.32c0,0-4.066-1.597-10.31-1.597c-5.809,0-10.166,1.597-10.311,1.597
			c-0.581,0.146-1.016,0.872-1.016,1.743v0.145c0.132,0.931,0.753,1.489,1.303,1.354c0.05-0.012,0.102-0.021,0.149-0.046
			c0.104-0.053,0.243-0.119,0.408-0.192C19.238,11.913,18.786,11.658,18.718,11.18z"/>
		<path opacity="0.5" fill="#FFFEF8" d="M20.838,12.094c0.053-0.007,0.11-0.013,0.152-0.023
			C21.029,12.06,21.104,11.989,20.838,12.094z"/>
		<path opacity="0.6" fill="#FFFEF8" d="M38.932,12.079c0.872,0.29,1.452-0.291,1.452-1.308c0,0,0-0.146,0.145,0
			c0-0.235-0.041-0.453-0.1-0.654c-0.023,0.016-0.046,0.035-0.08,0.026c0,0-4.24-2.136-10.484-2.136
			c-5.81,0-10.166,1.597-10.311,1.597c-1.001,0.251-0.836,1.311-0.836,1.431v0.145c0.068,0.478,0.521,0.733,1.018,0.852
			c1.209-0.54,4.083-1.55,9.321-1.55C35.592,10.482,38.061,11.643,38.932,12.079z"/>
	</g>
	<path fill="#FFFEF8" d="M26.162,31.92c-0.911-0.925-1.366-2.267-1.366-4.022c0-1.764,0.395-3.156,1.185-4.178
		c0.326-0.422,0.702-0.752,1.121-1v5.289h1.367v-5.766c0.222-0.033,0.452-0.056,0.693-0.056c0.273,0,0.533,0.027,0.783,0.07v5.751
		h1.367v-5.236c0.38,0.241,0.721,0.556,1.022,0.947c0.783,1.022,1.175,2.414,1.175,4.178h1.941c0-2.212-0.573-3.972-1.718-5.28
		c-0.675-0.771-1.482-1.308-2.42-1.625v-1.478h-1.367v1.183c-0.255-0.026-0.515-0.043-0.783-0.043c-0.237,0-0.467,0.011-0.693,0.03
		v-1.17h-1.367v1.44c-0.985,0.312-1.83,0.863-2.529,1.662c-1.146,1.308-1.718,3.068-1.718,5.28c0,2.205,0.665,3.922,1.995,5.153
		c0.085,0.078,0.172,0.146,0.259,0.22h-1.624v1.588h10.442v-1.588h-5.16C27.802,33.149,26.934,32.702,26.162,31.92z"/>
	<g>
		<path fill="#E2982B" d="M23.442,48.841c-5.389-0.811-9.116-3.373-10.619-4.508c0.063,0.531,0.312,1.372,0.312,1.962
			c2.045,1.414,5.057,3.22,9.98,3.96L23.442,48.841z"/>
	</g>
	<g>
		<path fill="#E2982B" d="M46.183,43.731l-0.414,0.34c-4.131,3.471-8.417,4.178-10.304,4.568c0.076,0.484,0.208,0.973,0.305,1.424
			c1.436-0.255,5.636-1.104,10.087-4.294C45.983,44.974,46.183,44.5,46.183,43.731z"/>
	</g>
	<polygon fill="#E2982B" points="55.675,21.571 53.884,19.422 54.498,22.092 	"/>
	<path fill="#E2982B" d="M57.604,21.372c1.288-0.65,2.897,0.024,2.897,0.024l0.408-0.305c0,0-1.65-0.751-2.95-0.305
		C57.769,20.851,57.604,21.372,57.604,21.372z"/>
	<path fill="#E2982B" d="M60.737,18.46l2.922,2.114l0.688-0.14c0,0-1.443-1.012-3.511-1.902
		C60.601,18.431,60.737,18.46,60.737,18.46z"/>
</g>
</svg>
