<?xml version="1.0" encoding="utf-8"?>
<!-- Generator: Adobe Illustrator 16.0.0, SVG Export Plug-In . SVG Version: 6.00 Build 0)  -->
<!DOCTYPE svg PUBLIC "-//W3C//DTD SVG 1.1//EN" "http://www.w3.org/Graphics/SVG/1.1/DTD/svg11.dtd">
<svg version="1.1" id="Layer_1" xmlns="http://www.w3.org/2000/svg" xmlns:xlink="http://www.w3.org/1999/xlink" x="0px" y="0px"
	 width="1526.172px" height="404.062px" viewBox="0 0 1526.172 404.062" enable-background="new 0 0 1526.172 404.062"
	 xml:space="preserve">
<polygon opacity="0.2" fill="#348484" points="978.642,112.853 978.642,24.103 977.994,24.103 941.711,24.103 897.142,24.103 
	897.142,50.998 897.389,50.998 897.389,403.957 1022.317,403.957 1022.317,112.853 "/>
<polygon opacity="0.2" fill="#348484" points="207.75,404.115 114.605,404.115 114.605,265.35 130.731,265.35 130.749,258.551 
	191.015,258.551 191.042,265.35 207.75,265.35 "/>
<polygon opacity="0.2" fill="#348484" points="460.074,404.148 325.567,404.148 325.567,226.361 325.567,226.361 325.593,217.652 
	435.909,217.652 435.949,232.619 460.074,232.619 "/>
<polygon opacity="0.2" fill="#348484" points="619.27,404.645 520.635,404.645 520.635,186.808 524.09,186.808 524.109,157.152 
	612.109,157.152 612.139,186.808 619.27,186.808 "/>
<polygon opacity="0.2" fill="#348484" points="1357.72,402.445 1208.333,402.445 1208.333,143.496 1239.452,143.496 
	1239.487,130.808 1355.794,130.808 1355.845,143.496 "/>
<polygon opacity="0.1" fill="#22272A" points="740.441,363.27 740.25,342.824 747.425,342.824 747.425,308.865 733.974,308.865 
	733.952,304.213 724.058,304.213 724.058,363.27 "/>
</svg>
