<?xml version="1.0" encoding="utf-8"?>
<!-- Generator: Adobe Illustrator 16.0.0, SVG Export Plug-In . SVG Version: 6.00 Build 0)  -->
<!DOCTYPE svg PUBLIC "-//W3C//DTD SVG 1.1//EN" "http://www.w3.org/Graphics/SVG/1.1/DTD/svg11.dtd">
<svg version="1.1" id="Layer_1" xmlns="http://www.w3.org/2000/svg" xmlns:xlink="http://www.w3.org/1999/xlink" x="0px" y="0px"
	 width="420px" height="270px" viewBox="0 0 420 270" enable-background="new 0 0 420 270" xml:space="preserve">
<g>
	<path fill="#FFFFFF" d="M252.425,127.599l-11.519-45.02c-1.687-5.058-6.213-14.246-17.355-14.246h-26.964
		c-11.248,0-15.74,9.117-17.205,14.246l-11.374,45.062c-2.838,9.694,9.582,13.407,12.516,4.36l10.012-41.482h3.317l-13.845,60.61
		h6.583h5.811l0.001,13.828v0.335v0.353v0.697h1.223h0.363h0.362h2.537h0.363h0.361h0.774v-1.129v-0.346v-0.346v-2.031v-0.346
		v-0.346v-1.864v-0.686v-1.869v-0.345v-0.337v-5.696h3.116v5.27v0.338v0.352v1.868v0.339v0.354v0.15v0.336v0.346v1.868v0.346v0.346
		v1.184v0.346v0.346v1.553h0.33h0.361h0.363h2.537h0.362h0.362h1.344v-0.585l0-0.347v-0.336l-0.002-13.945h2.977h0.377h2.637v13.838
		v0.334v0.363v0.678h1.231h0.363h0.361h2.536h0.364h0.361h0.556v-1.337v-0.346v-0.346v-1.615v-0.346v-0.346v-1.853v-0.363v-0.404
		v-0.33v-1.869v-0.361v-0.339v-5.616h3.116v5.611v0.336v0.362v1.869v0.327v0.424v0.36v1.853v0.346v0.347v1.6v0.347v0.346v1.344
		h0.549h0.361h0.363h2.536h0.362h0.362h1.28v-0.632v-0.36v-0.339v-13.882h6.204h6.7l-14.589-60.61h3.587l10.146,41.335
		C242.84,141.295,255.154,137.279,252.425,127.599z"/>
	<polygon fill="#FFFFFF" points="204.094,169.457 203.557,169.457 203.194,169.457 202.832,169.457 203.824,170.404 
		204.817,169.457 204.455,169.457 	"/>
	<polygon fill="#FFFFFF" points="192.403,177.033 192.403,177.382 192.403,177.73 192.403,180.616 192.403,180.956 192.404,181.307 
		194.643,179.17 	"/>
	<polygon fill="#FFFFFF" points="200.7,214.404 203.823,217.385 206.947,214.402 203.824,211.423 	"/>
	<polygon fill="#FFFFFF" points="192.404,184.863 192.404,185.212 192.404,185.56 192.404,188.446 192.404,188.787 192.404,189.136 
		194.643,187 	"/>
	<polygon fill="#FFFFFF" points="192.494,222.234 195.617,225.215 198.743,222.232 195.619,219.253 	"/>
	<polygon fill="#FFFFFF" points="199.722,215.339 196.598,218.318 199.722,221.299 202.846,218.318 	"/>
	<polygon fill="#FFFFFF" points="200.7,222.232 203.825,225.215 206.949,222.234 203.823,219.253 	"/>
	<polygon fill="#FFFFFF" points="200.7,183.084 203.823,186.064 206.948,183.082 203.824,180.102 	"/>
	<polygon fill="#FFFFFF" points="192.404,192.694 192.404,193.044 192.404,193.39 192.404,196.274 192.404,196.617 192.404,196.964 
		194.643,194.829 	"/>
	<polygon fill="#FFFFFF" points="196.611,169.457 196.25,169.457 195.887,169.457 195.351,169.457 194.989,169.457 194.626,169.457 
		195.618,170.404 	"/>
	<polygon fill="#FFFFFF" points="200.7,190.913 203.824,193.895 206.947,190.915 203.823,187.934 	"/>
	<polygon fill="#FFFFFF" points="200.7,175.252 203.824,178.234 206.948,175.252 203.824,172.271 	"/>
	<polygon fill="#FFFFFF" points="200.7,206.572 203.824,209.555 206.948,206.575 203.823,203.594 	"/>
	<polygon fill="#FFFFFF" points="206.778,169.457 204.805,171.339 207.163,173.587 207.163,173.251 207.163,172.907 
		207.162,169.783 207.162,169.457 207.142,169.457 	"/>
	<polygon fill="#FFFFFF" points="200.7,198.745 203.823,201.725 206.947,198.743 203.824,195.764 	"/>
	<polygon fill="#FFFFFF" points="192.67,169.457 192.403,169.457 192.403,169.55 192.403,169.902 192.403,172.789 192.403,173.125 
		192.403,173.475 194.643,171.339 	"/>
	<polygon fill="#FFFFFF" points="200.876,169.457 200.513,169.457 200.152,169.457 199.292,169.457 198.93,169.457 198.568,169.457 
		196.598,171.338 199.722,174.318 202.846,171.338 	"/>
	<path fill="#FFFFFF" d="M202.744,228.116c0.239-0.094,0.471-0.201,0.699-0.319c0.163-0.084,0.322-0.174,0.478-0.271
		c0.075-0.046,0.148-0.094,0.221-0.143l-0.313-0.3L202.744,228.116z"/>
	<polygon fill="#FFFFFF" points="207.168,204.919 207.168,204.577 207.168,204.232 207.167,201.1 207.167,200.754 207.167,200.413 
		204.805,202.665 	"/>
	<polygon fill="#FFFFFF" points="199.722,199.68 196.598,202.659 199.722,205.639 202.846,202.659 	"/>
	<polygon fill="#FFFFFF" points="199.722,191.85 196.598,194.829 199.722,197.809 202.846,194.829 	"/>
	<path fill="#FFFFFF" d="M205.186,226.512c0.057-0.058,0.118-0.11,0.173-0.171c0.325-0.356,0.613-0.756,0.861-1.194
		c0.12-0.211,0.229-0.431,0.329-0.661l-1.744,1.663L205.186,226.512z"/>
	<path fill="#FFFFFF" d="M199.722,223.167l-3.125,2.981l2.626,2.507c0.126,0.009,0.252,0.013,0.379,0.016
		c0.078,0.002,0.155,0.006,0.233,0.006c0.126-0.001,0.252-0.01,0.378-0.016l2.632-2.513L199.722,223.167z"/>
	<polygon fill="#FFFFFF" points="199.722,213.469 202.846,210.488 199.722,207.507 196.598,210.488 	"/>
	<polygon fill="#FFFFFF" points="207.166,197.089 207.166,196.744 207.166,196.399 207.166,193.271 207.166,192.925 
		207.166,192.585 204.805,194.837 	"/>
	<polygon fill="#FFFFFF" points="207.169,212.748 207.169,212.407 207.169,212.062 207.168,208.929 207.168,208.583 207.168,208.24 
		204.805,210.493 	"/>
	<polygon fill="#FFFFFF" points="207.165,189.26 207.165,188.914 207.165,188.569 207.165,185.44 207.165,185.095 207.164,184.758 
		204.805,187.01 	"/>
	<polygon fill="#FFFFFF" points="207.17,220.578 207.17,220.239 207.17,219.895 207.17,216.755 207.169,216.409 207.169,216.063 
		204.804,218.32 	"/>
	<polygon fill="#FFFFFF" points="207.164,181.431 207.164,181.083 207.164,180.737 207.163,177.614 207.163,177.269 
		207.163,176.933 204.805,179.182 	"/>
	<polygon fill="#FFFFFF" points="192.405,216.183 192.406,216.537 192.406,216.877 192.406,219.761 192.406,220.109 
		192.406,220.453 194.643,218.318 	"/>
	<polygon fill="#FFFFFF" points="198.743,198.745 195.618,195.764 192.496,198.743 195.619,201.725 	"/>
	<polygon fill="#FFFFFF" points="192.405,208.355 192.405,208.707 192.405,209.049 192.405,211.932 192.405,212.278 
		192.405,212.625 194.643,210.49 	"/>
	<polygon fill="#FFFFFF" points="192.405,200.524 192.405,200.877 192.405,201.22 192.405,204.104 192.405,204.449 192.405,204.795 
		194.643,202.66 	"/>
	<polygon fill="#FFFFFF" points="198.743,206.572 195.619,203.594 192.495,206.575 195.618,209.555 	"/>
	<polygon fill="#FFFFFF" points="198.743,190.913 195.619,187.934 192.496,190.915 195.618,193.895 	"/>
	<polygon fill="#FFFFFF" points="198.743,175.252 195.618,172.271 192.495,175.252 195.618,178.234 	"/>
	<path fill="#FFFFFF" d="M193.136,224.713c0.127,0.268,0.27,0.52,0.425,0.76c0.183,0.282,0.379,0.55,0.596,0.795
		c0.055,0.062,0.112,0.122,0.169,0.182l0.315-0.301L193.136,224.713z"/>
	<polygon fill="#FFFFFF" points="199.722,184.02 196.598,186.999 199.722,189.979 202.846,186.999 	"/>
	<path fill="#FFFFFF" d="M195.359,227.333c0.07,0.049,0.143,0.094,0.215,0.14c0.086,0.055,0.169,0.115,0.257,0.167
		c0.251,0.146,0.512,0.271,0.778,0.386l-0.988-0.942L195.359,227.333z"/>
	<polygon fill="#FFFFFF" points="198.743,214.404 195.618,211.423 192.496,214.402 195.619,217.385 	"/>
	<polygon fill="#FFFFFF" points="198.743,183.084 195.618,180.102 192.495,183.082 195.619,186.064 	"/>
	<polygon fill="#FFFFFF" points="199.722,176.186 196.598,179.168 199.722,182.15 202.846,179.168 	"/>
	<path fill="#30B8DC" d="M205.456,166.342h-0.362h-2.537h-0.363h-0.361h-0.33v-1.553v-0.346v-0.346v-1.184v-0.346v-0.346v-1.868
		v-0.346v-0.336v-0.15v-0.354v-0.339v-1.868v-0.352v-0.338v-5.27h-3.116v5.696v0.337v0.345v1.869v0.686v1.864v0.346v0.346v2.031
		v0.346v0.346v1.129h-0.774h-0.361h-0.363h-2.537h-0.362h-0.363h-1.223v2.86v0.255h0.267l1.973,1.882l-2.24,2.136l0,3.559
		l2.24,2.137l-2.239,2.137v3.557l2.239,2.137l-2.239,2.136l0,3.559l2.239,2.135l-2.239,2.135l0,3.561l2.238,2.136l-2.238,2.135
		v3.561l2.238,2.135l-2.238,2.135v3.558l2.238,2.136l-2.237,2.135v0.834c0,1.321,0.271,2.459,0.731,3.426l1.505,1.436l-0.315,0.301
		c0.316,0.331,0.662,0.626,1.032,0.884l0.262-0.25l0.988,0.942c0.825,0.357,1.713,0.568,2.615,0.63l-2.626-2.507l3.125-2.981
		l3.124,2.981l-2.632,2.513c0.868-0.045,1.726-0.227,2.53-0.545l1.083-1.033l0.313,0.3c0.375-0.253,0.724-0.544,1.045-0.871
		l-0.381-0.363l1.744-1.663c0.395-0.916,0.621-1.981,0.621-3.198v-0.709l-2.366-2.258l2.365-2.257l0-3.315l-2.364-2.255l2.363-2.253
		l0-3.321l-2.363-2.254l2.362-2.252l-0.001-3.324l-2.361-2.252l2.361-2.252l0-3.325l-2.36-2.25l2.359-2.252v-3.327l-2.359-2.249
		l2.358-2.249l0-3.346l-2.358-2.248l1.973-1.882h0.365h0.02v-0.02v-0.348l0-2.748h-1.344H205.456z M196.598,202.659l3.124-2.979
		l3.124,2.979l-3.124,2.979L196.598,202.659z M202.846,210.488l-3.124,2.98l-3.124-2.98l3.124-2.981L202.846,210.488z
		 M196.598,194.829l3.124-2.979l3.124,2.979l-3.124,2.979L196.598,194.829z M196.598,186.999l3.124-2.979l3.124,2.979l-3.124,2.979
		L196.598,186.999z M196.598,179.168l3.124-2.982l3.124,2.982l-3.124,2.982L196.598,179.168z M196.598,171.338l1.97-1.881h0.362
		h0.362h0.859h0.362h0.362l1.97,1.881l-3.124,2.98L196.598,171.338z M194.626,169.457h0.363h0.362h0.536h0.362h0.361l-0.993,0.947
		L194.626,169.457z M192.495,175.252l3.123-2.98l3.125,2.98l-3.125,2.982L192.495,175.252z M192.495,183.082l3.123-2.98l3.125,2.982
		l-3.124,2.98L192.495,183.082z M192.496,190.915l3.123-2.981l3.124,2.979l-3.125,2.981L192.496,190.915z M192.496,198.743
		l3.122-2.979l3.125,2.981l-3.124,2.979L192.496,198.743z M192.495,206.575l3.124-2.981l3.124,2.979l-3.125,2.982L192.495,206.575z
		 M192.496,214.402l3.122-2.979l3.125,2.981l-3.124,2.98L192.496,214.402z M195.617,225.215l-3.123-2.98l3.125-2.981l3.124,2.979
		L195.617,225.215z M196.598,218.318l3.124-2.979l3.124,2.979l-3.124,2.98L196.598,218.318z M206.949,222.234l-3.124,2.98
		l-3.125-2.982l3.122-2.979L206.949,222.234z M206.947,214.402l-3.124,2.982l-3.122-2.98l3.124-2.981L206.947,214.402z
		 M206.948,206.575l-3.124,2.979l-3.124-2.982l3.123-2.979L206.948,206.575z M206.947,198.743l-3.124,2.981l-3.122-2.979
		l3.124-2.981L206.947,198.743z M206.947,190.915l-3.122,2.979l-3.124-2.981l3.123-2.979L206.947,190.915z M206.948,183.082
		l-3.125,2.982l-3.122-2.98l3.124-2.982L206.948,183.082z M206.948,175.252l-3.123,2.982l-3.124-2.982l3.124-2.98L206.948,175.252z
		 M203.824,170.404l-0.992-0.947h0.362h0.363h0.536h0.361h0.362L203.824,170.404z"/>
	<polygon fill="#FFFFFF" points="224.849,169.457 224.313,169.457 223.95,169.457 223.589,169.457 224.581,170.404 225.573,169.457 
		225.211,169.457 	"/>
	<polygon fill="#FFFFFF" points="227.854,181.37 227.854,181.021 227.854,180.673 227.854,177.678 227.854,177.33 227.854,176.993 
		225.559,179.182 	"/>
	<polygon fill="#FFFFFF" points="221.632,169.457 221.27,169.457 220.906,169.457 220.047,169.457 219.686,169.457 219.323,169.457 
		217.353,171.338 220.478,174.318 223.602,171.338 	"/>
	<polygon fill="#FFFFFF" points="227.854,197.025 227.854,196.68 227.854,196.333 227.854,193.337 227.854,192.989 227.854,192.648 
		225.559,194.837 	"/>
	<path fill="#FFFFFF" d="M216.106,227.354c0.068,0.047,0.139,0.091,0.209,0.135c0.107,0.068,0.214,0.138,0.324,0.2
		c0.234,0.132,0.478,0.248,0.725,0.354l-0.989-0.944L216.106,227.354z"/>
	<polygon fill="#FFFFFF" points="221.456,175.252 224.581,178.234 227.704,175.252 224.581,172.271 	"/>
	<path fill="#FFFFFF" d="M223.513,228.103c0.244-0.098,0.481-0.208,0.714-0.331c0.149-0.08,0.296-0.165,0.439-0.256
		c0.074-0.047,0.148-0.093,0.221-0.142l-0.305-0.291L223.513,228.103z"/>
	<polygon fill="#FFFFFF" points="227.854,204.854 227.854,204.512 227.854,204.164 227.854,201.167 227.854,200.819 
		227.854,200.477 225.559,202.665 	"/>
	<path fill="#FFFFFF" d="M220.478,223.167l-3.125,2.981l2.631,2.511c0.126,0.008,0.253,0.014,0.379,0.017
		c0.076,0.001,0.151,0.003,0.228,0.002c0.126-0.001,0.252-0.008,0.378-0.015l2.635-2.515L220.478,223.167z"/>
	<polygon fill="#FFFFFF" points="220.478,176.186 217.353,179.168 220.478,182.15 223.602,179.168 	"/>
	<polygon fill="#FFFFFF" points="217.367,169.457 217.006,169.457 216.643,169.457 216.108,169.457 215.745,169.457 
		215.383,169.457 216.375,170.404 	"/>
	<polygon fill="#FFFFFF" points="220.478,215.339 217.353,218.318 220.478,221.299 223.602,218.318 	"/>
	<path fill="#FFFFFF" d="M225.926,226.498c0.057-0.059,0.114-0.115,0.169-0.177c0.297-0.331,0.565-0.693,0.797-1.094
		c0.123-0.214,0.235-0.438,0.337-0.671l-1.669,1.592L225.926,226.498z"/>
	<polygon fill="#FFFFFF" points="227.854,189.198 227.854,188.85 227.854,188.503 227.854,185.506 227.854,185.158 227.854,184.819 
		225.559,187.01 	"/>
	<polygon fill="#FFFFFF" points="213.25,222.234 216.374,225.215 219.498,222.232 216.376,219.253 	"/>
	<polygon fill="#FFFFFF" points="225.559,171.354 227.854,173.542 227.854,173.19 227.854,172.844 227.854,169.847 227.854,169.498 
		227.854,169.457 227.546,169.457 	"/>
	<polygon fill="#FFFFFF" points="219.498,214.404 216.375,211.423 213.251,214.402 216.376,217.385 	"/>
	<polygon fill="#FFFFFF" points="219.498,183.084 216.375,180.102 213.25,183.082 216.376,186.064 	"/>
	<polygon fill="#FFFFFF" points="227.854,220.511 227.854,220.171 227.854,219.824 227.854,216.826 227.854,216.478 
		227.854,216.131 225.559,218.32 	"/>
	<polygon fill="#FFFFFF" points="227.854,212.682 227.854,212.34 227.854,211.993 227.854,208.997 227.854,208.649 227.854,208.305 
		225.559,210.493 	"/>
	<polygon fill="#FFFFFF" points="219.498,175.252 216.375,172.271 213.25,175.252 216.375,178.234 	"/>
	<polygon fill="#FFFFFF" points="220.478,213.469 223.602,210.488 220.478,207.507 217.353,210.488 	"/>
	<polygon fill="#FFFFFF" points="220.478,191.85 217.353,194.829 220.478,197.809 223.602,194.829 	"/>
	<polygon fill="#FFFFFF" points="213.15,184.871 213.15,185.203 213.15,185.549 213.15,188.456 213.15,188.797 213.15,189.156 
		215.396,187.014 	"/>
	<polygon fill="#FFFFFF" points="219.498,198.745 216.375,195.764 213.251,198.743 216.376,201.725 	"/>
	<polygon fill="#FFFFFF" points="220.478,199.68 217.353,202.659 220.478,205.639 223.602,202.659 	"/>
	<polygon fill="#FFFFFF" points="213.15,192.701 213.15,193.034 213.15,193.379 213.15,196.285 213.15,196.627 213.15,196.986 
		215.396,194.844 	"/>
	<polygon fill="#FFFFFF" points="213.15,177.041 213.15,177.373 213.15,177.721 213.15,180.627 213.15,180.966 213.15,181.326 
		215.396,179.184 	"/>
	<polygon fill="#FFFFFF" points="219.498,206.572 216.376,203.594 213.25,206.575 216.375,209.555 	"/>
	<polygon fill="#FFFFFF" points="221.456,190.913 224.581,193.895 227.703,190.915 224.579,187.934 	"/>
	<polygon fill="#FFFFFF" points="213.407,169.457 213.15,169.457 213.15,169.541 213.15,169.893 213.15,172.799 213.15,173.134 
		213.15,173.496 215.396,171.354 	"/>
	<polygon fill="#FFFFFF" points="221.456,214.404 224.579,217.385 227.703,214.402 224.581,211.423 	"/>
	<polygon fill="#FFFFFF" points="220.478,184.02 217.353,186.999 220.478,189.979 223.602,186.999 	"/>
	<polygon fill="#FFFFFF" points="221.456,198.745 224.579,201.725 227.703,198.743 224.581,195.764 	"/>
	<polygon fill="#FFFFFF" points="213.15,208.361 213.15,208.696 213.15,209.037 213.15,211.943 213.15,212.289 213.15,212.646 
		215.396,210.504 	"/>
	<path fill="#FFFFFF" d="M213.841,224.681c0.113,0.245,0.241,0.477,0.378,0.699c0.202,0.326,0.426,0.63,0.673,0.907
		c0.058,0.064,0.117,0.126,0.177,0.188l0.326-0.312L213.841,224.681z"/>
	<polygon fill="#FFFFFF" points="219.498,190.913 216.376,187.934 213.251,190.915 216.375,193.895 	"/>
	<polygon fill="#FFFFFF" points="221.456,183.084 224.579,186.064 227.704,183.082 224.581,180.102 	"/>
	<polygon fill="#FFFFFF" points="213.15,200.531 213.15,200.866 213.15,201.208 213.15,204.115 213.15,204.459 213.15,204.817 
		215.396,202.674 	"/>
	<polygon fill="#FFFFFF" points="221.456,206.572 224.581,209.555 227.704,206.575 224.579,203.594 	"/>
	<polygon fill="#FFFFFF" points="221.456,222.232 224.581,225.215 227.704,222.234 224.579,219.253 	"/>
	<polygon fill="#FFFFFF" points="213.15,216.189 213.15,216.526 213.15,216.865 213.15,219.773 213.15,220.121 213.15,220.475 
		215.396,218.333 	"/>
	<path fill="#30B8DC" d="M226.211,166.342h-0.362h-2.536h-0.363h-0.361h-0.549v-1.344v-0.346v-0.347v-1.6v-0.347v-0.346v-1.853
		v-0.36v-0.424v-0.327v-1.869v-0.362v-0.336v-5.611h-3.116v5.616v0.339v0.361v1.869v0.33v0.404v0.363v1.853v0.346v0.346v1.615v0.346
		v0.346v1.337h-0.556h-0.361h-0.364h-2.536h-0.361h-0.363h-1.231v2.869v0.246h0.258l1.988,1.896l-2.246,2.143v3.545l2.246,2.143
		l-2.246,2.143v3.545l2.246,2.143l-2.246,2.143v3.545l2.246,2.143l-2.246,2.143v3.545l2.246,2.143l-2.246,2.144v3.544l2.246,2.143
		l-2.246,2.143v3.543l2.246,2.144l-2.246,2.142v0.896c0,1.27,0.256,2.37,0.691,3.31l1.554,1.482l-0.326,0.312
		c0.317,0.33,0.665,0.623,1.037,0.879l0.269-0.256l0.989,0.944c0.827,0.353,1.717,0.56,2.62,0.617l-2.631-2.511l3.125-2.981
		l3.125,2.981l-2.635,2.515c0.875-0.048,1.738-0.235,2.545-0.561l1.069-1.02l0.305,0.291c0.373-0.255,0.721-0.547,1.039-0.876
		l-0.366-0.35l1.669-1.592c0.397-0.911,0.625-1.973,0.625-3.186v-0.86l-2.295-2.19l2.295-2.189v-3.449l-2.295-2.188l2.295-2.188
		v-3.45l-2.295-2.189l2.295-2.188v-3.451l-2.295-2.188l2.295-2.188v-3.45l-2.295-2.188l2.295-2.19v-3.449l-2.295-2.188l2.295-2.188
		v-3.451l-2.295-2.188l1.987-1.896h0.308v-0.294v-2.821h-1.28H226.211z M217.353,202.659l3.125-2.979l3.124,2.979l-3.124,2.979
		L217.353,202.659z M223.602,210.488l-3.124,2.98l-3.125-2.98l3.125-2.981L223.602,210.488z M217.353,194.829l3.125-2.979
		l3.124,2.979l-3.124,2.979L217.353,194.829z M217.353,186.999l3.125-2.979l3.124,2.979l-3.124,2.979L217.353,186.999z
		 M217.353,179.168l3.125-2.982l3.124,2.982l-3.124,2.982L217.353,179.168z M217.353,171.338l1.971-1.881h0.362h0.361h0.859h0.363
		h0.362l1.97,1.881l-3.124,2.98L217.353,171.338z M215.383,169.457h0.362h0.362h0.535h0.363h0.361l-0.992,0.947L215.383,169.457z
		 M213.25,175.252l3.125-2.98l3.123,2.98l-3.123,2.982L213.25,175.252z M213.25,183.082l3.125-2.98l3.123,2.982l-3.122,2.98
		L213.25,183.082z M213.251,190.915l3.125-2.981l3.122,2.979l-3.123,2.981L213.251,190.915z M213.251,198.743l3.124-2.979
		l3.123,2.981l-3.122,2.979L213.251,198.743z M213.25,206.575l3.126-2.981l3.122,2.979l-3.123,2.982L213.25,206.575z
		 M213.251,214.402l3.124-2.979l3.123,2.981l-3.122,2.98L213.251,214.402z M216.374,225.215l-3.124-2.98l3.126-2.981l3.122,2.979
		L216.374,225.215z M217.353,218.318l3.125-2.979l3.124,2.979l-3.124,2.98L217.353,218.318z M227.704,222.234l-3.123,2.98
		l-3.125-2.982l3.123-2.979L227.704,222.234z M227.703,214.402l-3.124,2.982l-3.123-2.98l3.125-2.981L227.703,214.402z
		 M227.704,206.575l-3.123,2.979l-3.125-2.982l3.123-2.979L227.704,206.575z M227.703,198.743l-3.124,2.981l-3.123-2.979
		l3.125-2.981L227.703,198.743z M227.703,190.915l-3.122,2.979l-3.125-2.981l3.123-2.979L227.703,190.915z M227.704,183.082
		l-3.125,2.982l-3.123-2.98l3.125-2.982L227.704,183.082z M227.704,175.252l-3.123,2.982l-3.125-2.982l3.125-2.98L227.704,175.252z
		 M224.581,170.404l-0.992-0.947h0.361h0.362h0.536h0.362h0.362L224.581,170.404z"/>
	<path fill="#FFFFFF" d="M210.145,64.974c8.825,0,15.976-7.152,15.976-15.979c0-8.822-7.151-15.972-15.976-15.972
		c-8.817,0-15.969,7.15-15.969,15.972C194.176,57.823,201.328,64.974,210.145,64.974z M205.18,51.308l5.153,3.474l5.14-3.466
		l1.118,1.658l-4.469,3.014l4.091,2.758l-1.118,1.658l-4.762-3.209l-4.774,3.219l-1.118-1.658l4.104-2.767l-4.482-3.021
		L205.18,51.308z"/>
	<polygon fill="#30B8DC" points="204.441,58.754 205.559,60.413 210.333,57.193 215.095,60.403 216.213,58.745 212.122,55.987 
		216.591,52.973 215.473,51.315 210.333,54.781 205.18,51.308 204.062,52.966 208.544,55.987 	"/>
</g>
</svg>
