<?xml version="1.0" encoding="utf-8"?>
<!-- Generator: Adobe Illustrator 16.0.0, SVG Export Plug-In . SVG Version: 6.00 Build 0)  -->
<!DOCTYPE svg PUBLIC "-//W3C//DTD SVG 1.1//EN" "http://www.w3.org/Graphics/SVG/1.1/DTD/svg11.dtd">
<svg version="1.1" id="Layer_1" xmlns="http://www.w3.org/2000/svg" xmlns:xlink="http://www.w3.org/1999/xlink" x="0px" y="0px"
	 width="24.293px" height="28.863px" viewBox="0 0 24.293 28.863" enable-background="new 0 0 24.293 28.863" xml:space="preserve">
<path fill="#314451" d="M6.381,23.335c-1.758-1.74-2.637-4.264-2.637-7.568c0-3.316,0.762-5.936,2.285-7.857
	c0.63-0.794,1.354-1.416,2.162-1.881v9.95h2.637V5.133c0.43-0.063,0.872-0.105,1.336-0.105c0.528,0,1.028,0.051,1.512,0.132v10.819
	h2.637v-9.85c0.733,0.454,1.39,1.046,1.969,1.782c1.512,1.922,2.268,4.541,2.268,7.857h3.744c0-4.16-1.104-7.471-3.313-9.932
	c-1.301-1.449-2.861-2.459-4.667-3.055V0h-2.637v2.226c-0.491-0.05-0.992-0.081-1.512-0.081c-0.457,0-0.902,0.02-1.336,0.057V0
	H8.191v2.71C6.291,3.296,4.662,4.333,3.313,5.836C1.104,8.297,0,11.607,0,15.768c0,4.148,1.283,7.38,3.85,9.695
	c0.163,0.146,0.33,0.275,0.495,0.412H1.213v2.988h20.145v-2.988h-9.955C9.542,25.647,7.866,24.805,6.381,23.335z"/>
</svg>
