<?xml version="1.0" encoding="utf-8"?>
<!-- Generator: Adobe Illustrator 16.0.0, SVG Export Plug-In . SVG Version: 6.00 Build 0)  -->
<!DOCTYPE svg PUBLIC "-//W3C//DTD SVG 1.1//EN" "http://www.w3.org/Graphics/SVG/1.1/DTD/svg11.dtd">
<svg version="1.1" id="Layer_1" xmlns="http://www.w3.org/2000/svg" xmlns:xlink="http://www.w3.org/1999/xlink" x="0px" y="0px"
	 width="51.591px" height="112.514px" viewBox="0 0 51.591 112.514" enable-background="new 0 0 51.591 112.514"
	 xml:space="preserve">
<g>
	<circle fill="#FFFFFF" cx="25.25" cy="9.238" r="9.175"/>
	<path fill="#FFFFFF" d="M14.402,107.371c0,2.838,2.305,5.143,5.143,5.143c2.845,0,5.146-2.305,5.146-5.143l0.006-43.153h2.291
		l-0.015,43.153c0,2.838,2.304,5.143,5.144,5.143c2.839,0,5.142-2.305,5.142-5.143l0.022-74.396h2.256v27.417
		c0,5.514,7.194,5.514,7.179,0V32.39c0-6.093-3.58-12.064-10.71-12.064l-20.563-0.009c-6.496,0-10.566,5.297-10.566,11.906v28.168
		c0,5.475,7.233,5.475,7.233,0V32.976h2.304L14.402,107.371z"/>
</g>
</svg>
