<?xml version="1.0" encoding="utf-8"?>
<!-- Generator: Adobe Illustrator 16.0.0, SVG Export Plug-In . SVG Version: 6.00 Build 0)  -->
<!DOCTYPE svg PUBLIC "-//W3C//DTD SVG 1.1//EN" "http://www.w3.org/Graphics/SVG/1.1/DTD/svg11.dtd">
<svg version="1.1" id="Layer_1" xmlns="http://www.w3.org/2000/svg" xmlns:xlink="http://www.w3.org/1999/xlink" x="0px" y="0px"
	 width="1526.172px" height="404.062px" viewBox="0 0 1526.172 404.062" enable-background="new 0 0 1526.172 404.062"
	 xml:space="preserve">
<g>
	<path fill="#A7E9E4" d="M905.056,39.929c0.059-0.428,0.131-0.854,0.131-1.297c0-5.234-4.242-9.477-9.479-9.477H895.3
		c-1.533,0-2.959,0.396-4.236,1.041c-2.369-4.965-7.42-8.406-13.289-8.406c-8.133,0-14.727,6.594-14.727,14.729
		c0,1.176,0.152,2.312,0.412,3.41H905.056z"/>
	<g>
		<path fill="#A7E9E4" d="M1056.011,88.523c-4.156-7.605-12.228-12.766-21.506-12.766c-4.435,0-8.59,1.184-12.177,3.245
			c-1.504-4-5.352-6.85-9.878-6.85c-1.088,0-2.137,0.165-3.124,0.47c-4.957-11.491-16.385-19.537-29.694-19.537
			c-17.857,0-32.334,14.475-32.334,32.332c0,1.738,0.141,3.442,0.405,5.106c-7.769,4.042-13.077,12.158-13.077,21.521
			c0,13.395,10.857,24.252,24.252,24.252h91.223c13.395,0,24.252-10.857,24.252-24.252
			C1074.353,100.689,1066.548,91.162,1056.011,88.523z"/>
		<path fill="#A7E9E4" d="M1490.171,96.072h-5.289c-1.823-8.059-9.014-14.08-17.623-14.08c-2.418,0-4.72,0.483-6.828,1.343
			c-4.708-6.745-12.521-11.162-21.371-11.162c-13.843,0-25.16,10.801-25.996,24.434c-6.688,1.768-11.629,7.845-11.629,15.091
			c0,8.629,6.998,15.625,15.625,15.625h73.111c8.627,0,15.623-6.996,15.623-15.625
			C1505.794,103.068,1498.798,96.072,1490.171,96.072z"/>
		<path fill="#A7E9E4" d="M634.459,28.15h-3.896c-1.343-5.939-6.643-10.379-12.988-10.379c-1.785,0-3.485,0.357-5.041,0.993
			c-3.47-4.969-9.222-8.228-15.743-8.228c-10.198,0-18.516,7.959-19.137,18.002c-4.94,1.296-8.592,5.779-8.592,11.126
			c0,6.359,5.158,11.516,11.516,11.516h53.881c6.357,0,11.514-5.156,11.514-11.516S640.816,28.15,634.459,28.15z"/>
		<path fill="#A7E9E4" d="M139.293,39.228h-0.408c-1.533,0-2.959,0.396-4.236,1.041c-2.37-4.965-7.42-8.404-13.289-8.404
			c-8.133,0-14.727,6.594-14.727,14.727c0,1.178,0.152,2.314,0.412,3.41h41.596c0.059-0.428,0.131-0.852,0.131-1.295
			C148.771,43.472,144.529,39.228,139.293,39.228z"/>
		<path fill="#A7E9E4" d="M58.984,130.765h-0.74c-2.766,0-5.34,0.717-7.648,1.881c-4.279-8.969-13.401-15.182-23.998-15.182
			C11.908,117.464,0,129.373,0,144.064c0,2.125,0.277,4.178,0.746,6.158h75.121c0.104-0.773,0.234-1.541,0.234-2.34
			C76.102,138.429,68.439,130.765,58.984,130.765z"/>
	</g>
</g>
</svg>
