<?xml version="1.0" encoding="utf-8"?>
<!-- Generator: Adobe Illustrator 16.0.0, SVG Export Plug-In . SVG Version: 6.00 Build 0)  -->
<!DOCTYPE svg PUBLIC "-//W3C//DTD SVG 1.1//EN" "http://www.w3.org/Graphics/SVG/1.1/DTD/svg11.dtd">
<svg version="1.1" id="Layer_1" xmlns="http://www.w3.org/2000/svg" xmlns:xlink="http://www.w3.org/1999/xlink" x="0px" y="0px"
	 width="1526.172px" height="404.062px" viewBox="0 0 1526.172 404.062" enable-background="new 0 0 1526.172 404.062"
	 xml:space="preserve">
<g>
	<path fill="#F7DF31" d="M1471.464,69.298c0,22.777-18.465,41.242-41.244,41.242c-22.771,0-41.236-18.465-41.236-41.242
		c0-22.775,18.465-41.24,41.236-41.24C1452.999,28.058,1471.464,46.523,1471.464,69.298z"/>
	<path opacity="0.1" fill="#F7DF31" d="M1499.522,69.298c0,38.273-31.027,69.301-69.303,69.301
		c-38.27,0-69.297-31.027-69.297-69.301C1360.923,31.027,1391.95,0,1430.22,0C1468.495,0,1499.522,31.027,1499.522,69.298z"/>
</g>
<path fill="#A7E9E4" d="M580.162,167.802c0,1.256-1.02,2.273-2.273,2.273h-58.994c-1.256,0-2.273-1.018-2.273-2.273l0,0
	c0-1.256,1.018-2.273,2.273-2.273h58.994C579.143,165.529,580.162,166.546,580.162,167.802L580.162,167.802z"/>
<path fill="#A7E9E4" d="M153.408,106.748c0,1.316-1.162,2.383-2.594,2.383H83.498c-1.434,0-2.596-1.066-2.596-2.383l0,0
	c0-1.314,1.163-2.381,2.596-2.381h67.316C152.246,104.367,153.408,105.433,153.408,106.748L153.408,106.748z"/>
<path fill="#A7E9E4" d="M1526.173,138.599c0,1.256-0.641,2.273-1.428,2.273h-37.064c-0.789,0-1.43-1.018-1.43-2.273l0,0
	c0-1.256,0.641-2.273,1.43-2.273h37.064C1525.532,136.326,1526.173,137.343,1526.173,138.599L1526.173,138.599z"/>
<path fill="#A7E9E4" d="M1304.11,43.207c0,1.256-0.641,2.273-1.428,2.273h-37.064c-0.789,0-1.43-1.018-1.43-2.273l0,0
	c0-1.256,0.641-2.273,1.43-2.273h37.064C1303.47,40.933,1304.11,41.951,1304.11,43.207L1304.11,43.207z"/>
<path fill="#A7E9E4" d="M684.219,140.005c0,1.256-0.639,2.273-1.428,2.273h-37.062c-0.789,0-1.428-1.018-1.428-2.273l0,0
	c0-1.256,0.639-2.273,1.428-2.273h37.062C683.58,137.732,684.219,138.75,684.219,140.005L684.219,140.005z"/>
<path fill="#A7E9E4" d="M866.081,102.199c0,1.256-0.639,2.273-1.428,2.273h-37.064c-0.789,0-1.428-1.018-1.428-2.273l0,0
	c0-1.256,0.639-2.273,1.428-2.273h37.064C865.442,99.925,866.081,100.943,866.081,102.199L866.081,102.199z"/>
<path fill="#A7E9E4" d="M70.498,52.884c0,1.256-0.639,2.273-1.428,2.273H32.006c-0.789,0-1.428-1.018-1.428-2.273l0,0
	c0-1.256,0.639-2.273,1.428-2.273H69.07C69.859,50.611,70.498,51.628,70.498,52.884L70.498,52.884z"/>
<path fill="#A7E9E4" d="M1257.511,94.691c0,1.314-1.162,2.381-2.594,2.381h-67.316c-1.434,0-2.596-1.066-2.596-2.381l0,0
	c0-1.314,1.162-2.381,2.596-2.381h67.316C1256.349,92.31,1257.511,93.376,1257.511,94.691L1257.511,94.691z"/>
</svg>
