<?xml version="1.0" encoding="utf-8"?>
<!-- Generator: Adobe Illustrator 16.0.0, SVG Export Plug-In . SVG Version: 6.00 Build 0)  -->
<!DOCTYPE svg PUBLIC "-//W3C//DTD SVG 1.1//EN" "http://www.w3.org/Graphics/SVG/1.1/DTD/svg11.dtd">
<svg version="1.1" id="Layer_1" xmlns="http://www.w3.org/2000/svg" xmlns:xlink="http://www.w3.org/1999/xlink" x="0px" y="0px"
	 width="25.512px" height="25.512px" viewBox="0 0 25.512 25.512" enable-background="new 0 0 25.512 25.512" xml:space="preserve">
<path fill="#FFFDF6" d="M12.756,1.298c-6.33,0-11.459,5.129-11.459,11.459c0,6.326,5.129,11.457,11.459,11.457
	c6.328,0,11.459-5.131,11.459-11.457C24.215,6.427,19.084,1.298,12.756,1.298z M13.939,19.798h-2.906v-3.186h2.906V19.798z
	 M16.412,11.261c-0.211,0.461-0.568,0.959-1.068,1.488l-0.52,0.512c-0.363,0.369-0.602,0.666-0.715,0.889
	c-0.113,0.225-0.17,0.469-0.17,0.738v0.4h-2.906v-0.438c0-0.488,0.09-0.924,0.268-1.301c0.18-0.377,0.553-0.859,1.117-1.443
	l0.52-0.518c0.305-0.311,0.527-0.604,0.67-0.877c0.143-0.275,0.215-0.549,0.215-0.824c0-0.418-0.129-0.742-0.389-0.979
	c-0.258-0.234-0.619-0.354-1.076-0.354c-0.436,0-0.906,0.102-1.408,0.299c-0.504,0.201-1.033,0.498-1.58,0.891V6.937
	c0.648-0.25,1.244-0.434,1.779-0.555c0.537-0.119,1.055-0.178,1.559-0.178c1.305,0,2.301,0.297,2.99,0.889
	c0.689,0.594,1.033,1.461,1.033,2.6C16.73,10.276,16.623,10.8,16.412,11.261z"/>
</svg>
