<?xml version="1.0" encoding="utf-8"?>
<!-- Generator: Adobe Illustrator 16.0.0, SVG Export Plug-In . SVG Version: 6.00 Build 0)  -->
<!DOCTYPE svg PUBLIC "-//W3C//DTD SVG 1.1//EN" "http://www.w3.org/Graphics/SVG/1.1/DTD/svg11.dtd">
<svg version="1.1" id="Layer_1" xmlns="http://www.w3.org/2000/svg" xmlns:xlink="http://www.w3.org/1999/xlink" x="0px" y="0px"
	 width="51.59px" height="112.514px" viewBox="-0.838 -21.714 51.59 112.514" enable-background="new -0.838 -21.714 51.59 112.514"
	 xml:space="preserve">
<g>
	<path fill="#FFFFFF" d="M32.673-1.108c6.12,0,8.702,5.005,9.694,7.981l7.871,25.882c0.41,1.453,0.224,2.799-0.525,3.789
		c-0.646,0.854-1.659,1.363-2.711,1.363c-1.561,0-2.827-1.076-3.387-2.873l-7.087-23.769c-0.037-0.127-0.154-0.214-0.287-0.214
		h-2.062c-0.095,0-0.184,0.044-0.24,0.12c-0.057,0.076-0.074,0.173-0.048,0.264l12.171,41.896H35.145c-0.166,0-0.3,0.135-0.3,0.301
		v32.963c0,2.683-2.031,3.904-3.919,3.904c-1.896,0-3.936-1.222-3.936-3.904v-33.18c0-0.166-0.134-0.301-0.3-0.301h-3.447
		c-0.08,0-0.156,0.031-0.212,0.088c-0.057,0.057-0.088,0.133-0.088,0.213l0.006,33.132c0,2.714-2.045,3.951-3.944,3.951
		s-3.944-1.237-3.944-3.951l-0.004-32.915c0-0.166-0.134-0.301-0.3-0.301H3.806l12.074-41.896c0.026-0.09,0.008-0.188-0.049-0.263
		c-0.057-0.076-0.145-0.12-0.239-0.12h-1.906c-0.133,0-0.25,0.087-0.288,0.214L6.314,35.111c-0.562,1.73-1.834,2.763-3.404,2.763
		c-1.079,0-2.105-0.511-2.745-1.365c-0.726-0.97-0.894-2.292-0.474-3.724L7.559,6.868c0.686-2.398,2.994-7.977,9.608-7.977H32.673
		 M32.673-1.408H17.168c-6.469,0-9.053,5.241-9.896,8.194l-7.867,25.911c-0.987,3.365,1.226,5.477,3.506,5.477
		c1.496,0,3.021-0.909,3.689-2.969l7.087-23.853h1.906L3.408,53.632h11.35l0.004,32.915c0,2.834,2.122,4.251,4.244,4.251
		s4.244-1.417,4.244-4.251l-0.006-33.132h3.447v33.18c0,2.799,2.119,4.205,4.235,4.205c2.11,0,4.219-1.398,4.219-4.205V53.632
		h11.315l-12.282-42.28h2.062l7.087,23.769c0.669,2.15,2.185,3.086,3.674,3.086c2.269,0,4.474-2.172,3.525-5.533L42.654,6.786
		C41.683,3.874,39.082-1.408,32.673-1.408L32.673-1.408z"/>
	<path fill="#FFFFFF" d="M24.965-21.414c4.899,0,8.886,3.986,8.886,8.886c0,4.9-3.986,8.886-8.886,8.886s-8.885-3.986-8.885-8.886
		C16.08-17.428,20.065-21.414,24.965-21.414 M24.965-21.714c-5.072,0-9.185,4.113-9.185,9.186s4.112,9.186,9.185,9.186
		c5.074,0,9.186-4.113,9.186-9.186S30.039-21.714,24.965-21.714L24.965-21.714z"/>
</g>
</svg>
