<?xml version="1.0" encoding="utf-8"?>
<!-- Generator: Adobe Illustrator 16.0.0, SVG Export Plug-In . SVG Version: 6.00 Build 0)  -->
<!DOCTYPE svg PUBLIC "-//W3C//DTD SVG 1.1//EN" "http://www.w3.org/Graphics/SVG/1.1/DTD/svg11.dtd">
<svg version="1.1" id="Layer_1" xmlns="http://www.w3.org/2000/svg" xmlns:xlink="http://www.w3.org/1999/xlink" x="0px" y="0px"
	 width="43.688px" height="52.371px" viewBox="0 0 43.688 52.371" enable-background="new 0 0 43.688 52.371" xml:space="preserve">
<polygon fill="#31B9DD" points="24.33,24.013 24.191,23.753 24,23.654 23.797,23.568 23.707,23.371 23.656,23.16 23.566,23 
	23.515,22.826 23.439,22.478 23.427,22.355 23.287,22.218 23.07,22.169 22.867,22.158 22.74,22.095 22.677,21.972 22.549,21.873 
	22.472,21.835 22.486,21.724 22.588,21.501 22.703,21.316 22.703,21.179 22.65,21.13 22.486,21.156 22.461,21.093 22.447,20.931 
	22.41,20.796 22.345,20.71 22.232,20.623 22.015,20.646 21.812,20.783 21.709,20.833 21.646,20.82 21.62,21.167 21.519,21.427 
	21.175,22.058 20.132,22.677 19.878,22.962 19.763,23.185 19.649,23.408 19.75,23.419 19.852,23.357 19.979,23.294 20.031,23.406 
	19.966,23.642 19.687,24.21 19.661,24.361 19.763,24.841 19.966,25.375 19.928,26.005 19.98,26.499 19.891,26.81 19.839,27.193 
	19.979,27.712 20.106,27.837 20.183,27.998 20.17,28.542 19.852,28.802 19.508,28.853 19.508,29.037 19.534,29.322 19.508,29.421 
	19.534,29.595 19.433,29.818 19.292,29.978 19.419,30.263 19.597,30.609 19.776,30.88 19.979,31.166 20.119,31.439 20.259,31.673 
	20.4,31.748 20.463,31.699 20.501,31.599 20.514,31.291 20.552,31.191 20.654,31.117 20.845,31.154 21.06,31.228 21.353,31.388 
	21.404,31.376 21.518,31.3 21.76,30.931 21.926,30.609 22.23,30.498 22.396,30.375 22.625,30.175 22.726,29.99 22.904,29.396 
	22.929,29.05 22.904,28.876 22.867,28.839 22.752,28.257 22.802,27.96 22.802,27.775 22.701,27.687 22.625,27.564 22.779,27.082 
	22.765,26.884 22.779,26.649 23.019,26.104 23.16,25.942 23.275,25.856 23.453,25.363 23.541,25.289 23.898,25.337 24.076,25.275 
	24.152,25.164 24.177,25.078 24.166,24.806 24.267,24.582 24.394,24.373 24.394,24.236 "/>
</svg>
