<?xml version="1.0" encoding="utf-8"?>
<!-- Generator: Adobe Illustrator 16.0.0, SVG Export Plug-In . SVG Version: 6.00 Build 0)  -->
<!DOCTYPE svg PUBLIC "-//W3C//DTD SVG 1.1//EN" "http://www.w3.org/Graphics/SVG/1.1/DTD/svg11.dtd">
<svg version="1.1" id="Layer_1" xmlns="http://www.w3.org/2000/svg" xmlns:xlink="http://www.w3.org/1999/xlink" x="0px" y="0px"
	 width="43.688px" height="52.371px" viewBox="0 0 43.688 52.371" enable-background="new 0 0 43.688 52.371" xml:space="preserve">
<g id="Azerbaijan_1_">
	<polygon id="polygon2249_1_" fill="#DE435F" points="17.74,29.057 17.703,29.208 17.819,29.311 18.216,29.575 18.385,29.715 
		18.344,29.965 18.707,30.573 18.835,30.815 18.973,31.105 18.409,30.991 17.392,30.762 17.097,30.65 16.79,30.307 16.622,30.141 
		16.364,29.942 16.159,29.864 16.007,29.715 15.89,29.5 15.749,29.311 15.504,29.081 14.939,28.311 14.861,28.221 14.745,28.094 
		14.693,28.019 14.965,27.955 15.401,27.779 15.544,27.854 15.71,28.034 15.801,28.184 15.851,28.463 15.914,28.513 16.12,28.412 
		16.251,28.526 16.444,28.653 16.764,28.779 17.163,28.563 17.382,28.5 17.56,28.5 17.662,28.577 17.728,28.792 	"/>
	<polygon id="polygon2251_1_" fill="#DE435F" points="14.466,22.874 14.45,22.771 14.539,22.734 14.618,22.771 14.656,22.861 
		14.656,22.963 14.605,23.001 14.502,22.963 	"/>
	<polygon id="polygon2253_1_" fill="#DE435F" points="20.517,21.193 20.76,21.737 20.94,21.85 21.545,22.04 21.752,22.077 
		22.316,22.142 22.511,22.089 22.717,21.611 22.895,21.13 23.128,21.027 23.512,20.789 23.743,20.559 23.809,20.333 23.975,19.878 
		24.089,19.624 24.386,19.839 24.927,20.434 25.736,21.393 25.942,21.661 26.095,21.989 26.251,22.367 26.456,22.708 27.256,23.555 
		27.588,23.874 28.115,24.276 28.294,24.366 28.511,24.379 28.898,24.379 29.297,24.53 29.488,24.632 29.708,24.797 29.901,24.985 
		30.158,25.491 29.503,25.34 28.873,25.377 28.536,25.491 28.217,25.644 27.922,25.868 27.781,26.274 27.754,27.222 27.651,28.12 
		27.728,28.526 27.908,28.917 27.922,29.106 27.818,29.184 27.704,29.36 27.639,30.17 27.562,30.333 27.459,30.434 27.408,30.345 
		27.381,30.129 27.072,29.953 26.958,30.159 26.931,30.611 26.803,31.08 26.803,31.182 27.087,32.621 26.995,32.621 26.442,32.785 
		26.313,32.736 25.711,32.077 25.594,32.003 25.377,31.976 25.235,31.876 25.093,31.7 25.015,31.558 24.45,31.206 24.348,31.08 
		24.322,30.965 24.374,30.851 24.45,30.762 24.694,30.674 24.965,30.585 25.055,30.536 25.093,30.434 25.069,30.282 24.99,30.129 
		24.528,29.864 24.465,29.739 24.426,29.598 24.426,29.449 24.465,29.325 24.784,29.159 24.938,28.981 24.798,28.792 24.359,28.374 
		23.846,27.907 23.552,27.918 23.229,28.057 22.755,28.475 22.483,28.653 22.137,28.943 21.763,29.268 21.468,29.613 21.287,29.889 
		20.929,30.03 20.76,30.256 20.221,30.978 20.027,30.965 19.964,30.624 19.939,30.345 19.875,30.194 19.63,29.979 19.617,29.877 
		19.657,29.827 19.823,29.852 20.027,29.84 20.118,29.752 19.849,29.474 19.63,29.283 19.437,29.159 19.388,29.081 19.388,29.032 
		19.412,28.965 19.668,28.8 19.668,28.653 19.63,28.487 19.143,28.26 18.82,28.362 18.473,28.094 18.241,27.893 17.971,27.678 
		17.728,27.565 17.483,27.285 17.085,27.008 16.842,26.93 16.829,26.893 16.867,26.833 16.958,26.792 17.6,26.792 17.677,26.729 
		17.689,26.616 17.753,26.425 17.819,26.163 17.768,25.934 17.072,25.58 16.545,25.262 16.159,24.822 15.877,24.429 15.862,24.288 
		15.903,24.163 16.352,23.783 16.364,23.682 16.352,23.621 16.146,23.43 15.89,23.239 15.801,23.1 15.645,23.026 15.376,23.026 
		14.861,22.799 14.76,22.771 14.733,22.723 14.745,22.685 15.066,22.569 15.054,22.495 14.939,22.394 14.733,22.317 14.528,22.129 
		14.437,21.95 14.965,21.446 15.133,21.333 15.544,21.419 16.417,21.737 16.389,21.924 16.493,22.026 16.699,22.167 17.085,22.304 
		17.406,22.367 17.548,22.304 17.781,22.24 18.114,22.407 18.421,22.608 18.577,22.685 18.666,22.708 18.86,22.635 19.078,22.367 
		19.13,22.026 19.13,21.876 18.95,21.661 18.601,21.431 18.216,21.229 17.959,21.053 17.768,20.699 17.612,20.662 17.573,20.611 
		17.522,20.496 17.51,20.321 17.535,20.181 17.662,20.131 17.805,20.103 17.908,19.978 18.024,19.725 18.076,19.586 18.385,19.65 
		18.461,19.878 18.525,19.928 18.654,19.891 18.846,19.802 19.011,19.865 19.27,20.117 19.617,20.395 19.798,20.571 19.887,20.711 
		20.055,20.823 20.299,20.964 	"/>
	<polygon id="polygon2255_1_" fill="#DE435F" points="16.302,24.314 16.224,24.314 16.159,24.379 16.185,24.541 16.288,24.566 
		16.389,24.504 16.389,24.379 	"/>
</g>
</svg>
