<?xml version="1.0" encoding="utf-8"?>
<!-- Generator: Adobe Illustrator 16.0.0, SVG Export Plug-In . SVG Version: 6.00 Build 0)  -->
<!DOCTYPE svg PUBLIC "-//W3C//DTD SVG 1.1//EN" "http://www.w3.org/Graphics/SVG/1.1/DTD/svg11.dtd">
<svg version="1.1" id="Layer_1" xmlns="http://www.w3.org/2000/svg" xmlns:xlink="http://www.w3.org/1999/xlink" x="0px" y="0px"
	 width="43.687px" height="52.37px" viewBox="0 0 43.687 52.37" enable-background="new 0 0 43.687 52.37" xml:space="preserve">
<g id="Pakistan_1_">
	<polygon id="Pakistan_undisputed_1_" fill="#32B9DD" points="39.552,17.845 40.134,17.806 40.511,17.96 40.938,18.138 
		41.185,18.342 41.33,18.677 41.117,18.829 41.33,18.677 41.334,18.69 41.341,18.738 41.196,19.044 40.886,19.195 40.704,19.26 
		39.848,19.833 39.589,20.076 39.407,20.37 39.369,20.573 39.369,20.778 39.746,21.519 39.821,21.735 39.821,22.538 39.836,22.845 
		39.94,23.048 40.173,23.112 40.251,23.291 40.302,23.418 40.005,23.726 39.667,23.993 39.552,23.993 39.277,24.503 38.876,25.484 
		38.616,25.83 38.63,25.995 38.63,26.161 38.812,26.43 38.888,26.656 38.799,26.899 38.616,27.168 38.213,27.424 37.696,27.679 
		37.462,27.83 37.397,28.47 37.347,29.107 37.32,29.351 37.151,30.076 36.827,31.173 36.736,31.416 35.997,31.952 35.258,32.539 
		35.142,32.755 35.063,33.277 35.012,33.839 34.907,34.146 34.492,34.819 34.403,35.331 34.415,35.663 33.988,35.854 33.495,36.046 
		32.742,36.122 32.432,36.224 31.589,36.709 31.356,36.734 31.161,36.657 30.991,36.517 30.823,36.263 30.681,35.854 30.474,35.689 
		30.201,35.535 29.942,35.535 29.722,35.714 29.526,35.906 29.411,36.058 29.28,36.236 29.112,36.849 28.787,37.729 28.387,38.367 
		28.216,38.558 28.126,38.712 27.997,38.915 27.943,39.119 27.918,39.782 27.943,40.368 28.009,40.497 28.1,40.611 28.411,40.765 
		28.865,41.044 29.423,41.185 29.876,41.21 30.071,41.326 30.201,41.479 30.252,41.618 30.305,42.104 30.344,42.626 30.266,43.188 
		30.317,43.508 30.434,43.814 31.069,44.592 31.266,44.667 31.641,44.681 31.809,44.654 31.991,44.578 32.146,44.631 32.262,44.719 
		32.313,44.884 32.432,45.676 32.639,46.033 33.015,46.518 33.339,47.065 33.662,47.729 33.961,48.253 34.092,48.52 33.974,48.661 
		33.91,48.787 33.922,48.979 33.988,49.171 33.988,49.31 34.116,49.477 34.247,49.526 34.26,49.643 34.092,49.795 33.922,49.795 
		33.806,49.871 33.611,50.202 33.508,50.268 33.353,50.305 33.171,50.268 32.911,50.152 32.807,49.948 32.794,49.732 32.729,49.604 
		32.549,49.628 31.977,49.871 31.432,50.152 31.356,50.33 31.251,50.535 30.991,50.611 30.602,50.649 30.331,50.625 30.046,50.42 
		29.786,50.241 29.436,50.241 28.8,50.28 28.451,50.293 28.23,50.228 28.035,50.28 27.763,50.217 27.672,50.317 27.557,50.33 
		27.452,50.152 27.386,50.139 27.321,50.165 27.271,50.228 27.259,50.33 27.413,51.505 26.997,51.505 26.687,51.505 26.375,51.581 
		26.077,51.669 25.948,51.784 25.766,51.963 25.753,52.192 25.676,52.37 25.493,52.118 25.378,52.001 25.287,52.09 25.13,52.09 
		24.806,51.798 24.716,52.09 24.262,52.167 24.185,51.952 24.132,51.746 23.911,51.899 23.691,51.683 23.562,51.375 23.484,51.3 
		23.392,51.199 23.187,51.097 22.966,50.776 22.9,50.434 22.797,50.024 22.213,48.52 21.979,48.38 20.722,48.137 20.617,47.883 
		20.592,47.168 20.501,46.722 20.021,46.135 19.841,45.725 19.464,45.382 19.141,45.278 18.828,45.332 18.673,45.483 18.606,45.715 
		19.296,45.649 19.451,45.725 19.672,45.88 19.464,45.88 19.231,45.814 18.945,45.828 17.896,46.019 17.312,46.288 16.469,46.224 
		15.457,46.504 14.588,46.53 14.302,47.015 14.097,46.938 13.913,46.823 12.669,46.465 12.565,46.313 12.347,46.211 12.165,46.415 
		12.007,46.454 11.321,46.288 10.841,46.427 10.687,46.657 10.724,46.989 10.089,46.938 9.713,46.837 9.258,46.963 8.171,46.837 
		7.897,46.873 7.534,47.104 7.392,47.282 7.172,47.359 6.937,47.116 6.768,47.015 6.639,47.091 6.471,47.296 5.938,47.396 
		5.433,47.384 4.862,47.205 4.915,47.141 4.953,46.811 4.875,45.649 4.915,45.229 4.85,44.999 4.862,44.935 5.046,44.732 
		5.083,44.642 5.083,44.042 5.083,43.379 5.147,43.149 5.212,43.085 5.848,42.767 5.927,42.576 6.276,42.614 6.302,42.563 
		6.302,42.333 6.417,42.092 6.614,41.886 6.768,41.811 7.352,41.671 7.677,41.479 7.781,41.466 8.715,41.492 8.896,41.416 
		8.922,41.352 8.883,40.688 9.025,40.573 9.051,40.522 8.922,40.062 8.907,39.744 9.077,39.566 9.051,39.451 8.869,39.234 
		8.676,39.107 8.585,39.069 7.831,39.221 7.521,39.183 7.352,39.107 7.313,39.043 7.326,38.915 7.301,38.698 7.352,38.354 
		7.365,38.15 7.094,36.964 6.847,36.187 6.794,35.408 6.756,35.255 6.717,35.215 6.626,35.215 6.173,35.293 5.706,34.808 
		5.419,34.616 4.72,34.373 4.421,34.337 3.956,34.134 3.476,33.673 2.995,33.201 2.788,32.896 2.528,32.372 1.855,31.378 
		1.814,31.121 1.724,30.97 1.128,30.317 0.7,29.859 0,29.107 1.22,29.515 2.153,29.81 3.683,30.306 4.862,30.688 5.187,30.739 
		8.402,30.317 9.661,30.548 10.063,30.688 10.103,30.599 10.245,30.42 10.489,30.229 10.854,30.076 11.217,29.988 11.763,29.961 
		12.138,29.974 12.422,30.012 12.94,29.974 13.188,29.887 14.004,29.578 14.562,29.374 15.394,29.043 16.002,28.812 16.13,28.687 
		16.262,28.47 16.313,28.291 16.066,27.997 15.987,27.743 16.066,27.411 16.041,26.914 15.897,26.212 15.78,25.804 15.819,25.038 
		15.897,24.605 16.158,24.4 16.339,24.26 16.416,24.171 16.481,24.069 16.688,23.483 16.923,23.201 17.182,23.034 17.493,23.048 
		17.791,23.266 18.322,23.343 18.802,23.266 19.205,23.086 19.361,22.946 19.567,22.818 19.529,22.679 19.257,22.563 19.076,22.411 
		18.972,22.193 19.089,22.066 19.425,22.027 20.151,21.492 20.424,21.161 20.476,20.995 20.632,20.983 20.981,21.123 21.357,21.161 
		21.552,21.008 21.772,20.955 22.031,21.123 22.187,21.326 22.446,21.557 22.706,21.595 22.99,21.453 23.263,21.173 23.497,20.778 
		23.691,20.383 23.38,19.171 23.187,18.456 23.25,18.073 23.406,17.831 23.471,17.462 23.406,17.156 23.484,16.875 23.484,16.149 
		23.64,15.97 24.015,15.842 24.638,15.752 25.066,15.396 25.493,15.025 25.493,14.72 25.235,14.388 24.847,13.749 24.534,13.367 
		23.834,12.692 23.796,12.271 24.068,12.079 24.896,12.361 25.118,12.411 25.39,12.437 26.091,12.411 26.636,12.284 27.167,11.99 
		27.218,11.722 27.141,11.391 27.088,11.122 27.023,10.739 26.751,10.511 26.57,10.308 26.491,10.128 26.622,10.039 26.727,9.846 
		26.79,9.528 27.038,9.131 27.153,8.789 27.31,8.623 27.542,8.381 27.646,8.048 27.686,7.858 27.802,7.653 27.829,7.526 
		27.751,7.423 27.632,7.283 27.505,7.13 27.478,6.965 27.517,6.799 27.557,6.659 27.478,6.456 27.348,6.122 27.153,5.932 
		26.946,5.472 26.661,5.013 26.532,4.835 26.323,4.617 25.907,4.389 25.766,4.223 25.83,3.916 26.025,3.712 26.351,3.229 
		26.506,2.884 26.661,2.653 26.946,2.679 27.102,2.653 27.206,2.437 27.438,2.245 27.854,1.838 27.957,1.569 28.191,1.428 
		28.411,1.391 28.684,1.288 28.942,1.137 29.177,1.021 29.591,0.982 30.227,0.894 30.565,0.817 31.407,0.741 32.313,0.677 
		32.432,0.677 32.859,0.792 33.313,0.913 33.158,1.734 30.749,1.734 30.405,2.636 29.602,3.199 28.915,3.878 29.373,5.006 
		31.208,4.779 31.666,6.021 32.585,6.245 33.042,7.487 33.272,7.374 34.391,7.74 34.574,7.822 33.141,8.84 33.6,11.886 
		34.403,12.79 34.403,14.819 35.681,15.271 36.646,15.882 36.827,16.06 37.774,16.126 37.812,16.319 37.812,16.518 37.993,16.671 
		38.371,16.658 38.695,16.709 38.812,16.646 38.916,16.686 38.979,17.27 39.11,17.614 39.213,17.716 	"/>
	<polygon id="Pakistan_de-facto_3_" fill="#32B9DD" points="35.337,8.05 36.024,8.05 37.286,7.712 37.86,8.728 38.548,8.728 
		39.235,8.728 39.207,9.516 39.589,9.669 40.068,9.783 40.381,9.771 40.769,9.528 40.938,9.325 41.185,9.083 41.574,9.083 
		42.312,8.699 42.48,8.763 42.727,8.776 42.973,8.559 43.078,8.317 43.065,8.202 43.116,8.111 43.401,7.946 43.661,7.729 
		43.675,7.448 43.687,7.258 43.467,6.927 43.382,6.789 42.635,5.636 42.533,5.484 42.312,5.141 42.185,5.077 41.858,4.885 
		41.612,4.72 41.47,4.285 41.327,4.324 41.028,4.49 40.679,4.604 40.457,4.617 40.354,4.555 40.107,4.083 39.979,3.954 
		39.784,3.916 39.575,3.841 39.446,3.712 39.396,3.56 39.434,3.379 39.499,3.24 39.291,2.411 39.162,2.147 38.664,1.932 
		39.162,2.147 39.147,2.118 39.032,1.876 38.812,1.569 38.643,1.378 38.396,1.213 38.046,1.045 37.761,0.982 37.462,1.137 
		37.347,1.085 37.062,0.523 36.944,0.408 36.31,0.191 36.023,0.153 35.752,0.243 35.596,0.306 35.427,0.206 35.167,0.089 34.935,0 
		34.674,0.014 34.519,0.078 34.234,0.23 33.651,0.6 33.262,0.894 33.158,0.904 33.126,0.895 33.158,1.734 30.749,1.734 
		30.405,2.636 29.602,3.199 28.915,3.878 29.373,5.006 31.208,4.779 31.666,6.021 32.585,6.245 33.042,7.487 33.272,7.374 
		34.649,7.826 	"/>
	<polyline id="Pakistan_de-facto_2_" fill="#32B9DD" points="33.141,8.84 33.6,11.886 34.403,12.79 34.403,14.819 35.681,15.271 
		36.713,15.834 36.827,16.06 37.681,16.06 37.645,15.804 37.58,15.752 37.385,15.702 37.048,15.499 36.762,15.242 36.595,15.063 
		36.517,14.949 36.517,14.859 36.62,14.63 36.75,14.3 36.762,14.019 36.736,13.812 36.646,13.661 36.426,13.495 36.191,13.343 
		36.09,13.201 36.036,12.998 36.036,12.729 36.217,12.525 36.581,12.32 36.632,12.093 36.581,11.912 36.452,11.875 36.18,11.875 
		35.687,11.838 35.581,11.747 35.491,11.62 35.465,11.493 35.53,11.352 35.608,11.162 35.545,10.982 35.361,10.791 34.999,10.651 
		34.896,10.446 34.907,10.28 34.961,10.025 35.025,9.861 35.129,9.363 35.387,9.247 35.687,9.083 36.01,8.891 36.62,9.005 
		36.918,9.058 37.528,9.184 38.032,9.286 38.526,9.311 38.722,9.299 38.979,9.427 39.207,9.516 39.235,8.728 38.548,8.728 
		37.86,8.728 37.286,7.712 36.024,8.05 35.337,8.05 34.574,7.822 33.141,8.84 33.6,11.886 34.403,12.79 34.403,14.819 
		35.681,15.271 36.713,15.834 36.827,16.06 	"/>
</g>
</svg>
