<?xml version="1.0" encoding="utf-8"?>
<!-- Generator: Adobe Illustrator 16.0.0, SVG Export Plug-In . SVG Version: 6.00 Build 0)  -->
<!DOCTYPE svg PUBLIC "-//W3C//DTD SVG 1.1//EN" "http://www.w3.org/Graphics/SVG/1.1/DTD/svg11.dtd">
<svg version="1.1" id="Layer_1" xmlns="http://www.w3.org/2000/svg" xmlns:xlink="http://www.w3.org/1999/xlink" x="0px" y="0px"
	 width="43.687px" height="52.37px" viewBox="0 0 43.687 52.37" enable-background="new 0 0 43.687 52.37" xml:space="preserve">
<g>
	<path fill="#32B9DD" d="M20.191,27.579c0.006,0-0.008-0.004-0.008-0.006v-0.018c0-0.01,0.014-0.009,0.012-0.015
		c-0.001-0.006,0.002-0.014-0.003-0.021c-0.006-0.007-0.009-0.013-0.015-0.021c-0.007-0.006-0.011-0.006-0.021-0.011
		c-0.002-0.003-0.006-0.003-0.008-0.003s-0.002,0-0.005,0c-0.005,0-0.01,0.001-0.021,0.003c-0.017,0.003-0.016,0.007-0.025,0.011
		c-0.012,0.006-0.012,0.005-0.018,0.012c-0.006,0.006-0.007,0.009-0.009,0.023c0,0.014-0.011,0.014-0.019,0.02
		c-0.009,0.007-0.015,0.013-0.016,0.013c0,0-0.012,0-0.021,0c-0.009,0-0.008,0-0.014,0c-0.004,0-0.012,0.001-0.013,0.001
		c0,0-0.007,0.005-0.01,0.014c-0.005,0.01,0.003,0.004,0.007,0.01s0.006,0.006,0.008,0.015c0.001,0.01,0.001,0.01,0.002,0.019
		c0.002,0.009,0.005,0.017,0.006,0.022c0.002,0.006,0.005,0.012,0.006,0.021c0.002,0.01,0.002,0.008,0.003,0.014
		c0.003,0.006,0.006,0,0.012-0.003s0.01-0.003,0.018-0.009c0.009-0.007,0.009-0.005,0.017-0.011
		c0.009-0.006,0.012-0.008,0.018-0.013c0.009-0.005,0.018-0.002,0.029-0.005c0.014-0.002,0.014-0.003,0.021-0.008
		c0.007-0.004,0.013-0.003,0.019-0.003c0.007-0.001,0.012,0,0.019-0.004c0.006-0.005,0.008-0.013,0.008-0.017
		s0.01-0.023,0.012-0.028C20.183,27.576,20.184,27.579,20.191,27.579z"/>
	<path fill="#32B9DD" d="M20.676,26.859l0.013-0.023c-0.007-0.008-0.013-0.013-0.015-0.018c0,0,0-0.003,0-0.004l0.029-0.017
		c0,0.002,0.002,0.003,0.003,0.006c0.006,0.02,0.006,0.015,0.024,0.026c0.019,0.011,0.021,0.014,0.048,0.014
		c0.011,0,0.017,0,0.022,0l-0.006,0.021c-0.008,0-0.019,0-0.025,0.002c-0.019,0.006-0.035-0.004-0.052-0.011
		c-0.005-0.001-0.009-0.005-0.012-0.007l-0.013,0.021c0,0,0,0.001,0,0.003c-0.002,0.007-0.008,0.012-0.014,0.018
		c-0.01,0.011-0.021,0.022-0.02,0.024c0.024,0.017,0.034,0.016,0.064,0.021s0.093,0.015,0.115,0.011
		c0.024-0.006,0.027-0.013,0.038-0.031c0.009-0.017-0.021-0.032-0.042-0.043c-0.009-0.006-0.021-0.008-0.032-0.008l0.006-0.021
		c0.008,0.002,0.013,0.003,0.023,0.007c0.022,0.008,0.017-0.002,0.037,0.014c0.019,0.02,0.023,0.006,0.033,0.034
		c0.011,0.029,0.005,0.048,0.032,0.052c0.027,0.006,0.016-0.009,0.027-0.006s0.014,0,0.021,0.004
		c0.007,0.006,0.013,0.016,0.02,0.012c0.008-0.006,0.01-0.006,0.005-0.014c-0.006-0.009-0.009-0.011-0.012-0.019
		c-0.004-0.007-0.003-0.013-0.01-0.016c-0.007-0.002-0.012,0-0.012-0.007s0.018-0.011,0.018-0.011l-0.06-0.06l-0.006,0.005
		l-0.012-0.013l0.005-0.007l-0.009-0.009l-0.007,0.005l-0.008-0.011l-0.004-0.01l-0.005-0.005l-0.004,0.011
		c0,0-0.012,0.003-0.015-0.008c-0.006-0.012-0.016-0.027-0.016-0.027s-0.048-0.042-0.06-0.048c-0.011-0.008-0.044-0.022-0.044-0.022
		c-0.008-0.002-0.017-0.006-0.023-0.006v0.001c-0.004,0-0.009,0-0.013,0.003c-0.009,0.005-0.02,0.002-0.021,0.02
		c-0.003,0.016-0.009,0.009-0.003,0.026c0.004,0.018,0.003,0.014,0.009,0.029c0.003,0.009,0.003,0.015,0.003,0.019l-0.031,0.017
		c-0.005-0.014-0.012-0.036-0.015-0.048c-0.003-0.008-0.006-0.009-0.011-0.009c-0.006,0-0.013,0.006-0.019,0.009
		c-0.011,0.007-0.022,0.025-0.022,0.025s-0.011,0.014-0.017,0.021c-0.013,0.018-0.001,0.011,0.008,0.018
		c0.011,0.007,0.019,0.012,0.022,0.032c0,0,0.011,0.018,0.023,0.039c0.003,0.004,0.03-0.037,0.033-0.035
		C20.676,26.859,20.676,26.859,20.676,26.859z"/>
	<path fill="#32B9DD" d="M20.524,26.753c-0.018-0.007-0.015-0.007-0.034-0.01c-0.01,0-0.017,0-0.022-0.002c-0.003,0-0.004,0-0.007,0
		c-0.008,0.002-0.015,0.002-0.021,0.005c-0.015,0.006-0.011,0.001-0.031,0.004s-0.013,0.008-0.027,0.02s-0.012,0.006-0.024,0.01
		c-0.015,0.006-0.012,0.006-0.012,0.019c0,0.014,0.003,0.011,0.012,0.023c0.01,0.012,0.012,0.009,0.043,0.02
		c0.029,0.009,0.021,0,0.046,0c0.026,0,0.071-0.038,0.097-0.035c0.003,0,0.008-0.003,0.01-0.002l-0.008-0.025
		C20.541,26.776,20.539,26.759,20.524,26.753z"/>
	<path fill="#32B9DD" d="M20.521,26.937c0.007-0.005,0.012-0.002,0.009-0.015c-0.002-0.012-0.006-0.021-0.006-0.021l-0.019-0.005
		c-0.005-0.001-0.015-0.004-0.021-0.003c-0.004,0-0.006,0-0.008,0.002c-0.006,0.004-0.018,0.004-0.01,0.016
		c0.009,0.015,0.014,0.008,0.02,0.025s-0.01,0.024,0.006,0.038c0.015,0.011,0.014,0.024,0.031,0.014
		c0.017-0.01,0.013-0.021,0.013-0.021s-0.015-0.003-0.015-0.014S20.513,26.939,20.521,26.937z"/>
	<path fill="#32B9DD" d="M20.374,28.004c-0.003,0.002-0.005,0.004-0.005,0.007c-0.002,0.001-0.004,0.001-0.004,0.009
		c0,0.006-0.001,0.006,0,0.01c0,0.004,0,0.008,0,0.01s0,0.003,0.004,0.003c0.001,0,0.004-0.004,0.004-0.004
		s-0.002-0.005-0.002-0.007c0-0.004-0.001-0.008,0.003-0.008c0.003-0.004,0.003-0.004,0.003-0.007s-0.001-0.007-0.001-0.007
		s0.001,0,0.003-0.004c0.001-0.001-0.002-0.004,0-0.005h-0.002C20.377,28.001,20.374,28.002,20.374,28.004z"/>
	<path fill="#32B9DD" d="M20.359,27.771c-0.002,0-0.02-0.01-0.028-0.012c-0.009-0.005-0.007-0.002-0.019,0
		c-0.01,0.002-0.018,0.005-0.026,0.008s-0.011-0.003-0.021-0.01c-0.01-0.007-0.007-0.006-0.018-0.009
		c-0.005,0-0.01-0.001-0.017-0.001c-0.003,0-0.009,0.001-0.015,0.003c-0.016,0.004-0.015,0.009-0.026,0.016
		c-0.012,0.004-0.01,0.007-0.018,0.016c-0.008,0.011-0.004,0.012,0.004,0.023c0.006,0.012,0.014,0.004,0.021,0.007
		c0.007,0.003,0.016,0.007,0.02,0.009c0.005,0.004,0.009,0.006,0.009,0.018c0,0.011-0.001,0.02-0.001,0.02s0.006,0.008,0.013,0.013
		c0.007,0.004,0.01,0.013,0.019,0.023c0.009,0.012,0.009,0.012,0.018,0.006c0.009-0.005,0.006-0.003,0.013-0.008
		c0.007-0.003,0.013,0.012,0.022,0.015c0.008,0.005,0.014,0.005,0.027,0.005c0.013-0.002,0.007-0.003,0.019-0.014
		c0.011-0.009,0.004-0.015,0.001-0.023c-0.001-0.009,0-0.015,0-0.021c0-0.009,0.003-0.01,0.004-0.021
		c0.002-0.012,0.004-0.005,0.01-0.012c0.005-0.006,0.005-0.003,0.011-0.011c0.007-0.009,0.009-0.01,0.007-0.02
		c0-0.01-0.004-0.01-0.01-0.011C20.377,27.779,20.363,27.771,20.359,27.771z"/>
	<path fill="#32B9DD" d="M20.396,27.922c0,0-0.002-0.003-0.005-0.003v0.001c-0.001,0.004-0.005,0.007-0.001,0.011
		c0.001,0.003,0.004,0.002,0.004,0.007c0,0.006-0.006,0.01,0,0.01s0.007-0.001,0.007-0.004c0-0.001,0.002-0.006,0.002-0.01
		c-0.002-0.001-0.002-0.003-0.003-0.006L20.396,27.922z"/>
	<path fill="#32B9DD" d="M20.318,27.532c0.004-0.006,0.008-0.015,0.008-0.015s0.002,0.003,0.005-0.003
		c0.001-0.006,0-0.007-0.001-0.009c-0.002,0-0.002,0-0.002,0s0,0-0.002,0c-0.001,0.002-0.004,0.003-0.007,0.005
		c-0.003,0.001-0.007,0.006-0.009,0.007c-0.002,0.003-0.006,0.009-0.006,0.009l-0.002,0.004c0,0.003-0.004,0.007-0.006,0.007
		c-0.004,0-0.006,0.001-0.005,0.004c0.001,0.002,0.001,0.006,0.011,0.006c0.008-0.001,0.011-0.001,0.013-0.006
		C20.316,27.537,20.313,27.535,20.318,27.532z"/>
	<path fill="#32B9DD" d="M20.576,26.931l-0.015-0.006c0,0-0.01,0.009-0.004,0.017s0.006,0.001,0.012,0.016
		c0.005,0.016,0.011,0.019,0.019,0.019h0.009l0.009-0.021C20.611,26.945,20.576,26.931,20.576,26.931z"/>
	<path fill="#32B9DD" d="M23.922,24.01c-0.012-0.003-0.026-0.01-0.037-0.017c-0.011-0.008-0.01-0.009-0.012-0.016
		c-0.002-0.008-0.006-0.011-0.012-0.021c-0.006-0.01-0.009-0.007-0.018-0.01s-0.012-0.005-0.019-0.005
		c-0.006,0-0.007-0.001-0.011-0.001c-0.002,0.001-0.002,0.006-0.001,0.009l0.01,0.012c0,0,0.006,0.006,0.012,0.012
		c0.006,0.004,0.009,0.007,0.011,0.013c0.001,0.005,0.007,0.008,0.013,0.014s0.021,0.023,0.024,0.027
		c0.004,0.003,0.019,0.013,0.024,0.021c0.009,0.006,0.013,0.013,0.024,0.021c0.012,0.007,0.008,0.009,0.014,0.012
		c0.004,0.004,0.008-0.002,0.013-0.006c0.004-0.006,0.001-0.009,0.001-0.015s-0.003-0.012-0.003-0.021
		c-0.003-0.01-0.003-0.013-0.011-0.02C23.939,24.012,23.934,24.015,23.922,24.01z"/>
	<polygon fill="#32B9DD" points="24.521,24.003 24.521,24.006 24.524,24.009 24.529,24.009 24.533,24.009 24.539,24.003 
		24.546,24.003 24.549,24.001 24.551,23.997 24.552,23.997 24.557,23.994 24.558,23.99 24.537,23.991 24.534,23.988 24.531,23.98 
		24.53,23.979 24.53,23.975 24.525,23.977 24.525,23.98 24.53,23.988 24.53,23.996 	"/>
	<path fill="#32B9DD" d="M23.531,23.729c0,0,0.002,0,0.017,0.021c0.014,0.022,0.019,0.022,0.024,0.028
		c0.006,0.008,0.004,0.008,0.017,0.011c0.013,0.004,0.019,0.002,0.03,0.01c0.008,0.007,0.03,0.015,0.04,0.021
		c0.012,0.006,0.021,0.009,0.034,0.015c0.012,0.006,0.021,0.009,0.021,0.009l0.024,0.021l0.036,0.012c0,0,0.04,0.015,0.046,0.018
		c0.008,0.003,0.021,0.015,0.021,0.015l0.03,0.005c-0.003,0.041,0.021,0.043,0.036,0.059l0.028,0.002c0,0,0.015,0.007,0.026,0.01
		c0.013,0.003,0.012,0.006,0.018,0.021c0.003,0.015,0.026,0.03,0.037,0.048c0.011,0.015,0.018,0.019,0.018,0.019l0.012,0.009
		c0.017,0.005,0.03-0.001,0.044-0.006c0.015-0.004,0.045-0.01,0.057-0.013c0.009-0.004,0.012-0.006,0.021-0.006
		c0.011,0,0.022,0,0.031-0.003c0.012-0.006,0.022-0.018,0.026-0.019c0.006-0.001,0.007,0.005,0.024,0.001
		c0.018-0.002,0.049-0.024,0.049-0.024s0.023-0.012-0.004-0.035c-0.005-0.004,0.05-0.015,0.044-0.019
		c0.014-0.004,0.02-0.015,0.032-0.015c0.012,0,0.033,0.018,0.045,0.019c0.009,0,0.022-0.013,0.03-0.013
		c0.012-0.002,0.013,0.015,0.024,0.013c0.015,0,0.028-0.019,0.045-0.027c0.005-0.003,0.037,0.006,0.056,0.009
		c0.018,0.003,0.026-0.001,0.026-0.01c0-0.003-0.002-0.008-0.005-0.012c-0.007-0.01-0.016-0.02-0.013-0.022l0.011-0.053l0.013-0.011
		l-0.019-0.039l-0.027-0.021c-0.005-0.002-0.012-0.002-0.035-0.002s-0.023-0.019-0.031-0.01c-0.009,0.01-0.021,0.012-0.027,0.012
		c-0.008,0.004-0.022,0.007-0.027,0.007c-0.006,0-0.008-0.007-0.02-0.003c-0.01,0.003-0.022,0.005-0.033,0.005
		c-0.01,0-0.012-0.036-0.025-0.041c-0.015-0.003-0.014-0.039-0.026-0.039h-0.022c0,0-0.005,0.03-0.014,0.028
		c-0.009-0.001-0.023-0.004-0.047-0.001c-0.025,0.003-0.035,0.008-0.044,0.012c-0.009,0.005-0.019,0.011-0.031,0.012
		c-0.012,0-0.021,0.003-0.029,0.006s-0.015,0.003-0.019,0.007c-0.004,0.006-0.008,0.008-0.013,0.008
		c-0.009,0-0.018-0.036-0.024-0.036c-0.006,0-0.011-0.035-0.027-0.035h-0.044l-0.025,0.033c0,0,0.003,0.011-0.006,0.003
		c-0.005-0.003-0.026,0.002-0.032,0c-0.004-0.001-0.007,0.019-0.012,0.018c-0.021-0.006-0.04-0.01-0.043-0.015
		c-0.001-0.006-0.024-0.001-0.027-0.009c-0.001-0.009,0.012-0.021,0.003-0.026s-0.109-0.041-0.122-0.046
		c-0.012-0.006-0.025-0.012-0.039-0.018c-0.016-0.007-0.025-0.018-0.042-0.02c-0.018-0.001-0.033-0.006-0.033-0.006l-0.023-0.003
		l-0.009,0.022l-0.029,0.003l-0.035,0.028l-0.046,0.028l0.022,0.036L23.531,23.729z"/>
	<path fill="#32B9DD" d="M25.129,23.484l0.021,0.013l0.033,0.002c0-0.009,0.043-0.005,0.043-0.005l0.054-0.021
		c0.022-0.011,0.04-0.006,0.063-0.014c0.024-0.009,0.028,0.003,0.033,0.022c0.004,0.021,0.027,0.015,0.045,0.01
		c0.004-0.001,0.014-0.005,0.014-0.005s0.018-0.002,0.036-0.002c0.007,0,0.019-0.002,0.024,0c0.012,0.004,0.014,0.016,0.021,0.021
		c0.019,0.002,0.028,0.007,0.04,0.014c0.009,0.004,0.027-0.007,0.039-0.001c0.008,0.003,0.019,0.006,0.023,0.006
		c0.019,0.009,0.014,0.021,0.031,0.015c0.01-0.003-0.003-0.016-0.007-0.021c-0.009-0.009-0.024-0.009-0.036-0.011
		s-0.045-0.005-0.059-0.009c-0.012-0.003-0.032-0.002-0.044-0.02c-0.012-0.019-0.01-0.038-0.032-0.055
		c-0.02-0.018-0.062-0.021-0.086-0.023c-0.002,0-0.003,0-0.006,0c-0.025,0-0.084,0.019-0.105,0.024
		c-0.021,0.007-0.133,0.033-0.133,0.033c-0.035,0.017-0.066,0.034-0.086,0.07h0.015L25.129,23.484z"/>
	<polygon fill="#32B9DD" points="19.812,27.085 19.807,27.077 19.796,27.069 19.793,27.071 19.792,27.077 19.799,27.092 
		19.811,27.094 	"/>
	<path fill="#32B9DD" d="M19.033,24.12c0,0,0.015-0.01,0.009-0.022c-0.005-0.007-0.007-0.011-0.009-0.011h-0.002
		c0,0-0.001,0.001-0.002,0.002c-0.002,0.004-0.005,0.021-0.008,0.024c-0.003,0.005,0.003,0.009,0.003,0.009L19.033,24.12z"/>
	<path fill="#32B9DD" d="M19.439,23.518l0.006-0.008v-0.008l-0.006-0.009c-0.004,0.003-0.014,0.007-0.014,0.007
		s-0.008,0.006-0.005,0.012c0.005,0.006,0.006,0.004,0.011,0.007C19.438,23.523,19.439,23.518,19.439,23.518z"/>
	<path fill="#32B9DD" d="M20.047,27.3c0.016,0,0.023-0.006,0.039,0.002c0.018,0.009,0.016,0.011,0.035,0.011
		c0.017,0,0.028,0.002,0.043-0.002c0.014-0.004,0.008-0.005,0.025-0.005c0.02,0,0.023-0.001,0.041-0.003
		c0.017-0.001,0.02-0.015,0.014-0.021c-0.004-0.007-0.021-0.027-0.027-0.034c-0.004-0.005-0.019-0.021-0.02-0.025
		c-0.002-0.004-0.005-0.01-0.008-0.023c-0.001-0.013,0.003-0.021-0.014-0.027c-0.018-0.006-0.041-0.017-0.059-0.021
		c-0.017-0.007-0.025-0.005-0.031-0.01s-0.016-0.008-0.027-0.007c-0.004,0-0.008,0-0.012,0c-0.016,0.003-0.019,0.01-0.034,0.015
		c-0.015,0.003-0.015,0.009-0.032,0.009c-0.016,0-0.046,0.009-0.046,0.009c-0.011,0-0.023,0.006-0.027,0.012
		c-0.003,0.006-0.012,0.016-0.015,0.021c-0.004,0.006-0.012,0.015-0.013,0.018c-0.003,0.003-0.012,0.012-0.021,0.018
		c-0.01,0.004-0.01,0.004-0.021,0.012c-0.013,0.006-0.023,0.007-0.029,0.018c-0.006,0.012-0.014,0.016,0.002,0.022
		c0.015,0.005,0.037,0.011,0.063,0.013c0.027,0,0.027,0.003,0.045,0.008c0.017,0.005,0.009,0.006,0.036,0.006
		c0.025,0,0.039,0.002,0.053-0.006C20.025,27.302,20.031,27.3,20.047,27.3z"/>
	<path fill="#32B9DD" d="M25.436,24.514c-0.014-0.008-0.018-0.01-0.02-0.017c-0.004-0.008-0.014-0.019-0.021-0.023
		c-0.015-0.007-0.034-0.02-0.038-0.022c-0.002-0.002-0.006-0.003-0.006-0.003c-0.001,0-0.005-0.003-0.01-0.009
		c-0.01-0.008-0.019-0.015-0.021-0.015c0,0-0.003-0.005-0.006-0.011s-0.006-0.009-0.006-0.009c-0.003,0-0.012,0.009-0.012,0.011
		c0,0.001,0,0.003,0.002,0.006c0.002,0.001,0.002,0.006,0.002,0.007c0,0.003,0.005,0.007,0.022,0.022
		c0.012,0.011,0.021,0.02,0.021,0.02s0.002,0.003,0.005,0.004c0.002,0.001,0.01,0.008,0.016,0.014s0.016,0.013,0.021,0.018
		s0.012,0.009,0.015,0.012c0.003,0.002,0.006,0.004,0.007,0.006c0.002,0.001,0.008,0.006,0.014,0.01
		c0.005,0.006,0.014,0.012,0.02,0.015c0.014,0.012,0.031,0.029,0.041,0.036c0.004,0.003,0.008,0.006,0.008,0.006
		c0.003,0,0.012-0.009,0.015-0.015c0.001-0.003,0.001-0.003-0.009-0.013C25.472,24.539,25.457,24.527,25.436,24.514z"/>
	<path fill="#32B9DD" d="M26.034,24.857c-0.012-0.018-0.036-0.069-0.043-0.126c-0.003-0.017-0.003-0.042,0-0.058
		c0.013-0.061,0.058-0.281,0.099-0.339c0.032-0.049,0.107-0.142,0.129-0.233c0.003-0.012-0.006-0.021-0.005-0.034
		c-0.004,0.036-0.017,0.071-0.024,0.091c-0.004,0.009-0.007,0.015-0.007,0.015s-0.007,0.021-0.027,0.049
		c-0.026,0.037-0.078,0.088-0.114,0.198c-0.008,0.028-0.019,0.056-0.027,0.086c-0.01,0.03-0.01,0.062-0.019,0.095
		c-0.007,0.023-0.016,0.046-0.019,0.072c-0.002,0.014-0.002,0.027-0.002,0.042c0.002,0.018,0.002,0.038,0.006,0.054
		c0.006,0.025,0.017,0.047,0.027,0.071c0.017,0.034,0.057,0.104,0.057,0.104l0.073,0.097l0.009,0.018l-0.004,0.019l-0.018,0.012
		l-0.02-0.001l-0.153-0.123l-0.007,0.008l0.154,0.122c0,0,0.02,0.021,0.04,0.009c0.049-0.026-0.006-0.092-0.046-0.147
		C26.067,24.916,26.05,24.879,26.034,24.857z"/>
	<path fill="#32B9DD" d="M26.004,24.313l0.021-0.016l0.025-0.007l0.012-0.005l0.015,0.002l0.014-0.025l0.002-0.031l-0.009-0.01
		l0.005-0.046l0.01-0.027l0.015-0.052l0.004-0.043l0.021-0.06l0.013-0.03l0.033,0.007c0.028,0.02,0.032,0.054,0.03,0.088
		c0.001-0.032,0.008-0.067-0.013-0.085c-0.013-0.01-0.018-0.013-0.026-0.018c-0.01-0.003-0.019,0.012-0.025-0.005
		c-0.008-0.014-0.006-0.012,0.001-0.02c0.007-0.007,0.021-0.021,0.019-0.029c-0.001-0.01-0.02-0.048-0.027-0.063
		c-0.007-0.018-0.016-0.023-0.022-0.041c-0.008-0.019-0.026-0.043-0.045-0.051c-0.019-0.007-0.024-0.019-0.042-0.026
		c-0.018-0.007-0.018-0.019-0.036-0.032c-0.019-0.017-0.028-0.025-0.042-0.033c-0.013-0.007-0.007-0.012-0.027-0.019
		c-0.02-0.006-0.013-0.008-0.041-0.018c-0.027-0.01-0.041-0.018-0.059-0.027c-0.017-0.009-0.028-0.012-0.045-0.015
		c-0.014-0.001-0.017-0.004-0.028-0.015c-0.015-0.008-0.01-0.003-0.026-0.009c-0.014-0.009-0.019-0.009-0.034-0.008h-0.018
		c0,0-0.009,0-0.011,0.002c-0.006,0.002-0.005,0.012-0.005,0.012c0,0.005-0.019,0.021-0.019,0.021
		c-0.015,0.023-0.031,0.023-0.055,0.018c-0.016-0.002-0.043-0.024-0.049-0.02c-0.009,0.008,0,0.008-0.012,0.009
		c-0.009,0.002-0.01-0.003-0.015-0.005c-0.006-0.004-0.009,0-0.015-0.004c-0.004-0.001-0.006-0.004-0.012-0.01
		c-0.007-0.004-0.012-0.007-0.014-0.009c-0.003-0.003-0.02-0.008-0.02-0.008s0.004,0.021,0.002,0.025
		c0,0.003-0.015,0.013-0.018,0.016c-0.003,0.005-0.001-0.001-0.006,0.012c-0.003,0.013-0.004,0.015-0.012,0.021
		c-0.006,0.005-0.025,0.026-0.041,0.029s-0.033,0.013-0.051,0.01c-0.018-0.004-0.027-0.004-0.036-0.005
		c-0.009-0.002-0.027,0-0.027,0s-0.015-0.017-0.024-0.017c-0.009,0-0.021,0.005-0.021,0.017c0,0.01-0.002,0.051,0.001,0.068
		c0.003,0.015,0.008,0.033,0.013,0.043c0.004,0.002,0.015,0.019,0.018,0.024c0.009,0.014,0.009,0.029,0.009,0.029v0.017
		l-0.004,0.021c-0.005-0.002-0.008-0.015-0.008-0.015l-0.007-0.002l-0.008,0.002l-0.013,0.006l-0.024-0.001l-0.01-0.053
		l-0.026-0.052l-0.03-0.02l-0.03-0.01l-0.033-0.042l-0.022-0.031l0.001-0.027l-0.021-0.023c0,0-0.034-0.014-0.048-0.003
		c-0.039,0.035-0.072,0.065-0.072,0.065s-0.024,0.042-0.017,0.072c0.007,0.028,0.048,0.155,0.048,0.155s0.018,0.036,0.055,0.036
		c0.034,0,0.113,0.007,0.113,0.007s0.039-0.003,0.049-0.016c0.012-0.012,0.018-0.027,0.029-0.035
		c0.012-0.006,0.018-0.011,0.033-0.006c0.018,0.003,0.029,0.008,0.021,0.018c-0.007,0.009-0.013,0.027-0.021,0.039
		s-0.003,0.027,0.003,0.033c0.004,0.006,0.006-0.001,0.01,0.011c0.005,0.012,0.005,0.019,0.005,0.019s-0.003,0.023-0.017,0.028
		c-0.013,0.006-0.055,0.023-0.088,0.021c-0.034-0.002-0.099-0.004-0.104-0.006s-0.026,0.002-0.025,0.019
		c0,0.019,0.012,0.035,0.018,0.057c0.009,0.041,0.041,0.091,0.052,0.106c0.011,0.013,0.087,0.096,0.11,0.118
		c0.002-0.003,0.017-0.013,0.01-0.014c-0.027-0.008-0.097-0.087-0.131-0.148c-0.021-0.033-0.032-0.071-0.032-0.071l-0.016-0.053
		l0.013,0.003l0.015,0.023l0.028,0.02l0.018-0.004h0.024l0.003,0.024l0.018,0.016l0.016,0.004l0.003-0.015l-0.022-0.033l0.022-0.024
		l0.012,0.004l0.015,0.005c0.037-0.015,0.076-0.025,0.092-0.06l0.042,0.006l0.018,0.006l0.015,0.012l-0.033,0.036l-0.044,0.035
		v0.036l0.088,0.003l0.045,0.011l0.042-0.004l0.063,0.001c0,0,0.013,0.013,0.034,0.005c0.021-0.009,0.1-0.046,0.1-0.046
		s0.018-0.009,0.029-0.006c0.012,0.004,0.031,0.003,0.046,0.003c0.017,0,0.026-0.002,0.028-0.006
		c0.003-0.006,0.009-0.017,0.009-0.017s0.019-0.009,0.061-0.021c0.041-0.01,0.097-0.027,0.11-0.038s0.064-0.044,0.064-0.044
		s0.01-0.011,0.024-0.018c0.015-0.008,0.075-0.025,0.087-0.026c0.012,0,0.035-0.004,0.035-0.004l0.014-0.002l0.006,0.017
		c0,0-0.008,0.007-0.012,0.005c-0.006-0.001-0.01-0.001-0.031,0.005c-0.021,0.006-0.029,0.01-0.056,0.013
		c-0.022,0.004-0.019,0.003-0.028,0.009c-0.009,0.008-0.009,0.009-0.021,0.015c-0.012,0.004-0.037,0.019-0.039,0.022
		c-0.003,0.003-0.03,0.032-0.038,0.033c-0.01,0.001-0.065,0.021-0.086,0.028c-0.021,0.006-0.039,0.002-0.052,0.01
		s-0.015,0.016-0.026,0.021c-0.01,0.004-0.01,0.01-0.022,0.01s-0.021,0.001-0.032,0.005c-0.01,0.004-0.022,0.004-0.027,0.004
		c-0.006,0-0.012-0.007-0.012-0.007s-0.005-0.005-0.007-0.002c-0.001,0.003,0,0.007-0.013,0.007c-0.012,0-0.018,0.008-0.023,0.012
		c-0.004,0.005-0.067,0.041-0.067,0.041s-0.018,0.01-0.023,0.006s-0.024-0.012-0.036-0.018c-0.006-0.003-0.04,0.002-0.066,0.006
		v0.014l0.045,0.049l0.045,0.064l-0.021,0.031l0.035,0.003l0.025,0.012l-0.004,0.011l0.024,0.012v0.019l0.025,0.016l0.018,0.032
		l-0.01,0.019l0.025,0.009l0.004-0.016l0.201-0.068l0.036-0.014l0.038-0.007l0.025-0.033l0.043-0.005L26.004,24.313z"/>
	<path fill="#32B9DD" d="M25.886,24.906c-0.003-0.003-0.012-0.01-0.018-0.016c-0.009-0.006-0.015-0.013-0.017-0.014
		c0,0-0.006-0.006-0.012-0.011c-0.008-0.005-0.012-0.008-0.015-0.008h-0.001c-0.002,0.002-0.002,0.002-0.004,0.005
		c0,0.005,0.002,0.006,0.005,0.011c0.004,0.003,0.007,0.005,0.009,0.007c0.001,0.002,0.01,0.009,0.02,0.016
		c0.011,0.008,0.021,0.015,0.021,0.017c0.003,0,0.006,0.003,0.011,0.007c0.002,0.004,0.007,0.006,0.01,0.009
		c0.004,0.001,0.009,0,0.012-0.003c0.001-0.002,0-0.006-0.009-0.011C25.893,24.911,25.889,24.909,25.886,24.906z"/>
	<path fill="#32B9DD" d="M20.238,22.832c0.008,0,0.018,0.203,0.026,0.317c0.001-0.138,0.002-0.317,0.003-0.317
		C20.259,22.832,20.249,22.832,20.238,22.832z"/>
	<polygon fill="#32B9DD" points="19.779,22.832 19.787,22.837 19.786,22.832 	"/>
	<polygon fill="#32B9DD" points="20.415,22.832 20.398,22.832 20.41,22.842 	"/>
	<path fill="#32B9DD" d="M20.299,22.832c-0.001,0,0,0.12,0.003,0.223c0.002-0.096,0.005-0.223,0.008-0.223H20.299z"/>
	<path fill="#32B9DD" d="M20.299,23.154c0,0,0.007,0.002,0.008,0.002c-0.002-0.024-0.004-0.058-0.005-0.102
		C20.301,23.108,20.3,23.154,20.299,23.154z"/>
	<path fill="#32B9DD" d="M19.239,27.104c-0.006-0.002-0.024,0.1-0.024,0.1l-0.027,0.18l-0.004,0.449h0.007l0.006-0.014l0.024,0.014
		h0.008l0.072-0.492l-0.025-0.324l-0.018,0.021C19.258,27.037,19.246,27.105,19.239,27.104z"/>
	<path fill="#32B9DD" d="M17.83,26.136c0,0,0.129,0.09,0.105,0.138c-0.005,0.011,0.033-0.11,0.057-0.178l-0.526,0.009L17.83,26.136z
		"/>
	<path fill="#32B9DD" d="M18.734,27.832c0.023,0,0.01-0.027-0.011-0.022l0.001,0.022H18.734z"/>
	<path fill="#32B9DD" d="M24.338,24.354c-0.021,0.018-0.052-0.046-0.064-0.021c0.003,0.004,0.013-0.042,0.016-0.038
		c0.014,0.014,0.023,0.006,0.049,0.006c-0.013,0.016-0.034,0.004-0.052-0.018l-0.03,0.006l-0.022,0.017l-0.006,0.012l-0.024,0.016
		l-0.023,0.015l0.01,0.021c-0.002,0.014-0.021,0.008-0.028,0.003l-0.013-0.008l-0.018-0.002l-0.036,0.012l-0.055,0.235l-0.033,0.223
		h-0.03l-0.031-0.234l-0.02-0.131l-0.024-0.072l-0.052-0.032l-0.029-0.031l-0.037-0.041l-0.052-0.029l-0.034-0.023
		c-0.015-0.011-0.022-0.017-0.026-0.035l-0.027-0.062l-0.029,0.34l-0.034,0.353h-0.018l-0.006-0.412c0.005,0,0.009-0.19,0.01-0.19
		c0.005-0.01,0.012-0.114,0.006-0.124c-0.006-0.014-0.021-0.068-0.025-0.075c-0.006-0.006-0.015-0.037-0.019-0.041
		c-0.006-0.002-0.008-0.015-0.017-0.026c-0.008-0.013-0.017-0.021-0.027-0.03c-0.01-0.014-0.013-0.021-0.024-0.028
		c-0.011-0.009-0.033-0.026-0.037-0.031c-0.006-0.004-0.018-0.01-0.018-0.01s-0.009-0.009-0.015-0.01
		c-0.007-0.001-0.019-0.012-0.02-0.017c0-0.007,0-0.016-0.006-0.019s-0.015-0.006-0.015-0.006s-0.009-0.003-0.012-0.008
		c-0.001-0.006-0.006-0.485-0.007-0.487c-0.003,0-0.008-0.485-0.014-0.485c-0.001,0-0.049,0-0.049,0v0.485l-0.006-0.485h-0.034
		l-0.026,0.447l-0.025,0.224l-0.015,0.126l-0.016,0.051c-0.077,0.006-0.103,0.084-0.128,0.122l-0.004,0.019l-0.022-0.008
		c0.003-0.001,0.006,0.001,0.007-0.005c0.005-0.008,0.01-0.018,0.014-0.025c0.002-0.006,0.007-0.025,0.001-0.035
		c-0.007-0.01-0.036-0.03-0.043-0.035c-0.008-0.006-0.108-0.06-0.108-0.06l-0.015,0.02l-0.009-0.004l0.015-0.021
		c0,0-0.033-0.018-0.048-0.029c-0.013-0.008-0.04-0.382-0.059-0.396c-0.02-0.014-0.045-0.39-0.07-0.39c-0.005,0-0.011,0-0.015,0
		c-0.024,0-0.051,0.371-0.061,0.372c-0.012,0.006-0.06,0.219-0.068,0.232c-0.004,0.006-0.003,0.108-0.001,0.112l-0.024,0.079
		c-0.015,0-0.035-0.389-0.035-0.389l-0.021-0.407h-0.004l-0.091,0.355l0.011,0.101c-0.002-0.002-0.002-0.003-0.004-0.005
		c-0.005,0-0.01-0.003-0.015-0.003c-0.001-0.001-0.001-0.001-0.003-0.001l-0.001,0.001c-0.004,0-0.008,0.003-0.012,0.009
		l0.018,0.003l0.016,0.025l0.006,0.013l0.006,0.054l0.002,0.041c-0.006-0.002-0.011-0.003-0.016-0.006
		c-0.007-0.023-0.022-0.046-0.052-0.043c-0.007,0.003-0.013,0.014-0.013,0.014l-0.012-0.008l0.032-0.025
		c0,0-0.005-0.039-0.012-0.056c-0.003-0.007-0.012-0.021-0.012-0.021c-0.009-0.015-0.021-0.018-0.035-0.019l0.007-0.008v-0.019
		v-0.032v-0.006l-0.027-0.03l-0.031-0.024l-0.074-0.03l-0.016-0.022l-0.097-0.06c-0.018-0.012-0.056-0.03-0.066-0.009
		c-0.015,0.025-0.038,0.071-0.038,0.071l-0.017-0.009l0.041-0.08l-0.116-0.061l-0.047,0.087l-0.021-0.012l0.014-0.021
		c-0.02-0.021-0.036-0.027-0.055-0.018l-0.035,0.039c-0.016-0.001-0.012-0.012-0.009-0.021l0.069-0.059l-0.025-0.05
		c-0.023-0.011-0.048-0.057-0.084-0.057c-0.003,0-0.006,0-0.009,0c-0.019,0-0.043,0.04-0.072,0.048l-0.021,0.014L21.43,22.92
		l-0.043-0.048l-0.015-0.04h-0.017l-0.062,0.105L21.27,22.97v-0.138h-0.697h-0.014H20.54h-0.004H20.42
		c0.007,0,0.055,0.041,0.113,0.094l-0.009,0.23l-0.014,0.066c-0.103-0.034-0.193-0.063-0.204-0.066
		c0.001,0.015,0.002,0.033,0.004,0.035c-0.015-0.01-0.029-0.02-0.045-0.029c0-0.004,0-0.009-0.001-0.013c0,0.004,0,0.008,0,0.012
		c-0.208-0.14-0.456-0.308-0.478-0.324c0.008,0.015,0.018,0.407,0.027,0.48c-0.009,0.006-0.018,0.012-0.028,0.021
		c-0.015,0.01-0.029,0.024-0.04,0.037c-0.018,0.02-0.044,0.028-0.06,0.046c-0.03,0.028-0.071,0.074-0.109,0.093
		c-0.03,0.003-0.085,0.016-0.085,0.018c0,0-0.032,0.001-0.041,0.016c-0.004,0.006-0.001,0.018-0.004,0.023
		c-0.014-0.001-0.032-0.014-0.045-0.015c-0.015,0.012-0.025,0.03-0.046,0.035c-0.013,0-0.024-0.003-0.038-0.003
		c-0.017,0.013-0.024,0.028-0.034,0.047c-0.007,0.001-0.015,0.004-0.021,0.006c-0.011,0.023-0.018,0.049-0.021,0.073
		c-0.005,0.016,0.003,0.032-0.026,0.038c-0.003,0.006,0.015,0.019,0.015,0.019s-0.018,0.002-0.018,0.018
		c0,0.007-0.009,0.026-0.006,0.033c0.006,0.012,0.023,0.018,0.023,0.022c-0.015,0-0.052-0.001-0.046,0.019
		c0.002,0.01,0.01,0.018,0.01,0.018s-0.042,0.036-0.057,0.045c-0.002-0.015-0.024-0.019-0.039-0.004
		c-0.007,0.013,0.002,0.019-0.004,0.031c-0.012,0.005-0.025,0.008-0.037,0.009c0,0.022,0.006,0.043,0.012,0.063
		c-0.021,0.056-0.006,0.114-0.015,0.17c-0.006,0.02-0.012,0.036-0.018,0.054c-0.018,0.018-0.03,0.04-0.052,0.054
		c-0.018,0.013-0.016,0.033-0.019,0.052c-0.024,0.034-0.033,0.075-0.057,0.11c-0.007,0.006-0.015,0.01-0.021,0.014
		c-0.002-0.003-0.007-0.005-0.008-0.008c-0.008,0.002-0.015,0.003-0.021,0.005c0.001,0.009,0.003,0.016,0.004,0.022
		c-0.009,0.002-0.017,0.003-0.025,0.008c-0.006,0.016,0.001,0.044-0.012,0.06c-0.012,0.016-0.021,0.032-0.029,0.05
		c-0.013,0.031-0.03,0.061-0.047,0.087c-0.012,0.017-0.03,0.048-0.03,0.048s-0.036,0.008-0.039,0.019
		c-0.006,0.025-0.021,0.074-0.021,0.074l-0.016,0.04c-0.006-0.035-0.048-0.022-0.057-0.002c-0.016,0.036,0.064,0.058,0.152,0.07
		c0.001,0,0.001,0.001,0.001,0.001c0.003,0.003,0.003,0.006,0.006,0.009c0.001,0.004,0.003,0.003,0.006,0.008
		c0.002,0.006,0.002,0.01,0.006,0.016c0.001,0.004,0.02,0.019,0.025,0.022c0.006,0.005,0.012,0.002,0.012,0.002
		s0.049-0.001,0.053-0.001c0.006,0,0.012,0.004,0.015,0.008c0.002,0.005,0,0.009-0.001,0.012c-0.002,0.003-0.003,0.004-0.009,0.009
		c-0.001,0.001,0,0.001-0.001,0.001l-0.104,0.022l-0.345,0.703c-0.008-0.005-0.056,0-0.06,0.009l-0.026,0.039
		c0.002,0.007,0.004,0.014,0.007,0.021c-0.007,0-0.019,0-0.019,0l0.056,0.057c0.001,0.013,0.002,0.023,0.002,0.039l-0.095-0.092
		v-0.004h-0.004h-0.022h-0.021h-0.062h-0.013h-0.011h-0.013h-0.016c-0.001,0-0.001,0.002-0.002,0.003v-0.003
		c-0.004,0-0.012,0-0.012,0s0,0.015,0,0.017c-0.035,0.043-0.092,0.229-0.088,0.204c0.001-0.005-0.007,0.016-0.016,0.043l0.108-0.001
		c0.002,0.14,0.006,0.271,0.01,0.319l0.001,0.096c0.004,0.002,0.005,0.678,0.006,0.68c0,0.006-0.001,0.205-0.007,0.205
		c0.005,0.018,0.016,0.438,0.027,0.438c0,0,0.013,0,0.019,0s0.008-0.347,0.008-0.354c0-0.009,0-0.359,0.007-0.365
		c0.004-0.004,0.009,0.009,0.014,0.016c0.006,0.03,0.016,0.054,0.03,0.07l0.022,0.211l0.043,0.422h0.018l0.364-0.35
		c0.01,0.007,0.027,0.02,0.027,0.02l0.016,0.33h0.002c0.003,0,0.003-0.02,0.012-0.023c0.002-0.001,0.003,0.002,0.005,0.001
		l-0.012-0.375l0.55-0.528h0.006l0.008,0.109l0.129-0.156l-0.008-0.491l0.006-0.042l0.041,0.024c0,0,0.008-0.046,0.014-0.028
		c0.004,0.014,0.066,0.118,0.066,0.118s0.002-0.078,0.002-0.136l0.029,0.025l0.031,0.043l0.037,0.144l0.108-0.026
		c0,0,0.112-0.047,0.13-0.059c0.017-0.011,0.053-0.026,0.062-0.037c0.01-0.012-0.004-0.022-0.004-0.022
		c-0.046-0.034-0.082-0.069-0.151-0.091c0,0,0.021-0.045,0.023-0.05c0-0.002,0.041-0.149,0.046-0.167l0.016,0.009l0.105,0.007
		l0.203-0.021l0.082,0.001l-0.009,0.147l-0.013-0.003l-0.062-0.021l-0.007,0.034c0.053,0.011,0.129,0.02,0.156,0.031l0.152,0.011
		c0,0,0.022,0.001,0.052,0.002c-0.097,0.003-0.274,0.005-0.271,0.006c0.006,0.005-0.102,0.05-0.092,0.056
		c0.008,0.004-0.034,0.033-0.034,0.033l-0.004,0.01l0.01-0.004l0.016-0.008l0.032-0.019c0.008-0.003,0.012-0.003,0.017-0.007
		c0.011-0.005,0.56-0.011,0.558-0.015c-0.002-0.003,0.162-0.007,0.308-0.011l-0.05,0.08l0.035,0.021l0.042,0.026l0.04,0.023
		l0.074-0.119l0.02-0.032l0.191-0.024l0.072,0.051l0.003-0.004c0.001-0.003,0-0.006-0.003-0.011l-0.007-0.021l0.013-0.018
		l-0.008-0.008l0.01-0.001c0.007,0.007,0.01,0.01,0.016,0.015c0.001,0.001,0.002,0,0.004,0.001c0.001,0.022,0.004,0.055,0.008,0.058
		c0.006,0.006,0.004,0.042,0.004,0.046c0,0.005,0.003,0.024,0.008,0.03c0.006,0.01,0.016,0.021,0.021,0.024
		c0.006,0.002,0.01,0.011,0.013,0.017c0.005,0.006,0.042,0.033,0.055,0.041c0.013,0.007,0.051,0.036,0.051,0.036
		s0.017,0.012,0.026,0.016c0.008,0.004,0.014,0.008,0.033,0.016c0.018,0.007,0.014,0.012,0.022,0.019
		c0.009,0.009,0.034,0.033,0.049,0.053c0.015,0.019,0.072,0.063,0.084,0.069c0.012,0.004,0.015,0.013,0.026,0.021
		c0.013,0.01,0.028,0,0.028,0l0.167-0.017l0.168,0.005v-0.095v-0.006v-0.019v-0.007v-0.213v-0.006v-0.006v-0.003v-0.012v-0.001
		v-0.016v-0.009v-0.005v-0.013v-0.004v-0.029v-0.05v-0.018v-0.089v-0.188c0.005-0.004,0.011-0.006,0.017-0.01
		c-0.004,0.027-0.01,0.052-0.01,0.078c0.005,0.002,0.012,0.005,0.016,0.005c0,0.004,0.002,0.013,0.003,0.016l0.026,0.013
		c0,0,0-0.001,0.001-0.001l0.021,0.091c-0.007,0.027,0.001,0.078,0.015,0.088c0.007-0.002,0.016,0.017,0.021,0.013
		c0.007-0.004,0.013,0.005,0.018-0.005l0.037-0.01l0.02-0.026l0.029-0.012c0,0,0.058-0.047,0.075-0.061
		c0.021-0.017,0.028-0.03,0.027-0.046l0.056-0.044c0.017,0.002,0.033,0,0.051-0.018l0.051-0.093l0.045-0.078h0.019h0.055h0.03
		l0.021-0.004l0.029-0.02l0.037,0.023h0.018h0.039h0.14h0.087l0.117,0.024l0.125-0.024h0.115l0.233-0.191l0.075-0.056
		c0,0,0.061-0.034,0.086-0.042c0.03-0.012,0.084-0.055,0.084-0.055l0.023,0.011l0.112-0.044l0.086-0.005l0.05-0.304l0.017-0.314
		h0.044l-0.012-0.316L24.338,24.354z"/>
	<path fill="#32B9DD" d="M25.44,24.809l-0.011,0.009l-0.066-0.058c-0.028-0.017-0.055-0.045-0.089-0.048l-0.005-0.003V24.52
		l-0.141,0.112l-0.01-0.005l-0.166-0.062c-0.048,0.031-0.057,0.182-0.108,0.154c-0.012-0.018-0.007,0.113,0.003,0.113
		c-0.025,0-0.052,0-0.073,0h-0.013l-0.039-0.325l-0.055-0.158l-0.053-0.089l-0.078,0.286l-0.012,0.286l0.008-0.307l-0.003-0.153
		l-0.038-0.095l-0.034,0.277l-0.012,0.277h0.003c0,0,0.018,0.307,0.023,0.312c0.004,0.006,0.003,0.171,0.003,0.171l0.009,0.095
		l-0.003,0.054l-0.021,0.035l0.012,0.184l0.079,0.149h0.036l0.072-0.148l0.049-0.055l0.046-0.037c0.05-0.014,0.09-0.363,0.127-0.4
		c0.015-0.006,0.028-0.059,0.042-0.118l0.112,0.042l0.044,0.019c0.01-0.004,0.022-0.001,0.033,0.004l-0.003,0.008
		c-0.003,0.003-0.004,0.007-0.011,0.008l0.008,0.002l-0.002,0.007c-0.015,0.025-0.021-0.015-0.004,0.01
		c0.002,0.003,0.006-0.013,0.008-0.017l0.011,0.002l0.017-0.004l0.083-0.207l0.038-0.059l0.012-0.013v-0.03v-0.013V24.83
		l0.005-0.018c0,0,0.009-0.01,0.009-0.015c-0.002-0.008-0.008-0.021-0.008-0.021l0.004-0.022c0.025-0.002,0.045,0.005,0.068,0.019
		l0.027,0.013l0.048,0.037l-0.004,0.002c-0.003,0.002-0.002,0.002,0,0.007l0.024,0.028c0.004,0.003,0.004,0.002,0.01-0.002
		l0.018-0.014c0.006-0.005,0.006-0.005,0-0.012l-0.023-0.024C25.444,24.804,25.444,24.803,25.44,24.809z"/>
	<path fill="#32B9DD" d="M25.187,24.222c0,0-0.002,0.003-0.005,0.005c-0.002,0.001-0.006,0.003-0.006,0.006
		c-0.001,0.003-0.002,0.006-0.006,0.008c-0.002,0.003-0.002,0.007,0,0.01c0,0.001,0.002,0.003,0.002,0.003s0.002,0.004,0.003,0.006
		c0.001,0.003,0.003,0.004,0.003,0.004c0,0.004,0.006,0.01,0.009,0.008c0,0,0.009,0,0.009,0.003c0,0.002,0,0.003,0,0.004
		c0.002,0.002,0.01,0,0.014-0.002c0.005-0.005,0.006-0.005,0.006-0.012s-0.001-0.008-0.006-0.011
		c-0.002-0.003-0.007-0.006-0.007-0.006c-0.003,0-0.003,0-0.005-0.002c-0.001-0.004,0.002-0.008,0.008-0.011
		c0.007-0.005,0.012-0.011,0.012-0.018c0-0.006-0.01-0.021-0.016-0.023c-0.002,0-0.006-0.003-0.008-0.004
		c-0.003-0.004-0.003-0.005-0.006-0.005c0,0-0.003,0.001-0.004,0.005c-0.004,0.004-0.003,0.007,0,0.01
		c0.001,0.002,0.003,0.003,0.003,0.005c0,0.001,0.001,0.004,0.003,0.006l0.004,0.005l-0.004,0.002
		C25.188,24.219,25.187,24.221,25.187,24.222z"/>
	<path fill="#32B9DD" d="M21.961,27.101c0,0,0,0-0.002,0c0,0-0.001,0.001-0.004,0.007c-0.003,0.007-0.012,0.013-0.012,0.013
		s-0.006,0.003-0.006,0.011c-0.003,0.01-0.008,0-0.003,0.01c0.006,0.008,0.009,0.019,0.018,0.014
		c0.009-0.003,0.011-0.006,0.015-0.011c0.002-0.005,0.001-0.007,0.007-0.01c0.007-0.004,0.01-0.01,0.009-0.014
		c-0.002-0.003-0.003-0.005-0.006-0.008S21.961,27.101,21.961,27.101z"/>
	<path fill="#32B9DD" d="M21.626,26.542c-0.003-0.003-0.005-0.001-0.006-0.004c-0.003-0.002-0.006-0.006-0.007-0.006h-0.002v0.001
		c0,0.003-0.006-0.001-0.003,0.003c0.002,0.006,0,0.009,0.006,0.013c0.003,0.003,0.007,0,0.009,0.004
		c0.004,0.003,0.006,0.004,0.012,0.004s0.007,0,0.006-0.004c0-0.003-0.003-0.001-0.005-0.004
		C21.635,26.548,21.626,26.542,21.626,26.542z"/>
	<path fill="#32B9DD" d="M22.406,26.954c-0.004-0.005-0.008-0.011-0.016-0.015c-0.008-0.003-0.012-0.006-0.018-0.008
		c-0.006,0-0.009-0.001-0.019-0.001c-0.005,0-0.013,0.003-0.013,0.008s0.008,0.017,0.014,0.022c0.006,0.007,0.026,0.024,0.029,0.029
		c0.003,0.006,0.006,0.01,0.012,0.013c0.002,0.003,0.007,0.006,0.013,0.003c0.004-0.004,0.01-0.007,0.01-0.015
		c0-0.006-0.007-0.017-0.007-0.021C22.41,26.967,22.41,26.961,22.406,26.954z"/>
	<path fill="#32B9DD" d="M21.049,27.21c-0.001-0.011-0.022-0.021-0.03-0.028c-0.007-0.007-0.02-0.006-0.032-0.007
		c-0.012,0-0.023,0-0.044,0.004c-0.021,0.005-0.012,0.003-0.024,0.011c-0.012,0.009-0.036,0.021-0.048,0.027
		c-0.011,0.006-0.017,0.002-0.031,0.002s-0.032-0.014-0.032-0.014l-0.019-0.004c0,0-0.021-0.012-0.024-0.018
		c-0.003-0.008-0.025-0.003-0.03-0.006s-0.007-0.015-0.007-0.015l-0.015-0.017c0-0.01,0-0.01-0.007-0.017
		c-0.008-0.007-0.004-0.007-0.011-0.007c-0.004,0-0.009-0.016-0.009-0.016s0-0.001-0.003-0.012
		c-0.001-0.008-0.003-0.037-0.003-0.043c-0.001-0.007-0.006-0.029-0.01-0.029c0,0,0,0-0.002,0c-0.001,0,0.002,0.035,0,0.042
		c0,0.006,0.002,0.02,0.005,0.029s0.001,0.013,0.005,0.021c0.002,0.008,0.002,0.011,0.001,0.015s0.001,0.024-0.001,0.033
		c-0.002,0.01-0.005,0.021-0.008,0.028c-0.003,0.007-0.007,0.007-0.01,0.014c-0.005,0.009-0.005,0.009-0.005,0.018
		c0,0.013-0.001,0.029,0.002,0.044c0.003,0.016,0.003,0.01,0.003,0.017c0.001,0.007,0.008,0.027,0.008,0.027l0.006,0.033
		l0.018,0.021L20.7,27.39c0,0-0.012,0.008-0.012,0.015c0,0.006-0.001,0.029,0.003,0.035c0.006,0.01,0.018,0.003,0.021,0.009
		c0.006,0.015,0.019,0.027,0.028,0.035c0.011,0.006,0.015,0.006,0.018,0.009c0.003,0.004,0.009,0.006,0.015,0.017
		c0.006,0.01,0.021,0.021,0.03,0.026c0.01,0.003,0.012,0.008,0.036,0.008c0.025,0.001,0.049-0.021,0.061-0.025
		c0.01-0.004,0.01-0.009,0.03-0.03c0.02-0.021,0.016-0.019,0.016-0.039s0.004-0.032,0.012-0.044
		c0.006-0.015,0.025-0.018,0.046-0.023c0.044-0.016,0.048-0.042,0.052-0.081c0,0,0.003-0.048,0-0.057
		C21.052,27.235,21.052,27.22,21.049,27.21z"/>
	<polygon fill="#32B9DD" points="21.148,27.106 21.141,27.104 21.139,27.104 21.139,27.106 21.139,27.112 21.147,27.118 
		21.157,27.115 21.156,27.109 	"/>
	<path fill="#32B9DD" d="M21.35,27.28c-0.009-0.01-0.009-0.01-0.014-0.02c-0.004-0.009-0.009-0.023-0.014-0.029
		c-0.006-0.005-0.012-0.012-0.022-0.017s-0.027-0.016-0.027-0.016l-0.019-0.019c-0.007-0.006-0.013-0.009-0.018-0.009
		c-0.006,0-0.007,0.003-0.008,0.009c-0.004,0.007-0.002,0.019,0.001,0.023c0.003,0.006,0.018,0.051,0.021,0.062
		c0.003,0.01,0.009,0.021,0.032,0.038c0.022,0.014,0.024,0.012,0.039,0.021c0.013,0.01,0.02,0.016,0.033,0.019
		c0.013,0.004,0.017,0.015,0.028,0.009c0.013-0.005,0.021-0.005,0.016-0.016c-0.004-0.014-0.01-0.021-0.021-0.026
		C21.369,27.305,21.357,27.29,21.35,27.28z"/>
	<path fill="#32B9DD" d="M21.926,27.077c-0.001,0-0.004-0.003-0.009-0.003c-0.003,0-0.004,0.001-0.005,0.003
		c-0.006,0.008-0.011,0.015-0.011,0.015s0.003,0.008,0.005,0.012c0.002,0.006,0.004,0.009,0.011,0.009
		c0.006,0,0.017-0.009,0.017-0.009l0.006-0.009L21.926,27.077z"/>
	<path fill="#32B9DD" d="M22.173,26.833c0,0-0.009-0.003-0.015-0.006s-0.009-0.003-0.014-0.003l-0.005-0.001h-0.002
		c-0.001,0-0.001,0-0.001,0c-0.002,0.005-0.003,0.007,0.003,0.009c0.005,0.003,0.007,0.003,0.011,0.003
		c0.006,0.001,0.008,0.003,0.008,0.003c0.004,0.001,0.01,0.001,0.009,0.006c-0.002,0.004-0.005,0-0.008,0.006
		c0,0.006-0.001,0.004,0.002,0.006c0.004,0.002,0.006,0.007,0.009,0.004c0.001-0.003,0.001-0.004,0.001-0.008
		c0-0.002,0-0.005,0.003-0.002c0.003,0.001,0.021,0.016,0.021,0.016s0.005,0,0.002,0.005s-0.003,0.01-0.009,0.017
		c-0.007,0.007-0.007,0.009-0.016,0.015c-0.011,0.005-0.014,0.005-0.015,0.01c-0.002,0.005-0.004,0.006,0.001,0.008
		c0.006,0.003,0.009,0.004,0.015,0c0.006-0.006,0.003-0.008,0.008-0.012c0.004-0.006,0.001-0.006,0.007-0.009
		c0.003-0.002,0.003-0.002,0.001-0.002c0,0,0.002-0.001,0.005-0.003c0.009-0.003,0.007-0.001,0.011-0.007
		c0.005-0.007,0.006-0.009,0.006-0.009s0-0.007,0-0.01s-0.004-0.006-0.004-0.006c-0.003,0-0.007,0-0.007,0l-0.019-0.015
		c0,0,0.001-0.001,0-0.006C22.18,26.838,22.173,26.833,22.173,26.833z"/>
	<path fill="#32B9DD" d="M22.346,26.993c-0.004-0.006-0.021-0.018-0.026-0.025c-0.006-0.007-0.007-0.014-0.01-0.02
		c-0.001-0.005-0.001-0.009-0.003-0.02c-0.002-0.013-0.003-0.006-0.008-0.007c-0.004,0-0.007,0-0.011,0
		c-0.006,0-0.007-0.002-0.012-0.003c-0.005-0.003-0.007-0.013-0.007-0.02c0,0,0.001-0.006,0.001-0.009
		c0-0.004,0.005-0.006,0.006-0.01c0.005-0.004,0.005,0,0.013,0.003c0.009,0.003,0.008-0.001,0.018-0.004
		c0.009-0.003,0.012-0.005,0.021-0.015c0.01-0.009,0.01-0.01,0.014-0.024c0-0.011-0.012-0.011-0.021-0.011c-0.003,0-0.006,0-0.009,0
		c-0.006,0-0.027,0.003-0.037,0.003c-0.009,0-0.035,0.005-0.038,0.005s-0.004,0.003-0.006,0.007c0,0.005,0.002,0.006,0.005,0.009
		c0.002,0.002,0.002,0.002,0.004,0.004c0,0.003-0.002,0.005-0.003,0.008c-0.001,0.002-0.009,0-0.009,0s-0.008,0.002-0.012,0.002
		c-0.002,0-0.002,0.004-0.002,0.008c0,0.002-0.002,0.008-0.004,0.012c0,0.006,0.002,0.007,0.006,0.012c0.005,0.003,0.011,0,0.015,0
		c0.003,0,0.009,0,0.012,0.001c0.006,0,0.005,0.008,0.006,0.012c0,0.004,0.001,0.006,0,0.009c0,0.003-0.003,0.005-0.007,0.008
		c-0.005,0.001-0.005-0.003-0.008-0.006c-0.004-0.005-0.003-0.005-0.007-0.005c-0.003,0-0.005,0.002-0.007,0.005
		s-0.004,0.003-0.002,0.009c0,0.004,0.01,0.006,0.015,0.009c0.004,0.003,0.01,0.015,0.01,0.015s0,0.007,0.001,0.014
		c0.002,0.007,0.005,0.007,0.009,0.011c0.005,0.006,0.005,0.01,0.006,0.015c0.002,0.004,0.011,0.011,0.013,0.015
		c0.004,0.003,0.014,0.015,0.021,0.021s0.027,0.022,0.036,0.027c0.01,0.004,0.014-0.003,0.016-0.009
		c0.005-0.006,0.012-0.015,0.018-0.023c0.004-0.009,0-0.012-0.007-0.018C22.347,26.999,22.35,27.002,22.346,26.993z"/>
	<path fill="#32B9DD" d="M22.035,26.833c-0.001-0.003-0.006-0.012-0.008-0.016c-0.004-0.003-0.009-0.003-0.012-0.009
		s-0.005-0.009-0.006-0.012c-0.002-0.004-0.003-0.008-0.009-0.008c-0.005,0-0.011-0.004-0.011-0.004l-0.005-0.006
		c-0.002,0-0.005-0.001-0.006-0.001h-0.002h-0.001c-0.002,0-0.003,0.001-0.004,0.007c-0.004,0.01-0.008,0.012-0.006,0.023
		c0.001,0.012,0.002,0.019,0.006,0.024c0.002,0.008,0.004,0.006,0.007,0.015c0.003,0.008,0.003,0.009,0.007,0.015
		c0.003,0.005,0.006,0.011,0.012,0.016c0.009,0.003,0.004,0.002,0.013,0.005c0.008,0.002-0.001,0.004,0.013,0.01
		s0.015,0.009,0.02,0.007c0.006-0.006,0.01-0.011,0.008-0.019c-0.001-0.008-0.004-0.023-0.005-0.027
		C22.044,26.85,22.037,26.836,22.035,26.833z"/>
	<path fill="#32B9DD" d="M22.233,27.056c0.001-0.01,0.001-0.026,0.001-0.03c-0.001-0.006-0.001-0.012-0.006-0.017
		c-0.006-0.003-0.014-0.005-0.018-0.009c-0.004-0.003-0.02-0.009-0.022-0.01c-0.003-0.002-0.006-0.005-0.011-0.005
		s-0.007,0.002-0.013-0.003c-0.006-0.004-0.011-0.007-0.015-0.008c-0.001-0.002-0.014-0.008-0.014-0.008
		c-0.003,0-0.006-0.002-0.009-0.002c-0.001,0-0.005,0.002-0.007,0.003c-0.006,0.005-0.02,0.008-0.022,0.012
		c-0.003,0.005-0.005,0.009-0.003,0.014c0.005,0.003,0.017,0.011,0.021,0.015c0.005,0.003,0.032,0.032,0.038,0.041
		c0.004,0.01,0.028,0.037,0.036,0.046c0.006,0.01,0.012,0.009,0.02,0.018s0.012,0.015,0.021,0.015c0.007,0,0.007-0.001,0.007-0.012
		c0-0.008-0.004-0.02-0.004-0.035C22.233,27.067,22.23,27.063,22.233,27.056z"/>
</g>
</svg>
