<?xml version="1.0" encoding="utf-8"?>
<!-- Generator: Adobe Illustrator 16.0.0, SVG Export Plug-In . SVG Version: 6.00 Build 0)  -->
<!DOCTYPE svg PUBLIC "-//W3C//DTD SVG 1.1//EN" "http://www.w3.org/Graphics/SVG/1.1/DTD/svg11.dtd">
<svg version="1.1" id="Layer_1" xmlns="http://www.w3.org/2000/svg" xmlns:xlink="http://www.w3.org/1999/xlink" x="0px" y="0px"
	 width="43.687px" height="52.37px" viewBox="0 0 43.687 52.37" enable-background="new 0 0 43.687 52.37" xml:space="preserve">
<path id="_x31_0m-admin-0-countries.246_1_" fill="#32B9DD" d="M19.604,0.295l0.029,0.012l0.028-0.012h0.014l0.042,0.012
	l0.016,0.015l0.042,0.085l0.07,0.125l0.028,0.042l0.142,0.083l0.028,0.041l0.03,0.07v0.141l0.012,0.056l0.044,0.056l0.043,0.014
	l0.227,0.014l0.099,0.014h0.07l0.043,0.028l0.057,0.056l0.043,0.014l0.042,0.016l0.028,0.014l0.043,0.041l0.043,0.057l0.184,0.194
	l0.057,0.043l0.029-0.017l0.014-0.026l0.016-0.027l0.013-0.015h0.029l0.056,0.015h0.028l0.101-0.015l0.057-0.015l0.043-0.027
	l0.042-0.098l0.028-0.027l0.255-0.014l0.17,0.014l0.129,0.027l0.098,0.057l0.071,0.11l0.013,0.125l0.03,0.044l0.07,0.026l0.07,0.013
	h0.059l0.069-0.013l0.454-0.125l0.042-0.029l0.014-0.083l0.028-0.013l0.044,0.013l0.057,0.015l0.155,0.042l0.042,0.026l0.044,0.043
	l0.027,0.055l0.029,0.043h0.07l0.027-0.013l0.029-0.044l0.027-0.013l0.029,0.013l0.029,0.014l0.027,0.043l0.099,0.069l0.058,0.098
	h0.043l0.069-0.012l0.072,0.012l0.028,0.04l-0.014,0.044l-0.114,0.057l-0.028,0.041l-0.027,0.057v0.11l-0.029,0.056L23.856,2.33
	l-0.027,0.041l-0.042,0.181l-0.042,0.043h-0.073l-0.056-0.043l-0.028-0.055l-0.042-0.042l-0.057,0.014l-0.042,0.043L23.432,2.58
	l-0.069,0.334l-0.015,0.044l-0.029,0.041l-0.013,0.043v0.027l0.027,0.111l0.015,0.125l0.015,0.043l0.042,0.042l0.071,0.027h0.127
	l0.057,0.042l0.013,0.042l0.087,0.25v0.029L23.73,3.808l-0.044,0.057l0.015,0.042l0.015,0.042l0.029,0.027l0.014,0.041v0.027v0.057
	v0.027l0.014,0.014l0.029,0.029v0.015l0.014,0.097l-0.014,0.069L23.73,4.52v0.028l0.015,0.026l0.014,0.028l0.014,0.013l0.057,0.016
	l0.042-0.042l0.101-0.126H24l0.041,0.015l0.015,0.013l0.029,0.029l0.013,0.013l0.072,0.042h0.056h0.128l0.084,0.015l0.044,0.026
	l0.028,0.056l0.042,0.044l0.07,0.041l0.058-0.015l0.057-0.026l0.057-0.029h0.057l0.057,0.029l0.042,0.041v0.07l-0.027,0.055
	l-0.043,0.058L24.85,4.994v0.069l0.057,0.042l0.058,0.015l0.141,0.026l0.1,0.056L25.46,5.41l0.128,0.029l0.113-0.042l0.084-0.013
	l0.099,0.097l0.101,0.237l0.057,0.056l0.113-0.069l0.085-0.085l0.057-0.027l0.056,0.016l0.044,0.055l0.015,0.111l0.042,0.015
	l0.057,0.027h0.043h0.028l0.015-0.015l0.026-0.055l0.029-0.028h0.057l0.128,0.013l0.069-0.013l0.185-0.043l0.058-0.027l0.128-0.098
	l0.057-0.013h0.043h0.057l0.113,0.028l0.071,0.012l0.028,0.042l0.014,0.043l0.042,0.056l0.029,0.028l0.1,0.069l0.111,0.111
	l0.059,0.014l0.155,0.14l-0.07,0.041l-0.07,0.07l-0.058,0.041l-0.042-0.056V6.151l0.014-0.029l0.013-0.015l0.016-0.013l-0.016-0.028
	V6.055L27.927,6.04V6.025l-0.014-0.042l-0.029-0.026l-0.042-0.016l-0.057-0.014L27.8,5.957V5.97l-0.029,0.028h-0.029l-0.013-0.057
	l-0.015,0.042l-0.027,0.083l-0.043,0.028l-0.016-0.028l-0.013-0.041V5.97h-0.029l-0.015,0.014v0.028l0.015,0.014V6.04l0.015,0.041
	h-0.029L27.544,6.04l-0.015,0.015l-0.015-0.057l-0.042-0.015l-0.057,0.015l-0.042,0.014V6.04h0.057l0.029,0.015l0.026,0.026
	l0.016,0.041L27.46,6.107l0.013,0.015l0.014,0.056v0.015H27.46l-0.029,0.015l-0.015,0.015l-0.015,0.026l0.029,0.014l-0.057,0.097
	h-0.058h-0.028l-0.014,0.016L27.26,6.401l-0.056,0.016l-0.042-0.016l-0.03-0.027H27.12l-0.016,0.014l-0.016,0.014v0.016l0.031,0.04
	l-0.016,0.029h-0.042l-0.058-0.016l0.014,0.016v0.015l0.015,0.012v0.029l-0.028,0.012v0.016v0.015l0.028,0.027h-0.015l-0.057,0.013
	l0.015,0.014h0.014v0.015h-0.014L26.92,6.638v0.083l-0.016,0.028l-0.026,0.03H26.82l-0.041-0.015L26.75,6.736l-0.03-0.028
	l-0.013-0.041V6.638l-0.014-0.026L26.65,6.598v0.014l0.015,0.026V6.68L26.65,6.708l0.015,0.028l0.028,0.013l-0.028,0.016h-0.07
	h-0.072L26.48,6.749l-0.028-0.013l-0.014-0.028L26.41,6.694L26.296,6.68l-0.014,0.041l0.014,0.028l0.1,0.043v0.014l-0.07,0.029
	l-0.1,0.013l-0.071,0.014V6.89l0.015,0.027v0.015l-0.028,0.027l-0.013,0.027v0.112l-0.016,0.042l0.028,0.026h0.028l0.028,0.015
	l0.028-0.015l-0.014,0.141l-0.015,0.084l-0.057,0.055l0.028,0.029v0.014l-0.015,0.014l-0.026,0.014l0.013,0.042l0.014,0.056
	l0.015,0.042l0.028,0.016v0.026L26.141,7.74l-0.028,0.015l-0.043,0.014h-0.07l-0.071,0.015l-0.028,0.012l-0.043-0.012h-0.071
	L25.714,7.81l-0.042,0.016l0.014,0.012h0.016l0.013,0.016h0.014l0.016,0.013L25.686,7.88l-0.07,0.084l0.015,0.055h-0.042
	l-0.042,0.016h-0.029l-0.042-0.016v0.028l-0.058-0.054l-0.155-0.017l-0.058-0.027V7.936l0.085-0.126l0.171-0.111V7.672h-0.043
	l-0.043,0.013l-0.041,0.014l-0.029,0.029L25.289,7.74v0.028l-0.013,0.015l-0.029,0.012l-0.015-0.012l0.015-0.028V7.74l0.015-0.013
	l-0.015-0.015l-0.015-0.015l-0.015,0.057L25.19,7.783l-0.029-0.015l0.016-0.07h-0.028V7.74v0.028v0.026l-0.015,0.03V7.769
	L25.119,7.74l-0.015-0.027h-0.042v0.015l0.015,0.013l0.014,0.015l0.014,0.014l-0.014,0.015h-0.028l0.042,0.042h-0.042L25.034,7.81
	l-0.07-0.055v0.04l0.084,0.07l0.015,0.043l-0.028,0.056l-0.043,0.029h-0.07h-0.057l-0.059-0.017l-0.042-0.013l-0.042-0.015
	L24.68,7.922l-0.071-0.069h-0.042L24.552,7.88l-0.014-0.015h-0.014h-0.028l0.099,0.099l0.043,0.029l0.072,0.041l0.026,0.013
	l0.016,0.014V8.09l0.012,0.025l0.042,0.016v0.028h-0.084l-0.057-0.014l-0.027-0.042l-0.043-0.057h-0.013v0.028l0.013,0.028
	l0.014,0.012l0.014,0.016l-0.07,0.097l-0.014-0.013L24.51,8.146L24.438,8.09l0.015-0.015l-0.015-0.028h-0.013l-0.071,0.028
	l-0.086-0.041L24.24,7.993l0.057-0.029l0.057-0.015h0.028l0.014-0.027V7.895L24.368,7.88l-0.029-0.015l-0.012-0.028l0.041-0.042
	l-0.029-0.012l-0.027-0.028h-0.028h-0.03v0.014l0.015,0.015l0.016,0.012h-0.085l-0.057-0.026l-0.044-0.014l-0.071,0.028V7.81h0.029
	v0.016l-0.127-0.042l-0.072-0.015l-0.055,0.026h0.042l0.1,0.042v0.016h-0.028l-0.059-0.016v0.016l0.028,0.042L23.9,7.922v0.042
	l0.028,0.029l0.029,0.013l0.083,0.013l0.072,0.028h0.042h0.029l0.014,0.068v0.044L24.17,8.201l-0.015,0.042h-0.014L24.07,8.174
	l-0.057,0.069l0.027,0.041l0.057,0.028l0.058,0.043l0.029,0.083v0.068l-0.043,0.028L24.07,8.492l0.027,0.058l0.044,0.069
	l0.057,0.068l0.055,0.03l0.03-0.014l0.028,0.04l0.07,0.182l-0.07-0.041l-0.028-0.044l-0.016-0.013L24.24,8.813l-0.026,0.015
	L24.17,8.841v0.014l-0.042,0.015l-0.015,0.016h-0.028h-0.044l-0.098-0.016H23.9v0.028l0.085,0.028l0.056,0.027v0.043L23.972,9.05
	l-0.043,0.029l-0.044,0.015l-0.056,0.013h-0.057l-0.027-0.027l-0.044-0.056l-0.042-0.027l0.013,0.041l0.029,0.042l0.058,0.042
	l0.014,0.014h0.015l0.015,0.014v0.027v0.028l-0.015,0.014l-0.015,0.015L23.73,9.261l-0.071,0.055l-0.212,0.099l0.056,0.027
	l0.043-0.014l0.099-0.043v0.015l-0.042,0.056l0.027,0.057l0.029,0.042v0.055L23.63,9.623l-0.084,0.028l-0.014,0.014h-0.016
	l-0.027,0.027l-0.014,0.042l-0.015,0.028h0.015l0.041-0.043l0.071-0.027l0.084-0.014l0.029,0.028L23.687,9.86l-0.015,0.083
	l-0.027,0.042l-0.028-0.027V9.93v0.014v0.015h-0.014h-0.015l0.071,0.055l0.027,0.042l-0.015,0.028l-0.013,0.042l-0.015,0.056v0.042
	l-0.042,0.042l-0.029-0.042l-0.041-0.042l-0.057-0.015l-0.057,0.028h-0.015l0.015,0.028l0.028,0.014l0.028-0.014l0.014-0.028
	l0.071,0.042l0.013,0.028l0.015,0.027l-0.015,0.015l-0.013,0.015l-0.015,0.04l-0.029,0.043l-0.041,0.028l-0.071,0.027l-0.086,0.041
	l-0.042,0.015l-0.213,0.027v-0.027h0.028v-0.015h-0.028H23.05l-0.029,0.029v0.013l0.029,0.029l-0.029,0.014l-0.07,0.026
	l-0.015,0.029l-0.042,0.098l-0.113,0.139l-0.071,0.043l-0.085,0.124l-0.071,0.042l-0.071,0.083l-0.056,0.041l0.028-0.081
	l0.014-0.016l-0.014-0.027l-0.028,0.057l-0.043,0.097l-0.028,0.041l-0.042,0.029l-0.129,0.028l-0.042,0.043l-0.026-0.059
	l0.013-0.055l0.014-0.058l0.016-0.067h-0.029v0.056l-0.057,0.14l-0.014,0.043l-0.044-0.016l-0.056-0.027l-0.043-0.042l-0.029-0.028
	h-0.026l-0.016,0.042l-0.043,0.041l-0.14,0.126l-0.03,0.042l-0.015,0.041v0.041l0.029,0.043v0.042l-0.07,0.083l-0.014,0.057
	l0.014,0.097l-0.014,0.042l-0.015-0.014l-0.029-0.041l-0.026,0.041l-0.043,0.03l-0.086,0.053l0.015,0.029l0.042-0.029l0.099-0.013
	l0.044-0.014l-0.015,0.041l-0.056,0.084l-0.016,0.057l-0.027,0.014h-0.044h-0.042l-0.029,0.057l-0.013,0.055l-0.071,0.112
	l-0.029,0.055v0.043v0.097l-0.013,0.041v-0.083h-0.058l-0.043,0.028l0.016,0.055l0.014-0.026l0.014-0.028l0.016-0.013l0.013,0.026
	l0.015,0.029v0.041v0.014h0.015v0.124l-0.029,0.252l0.015,0.125l-0.043-0.014l-0.043,0.084l-0.042-0.015v0.015l0.029,0.029
	l0.013,0.042l0.029,0.096l0.057,0.111l0.015,0.043l-0.071-0.043v0.028l0.029,0.042l0.013-0.015l0.015,0.015v0.07l-0.015,0.027
	l-0.028,0.014h-0.027l-0.016,0.013l-0.027,0.099h-0.043l-0.057-0.013v0.026l-0.043,0.209v0.112l0.028,0.084l-0.085,0.042
	l-0.028,0.027l-0.028,0.028l-0.085-0.028l-0.085,0.084l-0.057,0.126l-0.043,0.097v0.043l0.029,0.041v0.028v0.041l0.027,0.112
	l0.029,0.042l0.042,0.056l0.07,0.055l0.084,0.042l0.073,0.029v0.015l-0.043,0.056l-0.015-0.043l-0.016-0.013l-0.026-0.015h-0.043
	l0.043,0.07l0.014,0.013l0.013,0.015l0.059-0.015l0.028,0.015l0.07,0.068l0.043,0.058l0.014,0.04l-0.042,0.141l0.015,0.028
	l0.027,0.027l0.015,0.055l-0.015,0.07l-0.014,0.055l0.07-0.04l-0.013-0.071l-0.015-0.208v-0.015l0.057,0.042l0.029,0.097v0.098
	l0.027,0.043l0.015,0.042l0.084,0.236l0.185,0.279l0.127,0.125h0.115l0.013,0.057l0.015,0.068l0.042,0.057l0.029,0.043l0.069,0.056
	l0.029,0.026l0.128,0.154L22.228,17l0.042,0.042l0.015,0.042l-0.071,0.013l0.042,0.029l0.058-0.014l0.07-0.028l0.071-0.015
	l0.057,0.027l0.185,0.126l0.014,0.014l0.085,0.015l0.029,0.027l0.084,0.113l0.113,0.067l0.057,0.044l0.028,0.07h-0.028l-0.027-0.03
	l-0.042,0.015l-0.044,0.027l-0.014,0.028l0.043,0.027l0.015-0.015h0.013l0.043-0.013l-0.028,0.041l0.015,0.027l0.027,0.071v-0.042
	l0.015-0.042l0.014-0.028l0.015-0.027l0.043-0.015h0.015l0.027,0.015h0.042l0.029-0.028l0.057-0.068l0.043,0.013v0.028l-0.043,0.068
	l0.029,0.071l0.027,0.069l0.297,0.335l0.015,0.029l-0.071,0.041l-0.069,0.055l-0.028,0.042l-0.029,0.043l-0.042,0.027h-0.057v0.027
	h0.027l0.016,0.028v0.026l-0.016,0.043l0.029,0.056l0.028,0.099l0.043,0.167l0.014,0.042l0.07,0.055l0.014,0.028l-0.027,0.028
	h-0.042l-0.1-0.042l-0.042-0.085l-0.043-0.014h-0.043l-0.128-0.056l-0.227-0.027l-0.058-0.014l-0.027,0.014l0.057,0.042l0.07,0.028
	l0.085,0.013l0.114,0.014l0.17,0.029v0.027h-0.027l-0.057-0.015l-0.071,0.043l-0.015,0.069l0.099,0.043l-0.013-0.043l-0.015-0.014
	l-0.015-0.014l0.071-0.028l0.113,0.014l0.112,0.028l0.071,0.057l0.042,0.041l0.086,0.14l0.084,0.097l0.185,0.252l0.044,0.11
	l0.028,0.057h0.015l0.07,0.056v0.015h0.016l0.039,0.069l0.313,0.307l0.624,0.416l0.582,0.38l0.057,0.082l-0.015,0.139l0.028,0.03
	l0.198,0.248l0.042,0.03l0.014,0.014v0.026l-0.027,0.015l-0.028,0.016v0.027l-0.028,0.013l-0.113,0.071v0.012h0.085h0.043
	l0.026-0.025l0.016-0.017l-0.016-0.012v-0.029l0.059-0.04l0.028-0.016l0.028,0.029l0.028,0.026l0.015,0.015l0.057,0.026l0.451,0.336
	l0.412,0.264l0.383,0.308l0.101,0.028v0.028l-0.129-0.041l-0.424-0.195l-0.114,0.027l0.27,0.126l0.084,0.014l0.043,0.013
	l0.029,0.041l0.042,0.016h0.028l0.028-0.028l0.029,0.043l0.027,0.013l0.086,0.027v0.029l-0.029-0.015h-0.015h-0.027v0.015
	l-0.015,0.029h0.057h0.042l0.086-0.029l-0.015,0.029l-0.013,0.013l-0.016,0.028v0.027h0.016l0.027,0.027l0.015,0.041v0.014h0.027
	l0.015-0.014l0.015-0.027l0.015-0.014l0.042-0.027l0.013,0.027l0.016,0.027l0.014,0.027l0.143,0.07l0.028,0.028l0.083,0.126
	l0.059,0.026l0.085,0.098l0.069,0.029h-0.013l-0.015,0.014h-0.027h-0.015l-0.028-0.014l-0.028-0.016l-0.028-0.014l-0.014,0.029
	l0.057,0.195l0.014,0.026l0.043,0.029l0.085,0.042h0.028l0.027-0.027l0.029,0.013l0.028,0.015l0.014,0.041l0.028-0.027l0.015,0.027
	l0.127-0.098l0.015-0.026l-0.028-0.099v-0.043l0.041-0.014l0.158,0.111l0.084,0.016l0.029-0.03l0.015-0.026l0.014-0.028l0.041-0.013
	v0.013l0.043,0.125l0.028,0.057l0.128,0.168l-0.113-0.069l-0.043-0.015l-0.015,0.056l0.028,0.028l0.059,0.028h0.069l0.028-0.015
	h0.028l0.058,0.027l0.086,0.014h0.099l0.084-0.014l-0.042,0.07l-0.114,0.098l-0.041,0.069v0.098l0.069,0.057l0.071,0.042
	l0.057,0.056l0.057-0.043l0.029-0.027l0.015,0.015l0.042,0.11v0.014l-0.015,0.043l-0.027,0.057l-0.044,0.04l-0.041,0.027
	l0.056-0.027l0.071-0.04l0.042-0.015l0.042,0.041l-0.042-0.167l-0.029-0.042l-0.013-0.056l0.028-0.057v-0.055h-0.085V24l0.027-0.027
	l0.015-0.015l0.015-0.027l0.013-0.028l0.029,0.014l0.015-0.014h0.027l0.029,0.028l0.043,0.027l0.041,0.015l0.071,0.014v-0.014
	l0.015-0.042l0.028-0.015l0.015,0.015v0.013l0.042,0.043l-0.042,0.027l-0.028,0.029l-0.029,0.013l-0.014,0.042l-0.028-0.015
	l-0.085,0.015l-0.058-0.015l-0.013,0.127l0.027,0.124l0.058,0.125l0.057,0.085l0.042,0.041l0.184,0.125l0.058,0.03l0.043,0.026
	l0.028,0.055l-0.028,0.016l-0.028,0.014l-0.015,0.013l0.028,0.015l0.028-0.015l0.015-0.026l0.027-0.016h0.029l0.013,0.042
	l0.044,0.209l0.114,0.196l0.608,0.697l0.086,0.056l0.126-0.027l-0.015,0.098l-0.027,0.027l-0.041-0.041l-0.043,0.014l-0.043,0.014
	l-0.029,0.042l0.029,0.069l0.086,0.043l0.055-0.028l0.071-0.14h0.015l0.029,0.056v0.084l0.027,0.028l0.084,0.069l0.016,0.014
	l0.014,0.015l0.084,0.041l0.029,0.029v0.026v0.042v0.042l0.029,0.041l-0.016,0.014v0.016v0.012h0.016v-0.012l0.027-0.058h0.015
	h0.028h0.071v-0.026h-0.085l-0.029-0.07l0.015-0.069l0.071-0.042v-0.027h-0.029l-0.014-0.015l-0.014-0.028l0.027,0.015h0.029h0.013
	l0.029-0.015l0.013,0.043l0.029,0.139l0.029,0.028h0.028l0.085,0.068l0.013,0.016v0.125l0.028,0.041l0.086,0.084l0.043,0.014
	l0.029,0.014h0.056h0.015L32.321,26.9l-0.027,0.029l-0.043,0.012h-0.058v0.029h0.029h0.028l0.014,0.012v0.028l-0.057-0.013
	l-0.015,0.028v0.098l-0.013,0.056l-0.059-0.015h-0.041l-0.029,0.027l0.029,0.043h0.028l0.027-0.015h0.029l0.015,0.029l0.013,0.04
	h0.015v-0.028V27.25l0.015-0.044l0.058,0.293l0.084,0.251l0.241,0.476h-0.071l0.029,0.027l0.07,0.015l0.016,0.041l0.084,0.084
	l0.015,0.027l0.141,0.154l0.028,0.041l0.043,0.168l-0.043-0.015l-0.014-0.026l-0.015-0.029l0.028,0.264l0.015,0.043l0.015,0.016
	l-0.015,0.012h-0.028l-0.015,0.044l-0.028,0.013l-0.014,0.028l0.029,0.043l0.013-0.071l0.015-0.026l0.127,0.291l0.071,0.084
	l0.015,0.042v0.182l0.015,0.041l0.026,0.056l0.042,0.098l0.116,0.112l0.041,0.042l0.014,0.043l0.029,0.138l-0.029,0.056l0.059,0.111
	l0.126,0.167h-0.071l-0.026-0.025l-0.016-0.044l-0.042-0.041h-0.084v0.041l0.041,0.069l0.114,0.057l0.042,0.041l0.113,0.238
	l0.058,0.376l0.041,0.042l0.099,0.07l0.016,0.027l-0.016,0.265l0.03,0.126l-0.03,0.014l-0.099,0.013v-0.041v-0.195l-0.056-0.167
	l-0.027-0.057l-0.045,0.043v0.042l-0.013,0.126l-0.029,0.055v0.028l0.029-0.016l0.028,0.071l0.029,0.028h0.042l-0.028,0.041
	l-0.043,0.041l-0.028,0.042v0.071l0.042,0.068l0.016,0.028v0.098l0.014,0.07l0.028,0.068l0.028,0.057l0.042,0.014l0.015,0.015
	l0.042,0.028l0.043,0.027h0.013l0.016,0.027v0.029l-0.016,0.013h-0.043v0.028h0.016l0.015,0.014v0.043l-0.03-0.029l-0.084-0.111
	l-0.042-0.084l-0.101-0.097l-0.027-0.057h-0.027v0.057l0.027,0.026l0.027,0.016l0.029,0.015l0.016,0.04l0.014,0.07l0.028,0.027
	l0.041,0.042l0.029,0.014v0.015l-0.015,0.027l-0.015-0.014l0.029,0.043l0.085,0.083l0.027-0.014v-0.016l0.016-0.013l0.041-0.015
	v0.027l-0.028,0.043l-0.013,0.028l0.013,0.042l0.044,0.026l0.027,0.015l0.042-0.026l0.016,0.026l-0.016,0.056l0.016,0.029
	l-0.042,0.069l-0.016,0.027l-0.043,0.026l-0.028-0.04h-0.071l-0.026-0.027l0.026-0.029l0.03-0.014l0.028-0.027l0.013-0.043
	l-0.028-0.027l-0.112-0.056h-0.029l-0.027,0.015l-0.028,0.026L33.655,32.8l0.014,0.027v0.027v0.027l0.028,0.029l-0.014,0.027
	l-0.015,0.026v0.057l0.056,0.028l0.072,0.071l0.042,0.026l0.043-0.026l0.027-0.016l0.029,0.042v0.042v0.013l-0.029,0.016h-0.043
	v0.026l0.016,0.016l0.013,0.014v0.028v0.028h-0.013l-0.043-0.028l-0.016-0.016l-0.013,0.044h-0.014l-0.016,0.014l0.042,0.109
	l0.043,0.042l0.043,0.043l-0.015-0.097l0.015-0.042l0.043-0.029v-0.014l-0.014-0.026v-0.016h0.014l0.014,0.016l0.016,0.026
	l0.013,0.028l0.014,0.068l-0.014,0.029l-0.028,0.082v0.028l0.028,0.071l-0.013,0.056l-0.016,0.056v0.056l0.016,0.057l0.026,0.041
	l0.044,0.041l0.014,0.041v0.03l0.042,0.026l0.029,0.027l0.084,0.112l0.101,0.1l0.07,0.096l0.156,0.153l0.028,0.028l0.014,0.055
	v0.071l-0.014,0.056l-0.015,0.027l-0.014,0.014l-0.057,0.014h-0.028v-0.014l0.014-0.027l0.028-0.014l0.015-0.015v-0.015l0.015-0.013
	V34.71h-0.043l-0.071,0.056l-0.015,0.014l-0.014,0.057l-0.014,0.013l-0.028,0.015h-0.028l-0.044,0.014l-0.027,0.027l0.027,0.028
	v0.042v0.042l0.015,0.055l0.171,0.267l0.057,0.056h0.057l0.071,0.041v0.014v0.028l-0.015,0.014h-0.027l-0.029,0.015v0.056
	l0.014,0.139v0.043l-0.028,0.027l-0.042-0.041l-0.057-0.099l-0.015-0.016l-0.014-0.013l-0.015-0.014v-0.027v-0.014l0.057-0.057
	v-0.014l-0.071-0.126l-0.014,0.043l-0.014,0.014H34.35h-0.043l0.015,0.027l0.014,0.028l-0.014,0.027v0.042l-0.029-0.042
	l-0.027-0.014l-0.029-0.014h-0.042l0.057-0.083v-0.029h0.015l0.042-0.013l0.028-0.029l0.015-0.026l-0.015-0.056l-0.07-0.07
	l-0.015-0.043l-0.015-0.097l-0.015-0.016h-0.042v0.028l-0.014,0.028l-0.014,0.028l-0.115,0.084l-0.028,0.028l-0.085,0.097
	l-0.057,0.056l-0.043,0.014l-0.026,0.029l-0.1,0.139v0.028l0.027,0.139l-0.027,0.015v0.056l0.027,0.056v0.027h0.015v0.014v0.015
	h0.029l0.013-0.042v-0.043l0.016-0.026l0.042-0.015v-0.013h-0.028v-0.028l0.056,0.015v0.041l-0.027,0.056l-0.016,0.056l0.016,0.057
	l0.043,0.04l0.184,0.099l0.027,0.029l-0.041,0.068l0.014,0.042l0.014,0.026h0.014l0.059,0.017l0.069,0.04l0.029,0.04l-0.042,0.044
	l0.027,0.026l-0.015,0.016l-0.056-0.042l-0.014,0.026l-0.029,0.071l-0.029,0.026l-0.057-0.013l-0.042-0.042l-0.056-0.084
	l-0.157-0.141l-0.112-0.07l-0.1,0.03l0.015,0.014l0.028,0.041v0.017l-0.028-0.017l-0.015-0.015h-0.027l0.027,0.058l0.057,0.042
	l0.029,0.041l0.057-0.013l0.042,0.041l0.015,0.084l0.013,0.069l0.016,0.027l0.026,0.042l0.03,0.028l0.041,0.027v0.029l-0.013,0.014
	l-0.043-0.014h-0.028l-0.014,0.026l-0.028,0.085l-0.071-0.029l-0.028-0.015l0.028,0.029l0.027,0.027l0.072,0.042l-0.016,0.042
	l0.016,0.042l0.026,0.028l0.03,0.042l-0.1-0.015h-0.029l-0.013,0.042l0.027-0.015v-0.013l0.042,0.027l0.029,0.028v0.041l0.013,0.015
	v0.015v0.013l0.03,0.028l0.013,0.043v0.027l-0.043,0.041v0.029l0.016,0.139l0.027,0.056l0.115,0.168l0.026,0.041l0.114,0.056v0.028
	l-0.015,0.057v0.013l-0.056,0.042v0.056l0.027,0.058l0.028,0.026l0.058,0.015v0.027l-0.058,0.027h-0.056l-0.058-0.027l-0.028-0.027
	h-0.014l-0.029,0.013h-0.014l-0.027-0.099v-0.234l-0.043-0.112l0.027-0.016l-0.098-0.181l-0.044-0.153l-0.027-0.028l-0.042,0.058
	l0.042,0.084h0.027v0.013l-0.013,0.098l0.013,0.027l0.099,0.07l0.016,0.057v0.097l-0.028,0.099l-0.057,0.097l-0.085,0.071
	l-0.072,0.012l-0.042,0.11l0.029,0.112l0.113,0.016l0.027-0.028l0.044-0.071l0.055-0.055h0.016v0.055l-0.028,0.043v0.041
	l0.043,0.056v0.085l0.154,0.167l-0.042,0.068l-0.027-0.027l-0.016,0.027l-0.028,0.07l-0.056,0.084l-0.016,0.027v0.028l-0.013,0.057
	l-0.014,0.013l-0.072,0.056v0.028l-0.013,0.042l-0.015,0.042l-0.042,0.055h-0.029l-0.042-0.026h-0.058h-0.056l-0.071-0.015
	l-0.043-0.041l-0.028-0.111l-0.013-0.015l-0.085,0.015v0.041l0.042,0.041l0.028,0.015v0.056l-0.015,0.041v0.059l0.029,0.056h-0.074
	h-0.026l0.058,0.083l0.014,0.139l-0.029,0.237l0.029,0.125l-0.014,0.043l-0.042,0.041l-0.1,0.07l-0.044,0.027l-0.057,0.028h-0.057
	l-0.17-0.056l-0.056-0.015h-0.057l-0.071,0.015l-0.057,0.027l-0.114,0.084l-0.042,0.042l-0.043,0.042l-0.014,0.069l-0.044,0.168
	l-0.026,0.055l-0.029,0.028l-0.043,0.016h-0.057h-0.042l-0.071-0.028h-0.057h-0.028l-0.07,0.04H31.84l-0.128,0.015l-0.029,0.014
	l-0.042,0.043l-0.1,0.04l-0.056,0.042l-0.043,0.07l-0.028,0.056l-0.043,0.14l-0.028,0.027l-0.084,0.028h-0.027l-0.13,0.07
	l-0.042,0.013h-0.057l-0.028,0.015l-0.013,0.041l-0.043,0.154l-0.016,0.042l-0.069,0.013L30.79,41.39l-0.042,0.11H30.72
	l-0.028-0.097l-0.099-0.029l-0.454,0.097l-0.1,0.044l-0.042,0.057l-0.015,0.026l-0.085,0.084l-0.014,0.056l-0.015,0.042
	l-0.042,0.098l-0.015,0.14l-0.128,0.25h-0.029l-0.042-0.028l-0.156-0.026l-0.07-0.013l-0.071,0.013l-0.057,0.014l-0.213,0.084
	l-0.142,0.125l-0.056,0.028l-0.129,0.042l-0.226,0.126l-0.085,0.015l-0.086,0.026l-0.141,0.083l-0.045,0.029l-0.083,0.084
	l-0.015,0.04l-0.027,0.042l-0.073,0.043l-0.226,0.11l-0.07,0.015l-0.157,0.026l-0.142,0.044l-0.043-0.015l-0.027,0.041l-0.099,0.098
	l-0.087,0.126h-0.07l-0.141-0.07l-0.099-0.014l0.015-0.028l0.041-0.014h0.027l0.016-0.026v-0.028l-0.016-0.029l-0.027-0.027
	l-0.015-0.013h-0.026l-0.074-0.07h-0.013h-0.042h-0.044l-0.026-0.015v0.056H26.58l-0.058-0.041l-0.07-0.04h-0.07l-0.057,0.04h-0.029
	l0.014-0.027v-0.013l-0.014-0.058l-0.027,0.07l-0.029,0.027l-0.042,0.026l-0.015-0.066l-0.014-0.03l-0.041,0.03l-0.031,0.025
	l-0.027,0.028h-0.016v-0.054l0.043-0.03l0.044-0.027l0.028-0.014l0.028-0.043v-0.027L26.183,42.7l-0.014-0.028l-0.041-0.041
	l-0.016-0.028l0.042,0.014v-0.085l-0.042-0.055l-0.113-0.083l-0.015,0.057l0.043,0.026l0.056,0.028l0.029,0.026l-0.043,0.085v0.056
	l0.059,0.015l0.026,0.027v0.055l-0.042,0.084l0.016,0.016l0.026,0.027l0.015,0.013v0.028l-0.028,0.014l-0.028-0.026l-0.043-0.028
	l0.027-0.027l-0.056-0.042v-0.016l0.013-0.042l0.016-0.039l-0.016-0.084h-0.013l-0.028,0.096v0.098l0.028,0.085l0.087,0.069
	l-0.074,0.027l-0.069,0.124l-0.028,0.029l-0.028-0.015v-0.027l0.015-0.041v-0.029l-0.015-0.041l-0.014-0.014l-0.015-0.014
	l-0.028-0.029l-0.028-0.056v-0.069l0.014-0.109l-0.227-0.169l-0.113,0.056l-0.07,0.029l-0.043-0.043l-0.016-0.028l-0.042-0.055
	l-0.057-0.043l-0.057-0.014h-0.015l-0.069,0.042l-0.029,0.015l-0.015,0.041l0.029,0.014l0.043,0.014l0.014,0.028l0.014,0.029
	l0.043,0.096l-0.015,0.027l-0.015,0.029l-0.027,0.013l-0.014,0.016l-0.028,0.055l-0.015,0.069l-0.029,0.057l-0.042,0.027
	l-0.114,0.044h-0.056l-0.043-0.058h-0.028l0.014,0.058l0.015,0.013l0.028,0.027h-0.043l-0.042,0.026l-0.029,0.029l-0.027,0.071
	l-0.026,0.013l-0.06,0.013l-0.042,0.027v-0.053l-0.014-0.044l-0.013-0.027l-0.03-0.029l0.015,0.113l0.016,0.055l0.04,0.014
	l0.058-0.014l0.057-0.026l0.043-0.058l0.026-0.04h0.029l0.015,0.04l0.015,0.058l0.028,0.04l0.071-0.014l0.027-0.026l0.057-0.085
	l0.029-0.027l0.071,0.027l0.028,0.044l0.041,0.053l0.029,0.044l0.042,0.055l0.029,0.042l0.043,0.294l-0.016,0.069l-0.057,0.041
	l-0.071-0.014l-0.198-0.027l-0.382,0.014l-0.27-0.042H24.24l-0.085-0.016l-0.058-0.025l-0.042-0.015L24,43.732l0.214,0.11
	l0.877,0.252l0.028,0.013l0.058,0.042l0.014,0.015h0.027l0.015,0.027l0.029,0.014h0.027h0.044l0.028,0.015l0.013,0.015l0.014,0.027
	l-0.014,0.084l-0.013,0.041l-0.2,0.197l-0.057,0.041l-0.057-0.015l0.015-0.026v-0.029v-0.042l-0.015-0.027H25.02l-0.014,0.069
	h-0.015l-0.043,0.056l-0.027,0.028v0.028l0.014,0.014l0.029,0.027l0.014,0.027l-0.014,0.016h-0.058l-0.014,0.014v0.026l-0.028,0.027
	v0.03L24.85,44.86h-0.015h-0.141l-0.057-0.012l-0.056-0.042l-0.044-0.042l-0.057-0.029l-0.185-0.068l-0.112-0.07l-0.1-0.098
	l-0.312-0.432l-0.101-0.099l-0.14-0.042l0.014,0.029h0.015l0.027,0.013l0.099,0.068l0.044,0.043l0.042,0.125l0.043,0.071l0.34,0.404
	l0.085,0.055l0.298,0.113l0.184,0.137l0.213,0.083l0.057,0.016l0.043,0.029l-0.015,0.067l-0.028,0.071l-0.057,0.056v-0.029
	l0.029-0.026v-0.027l-0.016-0.044l-0.014-0.014h-0.028l-0.014,0.111l-0.071,0.084l-0.1,0.029l-0.084-0.015l-0.086-0.056
	l-0.225-0.208l-0.087-0.07l-0.312-0.153l-0.936-0.837l-0.029-0.016l-0.043-0.026h-0.014l-0.028,0.026l0.015,0.016l0.027,0.015
	l0.029,0.013l0.085,0.084l0.042,0.041l0.015,0.112l0.042,0.055l0.044,0.043l0.085,0.055l0.24,0.169l0.043,0.028l0.015,0.026
	l0.042,0.058l0.014,0.025l0.199,0.154l0.014,0.016l0.071,0.081l0.325,0.225l0.102,0.096l0.068,0.099l0.029,0.14l0.042,0.028
	l0.085,0.014l0.057,0.027l0.014,0.07v0.069l-0.014,0.167l-0.042,0.111l-0.07,0.1l-0.085,0.082l-0.072,0.042l-0.056,0.015
	l-0.03-0.015l-0.039-0.013l-0.044,0.013l-0.042,0.042h-0.156l-0.043-0.027L23.745,46.2l-0.326-0.154l-0.695-0.558l-0.355-0.391
	l-0.127-0.112l-0.113-0.069l-0.129-0.026l-0.113-0.071h-0.069l0.069,0.098l0.88,0.755l0.028,0.055l0.015,0.056l0.028,0.069
	l0.397,0.503l0.028,0.057l0.014,0.041l0.015,0.138l-0.015,0.043l-0.143,0.141l0.044,0.027l0.027,0.015l0.029,0.013l0.013,0.057
	l-0.013,0.055l-0.029,0.013l-0.113,0.03l-0.496,0.152l-0.95,0.361l-0.81,0.294l-0.084,0.07l-0.155,0.152l-0.1,0.07l-0.043,0.042
	l-0.014,0.069h-0.014l-0.044,0.015l-0.013,0.015l-0.014,0.013l0.014,0.042v0.014l-0.256,0.529l-0.056,0.084l-0.1,0.097l-0.114,0.07
	l-0.099-0.012v0.026l-0.24,0.167l-0.115,0.182l-0.098,0.068l-0.143,0.044l-0.808,0.152h-0.085l-0.028-0.013l-0.015-0.016
	l-0.028-0.012l-0.227-0.03l-0.1-0.026l-0.014-0.015l-0.015-0.041h0.028l0.043,0.014l0.041,0.027l0.214-0.153l0.042-0.026h0.029
	l0.028-0.015l0.014-0.043l-0.014-0.026l-0.043-0.028L18.2,49.282l0.042-0.029l0.058,0.015l0.241,0.043l0.057-0.015l0.057-0.028
	l0.057-0.041l0.015-0.044l-0.086,0.044l-0.113,0.026h-0.113l-0.085-0.041L18.3,49.169l0.028-0.013l0.043-0.016h0.056h0.086
	l0.028-0.012l0.057-0.027v-0.03l-0.028-0.054l-0.014-0.071l0.014-0.057l-0.227,0.1l-0.156,0.028l-0.072-0.084l0.015-0.084
	l0.058-0.153l0.014-0.07l-0.042-0.168l0.015-0.067l0.069-0.058v-0.014l-0.056-0.042l-0.028-0.084v-0.391l0.028-0.194l0.014-0.502
	l0.058-0.155l-0.028-0.43v-0.14l0.142-0.656l0.042-0.14l0.085-0.098l0.185-0.082l0.043-0.029l0.014-0.056l0.057-0.056l0.229-0.152
	l0.084-0.045l0.027,0.029l0.015,0.056l0.101,0.209l-0.016-0.041l-0.014-0.141v-0.138l-0.029-0.07L19.15,44.89l-0.17-0.196
	l-0.142-0.109l-0.086-0.044l-0.07-0.013l-0.142,0.04h-0.085l-0.113-0.068l-0.085-0.097l-0.071-0.113l-0.086-0.098l-0.112-0.055
	l-0.128-0.015l-0.114,0.027l-0.098,0.07v0.042v0.027l-0.016,0.014l-0.042,0.015l-0.015,0.014l-0.015,0.071l-0.014,0.013
	l-0.127-0.013l-0.014,0.013l-0.014-0.028v-0.028l0.014-0.027v-0.042l-0.014-0.013l-0.06-0.057v-0.028v-0.097l-0.013-0.071
	l-0.043-0.055l-0.1-0.07l-0.014,0.028v0.013l-0.016,0.017h-0.027v-0.099l-0.041-0.056l-0.071-0.098l-0.028-0.043l0.014-0.013h0.029
	l0.027-0.014l0.029-0.043l0.014-0.042v-0.026l-0.014-0.029h-0.029l-0.027,0.042l-0.043,0.041l-0.043,0.029l-0.057,0.028
	l-0.056-0.015l-0.015-0.028l0.015-0.056l-0.015-0.042l0.07,0.014l0.042-0.014l0.043-0.026l0.155-0.21l0.027-0.057l0.029-0.042
	l0.045-0.041h0.055l0.157-0.015l0.553,0.056h0.155l0.128-0.056l0.085-0.083l0.156-0.21l0.043-0.042l0.042-0.039l0.354-0.169
	l0.085-0.07v-0.11l-0.128-0.224l-0.057-0.125l-0.014-0.112l0.014-0.056l0.043-0.043l0.043-0.041l0.057-0.042l0.071-0.027
	l0.027,0.013l0.015,0.043l0.027,0.042l0.057,0.013l0.512,0.084l0.055,0.043l0.129,0.097l0.057,0.015l0.027-0.027l0.113-0.211
	l0.143-0.151l0.042-0.028h0.015l0.114,0.028l0.07,0.027l0.043,0.014l0.567-0.125l0.086-0.044l0.055-0.026V41.5l0.087-0.041
	l0.112-0.028l0.099,0.014l0.058,0.056l0.07,0.098l0.114,0.154l0.027,0.056l0.042,0.111l0.03,0.056l0.056,0.042l0.071,0.042h0.071
	l0.026-0.042l0.044-0.056l0.029-0.084l0.012-0.057l0.115,0.099l0.043,0.028l0.07,0.069l0.084,0.056l0.1,0.057l0.1,0.027l0.213,0.013
	l0.085,0.016l0.085,0.054l-0.1-0.319l-0.085-0.153L22.85,41.71h0.016v-0.084l-0.016-0.015l0.029-0.026v-0.014l0.071-0.016h0.113
	l0.028-0.015l-0.042-0.07l-0.071-0.193l-0.043-0.056l-0.057-0.042h-0.07l-0.058,0.028l-0.027,0.069l-0.043-0.069l-0.057-0.058
	l-0.127-0.097l-0.058-0.056l-0.085-0.111l-0.058-0.056L22.1,40.803l-0.07-0.056l-0.043-0.096V40.58l-0.056-0.028l-0.058-0.012
	l-0.044-0.028l-0.013-0.044l0.057-0.264l0.042-0.111V40.05v-0.056l-0.056-0.181v-0.084v-0.042l-0.016-0.043l-0.043-0.026
	l-0.099-0.016l-0.041-0.014l-0.045-0.068v-0.069l0.045-0.057l0.041-0.056l0.085-0.068h0.057l0.186,0.041l0.099,0.013l0.041-0.054
	l0.029-0.071l0.099-0.098l0.016-0.042l0.015-0.042v-0.055l0.084-0.083l0.156,0.027l0.198,0.056h0.142l0.256,0.055l0.071,0.042
	l0.028,0.029l0.056,0.067l0.029,0.029h0.042l0.198-0.056h0.042h0.042l0.044,0.014l0.086,0.056l0.042,0.016h0.041l0.044-0.042
	l-0.044-0.084l-0.098-0.155V38.88l0.015-0.044l0.027-0.042l0.027-0.055V38.71v-0.056v-0.027l0.059-0.084L23.9,38.46l-0.113-0.182
	l-0.028-0.098l0.07-0.015l0.042-0.012l0.058,0.012l0.029,0.015l0.014,0.029l0.014,0.027h0.056l0.101-0.071h0.186l0.295,0.028
	l-0.027-0.055l0.185,0.041l0.07-0.026l0.071-0.084l0.043-0.111l0.056-0.083l0.071-0.043l0.113-0.014l0.283,0.014l0.128-0.028
	l0.128-0.04l0.086-0.058l0.24-0.236l0.113-0.139l0.086-0.058l0.041-0.04l0.029-0.043l0.1-0.111l0.212-0.098l0.228-0.084l0.155-0.014
	l0.087,0.043l0.111,0.152l0.07,0.056l0.086-0.015l0.114-0.152l0.084-0.057l0.085-0.042l0.058-0.055l0.013-0.085l0.015-0.083
	l0.099-0.279v-0.069l-0.026-0.04v-0.043l0.026-0.042l0.016-0.042l0.014-0.098l-0.014-0.111l-0.1-0.362l-0.015-0.098v-0.099
	l-0.015-0.082l-0.055-0.1l-0.101-0.097l-0.028-0.041l-0.014-0.044l-0.015-0.11l-0.043-0.084l-0.014-0.027l0.014-0.043l0.016-0.026
	l0.013-0.015l0.015-0.027v-0.015l-0.015-0.028l-0.055-0.026l-0.016-0.058l0.482-1.185V33.26l-0.028-0.335L27.87,32.8l-0.312-0.516
	l-0.071-0.072l-0.085-0.083v-0.014l-0.042-0.056l-0.071-0.07l-0.014-0.056v-0.026l0.014-0.07l0.014-0.029l-0.042-0.11l0.015-0.056
	l0.014-0.042l0.014-0.028l-0.014-0.055l-0.057-0.098v-0.043v-0.028v-0.026l-0.027-0.028l-0.058-0.029l-0.128,0.015l-0.057-0.015
	L26.92,31.21v-0.07V31.07v-0.069l-0.042-0.057l-0.043-0.027l-0.015-0.042l0.015-0.083l0.113-0.322l0.014-0.112v-0.041l-0.014-0.028
	l-0.044-0.069V30.19v-0.068l0.029-0.055l0.071-0.127v-0.027v-0.028l0.014-0.028l0.029-0.028l0.041-0.014l0.031,0.014l0.012,0.028
	h0.015l0.071-0.014L27.26,29.8l0.028-0.041l0.043-0.098l0.014-0.041v-0.029l0.015-0.041l0.042-0.069l0.015-0.043v-0.056
	l-0.015-0.096v-0.044l0.085-0.182l0.016-0.084l-0.042-0.083v-0.055l-0.029-0.029l-0.043-0.026l-0.014-0.026l0.027-0.044
	l-0.014-0.056l-0.043-0.042v-0.055l0.015-0.042l0.143-0.141l0.056-0.069v-0.027l-0.028-0.028l-0.213-0.154l-0.057-0.027
	l-0.042-0.013l-0.029-0.042l-0.013-0.042v-0.057l-0.029-0.057v-0.042l0.042-0.026l0.059-0.015l0.154-0.041l0.059-0.015l0.098,0.015
	h0.058l0.028-0.041l0.014-0.043l-0.042-0.056v-0.028l0.013-0.028l0.043-0.042l0.028-0.013l0.029-0.057l0.013-0.057l0.015-0.111
	l0.015-0.041l0.029-0.028l0.013,0.014l0.016,0.015l0.026-0.015l0.016-0.014l0.014-0.166v-0.044l-0.029-0.053L27.8,26.886
	l-0.156-0.11l-0.043-0.043l-0.029-0.056v-0.126l-0.027-0.04l-0.058-0.015l-0.142,0.028l-0.07-0.028l-0.015-0.055v-0.084l-0.013-0.07
	l-0.059-0.015l-0.013,0.015h-0.029l-0.015-0.015l-0.012-0.027l-0.016-0.042h-0.016l-0.014,0.014h-0.027l-0.071-0.014h-0.028
	l-0.028,0.028l-0.016,0.028l-0.026,0.013l-0.043-0.013l-0.198-0.308l-0.042-0.041l-0.129-0.058l-0.07-0.04l-0.028-0.043
	l-0.016-0.056l-0.026-0.14l-0.016-0.041l-0.041-0.043l-0.186-0.098l-0.042-0.041v-0.07l0.087-0.193l0.026-0.029l0.043-0.015
	l0.042,0.015h0.029l0.027,0.013l0.029-0.013l0.239-0.154l0.057-0.027l0.129-0.027l0.057-0.014l0.042-0.057l0.1-0.168l0.042-0.04
	l0.043-0.057v-0.027l-0.028-0.029l-0.015-0.025v-0.07v-0.042l-0.014-0.015h-0.072l-0.185,0.057l-0.099,0.015l-0.099-0.029
	l-0.084-0.056L26.31,24.14l-0.084-0.057l-0.057-0.013h-0.057l-0.043-0.015l-0.057-0.027L25.97,24l-0.027-0.042l-0.028-0.042
	l-0.043-0.182l-0.028-0.041l-0.07-0.042l-0.059-0.027l-0.055-0.014l-0.143-0.015l-0.113,0.015l-0.042-0.015l-0.043-0.015v-0.026
	l-0.015-0.07l-0.027-0.041l-0.015-0.015l-0.085-0.044l-0.072-0.04l-0.027-0.043l-0.043-0.084H25.02l-0.014,0.016h-0.028
	l-0.014-0.016v-0.014l0.014-0.014v-0.014h0.014v-0.111l-0.014-0.14l-0.057-0.084h-0.086l-0.071,0.112l-0.012,0.055l-0.03,0.043
	l-0.1,0.055l-0.014,0.029v0.027v0.027l-0.026,0.027l-0.044,0.016h-0.014l-0.015-0.016v-0.041l-0.099,0.014l-0.084-0.041l-0.06-0.098
	l-0.054-0.126v-0.041l0.012-0.18l-0.012-0.029l-0.059-0.029h-0.042l-0.072-0.027l-0.069-0.027L23.9,22.509l-0.044-0.07l-0.013-0.083
	l-0.028-0.977l-0.043-0.057l-0.086,0.098l-0.084-0.026h-0.057l-0.07-0.029l-0.057-0.028l-0.029-0.014l-0.014-0.04l-0.07-0.142
	v-0.013l0.027-0.029v-0.027l-0.042-0.056l-0.171-0.14l-0.1-0.153l-0.027-0.055l0.015-0.029l0.013-0.056v-0.042v-0.013l-0.057-0.041
	l-0.014-0.029l-0.015-0.042v-0.029v-0.027l-0.042-0.014H22.85l-0.013,0.014l-0.014,0.027l-0.015,0.029l-0.043,0.055L22.724,20.5
	l-0.043-0.013l-0.085-0.029l-0.566-0.447l-0.312-0.333l-0.072-0.069l-0.227-0.267l-0.086-0.083l-0.113-0.069l-0.17-0.069
	l-0.042-0.029l-0.043-0.056l-0.042-0.125l-0.028-0.057l-0.085-0.097l-0.085-0.153l-0.128-0.112l-0.043-0.11l0.043-0.265l-0.056-0.1
	l-0.087-0.041l-0.027-0.026l-0.015-0.028l-0.014-0.085l-0.016-0.028l-0.026-0.026l-0.058-0.028l-0.029-0.029l-0.057-0.11
	l-0.015-0.015l-0.042-0.014h-0.013v-0.012l0.013-0.016v-0.015v-0.026l-0.027-0.085l-0.015-0.028l-0.056-0.041l-0.073-0.028h-0.07
	l-0.055,0.028l-0.03,0.029l-0.013,0.067l-0.016,0.029l-0.027,0.028v-0.014l-0.016-0.015l-0.026-0.016H19.69l-0.073-0.026
	l-0.055-0.043l-0.028-0.041V17.32l0.013-0.084V17.21l-0.027-0.043h-0.014l-0.015,0.015l-0.127,0.013l-0.029-0.013l-0.027-0.015
	l-0.029-0.055l-0.027-0.028l-0.157-0.099l-0.043-0.041v-0.07l0.028-0.041v-0.042l-0.055-0.057l-0.115-0.07l-0.07-0.069l-0.043-0.097
	l0.015-0.141l0.056-0.181l0.043-0.097l0.043-0.07h0.043l0.042,0.013l0.029-0.013l0.027-0.057v-0.054l-0.027-0.03l-0.071-0.042
	l-0.1-0.153l-0.043-0.014l-0.042,0.014l-0.029,0.016h-0.042l-0.085-0.029l-0.17-0.096h-0.058l-0.056,0.012H18.3l-0.058-0.012
	l-0.027-0.041l-0.042-0.086l-0.086-0.015l-0.184,0.015l-0.057-0.015l-0.128-0.027l-0.143-0.013l-0.028-0.015l-0.028-0.027
	l-0.041-0.056l-0.016-0.014l-0.042-0.017h-0.058l-0.029-0.012l-0.056-0.028l-0.084-0.098l-0.057-0.029l-0.113-0.055l-0.043-0.041
	l-0.113-0.168l-0.042-0.028l-0.058-0.041l-0.056-0.014l-0.101,0.014l-0.07-0.014l-0.043-0.028l-0.085-0.139l-0.057-0.058
	l-0.057-0.013l-0.057-0.028l-0.071-0.028l-0.042-0.027l-0.042-0.042l-0.059-0.042l-0.07-0.014l-0.084,0.027l-0.029-0.027
	l-0.015-0.069v-0.056l-0.042-0.043l-0.128-0.084l-0.368-0.151l-0.07-0.015h-0.072l-0.07,0.027l-0.101-0.07l-0.084-0.042
	l-0.028-0.014l-0.013-0.027l-0.044-0.083h-0.055h-0.06l-0.041-0.015l0.029-0.056l0.042-0.042l0.128-0.043l0.056-0.041l0.057-0.096
	l0.044-0.03l0.069-0.013l0.07-0.041l0.087-0.029h0.041l0.015,0.016l0.028-0.057l0.014-0.029l0.016-0.081l0.013-0.03l0.042-0.027
	h0.028l0.028-0.014l0.014-0.042l-0.042-0.056v-0.043l-0.015-0.068l-0.014-0.056l-0.042-0.028l-0.1-0.056l-0.041-0.043l-0.072-0.181
	v-0.041l0.015-0.057l0.028-0.014l0.044,0.014l0.155,0.084l0.07,0.014l0.072-0.014l0.013-0.015l0.029-0.055l0.027-0.015l0.015-0.014
	l0.071-0.014l0.239-0.056l0.044,0.042l0.114,0.027l0.055,0.098l0.157-0.084l0.057-0.027l0.071,0.014l0.042,0.028l0.028,0.042
	l0.043,0.041l0.028,0.014l0.086,0.043l0.185,0.11h0.057h0.084l0.028-0.012l0.057-0.029l0.028-0.014h0.027l0.057,0.043l0.029-0.015
	l0.028-0.028l0.098-0.265l0.029-0.056l0.044-0.042l0.056-0.042h0.044l0.041-0.014l0.059-0.015l0.083-0.069l0.086-0.042l0.057-0.042
	l0.028-0.111l0.014-0.057v-0.027l-0.027-0.014l-0.057-0.029h-0.101l-0.028-0.014l0.028-0.069l0.057-0.069l0.185-0.111l0.07-0.057
	l0.029-0.042l0.015-0.027l0.013-0.012l0.057-0.016l0.101,0.016l0.043-0.016l0.042-0.043l0.014-0.042V11.24L18.3,11.199v-0.056
	l-0.016-0.029v-0.027H18.3l0.043-0.015l0.014-0.014l-0.028-0.056L18.2,10.921l-0.042-0.057l-0.015-0.07l0.029-0.041l-0.015-0.029
	l-0.284-0.151l-0.143,0.014l-0.141,0.041l-0.141,0.028l-0.116-0.043l-0.013-0.055v-0.057v-0.068l0.013-0.042l0.029-0.029h0.03h0.027
	l0.015-0.055v-0.028v-0.042l-0.015-0.026l-0.014-0.029l-0.044-0.041l-0.127-0.042l-0.058-0.043L17.11,9.958L17.066,9.93
	l-0.482,0.014l-0.127-0.027l-0.1-0.07l0.015-0.056l0.184-0.125l0.071-0.14l0.086,0.07l0.083,0.013l0.086-0.027l0.07-0.056
	l0.213-0.279l0.014-0.098l-0.041-0.042L16.952,9.05l-0.17-0.081l-0.057-0.056l-0.027-0.1l-0.042-0.055h-0.072h-0.071l-0.07-0.015
	l-0.028-0.026l-0.028-0.059l-0.014-0.025l-0.028-0.015l-0.043-0.028l-0.028-0.014l-0.043-0.055l-0.057-0.1l-0.042-0.055
	l-0.028-0.013L16.074,8.34l-0.028-0.027h-0.029h-0.027l-0.071,0.014L15.89,8.34l-0.014-0.027l-0.029-0.069l-0.029-0.028
	l-0.013-0.014l-0.099-0.027h-0.029h-0.084l-0.03-0.015l-0.026-0.014l-0.044-0.03l-0.028-0.012h-0.112l-0.157,0.181l-0.113,0.014
	h-0.041l-0.028,0.015L14.939,8.34l-0.241,0.069l-0.026,0.014l-0.043,0.042l-0.029,0.014h-0.026H14.5l-0.041,0.014l-0.028,0.03
	l-0.028,0.068l-0.029,0.068l-0.014,0.045v0.068l0.014,0.041l-0.014,0.015l-0.057,0.041L14.26,8.885L14.23,8.897h-0.026l-0.015,0.056
	v0.029L14.23,9.05v0.029l-0.013,0.015l-0.042,0.013l-0.043,0.015h-0.028h-0.028l-0.015-0.015l-0.015-0.013l-0.07-0.057l-0.127-0.14
	l-0.071-0.028l-0.199-0.041l-0.027-0.015h-0.029l-0.028-0.013l-0.029-0.017L13.438,8.73l-0.072-0.111l-0.028-0.028l-0.057-0.027
	l-0.014,0.014v0.014l-0.029,0.028l-0.07,0.04l-0.085,0.014h-0.015h-0.041l-0.086-0.026L12.758,8.55l-0.059-0.015h-0.027l-0.07,0.015
	h-0.029L12.53,8.535l-0.042-0.028L12.46,8.492l-0.028-0.014h-0.057L12.33,8.465l-0.014-0.014l-0.041-0.056l-0.1-0.111l-0.058-0.098
	l-0.098-0.21l-0.072-0.151l-0.056-0.057l-0.085-0.041h-0.044h-0.027l-0.015-0.029l-0.013-0.026l-0.016-0.058l-0.028-0.139
	L11.623,7.42l-0.029-0.015h-0.027l-0.029-0.014l-0.013-0.028V7.322l0.027-0.056V7.225l-0.015-0.043l-0.028-0.026l-0.042-0.029
	L11.41,7.099h-0.07l-0.058,0.016l-0.027-0.016l0.042-0.069l0.057-0.043l0.113-0.027l0.028-0.027l0.014-0.055l0.016-0.156
	l0.013-0.068l0.101-0.166l0.015-0.044L11.594,6.43l-0.057,0.027l-0.07,0.044l-0.043,0.025l0.143-0.236l0.071-0.057l0.126-0.152
	l0.072-0.056V6.012V5.998V5.983l-0.028-0.069L11.793,5.83V5.593V5.566l-0.015-0.043l-0.027-0.042l-0.015-0.014l-0.015,0.014
	L11.48,5.578h-0.057l-0.042-0.04V5.481V5.343l-0.015-0.154l-0.07-0.042L11.24,5.188l-0.015,0.279l-0.043,0.099l-0.07,0.097
	l-0.1,0.056l-0.028,0.013h-0.184h-0.015l-0.028-0.026l-0.016-0.057l-0.013-0.082l-0.014-0.071L10.742,5.3l-0.026-0.14l-0.113-0.251
	l-0.1-0.083l-0.142-0.042l-0.127-0.069l-0.029-0.126V4.574l0.014-0.012l0.016-0.015l0.026-0.043l-0.056-0.042l-0.07-0.042
	l-0.072-0.055L10.05,4.324l-0.042-0.083L9.992,4.212L9.965,4.186l-0.101-0.07L9.638,3.891L9.439,3.795L9.384,3.737L9.368,3.669
	L9.312,3.626L9.255,3.585L9.213,3.529V3.514l0.014-0.04V3.46L9.213,3.445L9.184,3.418L9.171,3.404L9.142,3.306L9.127,3.264
	L9.1,3.223l0.042-0.042l0.058-0.042l0.056-0.014l0.071,0.027l0.058,0.028h0.042l0.043-0.042l0.013-0.069L9.51,2.958l0.029-0.056
	L9.95,2.512l0.028-0.057H9.965V2.427L9.937,2.399l-0.03-0.015L9.894,2.358L9.879,2.315l0.027-0.013l0.03-0.015l0.042,0.015
	l0.029-0.015l0.042-0.043l0.026-0.056l0.044-0.111V2.064l0.057-0.055l0.069-0.015l0.088,0.026l0.07,0.057l0.027,0.057l0.014,0.068
	l0.014,0.042h0.072l0.027-0.012l0.016-0.03l0.028-0.014l0.026-0.013l0.015,0.013l0.044,0.056l0.028,0.015l0.056,0.028L10.9,2.303
	l0.071,0.027l0.185,0.152l0.055,0.029l0.143,0.04L11.41,2.58l0.043,0.042L11.48,2.68l0.015,0.068l0.113,0.21l0.029,0.027
	l0.056,0.027l0.114,0.043l0.099,0.069l0.071,0.027h0.058l0.056-0.027l0.015-0.056l-0.015-0.057V2.972l0.042-0.042h0.058l0.057-0.027
	l0.156-0.111l0.014-0.015V2.732l-0.042-0.041V2.664l0.028-0.097l0.085-0.07l0.197-0.098l0.057-0.041l0.03-0.028l0.056-0.153
	l0.127-0.211l0.03-0.012l0.083,0.028l0.028,0.013l0.043,0.041l0.028,0.028l0.028,0.042l0.058,0.028v0.042v0.057v0.069l0.027,0.042
	l0.113,0.194l0.086,0.083l0.027,0.028l0.057,0.014l0.043-0.028l0.1-0.139l0.015-0.042l-0.015-0.167V2.26l0.071-0.083l0.028-0.056
	l0.014-0.043l0.029-0.042l0.042-0.026l0.142-0.085l0.043,0.029l0.213,0.249l0.21,0.196l0.043,0.042l0.015,0.027l0.058,0.099
	l0.027,0.027h0.029l0.07,0.085l0.016,0.012h0.055l0.016,0.015l0.028,0.026l0.041,0.085l0.028,0.028h0.056l0.031,0.027l0.028,0.041
	l0.041-0.026l0.043-0.042V2.803V2.748V2.691l0.014-0.041l0.043-0.099l0.014-0.055l0.015-0.209l0.029-0.085l0.069-0.097l0.028-0.028
	l0.042-0.068l0.029-0.027l0.042-0.028l0.028-0.014h0.101l0.269-0.098h0.1l-0.028,0.068l-0.014,0.071v0.069l0.026,0.069l0.029,0.041
	l0.184,0.083l0.071,0.043l0.044,0.015h0.057l0.297-0.196l0.059-0.07l0.211-0.167l0.057-0.056V1.802l0.028,0.012v0.014v0.016
	l0.015,0.011l0.014,0.016l0.015,0.015l0.015,0.014h0.027h0.015l0.044-0.044l0.012-0.011l0.057,0.011l0.113,0.03h0.071l0.058-0.03
	l0.042-0.026l0.044-0.041l0.1-0.152l0.042-0.044l0.155-0.084l0.014-0.041V1.396l-0.099-0.432l0.042-0.042l0.086-0.014l0.069-0.07
	l0.015-0.042V0.741l0.014-0.044l0.029-0.027h0.057l0.084,0.056h0.044l0.028-0.014L18.3,0.601l0.113-0.057l0.1-0.068l0.043-0.014
	l0.255-0.084h0.014V0.362l0.015-0.013l0.014-0.015h0.014l0.015,0.027h0.015h0.028l0.015,0.016l0.027,0.014l0.029-0.014l0.056-0.043
	l0.016-0.055l0.013-0.056l0.029-0.07l0.027-0.028l0.115-0.098L19.293,0h0.056l0.028,0.043l0.014,0.055l0.028,0.057l0.029,0.056
	l0.058,0.043l0.057,0.027L19.604,0.295"/>
</svg>
