<?xml version="1.0" encoding="utf-8"?>
<!-- Generator: Adobe Illustrator 16.0.0, SVG Export Plug-In . SVG Version: 6.00 Build 0)  -->
<!DOCTYPE svg PUBLIC "-//W3C//DTD SVG 1.1//EN" "http://www.w3.org/Graphics/SVG/1.1/DTD/svg11.dtd">
<svg version="1.1" id="Layer_1" xmlns="http://www.w3.org/2000/svg" xmlns:xlink="http://www.w3.org/1999/xlink" x="0px" y="0px"
	 width="12.936px" height="15.949px" viewBox="0 0 12.936 15.949" enable-background="new 0 0 12.936 15.949" xml:space="preserve">
<path fill="#FFFFFF" d="M0.435,0.191C0.138,0.203,0,0.209,0,0.257c0.019,0.041,0.079,0.088,0.1,0.1l5.097,6.052
	c0.079,0.065,0.425,0.48,1.227,0.48c0.772,0,1.068-0.416,1.146-0.48l5.268-6.052c0.021-0.012,0.08-0.059,0.1-0.1
	c0-0.047-0.138-0.054-0.435-0.065l-1.344-0.053c-0.06,0-0.278-0.006-0.317-0.006c-0.158,0-0.218,0.053-0.277,0.118L7.174,3.9
	C6.936,4.131,6.62,4.185,6.502,4.185H6.461c-0.118,0-0.415-0.048-0.632-0.285l-3.16-3.872C2.61-0.03,2.551,0.021,2.393,0.021
	c-0.041,0-0.257,0.061-0.316,0.061L0.435,0.191z"/>
<path fill="#FFFFFF" d="M0.435,9.251C0.138,9.263,0,9.269,0,9.316c0.019,0.041,0.079,0.088,0.1,0.1l5.097,6.052
	c0.079,0.065,0.425,0.48,1.227,0.48c0.772,0,1.068-0.416,1.146-0.48l5.268-6.052c0.021-0.012,0.08-0.059,0.1-0.1
	c0-0.047-0.138-0.054-0.435-0.065l-1.344-0.053c-0.06,0-0.278-0.006-0.317-0.006c-0.158,0-0.218,0.054-0.277,0.118l-3.388,3.62
	c-0.239,0.23-0.554,0.255-0.672,0.255H6.461c-0.118,0-0.415-0.019-0.632-0.255l-3.16-3.857c-0.059-0.059-0.119,0-0.277,0
	c-0.041,0-0.257,0.064-0.316,0.064L0.435,9.251z"/>
</svg>
