<?xml version="1.0" encoding="utf-8"?>
<!-- Generator: Adobe Illustrator 16.0.0, SVG Export Plug-In . SVG Version: 6.00 Build 0)  -->
<!DOCTYPE svg PUBLIC "-//W3C//DTD SVG 1.1//EN" "http://www.w3.org/Graphics/SVG/1.1/DTD/svg11.dtd">
<svg version="1.1" id="Layer_1" xmlns="http://www.w3.org/2000/svg" xmlns:xlink="http://www.w3.org/1999/xlink" x="0px" y="0px"
	 width="420px" height="270px" viewBox="0 0 420 270" enable-background="new 0 0 420 270" xml:space="preserve">
<g>
	<g>
		<circle fill="#FFFFFF" cx="126.513" cy="220.343" r="4.329"/>
	</g>
	<g>
		<path fill="#FFFFFF" d="M121.396,266.645c0,1.34,1.086,2.428,2.426,2.428c1.342,0,2.428-1.088,2.428-2.428l0.002-20.361h1.081
			l-0.007,20.361c0,1.34,1.087,2.428,2.427,2.428c1.341,0,2.426-1.088,2.426-2.428l0.011-35.102h1.065v12.936
			c0,2.602,3.394,2.602,3.387,0v-13.213c0-2.873-1.689-5.69-5.054-5.69l-9.702-0.005c-3.065,0-4.985,2.5-4.985,5.617v13.291
			c0,2.584,3.412,2.584,3.412,0v-12.936h1.088L121.396,266.645z"/>
	</g>
</g>
<g>
	<g>
		<circle fill="#FFFFFF" cx="17.16" cy="161.95" r="4.329"/>
	</g>
	<g>
		<path fill="#FFFFFF" d="M12.043,208.252c0,1.34,1.086,2.428,2.426,2.428c1.342,0,2.428-1.088,2.428-2.428l0.002-20.361h1.081
			l-0.007,20.361c0,1.34,1.087,2.428,2.427,2.428c1.341,0,2.426-1.088,2.426-2.428l0.011-35.102h1.065v12.936
			c0,2.602,3.394,2.602,3.387,0v-13.213c0-2.873-1.689-5.69-5.054-5.69l-9.702-0.005c-3.065,0-4.985,2.5-4.985,5.617v13.291
			c0,2.584,3.412,2.584,3.412,0V173.15h1.088L12.043,208.252z"/>
	</g>
</g>
<g>
	<g>
		<circle fill="#FFFFFF" cx="263.884" cy="216.464" r="4.329"/>
	</g>
	<g>
		<path fill="#FFFFFF" d="M258.767,262.766c0,1.338,1.086,2.426,2.426,2.426c1.342,0,2.428-1.088,2.428-2.426l0.002-20.361h1.081
			l-0.007,20.361c0,1.338,1.087,2.426,2.427,2.426c1.341,0,2.426-1.088,2.426-2.426l0.011-35.102h1.065V240.6
			c0,2.602,3.394,2.602,3.387,0v-13.213c0-2.875-1.689-5.691-5.054-5.691l-9.702-0.005c-3.065,0-4.985,2.499-4.985,5.618V240.6
			c0,2.584,3.412,2.584,3.412,0v-12.936h1.088L258.767,262.766z"/>
	</g>
</g>
<g>
	<g>
		<circle fill="#FFFFFF" cx="375.827" cy="169.199" r="4.329"/>
	</g>
	<g>
		<path fill="#FFFFFF" d="M370.71,215.501c0,1.339,1.086,2.427,2.426,2.427c1.342,0,2.428-1.088,2.428-2.427l0.002-20.361h1.081
			l-0.007,20.361c0,1.339,1.087,2.427,2.427,2.427c1.341,0,2.426-1.088,2.426-2.427l0.011-35.102h1.065v12.936
			c0,2.602,3.394,2.602,3.387,0v-13.213c0-2.874-1.689-5.69-5.054-5.69l-9.702-0.006c-3.065,0-4.985,2.5-4.985,5.618v13.291
			c0,2.584,3.412,2.584,3.412,0v-12.936h1.088L370.71,215.501z"/>
	</g>
</g>
<g>
	<g>
		<path fill="#FFFFFF" d="M208.99,10.717c3.089,0,4.344,2.546,4.811,3.949l3.797,12.48c0.757,2.684-2.656,3.796-3.471,1.18
			l-3.417-11.459h-0.994l5.921,20.382h-5.455v15.893c0,2.709-4.075,2.695-4.075,0V37.146h-1.661l0.002,15.973
			c0,2.732-4.092,2.732-4.092,0l-0.001-15.869h-5.473l5.874-20.382h-0.92l-3.415,11.499c-0.813,2.507-4.258,1.479-3.47-1.208
			l3.794-12.492c0.405-1.424,1.651-3.949,4.77-3.949H208.99z"/>
	</g>
	<g>
		<circle fill="#FFFFFF" cx="205.273" cy="5.356" r="4.429"/>
	</g>
</g>
<g>
	<polygon fill="#FFFFFF" points="55.511,181.167 54.364,180.813 64.437,148.155 70.847,137.026 86.228,133.513 106.267,119.738 
		147.006,102.025 159,74.912 160.098,75.397 147.914,102.939 106.798,120.816 86.719,134.632 71.625,138.079 65.511,148.696 	"/>
</g>
<g>
	<polygon fill="#FFFFFF" points="137.753,217.021 136.571,216.812 142.914,180.991 142.809,168.085 154.364,157.431 
		161.421,145.287 166.058,126.169 166.167,126.053 182.834,108.438 191.97,92.717 205.331,52.24 215.146,88.947 224.887,107.562 
		223.521,120.272 231.025,148.338 229.688,152.326 233.503,157.603 236.78,169.858 240.079,195.181 243.528,210.549 
		242.356,210.811 238.898,195.389 235.605,170.091 232.372,158.021 228.353,152.533 229.773,148.299 222.305,120.366 
		223.654,107.796 214.003,89.321 205.21,56.435 193.039,93.266 183.754,109.212 167.149,126.762 162.502,145.815 155.244,158.252 
		144.013,168.606 144.115,181.091 144.105,181.146 	"/>
</g>
<g>
	<path fill="#FFFFFF" d="M341.504,178.611l-23.233-24.193l-23.567-20.911l-11.213-2.156c-0.177-0.034-0.328-0.145-0.414-0.303
		l-8.251-15.183l-69.953-62.079c-0.211-0.188-0.263-0.497-0.125-0.743c0.139-0.246,0.428-0.363,0.699-0.28l34.767,10.669
		c0.035,0.011,0.068,0.024,0.101,0.041l29.133,15.116l38.555,4.246c0.146,0.016,0.279,0.084,0.377,0.191l13.156,14.389h29.325
		c0.086,0,0.171,0.019,0.249,0.054l25.685,11.716l42.604,9.236l-0.254,1.173l-42.667-9.25c-0.042-0.009-0.083-0.023-0.122-0.041
		l-25.625-11.689h-29.459c-0.168,0-0.329-0.071-0.442-0.195l-13.182-14.417l-38.441-4.233c-0.074-0.008-0.146-0.029-0.211-0.063
		L239.81,64.564l-32.076-9.843l67.967,60.316c0.052,0.046,0.096,0.101,0.129,0.162l8.166,15.026l11.097,2.134
		c0.105,0.021,0.204,0.069,0.285,0.141l23.725,21.053l23.268,24.227L341.504,178.611z"/>
</g>
<g>
	<polygon fill="#FFFFFF" points="1.226,138.064 0.603,137.039 25.984,121.625 44.261,107.119 64.545,103.076 86.902,88.504 
		110.796,88.966 146.286,70.561 205.097,52.763 205.444,53.912 146.687,71.693 111.079,90.172 87.248,89.711 65.007,104.208 
		44.78,108.239 26.669,122.607 	"/>
</g>
<g>
	<polygon fill="#FFFFFF" points="278.28,158.025 248.303,115.47 236.858,115.754 240.508,100.847 231.846,83.569 225.103,82.534 
		204.78,53.683 205.761,52.992 225.79,81.426 232.641,82.477 241.779,100.703 238.397,114.516 248.914,114.254 279.261,157.334 	"/>
</g>
<g>
	
		<rect x="257.256" y="103.126" transform="matrix(0.6931 0.7208 -0.7208 0.6931 160.2217 -151.3392)" fill="#FFFFFF" width="1.2" height="18.764"/>
</g>
<g>
	
		<rect x="322.318" y="82.529" transform="matrix(0.5304 0.8477 -0.8477 0.5304 249.5263 -219.5202)" fill="#FFFFFF" width="1.2" height="65.903"/>
</g>
<g>
	
		<rect x="77.568" y="157.042" transform="matrix(0.7766 0.63 -0.63 0.7766 124.9235 -36.9986)" fill="#FFFFFF" width="74.123" height="1.2"/>
</g>
<g>
	<polygon fill="#FFFFFF" points="115.087,158.028 114.172,157.253 139.538,127.333 154.089,119.016 158.355,105.135 174.645,85.92 
		176.243,73.653 203.442,53.853 204.148,54.822 177.366,74.32 175.789,86.426 159.351,105.817 155.099,119.82 140.316,128.27 	"/>
</g>
<g>
	
		<rect x="163.697" y="102.807" transform="matrix(0.8596 0.511 -0.511 0.8596 77.3133 -74.523)" fill="#FFFFFF" width="21.103" height="1.2"/>
</g>
<g>
	
		<rect x="174.575" y="88.969" transform="matrix(0.9309 0.3654 -0.3654 0.9309 45.4348 -60.9847)" fill="#FFFFFF" width="18.588" height="1.2"/>
</g>
<g>
	<polygon fill="#FFFFFF" points="275.669,115.951 274.923,115.011 291.685,101.71 292.384,87.33 307.769,82.855 308.104,84.007 
		293.54,88.243 292.856,102.312 	"/>
</g>
<g>
	<polygon fill="#FFFFFF" points="404.877,161.957 358.646,121.832 327.512,113.086 327.836,111.931 359.229,120.749 
		359.331,120.837 405.664,161.051 	"/>
</g>
<g>
	<polygon fill="#FFFFFF" points="239.749,195.798 239.251,194.706 294.728,169.356 326.587,160.562 326.905,161.719 295.136,170.48 
			"/>
</g>
<g>
	
		<rect x="13.562" y="145.42" transform="matrix(0.5573 0.8303 -0.8303 0.5573 139.9831 29.5044)" fill="#FFFFFF" width="57.525" height="1.2"/>
</g>
<g>
	<polygon fill="#FFFFFF" points="198.37,210.708 197.171,210.651 198.881,174.765 191.863,154.488 200.546,139.83 201.841,113.304 
		205.643,103.37 202.821,92.108 202.826,92.019 204.671,53.309 205.87,53.366 204.028,91.988 206.898,103.445 202.996,113.643 
		201.731,140.186 193.179,154.621 200.091,174.591 200.085,174.706 	"/>
</g>
<g>
	
		<rect x="78.42" y="104.098" transform="matrix(0.5289 0.8487 -0.8487 0.5289 134.4589 -32.82)" fill="#FFFFFF" width="36.74" height="1.2"/>
</g>
<g>
	
		<rect x="131.672" y="140.557" transform="matrix(0.9544 0.2984 -0.2984 0.9544 48.7961 -37.2741)" fill="#FFFFFF" width="29.577" height="1.2"/>
</g>
<g>
	
		<rect x="208.431" y="84.648" transform="matrix(0.2473 0.9689 -0.9689 0.2473 245.0936 -134.3639)" fill="#FFFFFF" width="1.2" height="11.852"/>
</g>
<g>
	
		<rect x="236.532" y="62.947" transform="matrix(0.7913 0.6114 -0.6114 0.7913 92.8599 -130.1781)" fill="#FFFFFF" width="1.2" height="15.995"/>
</g>
<g>
	<polygon fill="#FFFFFF" points="238.104,181.356 237.152,180.624 253.961,158.766 278.589,157.091 304.967,141.639 
		305.574,142.674 278.952,158.269 254.582,159.926 	"/>
</g>
<g>
	
		<rect x="243.781" y="181.299" transform="matrix(0.6443 0.7648 -0.7648 0.6443 236.3258 -144.2899)" fill="#FFFFFF" width="58.98" height="1.2"/>
</g>
<g>
	<path fill="#FFFFFF" d="M281.339,110.522L270.996,89.39l-65.007-34.523l0.562-1.06l65.179,34.614
		c0.112,0.059,0.202,0.152,0.258,0.266l10.429,21.307L281.339,110.522z"/>
</g>
<g>
	
		<rect x="242.343" y="74.006" transform="matrix(0.7256 0.6882 -0.6882 0.7256 121.3585 -145.3722)" fill="#FFFFFF" width="1.201" height="10.926"/>
</g>
<g>
	
		<rect x="249.324" y="77.799" transform="matrix(0.7424 0.67 -0.67 0.7424 120.8492 -145.7252)" fill="#FFFFFF" width="1.2" height="12.979"/>
</g>
<g>
	<polygon fill="#FFFFFF" points="337.105,170.254 336.133,169.551 351.947,147.719 352.224,147.696 387.033,144.972 
		387.127,146.169 352.594,148.871 	"/>
</g>
<g>
	
		<rect x="396.746" y="113.222" transform="matrix(0.8172 0.5763 -0.5763 0.8172 148.1295 -205.0441)" fill="#FFFFFF" width="1.2" height="35.606"/>
</g>
<g>
	
		<rect x="153.131" y="165.608" transform="matrix(0.9354 0.3537 -0.3537 0.9354 70.2347 -51.8904)" fill="#FFFFFF" width="47.903" height="1.201"/>
</g>
<g>
	
		<rect x="215.645" y="147.43" transform="matrix(0.4511 0.8925 -0.8925 0.4511 267.0275 -101.762)" fill="#FFFFFF" width="1.199" height="37.556"/>
</g>
<g>
	<polygon fill="#FFFFFF" points="130.761,207.942 130.508,206.769 166.592,198.982 198.137,204.589 197.927,205.771 
		166.615,200.205 	"/>
</g>
<g>
	<polygon fill="#FFFFFF" points="130.256,207.821 116.161,196.317 103.456,175.077 88.461,162.735 71.808,142.538 72.733,141.774 
		89.35,161.927 104.432,174.372 117.136,195.611 131.013,206.89 	"/>
</g>
<g>
	<polygon fill="#FFFFFF" points="104.398,116.492 103.436,115.776 120.157,93.286 120.292,93.222 205.012,52.796 205.529,53.879 
		120.942,94.241 	"/>
</g>
<g>
	
		<rect x="120.186" y="79.407" transform="matrix(0.0309 0.9995 -0.9995 0.0309 206.2678 -34.2289)" fill="#FFFFFF" width="1.2" height="19.707"/>
</g>
<g>
	
		<rect x="132.123" y="93.728" transform="matrix(0.5593 0.829 -0.829 0.5593 140.7657 -76.1089)" fill="#FFFFFF" width="19.673" height="1.2"/>
</g>
<g>
	
		<rect x="144.146" y="74.554" transform="matrix(0.5022 0.8648 -0.8648 0.5022 139.0611 -91.2581)" fill="#FFFFFF" width="9.295" height="1.2"/>
</g>
<g>
	
		<rect x="288.084" y="111.474" transform="matrix(0.7049 0.7093 -0.7093 0.7049 168.7019 -181.3326)" fill="#FFFFFF" width="28.373" height="1.2"/>
</g>
<g>
	
		<rect x="187.529" y="49.65" transform="matrix(0.8357 0.5492 -0.5492 0.8357 73.8533 -90.4815)" fill="#FFFFFF" width="1.2" height="57.048"/>
</g>
<g>
	<polygon fill="#FFFFFF" points="215.647,166.237 213.267,141.75 213.271,141.694 215.638,115.541 208.298,90.667 204.673,53.396 
		205.868,53.279 209.487,90.493 216.853,115.421 216.843,115.535 214.472,141.746 216.843,166.122 	"/>
</g>
<g>
	
		<rect x="201.056" y="140.482" transform="matrix(0.9878 0.1557 -0.1557 0.9878 24.4987 -30.6539)" fill="#FFFFFF" width="13.801" height="1.2"/>
</g>
<g>
	
		<rect x="219.496" y="129.729" transform="matrix(0.5895 0.8077 -0.8077 0.5895 201.4501 -121.3206)" fill="#FFFFFF" width="1.199" height="15.644"/>
</g>
<g>
	
		<rect x="229.742" y="109.983" transform="matrix(0.3338 0.9427 -0.9427 0.3338 264.4257 -138.7092)" fill="#FFFFFF" width="1.2" height="15.457"/>
</g>
<g>
	<polygon fill="#FFFFFF" points="230.776,148.825 230.214,147.765 236.381,144.525 250.794,141.604 260.799,131.584 
		261.648,132.432 251.388,142.708 236.704,145.685 	"/>
</g>
<g>
	<polygon fill="#FFFFFF" points="177.665,166.326 176.501,166.033 183.279,139.137 191.871,129.506 189.063,116.11 199.218,90.417 
		204.677,54.248 205.864,54.427 200.359,90.794 190.312,116.217 193.17,129.853 184.371,139.715 	"/>
</g>
<g>
	
		<rect x="164.437" y="132.337" transform="matrix(0.7985 0.602 -0.602 0.7985 115.3321 -78.6761)" fill="#FFFFFF" width="21.499" height="1.2"/>
</g>
<g>
	
		<rect x="195.337" y="108.334" transform="matrix(0.2027 0.9792 -0.9792 0.2027 268.6609 -100.321)" fill="#FFFFFF" width="1.2" height="12.974"/>
</g>
<g>
	
		<rect x="48.905" y="122.298" transform="matrix(0.191 0.9816 -0.9816 0.191 176.0716 32.1633)" fill="#FFFFFF" width="39.237" height="1.2"/>
</g>
<g>
	
		<rect x="78.247" y="88.654" transform="matrix(0.3442 0.9389 -0.9389 0.3442 149.0202 -6.0583)" fill="#FFFFFF" width="1.2" height="29.972"/>
</g>
<g>
	
		<rect x="155.321" y="86.902" transform="matrix(0.9301 0.3672 -0.3672 0.9301 43.5716 -53.9972)" fill="#FFFFFF" width="16.726" height="1.2"/>
</g>
<g>
	
		<rect x="221.571" y="147.383" transform="matrix(0.2961 0.9551 -0.9551 0.2961 303.9984 -103.4207)" fill="#FFFFFF" width="1.2" height="14.343"/>
</g>
<g>
	
		<rect x="224.258" y="81.967" transform="matrix(0.999 0.0456 -0.0456 0.999 4.5534 -10.145)" fill="#FFFFFF" width="1.2" height="25.726"/>
</g>
<g>
	
		<rect x="274.363" y="125.585" transform="matrix(0.4718 0.8817 -0.8817 0.4718 264.6153 -170.9264)" fill="#FFFFFF" width="1.201" height="19.599"/>
</g>
<g>
	
		<rect x="244.934" y="90.994" transform="matrix(0.6644 0.7474 -0.7474 0.6644 154.8114 -151.0016)" fill="#FFFFFF" width="1.199" height="11.752"/>
</g>
<g>
	
		<rect x="192.487" y="129.62" transform="matrix(0.9925 0.1225 -0.1225 0.9925 17.4304 -23.1347)" fill="#FFFFFF" width="8.835" height="1.2"/>
</g>
<g>
	
		<rect x="198.667" y="190.799" transform="matrix(0.9823 0.1874 -0.1874 0.9823 39.7491 -37.6953)" fill="#FFFFFF" width="41.182" height="1.201"/>
</g>
<g>
	
		<rect x="128.75" y="164.144" transform="matrix(0.8861 0.4634 -0.4634 0.8861 91.8961 -44.5109)" fill="#FFFFFF" width="15.547" height="1.199"/>
</g>
<g>
	
		<rect x="133.218" y="137.722" transform="matrix(0.8918 0.4524 -0.4524 0.8918 83.8303 -43.9561)" fill="#FFFFFF" width="1.2" height="31.144"/>
</g>
<g>
	
		<rect x="110.03" y="126.012" transform="matrix(0.6582 0.7528 -0.7528 0.6582 137.5252 -49.691)" fill="#FFFFFF" width="26.915" height="1.2"/>
</g>
</svg>
