<?xml version="1.0" encoding="utf-8"?>
<!-- Generator: Adobe Illustrator 16.0.0, SVG Export Plug-In . SVG Version: 6.00 Build 0)  -->
<!DOCTYPE svg PUBLIC "-//W3C//DTD SVG 1.1//EN" "http://www.w3.org/Graphics/SVG/1.1/DTD/svg11.dtd">
<svg version="1.1" id="Layer_1" xmlns="http://www.w3.org/2000/svg" xmlns:xlink="http://www.w3.org/1999/xlink" x="0px" y="0px"
	 width="420px" height="270px" viewBox="0 0 420 270" enable-background="new 0 0 420 270" xml:space="preserve">
<g>
	<polygon fill="none" points="233.665,95.204 233.391,95.204 233.391,94.554 231.202,94.554 230.687,96.291 231.31,96.476 
		230.17,100.31 229.547,100.125 228.407,103.959 229.03,104.145 227.891,107.979 227.268,107.794 226.129,111.628 226.752,111.813 
		225.798,115.024 228.281,115.762 228.096,116.385 228.191,116.414 229.277,112.668 228.653,112.487 229.768,108.645 
		230.392,108.826 231.506,104.984 230.882,104.803 231.996,100.962 232.619,101.143 233.733,97.301 233.109,97.12 	"/>
	<polygon fill="none" points="276.248,113.721 275.625,113.906 274.482,110.073 275.105,109.887 273.962,106.054 273.339,106.24 
		272.196,102.406 272.819,102.221 271.677,98.388 271.054,98.573 270.05,95.204 267.125,95.204 268.151,98.736 268.775,98.554 
		269.893,102.395 269.269,102.577 270.386,106.417 271.01,106.236 272.127,110.077 271.503,110.258 272.62,114.099 273.244,113.917 
		273.77,115.724 274.548,115.492 274.733,116.115 276.78,115.507 	"/>
	<path fill="none" d="M274.385,75.572c0.107,0.082,0.206,0.172,0.312,0.256l-0.151-0.467L274.385,75.572z"/>
	<path fill="#FFFFFF" d="M149.353,69.44c8.812,0,15.955-7.146,15.955-15.954c0-8.812-7.143-15.961-15.955-15.961
		c-8.815,0-15.956,7.149-15.956,15.961C133.396,62.294,140.537,69.44,149.353,69.44z"/>
	<path fill="#FFFFFF" d="M168.057,72.77l-35.762-0.019c-11.3,0-18.377,9.215-18.377,20.708v48.987c0,9.525,12.577,9.525,12.577,0
		v-47.68h4.011l-0.015,129.385c0,4.939,4.003,8.949,8.941,8.949c4.946,0,8.948-4.01,8.948-8.949l0.008-75.049h3.985l-0.026,75.049
		c0,4.939,4.007,8.949,8.944,8.949c4.944,0,8.942-4.01,8.942-8.949l0.04-129.385h3.927v47.68c0,9.59,12.51,9.59,12.483,0V93.748
		C186.685,83.154,180.457,72.77,168.057,72.77z"/>
	<path fill="#31B9DC" d="M304.684,226.648l-1.005-3.453l0.624-0.182l-1.117-3.841l-0.624,0.182l-1.117-3.841l0.624-0.182
		l-1.117-3.841l-0.624,0.182l-1.117-3.841l0.624-0.182l-1.117-3.841l-0.624,0.182l-1.117-3.841l0.624-0.182l-1.117-3.841
		l-0.624,0.182l-1.117-3.841l0.624-0.182l-1.117-3.841l-0.624,0.182l-1.117-3.841l0.624-0.182l-1.118-3.841l-0.624,0.182
		l-1.117-3.841l0.624-0.182l-1.117-3.841l-0.624,0.182l-1.117-3.841l0.624-0.182l-1.117-3.841l-0.624,0.182l-1.117-3.841
		l0.624-0.182l-1.117-3.841l-0.624,0.182l-1.117-3.841l0.624-0.182l-1.117-3.841l-0.624,0.182l-1.117-3.841l0.624-0.182
		l-1.117-3.841l-0.624,0.182l-1.117-3.841l0.624-0.182l-1.117-3.84l-0.624,0.182l-1.117-3.841l0.624-0.182l-0.414-1.423
		c0,0,1.038-0.246,2.453-0.607l-0.16-0.63c1.149-0.293,2.551-0.663,3.847-1.04l0.182,0.624c1.344-0.39,2.575-0.787,3.298-1.111
		c0.167-0.075,0.311-0.162,0.466-0.244l-0.294-0.562c1.146-0.599,2.018-1.424,2.589-2.452l0.565,0.314
		c0.671-1.206,0.925-2.549,0.967-3.841l-0.65-0.019l0.006-0.388c0-1.255-0.188-2.443-0.365-3.457l0.64-0.112
		c-0.004-0.026-0.009-0.057-0.014-0.083c-0.191-1.09-0.485-2.394-0.848-3.831l-0.629,0.159c-0.304-1.202-0.656-2.499-1.043-3.849
		l0.624-0.179c-0.356-1.248-0.739-2.538-1.137-3.843l-0.622,0.189c-0.388-1.271-0.789-2.554-1.192-3.816l0.62-0.198
		c-0.417-1.305-0.833-2.584-1.237-3.812l-0.617,0.204c-0.445-1.349-0.874-2.63-1.269-3.797l0.616-0.208
		c-0.5-1.479-0.944-2.771-1.3-3.793l-0.613,0.213c-0.471-1.355-0.78-2.229-0.842-2.404l-0.01-0.047l-0.007,0.002
		c-0.137-0.414-0.294-0.854-0.473-1.316l0.602-0.233c-0.434-1.123-0.995-2.359-1.706-3.617l-0.558,0.316
		c-0.662-1.169-1.401-2.245-2.197-3.196l0.489-0.41c-0.462-0.552-0.961-1.087-1.501-1.597l-0.072,0.023l0.373,1.152l-0.373-1.152
		l-0.618,0.2l-0.368-1.14c-0.105-0.084-0.204-0.174-0.312-0.256l-0.391,0.513c-1.027-0.782-2.141-1.425-3.309-1.913l0.243-0.58
		c-1.163-0.487-2.439-0.848-3.836-1.06L267,73.15c-0.86-0.129-1.764-0.195-2.687-0.195h-1.205v-0.65h-4v0.65h-4v-0.65h-4v0.65h-4
		v-0.65h-4v0.65h-4v-0.65h-1.842c-0.748,0-1.462,0.045-2.151,0.123l0.07,0.64c-1.308,0.145-2.563,0.435-3.734,0.86l-0.216-0.595
		c-1.312,0.478-2.485,1.102-3.536,1.83l0.359,0.52c-1.028,0.712-1.992,1.57-2.864,2.55l-0.478-0.425
		c-0.917,1.031-1.697,2.128-2.343,3.233l0.561,0.327c-0.638,1.092-1.198,2.274-1.666,3.514l-0.605-0.229
		c-0.259,0.685-0.475,1.341-0.646,1.938c0,0-0.248,0.687-0.662,1.856l0.612,0.217c-0.341,0.963-0.795,2.258-1.319,3.78l-0.615-0.211
		c-0.396,1.151-0.832,2.429-1.29,3.794l0.616,0.207c-0.406,1.21-0.83,2.487-1.255,3.798l-0.618-0.2
		c-0.406,1.251-0.815,2.531-1.217,3.817l0.619,0.193c-0.399,1.28-0.791,2.563-1.163,3.823l-0.622-0.184
		c-0.391,1.322-0.759,2.616-1.093,3.854l0.627,0.169c-0.387,1.43-0.711,2.729-0.966,3.86l-0.633-0.142
		c-0.126,0.564-0.243,1.109-0.341,1.618c-0.12,0.624-0.223,1.44-0.246,2.334l0.649,0.016l-0.005,0.354
		c0,1.272,0.177,2.398,0.525,3.344l-0.605,0.223c0.457,1.236,1.245,2.317,2.52,2.97l0.288-0.567c0.104,0.053,0.213,0.104,0.325,0.15
		c0.661,0.274,1.788,0.645,3.351,1.101l-0.183,0.623c1.277,0.373,2.655,0.749,3.862,1.068l0.166-0.628
		c1.837,0.486,3.262,0.838,3.265,0.839l0.656,0.162l-0.364,1.255l-0.6-0.174l-0.005,0.018c0,0-0.019-0.004-0.024-0.006l-1.109,3.823
		l0.624,0.181l-1.114,3.841l-0.624-0.181l-1.114,3.842l0.624,0.181l-1.113,3.842l-0.624-0.181l-1.114,3.842l0.624,0.181
		l-1.114,3.842l-0.624-0.181l-1.114,3.841l0.624,0.181l-1.114,3.842l-0.624-0.181l-1.114,3.842l0.624,0.181l-1.114,3.842
		l-0.624-0.181l-1.114,3.842l0.624,0.181l-1.113,3.842l-0.625-0.181l-1.114,3.842l0.624,0.181l-1.114,3.842l-0.625-0.181
		l-1.114,3.842l0.625,0.181l-1.114,3.842l-0.625-0.181l-1.114,3.841l0.625,0.181l-1.114,3.842l-0.625-0.181l-1.114,3.842
		l0.624,0.181l-1.114,3.842l-0.625-0.181l-1.114,3.842l0.625,0.181l-1.114,3.842l-0.625-0.181l-1.114,3.842l0.624,0.181
		l-1.114,3.842l-0.625-0.181l-1.089,3.756l12.82,0.117l0.076-0.175c0.108,0.047,0.198,0.12,0.299,0.178l11.947,0.108l-0.034-0.541
		c0.075-0.005,0.151-0.008,0.229-0.008c0.657,0,1.249,0.202,1.799,0.567l10.339,0.094l-0.112-0.182
		c0.516-0.316,1.089-0.478,1.705-0.479c0.663,0,1.276,0.187,1.823,0.553l-0.094,0.139l9.902,0.091
		c0.633-0.521,1.329-0.782,2.113-0.782c0.001,0,0.002,0,0.004,0c0.118,0,0.235,0.006,0.349,0.017l-0.073,0.787l11.855,0.108
		c0.176-0.152,0.356-0.299,0.558-0.42l0.256,0.427l2.963,0.027l0.284-0.515c0.263,0.146,0.501,0.325,0.722,0.523l11.733,0.106
		l-0.128-1.032c0.151-0.019,0.309-0.029,0.471-0.029c0.965,0,1.799,0.369,2.548,1.089l9.672,0.088l-0.178-0.195
		c0.724-0.66,1.527-0.981,2.458-0.981c0.314,0,0.622,0.039,0.914,0.115l-0.284,1.088l11.104,0.101
		C304.551,226.778,304.617,226.714,304.684,226.648z M234.357,97.482l-0.624-0.181l-1.114,3.842l0.625,0.181l-1.114,3.841
		l-0.624-0.181l-1.114,3.842l0.624,0.181l-1.114,3.842l-0.624-0.181l-1.086,3.746l-0.096-0.028l-0.186,0.623l-3.729-1.108
		l1.325-4.458l0.623,0.185l1.139-3.834l-0.623-0.185l1.14-3.834l0.623,0.185l1.14-3.834l-0.623-0.185l1.14-3.834l0.623,0.185
		l0.516-1.737h2.188v-0.65h2.005L234.357,97.482z M249.663,141.312c-2.1,0-3.54-1.62-3.54-3.72c0-2.22,1.5-3.78,3.6-3.78
		c2.101,0,3.54,1.561,3.54,3.78C253.263,139.692,251.883,141.312,249.663,141.312z M255.482,118.813c-2.64,3.12-3.6,5.76-3.42,8.819
		l0.061,1.56h-4.68l-0.12-1.56c-0.36-3.24,0.72-6.779,3.72-10.38c2.7-3.18,4.2-5.52,4.2-8.22c0-3.06-1.92-5.1-5.7-5.159
		c-2.16,0-4.56,0.72-6.06,1.859l-1.44-3.779c1.98-1.44,5.4-2.4,8.58-2.4c6.899,0,10.02,4.26,10.02,8.82
		C260.643,112.453,258.362,115.394,255.482,118.813z M274.919,116.738l-2.032,0.604l-0.891-3.061l0.624-0.182l-1.117-3.841
		l-0.624,0.182l-1.117-3.841l0.624-0.182l-1.117-3.841l-0.624,0.182l-1.117-3.841l0.624-0.182l-1.026-3.532h-0.189v-0.281
		l-0.525,0.152l-0.34-1.171h4.948l1.281,4.298l-0.623,0.186l1.143,3.833l0.623-0.186l1.143,3.833l-0.623,0.186l1.144,3.833
		l0.623-0.186l1.143,3.833l-0.623,0.186l0.532,1.787l-2.047,0.608L274.919,116.738z"/>
	
		<rect x="280.829" y="147.702" transform="matrix(0.2793 0.9602 -0.9602 0.2793 345.9716 -164.89)" fill="#FFFFFF" width="4" height="0.65"/>
	
		<rect x="287.532" y="170.747" transform="matrix(0.2793 0.9602 -0.9602 0.2793 372.9304 -154.7178)" fill="#FFFFFF" width="4" height="0.65"/>
	
		<rect x="283.063" y="155.384" transform="matrix(0.2793 0.9602 -0.9602 0.2793 354.9579 -161.4993)" fill="#FFFFFF" width="4" height="0.65"/>
	
		<rect x="292.001" y="186.11" transform="matrix(0.2793 0.9602 -0.9602 0.2793 390.9036 -147.9373)" fill="#FFFFFF" width="4" height="0.65"/>
	
		<rect x="289.766" y="178.428" transform="matrix(0.2793 0.9602 -0.9602 0.2793 381.9167 -151.3271)" fill="#FFFFFF" width="4" height="0.65"/>
	
		<rect x="278.594" y="140.02" transform="matrix(0.2793 0.9602 -0.9602 0.2793 336.9853 -168.2807)" fill="#FFFFFF" width="4" height="0.65"/>
	<path fill="#FFFFFF" d="M285.757,96.422c-0.445-1.352-0.876-2.636-1.271-3.806l-0.616,0.208c0.396,1.169,0.824,2.451,1.27,3.801
		L285.757,96.422z"/>
	<path fill="#FFFFFF" d="M288.193,104.073c-0.39-1.277-0.793-2.565-1.198-3.833l-0.618,0.198c0.403,1.265,0.805,2.55,1.194,3.825
		L288.193,104.073z"/>
	
		<rect x="294.236" y="193.792" transform="matrix(0.2793 0.9602 -0.9602 0.2793 399.8899 -144.5466)" fill="#FFFFFF" width="4" height="0.65"/>
	<path fill="#FFFFFF" d="M280.095,81.307c-0.7-1.237-1.484-2.378-2.332-3.39l-0.507,0.425c0.889,1.063,1.637,2.179,2.266,3.29
		L280.095,81.307z"/>
	
		<rect x="276.36" y="132.339" transform="matrix(0.2793 0.9602 -0.9602 0.2793 327.9995 -171.6711)" fill="#FFFFFF" width="4" height="0.65"/>
	<path fill="#FFFFFF" d="M290.387,111.814c-0.306-1.213-0.662-2.524-1.053-3.888l-0.626,0.179c0.388,1.357,0.743,2.662,1.048,3.869
		L290.387,111.814z"/>
	<path fill="#FFFFFF" d="M279.689,129.434c1.162-0.296,2.579-0.67,3.889-1.051l-0.182-0.624c-1.303,0.378-2.711,0.75-3.868,1.045
		L279.689,129.434z"/>
	
		<rect x="285.297" y="163.065" transform="matrix(0.2793 0.9602 -0.9602 0.2793 363.9441 -158.1085)" fill="#FFFFFF" width="4" height="0.65"/>
	<path fill="#FFFFFF" d="M282.57,89.032l0.615-0.213c-0.473-1.36-0.783-2.236-0.853-2.433c-0.145-0.431-0.308-0.893-0.494-1.375
		l-0.611,0.237c0.181,0.468,0.349,0.924,0.488,1.343C281.716,86.591,282.044,87.512,282.57,89.032z"/>
	<path fill="#FFFFFF" d="M227.699,75.162l-0.381-0.55c-0.381,0.264-0.749,0.552-1.112,0.851l-0.428,1.161l-0.61-0.225l-0.502,1.362
		l0.051,0.045C225.576,76.842,226.567,75.946,227.699,75.162z"/>
	<path fill="#FFFFFF" d="M225.162,76.397c-0.321,0.312-0.637,0.632-0.938,0.971l0.442,0.394l0.502-1.362L225.162,76.397z"/>
	<path fill="#FFFFFF" d="M287.16,126.404l0.308,0.59c1.376-0.719,2.427-1.719,3.124-2.973l-0.571-0.317
		C289.437,124.754,288.521,125.69,287.16,126.404z"/>
	<path fill="#FFFFFF" d="M290.987,119.863l0.648,0.019l0.008-0.421c0-1.364-0.199-2.617-0.385-3.686l-0.642,0.112
		C290.803,116.946,291.035,118.367,290.987,119.863z"/>
	<path fill="#FFFFFF" d="M274.545,75.361l-0.201-0.623c-0.993-0.706-2.05-1.303-3.156-1.766l-0.259,0.619
		c1.278,0.536,2.434,1.203,3.456,1.98L274.545,75.361z"/>
	<path fill="#FFFFFF" d="M267.093,72.533l0.101-0.667c-0.924-0.14-1.893-0.21-2.88-0.21h-1.205v0.65h1.205
		C265.296,72.305,266.21,72.399,267.093,72.533z"/>
	<path fill="#FFFFFF" d="M210.453,119.176l-0.651-0.016l-0.005,0.383c0,1.428,0.204,2.705,0.605,3.795l0.614-0.226
		C210.55,121.85,210.42,120.436,210.453,119.176z"/>
	<path fill="#FFFFFF" d="M221.18,128.458l-0.166,0.629c1.762,0.466,3.131,0.806,3.26,0.837l0.181-0.625
		C224.454,129.3,223.021,128.945,221.18,128.458z"/>
	
		<rect x="300.939" y="216.837" transform="matrix(0.2793 0.9602 -0.9602 0.2793 426.8487 -134.3744)" fill="#FFFFFF" width="4" height="0.65"/>
	
		<rect x="298.705" y="209.155" transform="matrix(0.2793 0.9602 -0.9602 0.2793 417.8625 -137.7651)" fill="#FFFFFF" width="4" height="0.65"/>
	
		<rect x="296.47" y="201.473" transform="matrix(0.2793 0.9602 -0.9602 0.2793 408.8762 -141.1559)" fill="#FFFFFF" width="4" height="0.65"/>
	<path fill="#FFFFFF" d="M213.536,126.083l-0.302,0.592c0.134,0.068,0.271,0.132,0.416,0.192c0.705,0.292,1.878,0.678,3.484,1.148
		l0.183-0.625c-1.39-0.406-2.653-0.807-3.418-1.124C213.77,126.213,213.656,126.145,213.536,126.083z"/>
	<polygon fill="#FFFFFF" points="305.42,226.854 306.044,226.673 304.927,222.832 304.303,223.014 305.42,226.854 	"/>
	<rect x="255.108" y="71.655" fill="#FFFFFF" width="4" height="0.65"/>
	
		<rect x="275.04" y="109.897" transform="matrix(-0.9584 0.2854 -0.2854 -0.9584 571.2135 140.5447)" fill="#FFFFFF" width="0.65" height="4"/>
	
		<rect x="206.925" y="181.353" transform="matrix(0.2784 -0.9605 0.9605 0.2784 -23.7421 331.7538)" fill="#FFFFFF" width="4" height="0.65"/>
	
		<rect x="204.696" y="189.037" transform="matrix(0.2786 -0.9604 0.9604 0.2786 -32.7469 335.1294)" fill="#FFFFFF" width="4" height="0.65"/>
	
		<rect x="202.469" y="196.72" transform="matrix(0.2784 -0.9605 0.9605 0.2784 -41.7162 338.561)" fill="#FFFFFF" width="4" height="0.65"/>
	
		<rect x="272.754" y="102.23" transform="matrix(-0.9584 0.2854 -0.2854 -0.9584 564.5482 126.1831)" fill="#FFFFFF" width="0.65" height="4"/>
	
		<rect x="213.61" y="158.303" transform="matrix(0.2786 -0.9604 0.9604 0.2786 3.2018 321.5173)" fill="#FFFFFF" width="4" height="0.65"/>
	
		<rect x="209.154" y="173.67" transform="matrix(0.2786 -0.9604 0.9604 0.2786 -14.7724 328.3235)" fill="#FFFFFF" width="4" height="0.65"/>
	
		<rect x="211.382" y="165.986" transform="matrix(0.2786 -0.9604 0.9604 0.2786 -5.7854 324.9203)" fill="#FFFFFF" width="4" height="0.65"/>
	
		<rect x="198.012" y="212.087" transform="matrix(0.2784 -0.9605 0.9605 0.2784 -59.6915 345.3688)" fill="#FFFFFF" width="4" height="0.65"/>
	<polygon fill="#FFFFFF" points="273.77,115.724 273.244,113.917 272.62,114.099 273.328,116.533 274.733,116.115 274.548,115.492 	
		"/>
	
		<rect x="215.839" y="150.62" transform="matrix(0.2786 -0.9604 0.9604 0.2786 12.1881 318.1151)" fill="#FFFFFF" width="4" height="0.65"/>
	<polygon fill="#FFFFFF" points="271.054,98.573 271.677,98.388 270.534,94.554 266.936,94.554 267.125,95.204 270.05,95.204 	"/>
	
		<rect x="195.783" y="219.77" transform="matrix(0.2786 -0.9604 0.9604 0.2786 -68.6942 348.7415)" fill="#FFFFFF" width="4" height="0.65"/>
	
		<rect x="268.697" y="98.565" transform="matrix(0.9602 -0.2795 0.2795 0.9602 -17.3859 79.1938)" fill="#FFFFFF" width="0.65" height="4"/>
	
		<rect x="270.931" y="106.247" transform="matrix(0.9602 -0.2795 0.2795 0.9602 -19.4438 80.1244)" fill="#FFFFFF" width="0.65" height="4"/>
	
		<rect x="200.24" y="204.403" transform="matrix(0.2786 -0.9604 0.9604 0.2786 -50.7201 341.9351)" fill="#FFFFFF" width="4" height="0.65"/>
	
		<rect x="227.824" y="103.969" transform="matrix(0.9586 0.2847 -0.2847 0.9586 39.6158 -60.5741)" fill="#FFFFFF" width="0.65" height="4"/>
	
		<rect x="220.295" y="135.253" transform="matrix(0.2785 -0.9604 0.9604 0.2785 30.1681 311.3145)" fill="#FFFFFF" width="4.001" height="0.65"/>
	<path fill="#FFFFFF" d="M235.043,71.775c-1.411,0.157-2.769,0.469-4.035,0.93l0.228,0.627c1.182-0.43,2.466-0.748,3.88-0.905
		L235.043,71.775z"/>
	<rect x="247.108" y="71.655" fill="#FFFFFF" width="4" height="0.65"/>
	<path fill="#FFFFFF" d="M221.812,80.712c-0.674,1.154-1.266,2.402-1.76,3.71l0.611,0.23c0.432-1.144,0.991-2.378,1.711-3.612
		L221.812,80.712z"/>
	
		<rect x="230.103" y="96.301" transform="matrix(0.9586 0.2847 -0.2847 0.9586 37.5267 -61.5405)" fill="#FFFFFF" width="0.65" height="4"/>
	<path fill="#FFFFFF" d="M218.743,88.23c-0.343,0.966-0.799,2.265-1.323,3.792l0.613,0.211c0.525-1.524,0.98-2.822,1.322-3.786
		L218.743,88.23z"/>
	<path fill="#FFFFFF" d="M211.382,111.167c-0.39,1.448-0.72,2.765-0.978,3.914l0.635,0.143c0.27-1.196,0.599-2.504,0.972-3.888
		L211.382,111.167z"/>
	<rect x="239.108" y="71.655" fill="#FFFFFF" width="4" height="0.65"/>
	<polygon fill="#FFFFFF" points="225.798,115.024 226.752,111.813 226.129,111.628 224.989,115.462 228.096,116.385 
		228.281,115.762 	"/>
	
		<rect x="231.426" y="100.973" transform="matrix(-0.9604 -0.2788 0.2788 -0.9604 425.605 266.4729)" fill="#FFFFFF" width="0.65" height="3.999"/>
	<polygon fill="#FFFFFF" points="233.391,94.554 233.391,95.204 233.665,95.204 233.109,97.12 233.733,97.301 234.53,94.554 	"/>
	
		<rect x="229.198" y="108.656" transform="matrix(-0.9604 -0.2788 0.2788 -0.9604 419.0953 280.9138)" fill="#FFFFFF" width="0.65" height="4"/>
	<path fill="#FFFFFF" d="M216.127,95.821c-0.408,1.214-0.832,2.496-1.259,3.811l0.618,0.201c0.427-1.313,0.85-2.592,1.257-3.805
		L216.127,95.821z"/>
	<path fill="#FFFFFF" d="M213.648,103.455c-0.401,1.287-0.795,2.577-1.169,3.843l0.624,0.185c0.373-1.264,0.765-2.549,1.166-3.833
		L213.648,103.455z"/>
	
		<rect x="218.067" y="142.936" transform="matrix(0.2783 -0.9605 0.9605 0.2783 21.2152 314.7582)" fill="#FFFFFF" width="4" height="0.65"/>
	<path fill="#FFFFFF" d="M286.866,125.842l0.294,0.562c1.36-0.713,2.276-1.65,2.86-2.7l-0.565-0.314
		C288.884,124.417,288.013,125.243,286.866,125.842z"/>
	<path fill="#FFFFFF" d="M290.343,119.456l-0.006,0.388l0.65,0.019c0.048-1.496-0.185-2.917-0.37-3.976l-0.64,0.112
		C290.154,117.013,290.343,118.2,290.343,119.456z"/>
	<path fill="#FFFFFF" d="M284.522,96.83l0.617-0.204c-0.445-1.351-0.874-2.632-1.27-3.801l-0.616,0.208
		C283.648,94.2,284.077,95.481,284.522,96.83z"/>
	<path fill="#FFFFFF" d="M289.127,112.133l0.629-0.159c-0.305-1.207-0.66-2.511-1.048-3.869l-0.624,0.179
		C288.471,109.634,288.823,110.931,289.127,112.133z"/>
	<path fill="#FFFFFF" d="M286.949,104.452l0.622-0.189c-0.39-1.274-0.791-2.56-1.194-3.825l-0.62,0.198
		C286.16,101.898,286.562,103.18,286.949,104.452z"/>
	
		<rect x="277.411" y="130.846" transform="matrix(-0.9602 0.2795 -0.2795 -0.9602 581.5321 182.7759)" fill="#FFFFFF" width="0.65" height="4"/>
	
		<rect x="295.287" y="192.298" transform="matrix(-0.9602 0.2795 -0.2795 -0.9602 633.7465 298.2364)" fill="#FFFFFF" width="0.65" height="4"/>
	
		<rect x="290.817" y="176.935" transform="matrix(-0.9602 0.2795 -0.2795 -0.9602 620.6914 269.3712)" fill="#FFFFFF" width="0.65" height="4"/>
	
		<rect x="297.521" y="199.98" transform="matrix(-0.9602 0.2795 -0.2795 -0.9602 640.2731 312.6691)" fill="#FFFFFF" width="0.65" height="4"/>
	
		<rect x="293.052" y="184.617" transform="matrix(-0.9602 0.2795 -0.2795 -0.9602 627.2199 283.8036)" fill="#FFFFFF" width="0.65" height="4"/>
	
		<rect x="301.99" y="215.343" transform="matrix(-0.9602 0.2795 -0.2795 -0.9602 653.3263 341.5345)" fill="#FFFFFF" width="0.65" height="4"/>
	<path fill="#FFFFFF" d="M304.684,226.648c0.105-0.104,0.211-0.208,0.327-0.302l0.409,0.507l-1.117-3.84l-0.624,0.182
		L304.684,226.648z"/>
	
		<rect x="284.114" y="153.89" transform="matrix(-0.9602 0.2795 -0.2795 -0.9602 601.1117 226.0731)" fill="#FFFFFF" width="0.65" height="4"/>
	
		<rect x="279.645" y="138.527" transform="matrix(-0.9602 0.2795 -0.2795 -0.9602 588.0585 197.2077)" fill="#FFFFFF" width="0.65" height="4"/>
	
		<rect x="281.88" y="146.208" transform="matrix(-0.9602 0.2795 -0.2795 -0.9602 594.5851 211.6404)" fill="#FFFFFF" width="0.65" height="4"/>
	
		<rect x="286.348" y="161.572" transform="matrix(-0.9602 0.2795 -0.2795 -0.9602 607.6383 240.5058)" fill="#FFFFFF" width="0.65" height="4"/>
	<path fill="#FFFFFF" d="M279.368,128.174l0.16,0.63c1.157-0.295,2.565-0.667,3.868-1.045l-0.182-0.624
		C281.919,127.511,280.518,127.881,279.368,128.174z"/>
	
		<rect x="288.583" y="169.253" transform="matrix(-0.9602 0.2795 -0.2795 -0.9602 614.1648 254.9385)" fill="#FFFFFF" width="0.65" height="4"/>
	
		<rect x="299.756" y="207.662" transform="matrix(-0.9602 0.2795 -0.2795 -0.9602 646.7997 327.1018)" fill="#FFFFFF" width="0.65" height="4"/>
	
		<rect x="211.453" y="172.175" transform="matrix(0.9606 0.2781 -0.2781 0.9606 56.791 -52.0236)" fill="#FFFFFF" width="0.65" height="4"/>
	
		<rect x="206.996" y="187.542" transform="matrix(0.9606 0.2779 -0.2779 0.9606 60.8387 -50.1475)" fill="#FFFFFF" width="0.65" height="4"/>
	
		<rect x="209.224" y="179.859" transform="matrix(0.9606 0.2781 -0.2781 0.9606 58.8399 -51.1009)" fill="#FFFFFF" width="0.65" height="4"/>
	
		<rect x="204.768" y="195.225" transform="matrix(0.9606 0.2779 -0.2779 0.9606 62.8859 -49.2258)" fill="#FFFFFF" width="0.65" height="4"/>
	
		<rect x="202.539" y="202.909" transform="matrix(0.9606 0.2781 -0.2781 0.9606 64.9862 -48.3326)" fill="#FFFFFF" width="0.65" height="4"/>
	
		<rect x="200.311" y="210.592" transform="matrix(0.9606 0.2779 -0.2779 0.9606 66.9808 -47.382)" fill="#FFFFFF" width="0.65" height="4"/>
	
		<rect x="213.681" y="164.492" transform="matrix(0.9606 0.2781 -0.2781 0.9606 54.7422 -52.9464)" fill="#FFFFFF" width="0.65" height="4"/>
	
		<rect x="222.594" y="133.758" transform="matrix(0.9604 0.2788 -0.2788 0.9604 46.686 -56.7646)" fill="#FFFFFF" width="0.65" height="4"/>
	
		<rect x="220.366" y="141.442" transform="matrix(0.9606 0.2781 -0.2781 0.9606 48.5959 -55.7147)" fill="#FFFFFF" width="0.65" height="4"/>
	
		<rect x="198.083" y="218.276" transform="matrix(0.9606 0.2781 -0.2781 0.9606 69.084 -46.487)" fill="#FFFFFF" width="0.65" height="4"/>
	
		<rect x="218.138" y="149.125" transform="matrix(0.9606 0.2781 -0.2781 0.9606 50.6447 -54.792)" fill="#FFFFFF" width="0.65" height="4"/>
	
		<rect x="215.91" y="156.808" transform="matrix(0.9606 0.2781 -0.2781 0.9606 52.6933 -53.8692)" fill="#FFFFFF" width="0.65" height="4"/>
	
		<rect x="225.526" y="105.459" transform="matrix(0.2849 -0.9586 0.9586 0.2849 61.3046 293.7438)" fill="#FFFFFF" width="4" height="0.65"/>
	
		<rect x="268.632" y="108.104" transform="matrix(-0.2793 -0.9602 0.9602 -0.2793 242.1053 398.575)" fill="#FFFFFF" width="4" height="0.65"/>
	
		<rect x="266.398" y="100.422" transform="matrix(-0.2793 -0.9602 0.9602 -0.2793 246.6228 386.6024)" fill="#FFFFFF" width="4" height="0.65"/>
	
		<rect x="273.988" y="111.386" transform="matrix(0.2856 0.9583 -0.9583 0.2856 304.2138 -184.6876)" fill="#FFFFFF" width="4" height="0.65"/>
	
		<rect x="271.702" y="103.72" transform="matrix(0.2856 0.9583 -0.9583 0.2856 295.2336 -187.9734)" fill="#FFFFFF" width="4" height="0.65"/>
	
		<rect x="230.375" y="102.829" transform="matrix(-0.2786 0.9604 -0.9604 -0.2786 396.1819 -91.283)" fill="#FFFFFF" width="4" height="0.651"/>
	<polygon fill="#FFFFFF" points="270.534,94.554 271.677,98.388 272.3,98.202 271.019,93.904 266.07,93.904 266.41,95.076 
		266.936,94.923 266.936,95.204 267.125,95.204 266.936,94.554 	"/>
	<polygon fill="#FFFFFF" points="272.62,114.099 271.996,114.281 272.887,117.342 274.919,116.738 274.733,116.115 273.328,116.533 
			"/>
	
		<rect x="228.146" y="110.513" transform="matrix(-0.2786 0.9604 -0.9604 -0.2786 400.7059 -79.3251)" fill="#FFFFFF" width="4" height="0.65"/>
	<path fill="#FFFFFF" d="M224.303,129.913l0.6,0.174l0.364-1.255l-0.656-0.162c-0.003,0-1.428-0.353-3.265-0.839l-0.166,0.628
		c1.842,0.487,3.274,0.842,3.274,0.842l-0.181,0.625c0.006,0.002,0.024,0.006,0.024,0.006L224.303,129.913z"/>
	<polygon fill="#FFFFFF" points="233.391,94.554 234.53,94.554 233.733,97.301 234.357,97.482 235.396,93.904 233.391,93.904 	"/>
	
		<rect x="227.805" y="97.791" transform="matrix(0.2849 -0.9585 0.9585 0.2849 70.2788 290.4391)" fill="#FFFFFF" width="4" height="0.65"/>
	<polygon fill="#FFFFFF" points="226.129,111.628 225.506,111.443 224.181,115.9 227.91,117.008 228.096,116.385 224.989,115.462 	
		"/>
	<path fill="#FFFFFF" d="M273.994,76.085l0.391-0.513c-1.022-0.777-2.178-1.444-3.456-1.98l-0.243,0.58
		C271.854,74.66,272.967,75.304,273.994,76.085z"/>
	<path fill="#FFFFFF" d="M281.099,86.797l0.007-0.002l0.01,0.047c0.062,0.175,0.371,1.048,0.842,2.404l0.613-0.213
		c-0.526-1.52-0.854-2.44-0.854-2.44c-0.14-0.419-0.308-0.875-0.488-1.343l-0.602,0.233
		C280.805,85.942,280.962,86.383,281.099,86.797z"/>
	<path fill="#FFFFFF" d="M278.964,81.947l0.558-0.316c-0.629-1.111-1.377-2.227-2.266-3.29l-0.489,0.41
		C277.562,79.703,278.302,80.778,278.964,81.947z"/>
	<path fill="#FFFFFF" d="M228.059,75.682l-0.359-0.52c-1.132,0.784-2.123,1.68-2.982,2.645l0.478,0.425
		C226.066,77.251,227.03,76.394,228.059,75.682z"/>
	<path fill="#FFFFFF" d="M214.149,125.667c-0.112-0.047-0.221-0.097-0.325-0.15l-0.288,0.567c0.12,0.062,0.233,0.13,0.363,0.184
		c0.765,0.316,2.028,0.718,3.418,1.124l0.183-0.623C215.938,126.311,214.811,125.94,214.149,125.667z"/>
	<path fill="#FFFFFF" d="M264.313,72.955c0.923,0,1.826,0.066,2.687,0.195l0.093-0.618c-0.883-0.134-1.797-0.228-2.779-0.228h-1.205
		v0.65H264.313z"/>
	<path fill="#FFFFFF" d="M222.935,81.367l-0.561-0.327c-0.72,1.234-1.279,2.468-1.711,3.612l0.605,0.229
		C221.736,83.641,222.297,82.459,222.935,81.367z"/>
	<rect x="255.108" y="72.305" fill="#FFFFFF" width="4" height="0.65"/>
	<path fill="#FFFFFF" d="M235.186,73.067l-0.07-0.64c-1.414,0.157-2.698,0.475-3.88,0.905l0.216,0.595
		C232.622,73.502,233.878,73.212,235.186,73.067z"/>
	<rect x="239.108" y="72.305" fill="#FFFFFF" width="4" height="0.65"/>
	<rect x="247.108" y="72.305" fill="#FFFFFF" width="4" height="0.65"/>
	<path fill="#FFFFFF" d="M217.359,96.235l-0.616-0.207c-0.407,1.213-0.83,2.491-1.257,3.805l0.618,0.2
		C216.529,98.722,216.953,97.445,217.359,96.235z"/>
	<path fill="#FFFFFF" d="M211.097,119.546l0.005-0.354l-0.649-0.016c-0.032,1.259,0.098,2.673,0.564,3.937l0.605-0.223
		C211.273,121.944,211.097,120.818,211.097,119.546z"/>
	<path fill="#FFFFFF" d="M214.889,103.843l-0.619-0.193c-0.401,1.284-0.793,2.569-1.166,3.833l0.622,0.184
		C214.098,106.406,214.489,105.123,214.889,103.843z"/>
	<path fill="#FFFFFF" d="M212.638,111.506l-0.627-0.169c-0.373,1.383-0.702,2.692-0.972,3.888l0.633,0.142
		C211.927,114.235,212.251,112.937,212.638,111.506z"/>
	<path fill="#FFFFFF" d="M219.968,88.665l-0.612-0.217c-0.342,0.964-0.797,2.261-1.322,3.786l0.615,0.211
		C219.173,90.923,219.627,89.628,219.968,88.665z"/>
	<path fill="#FFFFFF" d="M196.832,226.682l-0.94,0.896c0.481,0.505,0.878,1.199,1.299,1.934l0.257,0.445l1.123-0.654l-0.251-0.437
		C197.877,228.096,197.422,227.3,196.832,226.682z"/>
	<path fill="#FFFFFF" d="M271.006,231.542c-0.661,0-1.193-0.24-1.724-0.778l-0.926,0.912c0.772,0.785,1.64,1.167,2.649,1.167
		c0.222,0,0.432-0.02,0.633-0.054l-0.219-1.281C271.289,231.53,271.151,231.542,271.006,231.542z"/>
	<path fill="#FFFFFF" d="M296.282,227.811l-1.078,0.725c0.214,0.318,0.417,0.654,0.62,0.991c0.32,0.53,0.652,1.078,1.029,1.567
		l1.029-0.795c-0.332-0.43-0.631-0.924-0.946-1.445C296.723,228.499,296.508,228.146,296.282,227.811z"/>
	<path fill="#FFFFFF" d="M282.77,229.399l-1.104,0.688c0.595,0.954,1.282,1.904,2.286,2.4l0.576-1.166
		C283.855,230.989,283.339,230.313,282.77,229.399z"/>
	<path fill="#FFFFFF" d="M286.732,231.18l0.715,1.086c0.892-0.586,1.5-1.516,2.096-2.498l-1.111-0.674
		C287.916,229.943,287.398,230.742,286.732,231.18z"/>
	<path fill="#FFFFFF" d="M300.021,231.543l-0.141-0.005l-0.07,1.299l0.199,0.006c1.125,0,2.083-0.481,2.929-1.47l-0.988-0.846
		C301.351,231.229,300.752,231.542,300.021,231.543z"/>
	<path fill="#FFFFFF" d="M264.828,227.11c0.718,0.397,1.272,1.234,1.735,1.986l1.107-0.682c-0.405-0.656-0.877-1.367-1.492-1.918
		l-1.006-0.009L264.828,227.11z"/>
	<path fill="#FFFFFF" d="M305.42,226.854l-0.624,0.182l-0.055-0.188l-0.253-0.003c-0.38,0.414-0.694,0.867-0.94,1.252l1.096,0.699
		c0.297-0.465,0.7-1.049,1.184-1.438L305.42,226.854L305.42,226.854z"/>
	<path fill="#FFFFFF" d="M259.794,228.503l1.109,0.678c0.488-0.799,1.023-1.614,1.719-2.031l-0.412-0.688l-0.813-0.007
		C260.744,227.019,260.245,227.765,259.794,228.503z"/>
	<path fill="#FFFFFF" d="M291.174,227.484c0.479-0.438,0.981-0.642,1.581-0.642c0.203,0,0.4,0.024,0.586,0.072l0.044-0.17
		l-2.91-0.026L291.174,227.484z"/>
	<path fill="#FFFFFF" d="M277.944,226.862c0.101-0.013,0.203-0.02,0.311-0.02c0.691,0,1.249,0.266,1.807,0.862l0.949-0.887
		c-0.067-0.072-0.14-0.122-0.208-0.188l-2.891-0.027L277.944,226.862z"/>
	<path fill="#FFFFFF" d="M246.464,227.01l1.008,0.822c0.558-0.685,1.11-0.989,1.791-0.989c0,0,0.001,0,0.002,0
		c0.078,0,0.154,0.004,0.229,0.011l0.048-0.508l-2.393-0.021C246.912,226.518,246.683,226.741,246.464,227.01z"/>
	<path fill="#FFFFFF" d="M221.639,226.847l0.147-0.004c0.701,0,1.271,0.327,1.847,1.061l1.023-0.803
		c-0.335-0.427-0.695-0.741-1.071-0.991l-1.994-0.019L221.639,226.847z"/>
	<path fill="#FFFFFF" d="M256.512,231.542c-0.169,0-0.332-0.017-0.486-0.05l-0.273,1.271c0.244,0.052,0.499,0.079,0.76,0.079
		c0.977,0,1.815-0.355,2.566-1.085l-0.906-0.932C257.669,231.314,257.142,231.542,256.512,231.542z"/>
	<path fill="#FFFFFF" d="M234.493,227.129c0.649-0.399,1.479-0.386,2.122,0.046l0.631-0.941l-3.322-0.03L234.493,227.129z"/>
	<path fill="#FFFFFF" d="M208.828,226.998c0.713,0.31,1.25,1.087,1.726,1.882l1.115-0.668c-0.525-0.879-1.148-1.73-2.025-2.229
		l-0.375-0.003L208.828,226.998z"/>
	<path fill="#FFFFFF" d="M226.277,229.713l-1.107,0.682c0.57,0.926,1.312,1.922,2.483,2.297l0.396-1.238
		C227.281,231.208,226.723,230.436,226.277,229.713z"/>
	<path fill="#FFFFFF" d="M214.919,231.542c-0.65,0-1.178-0.274-1.708-0.89l-0.984,0.848c0.777,0.903,1.658,1.343,2.692,1.343
		c0.188,0,0.366-0.015,0.539-0.043l-0.207-1.283C215.145,231.533,215.034,231.542,214.919,231.542z"/>
	<path fill="#FFFFFF" d="M231.516,228.877c-0.443,0.772-0.862,1.503-1.378,2.01l0.912,0.927c0.643-0.632,1.126-1.475,1.594-2.29
		l0.188-0.328l-1.125-0.652L231.516,228.877z"/>
	<path fill="#FFFFFF" d="M217.79,228.868c-0.224,0.392-0.447,0.783-0.688,1.146l1.084,0.717c0.256-0.386,0.494-0.802,0.732-1.218
		c0.273-0.478,0.531-0.929,0.815-1.334l-1.064-0.746C218.352,227.887,218.066,228.386,217.79,228.868z"/>
	<path fill="#FFFFFF" d="M243.068,231.427l0.447,1.221c1.124-0.411,1.853-1.416,2.417-2.345l-1.111-0.676
		C244.352,230.4,243.813,231.154,243.068,231.427z"/>
	<path fill="#FFFFFF" d="M239.388,228.643l-1.127,0.648l0.129,0.224c0.491,0.858,0.999,1.745,1.692,2.389l0.885-0.953
		c-0.548-0.509-0.986-1.272-1.449-2.081L239.388,228.643z"/>
	<path fill="#FFFFFF" d="M274.073,228.855c-0.242,0.401-0.483,0.803-0.744,1.173l1.062,0.748c0.278-0.395,0.537-0.821,0.795-1.249
		c0.265-0.438,0.528-0.876,0.817-1.273l-1.053-0.764C274.636,227.925,274.351,228.397,274.073,228.855z"/>
	<path fill="#FFFFFF" d="M204.056,228.869l-0.059,0.104l1.128,0.646l0.06-0.104c0.487-0.851,0.946-1.654,1.533-2.158l-0.847-0.986
		C205.114,227.021,204.576,227.96,204.056,228.869z"/>
	<path fill="#FFFFFF" d="M252.501,227.401l-1.043,0.777c0.305,0.408,0.581,0.866,0.874,1.351c0.238,0.395,0.477,0.789,0.73,1.157
		l1.07-0.736c-0.239-0.349-0.464-0.721-0.688-1.093C253.148,228.368,252.843,227.861,252.501,227.401z"/>
	<path fill="#FFFFFF" d="M200.252,231.309l-0.626,1.139c0.477,0.263,1.002,0.396,1.562,0.396c0.717,0,1.376-0.219,1.958-0.65
		l-0.773-1.045C201.729,231.625,200.911,231.67,200.252,231.309z"/>
	<path fill="#FFFFFF" d="M235.517,225.542c-0.616,0.002-1.189,0.163-1.705,0.479l0.112,0.182l3.322,0.03l0.094-0.139
		C236.793,225.729,236.18,225.542,235.517,225.542z"/>
	<path fill="#FFFFFF" d="M221.557,225.55l0.034,0.541l1.994,0.019c-0.55-0.365-1.142-0.567-1.799-0.567
		C221.708,225.542,221.632,225.545,221.557,225.55z"/>
	<path fill="#FFFFFF" d="M209.27,225.979l0.375,0.003c-0.101-0.058-0.19-0.131-0.299-0.178L209.27,225.979z"/>
	<path fill="#FFFFFF" d="M304.684,226.648c-0.066,0.065-0.133,0.13-0.195,0.197l0.253,0.003L304.684,226.648z"/>
	<path fill="#FFFFFF" d="M277.784,225.571l0.128,1.032l2.891,0.027c-0.749-0.72-1.583-1.089-2.548-1.089
		C278.093,225.542,277.936,225.553,277.784,225.571z"/>
	<path fill="#FFFFFF" d="M249.266,225.542c-0.002,0-0.003,0-0.004,0c-0.784,0-1.48,0.262-2.113,0.782l2.393,0.021l0.073-0.787
		C249.501,225.548,249.384,225.542,249.266,225.542z"/>
	<path fill="#FFFFFF" d="M265.457,225.974l-0.284,0.515l1.006,0.009C265.958,226.299,265.72,226.119,265.457,225.974z"/>
	<path fill="#FFFFFF" d="M292.755,225.542c-0.931,0-1.734,0.321-2.458,0.981l0.178,0.195l2.91,0.026l0.284-1.088
		C293.377,225.581,293.069,225.542,292.755,225.542z"/>
	<path fill="#FFFFFF" d="M261.396,226.454l0.813,0.007l-0.256-0.427C261.753,226.155,261.572,226.302,261.396,226.454z"/>
	<polygon fill="#FFFFFF" points="305.42,226.854 305.42,226.854 305.42,226.854 	"/>
	<polygon fill="#FFFFFF" points="304.796,227.036 305.42,226.854 304.741,226.849 	"/>
	<path fill="#FFFFFF" d="M305.011,226.347c-0.116,0.094-0.222,0.198-0.327,0.302l0.058,0.2l0.679,0.006v-0.001L305.011,226.347z"/>
	<path fill="#FFFFFF" d="M235.462,50.352l-0.944,2.562h0.984c0-1.286,0.158-2.564,0.472-3.798l-1.26-0.32
		c-0.1,0.392-0.181,0.79-0.251,1.188l0.389,0.143L235.462,50.352z"/>
	<path fill="#FFFFFF" d="M266.074,50.681c0.107,0.738,0.161,1.489,0.16,2.232l1.051,0.001l-0.744-2.301L266.074,50.681z"/>
	<path fill="#FFFFFF" d="M239.613,42.451l-0.951-0.886c-0.947,1.018-1.765,2.151-2.429,3.367l1.141,0.623
		C237.986,44.434,238.74,43.389,239.613,42.451z"/>
	<path fill="#FFFFFF" d="M266.253,46.493c-0.534-1.279-1.229-2.49-2.065-3.599l-1.037,0.782c0.771,1.022,1.411,2.138,1.903,3.317
		L266.253,46.493z"/>
	<path fill="#FFFFFF" d="M245.997,38.337l-0.412-1.233c-1.315,0.439-2.574,1.043-3.742,1.797l0.705,1.092
		C243.624,39.298,244.784,38.741,245.997,38.337z"/>
	<path fill="#FFFFFF" d="M261.299,39.916c-1.084-0.871-2.273-1.603-3.534-2.177l-0.539,1.184c1.163,0.529,2.26,1.204,3.259,2.007
		L261.299,39.916z"/>
	<path fill="#FFFFFF" d="M253.572,37.786l0.227-1.28c-1.355-0.241-2.771-0.312-4.144-0.213l0.094,1.297
		C251.015,37.499,252.322,37.564,253.572,37.786z"/>
	<polygon fill="#FFFFFF" points="226.552,72.646 225.941,72.421 224.558,76.175 225.162,76.397 225.173,76.387 	"/>
	<path fill="#FFFFFF" d="M234.518,52.914h-0.316c0-0.378,0.016-0.756,0.041-1.132l-0.774,2.099l0.61,0.225L234.518,52.914z"/>
	
		<rect x="228.606" y="65.128" transform="matrix(0.9385 0.3454 -0.3454 0.9385 37.2693 -74.9329)" fill="#FFFFFF" width="0.65" height="4"/>
	
		<rect x="226.321" y="66.579" transform="matrix(0.3459 -0.9383 0.9383 0.3459 86.5678 257.9871)" fill="#FFFFFF" width="4" height="0.65"/>
	<path fill="#FFFFFF" d="M234.463,49.984l-0.222-0.082l-1.384,3.753l0.61,0.225l0.774-2.099
		C234.282,51.177,234.357,50.578,234.463,49.984z"/>
	<path fill="#FFFFFF" d="M226.206,75.463l0.956-2.593l-0.61-0.225l-1.379,3.741C225.508,76.063,225.853,75.755,226.206,75.463z"/>
	
		<rect x="231.373" y="57.622" transform="matrix(0.9385 0.3454 -0.3454 0.9385 34.8471 -76.3502)" fill="#FFFFFF" width="0.65" height="4"/>
	
		<rect x="229.088" y="59.073" transform="matrix(0.3459 -0.9383 0.9383 0.3459 95.4204 255.6731)" fill="#FFFFFF" width="4" height="0.65"/>
	<polygon fill="#FFFFFF" points="225.173,76.387 225.162,76.397 225.168,76.399 	"/>
	<path fill="#FFFFFF" d="M225.168,76.399l0.61,0.225l0.428-1.161c-0.354,0.292-0.698,0.6-1.033,0.923L225.168,76.399z"/>
	<path fill="#FFFFFF" d="M234.852,50.127l-0.389-0.143c-0.105,0.594-0.181,1.193-0.221,1.797L234.852,50.127z"/>
	<path fill="#FFFFFF" d="M234.852,50.127l-0.609,1.654c-0.025,0.376-0.041,0.754-0.041,1.132h0.316l0.944-2.562L234.852,50.127z"/>
	
		<rect x="272.59" y="65.154" transform="matrix(0.9514 -0.3081 0.3081 0.9514 -7.4137 87.3518)" fill="#FFFFFF" width="0.65" height="4"/>
	<path fill="#FFFFFF" d="M267.685,49.927l-0.618,0.2l0.127,0.392l0.168-0.024c0.039,0.271,0.062,0.545,0.089,0.819l0.847,2.62
		l0.618-0.2L267.685,49.927z"/>
	<path fill="#FFFFFF" d="M274.545,75.361l0.151,0.467c0.324,0.259,0.643,0.523,0.941,0.8l-1.186-3.667l-0.618,0.2l0.51,1.576
		c0.146,0.104,0.295,0.203,0.438,0.312L274.545,75.361z"/>
	<path fill="#FFFFFF" d="M275.755,76.745l0.546-0.177l-1.23-3.806l-0.618,0.2l1.186,3.667
		C275.679,76.667,275.715,76.707,275.755,76.745z"/>
	
		<rect x="270.128" y="57.542" transform="matrix(0.9514 -0.3081 0.3081 0.9514 -5.1883 86.223)" fill="#FFFFFF" width="0.65" height="4"/>
	
		<rect x="270.297" y="67.029" transform="matrix(-0.3076 -0.9515 0.9515 -0.3076 291.98 347.1648)" fill="#FFFFFF" width="4" height="0.65"/>
	
		<rect x="267.835" y="59.417" transform="matrix(-0.3076 -0.9515 0.9515 -0.3076 296.0033 334.8688)" fill="#FFFFFF" width="4" height="0.65"/>
	<polygon fill="#FFFFFF" points="267.066,50.127 266.448,50.327 266.541,50.613 267.193,50.519 	"/>
	<path fill="#FFFFFF" d="M267.535,52.915l-0.25,0l0.394,1.219l0.618-0.2l-0.847-2.62C267.501,51.847,267.536,52.382,267.535,52.915z
		"/>
	<path fill="#FFFFFF" d="M275.683,76.768l0.072-0.023c-0.04-0.038-0.076-0.078-0.117-0.116L275.683,76.768z"/>
	<path fill="#FFFFFF" d="M274.696,75.829l0.368,1.14l0.618-0.2l-0.045-0.139C275.339,76.352,275.021,76.088,274.696,75.829z"/>
	<path fill="#FFFFFF" d="M274.781,75.05c-0.143-0.109-0.292-0.208-0.438-0.312l0.201,0.623L274.781,75.05z"/>
	<path fill="#FFFFFF" d="M267.361,50.494l-0.168,0.024l0.257,0.794C267.424,51.04,267.4,50.765,267.361,50.494z"/>
	<path fill="#FFFFFF" d="M267.45,51.313l-0.257-0.794l-0.652,0.095l0.744,2.301l0.25,0C267.536,52.382,267.501,51.847,267.45,51.313
		z"/>
	<path fill="#FFFFFF" d="M250.623,99.554c-3.18,0-6.6,0.96-8.58,2.4l1.44,3.779c1.5-1.14,3.899-1.859,6.06-1.859
		c3.78,0.06,5.7,2.1,5.7,5.159c0,2.7-1.5,5.04-4.2,8.22c-3,3.601-4.08,7.14-3.72,10.38l0.12,1.56h4.68l-0.061-1.56
		c-0.18-3.06,0.78-5.699,3.42-8.819c2.88-3.42,5.16-6.36,5.16-10.439C260.643,103.813,257.522,99.554,250.623,99.554z"/>
	<path fill="#FFFFFF" d="M249.723,133.812c-2.1,0-3.6,1.561-3.6,3.78c0,2.1,1.44,3.72,3.54,3.72c2.22,0,3.6-1.62,3.6-3.72
		C253.263,135.373,251.823,133.812,249.723,133.812z"/>
</g>
</svg>
