<?xml version="1.0" encoding="utf-8"?>
<!-- Generator: Adobe Illustrator 16.0.0, SVG Export Plug-In . SVG Version: 6.00 Build 0)  -->
<!DOCTYPE svg PUBLIC "-//W3C//DTD SVG 1.1//EN" "http://www.w3.org/Graphics/SVG/1.1/DTD/svg11.dtd">
<svg version="1.1" id="Layer_1" xmlns="http://www.w3.org/2000/svg" xmlns:xlink="http://www.w3.org/1999/xlink" x="0px" y="0px"
	 width="420px" height="270px" viewBox="0 0 420 270" enable-background="new 0 0 420 270" xml:space="preserve">
<g>
	<polygon fill="none" points="268.795,171.67 263.553,181.824 272.348,181.671 	"/>
	<path fill="none" d="M304.196,150.917v-1.663h-0.065l-0.001,1.729C304.153,150.962,304.172,150.938,304.196,150.917z"/>
	<path fill="none" d="M311.434,150.5c-1.188-1-2.246-1.418-2.941-2.359c0.029,0.272,0.008,0.064,0.008,0.336v2.023H311.434z"/>
	<path fill="none" d="M306.5,164.11v4.835c0,1.6-1.004,2.438-2.102,2.438c-0.127,0-0.202-0.014-0.328-0.036l0.023,9.773l2.688-0.046
		l-0.096-16.973C306.657,164.107,306.5,164.105,306.5,164.11z"/>
	<path fill="none" d="M292.341,149.5H291.5v12.189c0,1.602-0.903,2.438-2,2.438s-2-0.837-2-2.438v-13.291
		c0-3.544,2.477-6.117,5.656-6.117l3.735,0.002c-2.196-0.453-3.81-2.401-3.81-4.729c0-2.663,2.188-4.83,4.851-4.83
		c2.662,0,4.839,2.274,4.839,4.937c0,2.328-1.652,3.838-3.848,4.838h4.102c2.173,0,3.67,0.935,4.559,2.381
		c0.02-2.646,2.175-4.848,4.826-4.848c2.662,0,4.828,2.141,4.828,4.803c0,2.328-1.656,4.264-3.852,4.717l3.829-0.005
		c3.815,0,5.284,3.202,5.284,6.185v13.211c0,0.943-0.102,1.516-0.415,1.831c-0.4,0.401-0.877,0.622-1.447,0.622
		c-1.092,0-2.138-0.842-2.138-2.451V157.5h0.087l-0.008,23.865l22.857-0.645l0.935-4.753l-39.443-70.338l-30.719,59.459l0.11,0.716
		l5.577,15.778l14.44-0.132L292.341,149.5z"/>
	<rect x="298.192" y="164.5" fill="none" width="0.077" height="17"/>
	<polygon fill="none" points="85.885,124.854 85.068,124.716 81.35,129.665 101.01,132.991 104.438,122.25 99.146,120.56 
		111.062,102.747 108.629,93.355 85.744,123.815 86.051,123.868 	"/>
	<path fill="none" d="M153.455,130.961l-5.545,0.337l3.049-13.635l-1.396-3.902l-0.081,0.033c-0.61,0.748-1.509,0.892-2.219,0.631
		c-0.985-0.358-1.711-1.497-1.193-2.98l1.644-2.851L131.406,63.04l-19.465,25.908l2.362,8.074l6.819,2.178
		c3.046,0.972,3.535,3.838,3.556,5.46l2.816,13.212c-0.048,1.61-1.108,2.629-2.144,2.629c-0.014,0-0.027,0-0.042,0
		c-0.959,0-1.985-0.963-1.975-2.508l-2.731-11.868l-0.495-0.213l-0.556,21.19l-4.851-1.562l0.74,9.902l38.682,6.542L153.455,130.961
		z M123.832,94.698c-0.655,2.053-2.542,3.432-4.694,3.432c-0.508,0-1.012-0.079-1.5-0.234c-1.253-0.4-2.275-1.265-2.879-2.435
		s-0.716-2.505-0.315-3.759c0.655-2.052,2.541-3.431,4.694-3.431c0.506,0,1.01,0.078,1.497,0.233
		C123.224,89.33,124.657,92.109,123.832,94.698z"/>
	<polygon fill="none" points="108.843,123.546 105.582,133.766 110.826,134.653 110.027,123.924 	"/>
	<polygon fill="none" points="158.531,138.818 158.772,142.766 159.944,142.965 159.928,142.72 	"/>
	<path fill="none" d="M151.203,178.104l5.403,0.003c0.007,0,0.013,0.002,0.021,0.002l-0.156-0.156c-0.01,0-0.018,0.002-0.027,0.002
		c-2.663,0-4.829-2.166-4.829-4.828c0-1.314,0.531-2.506,1.386-3.377l-2.263-5.936c-1.361,0.747-2.754,1.43-4.169,2.062
		c0.151,0.196,0.288,0.423,0.39,0.7L151.203,178.104z"/>
	<polygon fill="none" points="312.5,171.5 312.5,180.973 312.653,181.096 312.731,171.5 	"/>
	<path fill="none" d="M358.302,168.102c-0.076-0.35-0.078-0.731-0.003-1.129l0.577-12.611l-0.135-0.027l-2.342,11.588
		L358.302,168.102z"/>
	<polygon fill="none" points="346.319,156.295 347.186,152.002 346.999,151.965 345.607,155.025 	"/>
	<path fill="#FFFFFF" d="M297.037,88.658c0.188-0.332,0.368-0.601,0.569-0.853c0.097-0.123,0.213-0.248,0.335-0.368l-0.414-0.011
		L220.5,67.371V33.867c0-2.207-1.787-4.002-4.006-4.002c-2.207,0-3.994,1.795-3.994,4.002v31.406l-74.127-19.517
		c0.097,0.139,0.4,0.279,0.486,0.426c0.166,0.275,0.391,0.556,0.48,0.775c0.053,0.107,0.152,0.214,0.193,0.328l0.053,0.082
		l2.316,7.598L212.5,73.553v148.354c0,0.051,0.431,0.098,0.433,0.148c-11.113,1.259-20.997,7.699-26.763,17.451
		c-0.244,0.396-0.14,0.917,0.092,1.318c0.23,0.397,0.757,0.676,1.223,0.676h59.715c0.454,0,0.875-0.278,1.11-0.676
		c0.226-0.401,0.226-0.904-0.013-1.301c-5.756-9.749-16.271-16.197-27.387-17.459c0.002-0.051-0.41-0.107-0.41-0.158V75.652
		l73.002,19.001l3.229-5.839C296.762,88.76,297.005,88.708,297.037,88.658z"/>
	<polygon fill="#FFFFFF" points="264.491,166.76 261.344,168.625 258.16,174.787 259.475,178.822 265.696,166.774 	"/>
	<path fill="#FFFFFF" d="M341.534,164.137l2.354,4.195l0.913-4.525l-1.763-3.14l-1.353,2.974
		C341.647,163.82,341.596,163.985,341.534,164.137z"/>
	<path fill="#FFFFFF" d="M271.678,155.188c-0.348-1.449-0.779-3.204-0.931-3.813l-0.534,0.079l-0.037,0.072l0.766,5.09
		L271.678,155.188z"/>
	<path fill="#FFFFFF" d="M340.39,155.947l-36.352-64.756c-0.074-0.138-0.134-0.224-0.203-0.306l-0.249-0.232
		c-0.229-0.166-0.469-0.26-0.72-0.289l-0.394,0.008c-0.142,0.021-0.269,0.059-0.389,0.113l-0.182,0.098
		c-0.069,0.042-0.131,0.086-0.183,0.13l-0.236,0.252c-0.044,0.062-0.077,0.12-0.109,0.179l-0.101,0.18l-28.545,55.261
		c0.873,0.887,1.439,2.076,1.689,3.295l28.326-54.856l36.113,64.343L340.39,155.947z"/>
	<polygon fill="#30B8DC" points="79.518,123.777 75.801,128.726 81.35,129.665 85.068,124.716 	"/>
	<path fill="#30B8DC" d="M139.585,47.284c-0.04-0.113-0.088-0.221-0.141-0.328c-0.09-0.219-0.21-0.5-0.376-0.775
		c-0.086-0.147-0.182-0.287-0.278-0.426c-0.892-1.279-2.231-2.213-3.736-2.585c-0.19-0.049-0.384-0.079-0.668-0.116
		c-0.187-0.034-0.373-0.062-0.555-0.071c-1.761-0.104-3.477,0.517-4.69,1.635c-0.099,0.084-0.19,0.174-0.276,0.271
		c-0.171,0.168-0.389,0.39-0.605,0.679l-61.123,81.359c-1.047,1.39-1.489,3.104-1.245,4.826c0.244,1.721,1.143,3.242,2.539,4.291
		c0.875,0.651,1.861,1.063,2.928,1.225c0.184,0.027,0.368,0.033,0.553,0.044c-0.711-1.588-1.358-3.214-1.928-4.882
		c-0.352-1.059-0.13-2.191,0.589-3.037c0.464-0.534,1.071-0.863,1.723-1.006l3.886-5.173l-1.785-0.302l0.166-0.986l2.296,0.388
		l55.397-73.738c0.052-0.063,0.111-0.116,0.127-0.132c0.045-0.042,0.087-0.084,0.129-0.129c0.257-0.211,0.58-0.331,0.991-0.337
		l0.385,0.058c0.367,0.105,0.673,0.341,0.872,0.681c0.035,0.067,0.061,0.138,0.062,0.141l0.091,0.22l17.123,47.825
		c-0.22,0.61-0.325,1.274-0.283,1.962c0.103,1.675,1.042,3.106,2.39,3.917l0.37,1.036l-1.283,0.078l0.002,0.038
		c-0.666-0.013-1.251,0.101-1.771,0.294l-18.475-51.611l-23.121,30.774c-0.56-0.448-1.256-0.539-1.846-0.37
		c-0.969,0.279-1.75,1.297-1.367,2.7l0.375,1.448l-26.831,35.712l5.55,0.938l22.885-30.46l2.433,9.391L99.146,120.56l5.292,1.69
		l-3.428,10.742l0.498,0.085l3.559-11.151l-5.136-1.64l11.672-17.447l-4.469-17.25c-0.312-1.145,0.312-1.886,1.022-2.091
		c0.729-0.209,1.691,0.118,2.061,1.337l3.655,12.492l-0.023,0.073l7.122,2.274c2.748,0.876,3.189,3.502,3.214,5.039l2.816,13.451
		c-0.044,1.288-0.879,2.335-1.648,2.335c-0.011,0-0.021,0-0.032,0c-0.745,0-1.494-1.042-1.492-2.313l-2.771-12.189l-0.031-0.255
		l-1.4-0.507l-0.556,21.189l-4.923-1.585l0.786,10.517l0.509,0.083l-0.74-9.911l4.851,1.547l0.556-21.218l0.495,0.158l2.731,11.977
		c-0.011,1.545,1.016,2.508,1.975,2.508c0.015,0,0.028,0,0.042,0c1.035,0,2.096-1.019,2.144-2.629l-2.816-13.103
		c-0.021-1.622-0.51-4.543-3.556-5.515l-6.819-2.205l-2.362-8.087l19.465-25.915l16.307,45.551l-1.644,2.85
		c-0.518,1.482,0.208,2.621,1.193,2.979c0.71,0.26,1.608,0.116,2.219-0.632c0.167-0.205,0.315-0.446,0.429-0.746l1.61-2.563
		l1.027,0.072l-0.493,2.203l-2.492,1.001l1.396,3.902l-3.049,13.635l5.545-0.337l0.669,11.018l0.507,0.086l-0.707-11.633
		l-5.381,0.327l4.62-20.66l-1.906-0.133l-1.792,2.86c-0.43,1.134-1.327,1.387-2.031,1.129c-0.731-0.266-1.322-1.114-0.911-2.303
		l2.146-3.718c0.554-1.38,1.938-3.663,4.793-3.495l0.004-0.061l7.254-0.439c0.104-0.006,0.207-0.009,0.309-0.009
		c2.669,0,3.951,2.175,4.5,3.536l2.11,3.644c0.431,1.231-0.16,2.079-0.892,2.345c-0.7,0.257-1.602,0.005-2.053-1.173l-1.77-2.815
		l-1.473,0.088l7.145,19.987l-5.362,0.325l0.836,13.793l1.604,0.271l-1.308-3.652l-0.604-9.944l0.239-0.014l5.177,14.458
		c0.137,0.381,0.117,0.789-0.055,1.153c-0.101,0.213-0.255,0.381-0.432,0.521c0.192,0.906,0.003,1.856-0.575,2.585
		c-0.674,0.861-1.375,1.694-2.091,2.509c0.249,0.069,0.501,0.13,0.761,0.169c0.32,0.049,0.648,0.074,0.975,0.074
		c0.743,0,1.479-0.127,2.197-0.38c1.635-0.585,2.944-1.772,3.687-3.344c0.297-0.63,0.483-1.292,0.569-1.963
		c-0.084-0.738-0.26-1.472-0.534-2.183l0.404-0.156c-0.055-0.226-0.12-0.45-0.199-0.672l-4.686-13.088l0.091-0.005l-6.223-17.409
		l-0.922-2.579l0.512-0.031l1.59,2.52c0.068,0.181,0.147,0.343,0.235,0.489c0.612,1.022,1.646,1.22,2.434,0.932
		c0.985-0.358,1.711-1.497,1.174-3.022l-2.114-3.655c-0.582-1.45-1.986-3.818-4.94-3.818c-0.114,0-0.23,0.003-0.348,0.011
		l-0.979,0.06l-0.307-0.86c1.401-0.944,2.296-2.568,2.187-4.375c-0.158-2.596-2.316-4.629-4.914-4.629
		c-0.101,0-0.202,0.003-0.304,0.009c-0.062,0.003-0.118,0.023-0.18,0.029l-13.859-38.71l-2.72-7.598L139.585,47.284z
		 M156.675,94.136c2.322,0,4.272,1.81,4.415,4.16c0.147,2.442-1.711,4.541-4.152,4.689c-0.091,0.005-0.182,0.008-0.271,0.008
		c-2.322,0-4.274-1.81-4.417-4.162c-0.147-2.441,1.712-4.54,4.151-4.688C156.493,94.138,156.584,94.136,156.675,94.136z"/>
	<path fill="#FFFFFF" d="M120.483,88.98c-0.447-0.143-0.899-0.21-1.345-0.21c-1.875,0-3.617,1.2-4.218,3.083
		c-0.744,2.331,0.542,4.822,2.87,5.565c0.448,0.143,0.901,0.211,1.348,0.211c1.875,0,3.617-1.201,4.218-3.084
		C124.099,92.216,122.814,89.724,120.483,88.98z"/>
	<path fill="#30B8DC" d="M120.635,88.503c-0.487-0.155-0.991-0.233-1.497-0.233c-2.153,0-4.039,1.379-4.694,3.431
		c-0.4,1.254-0.288,2.589,0.315,3.759s1.626,2.034,2.879,2.435c0.488,0.155,0.992,0.234,1.5,0.234c2.152,0,4.039-1.379,4.694-3.432
		C124.657,92.109,123.224,89.33,120.635,88.503z M123.356,94.545c-0.601,1.883-2.343,3.084-4.218,3.084
		c-0.446,0-0.899-0.068-1.348-0.211c-2.328-0.743-3.614-3.234-2.87-5.565c0.601-1.883,2.343-3.083,4.218-3.083
		c0.445,0,0.897,0.067,1.345,0.21C122.814,89.724,124.099,92.216,123.356,94.545z"/>
	<path fill="#FFFFFF" d="M152.25,98.832c0.143,2.352,2.095,4.162,4.417,4.162c0.089,0,0.18-0.003,0.271-0.008
		c2.441-0.148,4.3-2.247,4.152-4.689c-0.143-2.35-2.093-4.16-4.415-4.16c-0.091,0-0.182,0.002-0.273,0.008
		C153.962,94.292,152.103,96.39,152.25,98.832z"/>
	<path fill="#FFFFFF" d="M174.215,146.106c0.256,2.259-0.366,4.56-1.791,6.355c-2.865,3.661-6.143,7.001-9.742,9.928l0.631,0.776
		c3.657-2.974,6.987-6.367,9.896-10.085c2.108-2.657,2.646-6.304,1.405-9.518l-0.529,0.204l-0.404,0.156
		C173.955,144.635,174.131,145.368,174.215,146.106z"/>
	<path fill="#FFFFFF" d="M63.831,134.528c2.778,8.142,7.095,15.502,12.831,21.878l0.744-0.669
		c-5.646-6.274-9.895-13.52-12.628-21.532L63.831,134.528z"/>
	<path fill="#FFFFFF" d="M63.295,145.535l-0.867,0.496c0.51,0.893,0.988,1.771,1.458,2.633c1.591,2.92,3.094,5.676,5.412,8.254
		l0.744-0.669c-2.241-2.49-3.716-5.197-5.278-8.063C64.291,147.317,63.809,146.434,63.295,145.535z"/>
	<path fill="#FFFFFF" d="M152.055,112.76l0.493-2.203l-1.027-0.072l-1.61,2.562c-0.113,0.3-0.262,0.541-0.429,0.746l0.081-0.033
		L152.055,112.76z"/>
	<path fill="#FFFFFF" d="M162.658,109.984l-0.512,0.031l0.922,2.579l1.415,0.4c-0.088-0.146-0.167-0.309-0.235-0.489
		L162.658,109.984z"/>
	<path fill="#FFFFFF" d="M113.191,175.412c-7.176-1.215-14.012-3.647-20.317-7.232l-0.494,0.869
		c6.407,3.643,13.354,6.115,20.646,7.35c3.5,0.592,7.024,0.887,10.546,0.887c3.169,0,6.337-0.239,9.481-0.719l-0.15-0.988
		C126.367,176.574,119.737,176.52,113.191,175.412z"/>
	<path fill="#FFFFFF" d="M257.353,141.787c0.318,2.148,2.167,3.694,4.277,3.694c0.211,0,0.425-0.016,0.64-0.048
		c2.365-0.35,3.997-2.553,3.646-4.918c-0.318-2.148-2.166-3.693-4.276-3.693c-0.211,0-0.426,0.016-0.641,0.047
		C258.634,137.221,257.001,139.422,257.353,141.787z"/>
	<path fill="#30B8DC" d="M261.63,145.981c0.236,0,0.477-0.018,0.713-0.053c1.275-0.188,2.402-0.864,3.17-1.901
		c0.769-1.035,1.087-2.309,0.898-3.584c-0.349-2.35-2.4-4.121-4.771-4.121c-0.237,0-0.478,0.018-0.714,0.053
		c-1.276,0.189-2.402,0.863-3.171,1.9c-0.768,1.035-1.087,2.309-0.896,3.584C257.206,144.209,259.258,145.981,261.63,145.981z
		 M261.64,136.822c2.11,0,3.958,1.545,4.276,3.693c0.351,2.365-1.281,4.568-3.646,4.918c-0.215,0.032-0.429,0.048-0.64,0.048
		c-2.11,0-3.959-1.546-4.277-3.694c-0.352-2.365,1.281-4.566,3.646-4.918C261.214,136.838,261.429,136.822,261.64,136.822z"/>
	<path fill="#30B8DC" d="M272.348,181.671l0.522-0.009l-5.394-15.201l-0.058-0.164l-3.062-0.039l-7.962,4.721l3.051,9.356
		c0.085,0.573-0.067,1.126-0.377,1.566l4.484-0.077l5.242-10.154L272.348,181.671z M259.475,178.822l-1.314-4.035l3.184-6.162
		l3.147-1.865l1.204,0.015L259.475,178.822z"/>
	<circle fill="#FFFFFF" cx="297.954" cy="137.554" r="4.329"/>
	<path fill="#FFFFFF" d="M306.5,163.584V157l0,0v6.609C306.5,163.604,306.5,163.592,306.5,163.584z"/>
	<polygon fill="#30B8DC" points="298.191,181.476 298.193,164.5 298.274,164.5 298.268,181.475 298.768,181.342 298.774,163.5 
		297.693,163.5 297.691,181.36 	"/>
	<circle fill="#FFFFFF" cx="312.411" cy="144.81" r="4.329"/>
	<path fill="#30B8DC" d="M318.5,157.5v11.445c0,1.609,1.181,2.451,2.272,2.451c0.57,0,0.874-0.221,1.274-0.622
		c0.313-0.315,0.453-0.888,0.453-1.831v-13.211c0-2.982-1.469-6.191-5.284-6.191l-3.964-0.002c2.195-0.453,3.92-2.401,3.92-4.73
		c0-2.662-2.133-4.828-4.795-4.828c-2.65,0-4.788,2.255-4.808,4.9c-0.889-1.446-2.376-2.381-4.55-2.381h-4.094
		c2.195-1,3.854-2.51,3.854-4.838c0-2.663-2.165-4.883-4.827-4.883c-2.663,0-4.828,2.139-4.828,4.802
		c0,2.327,1.655,4.263,3.852,4.716l-3.82-0.009c-3.18,0-5.656,2.566-5.656,6.11v13.291c0,1.602,0.903,2.438,2,2.438s2-0.837,2-2.438
		V149.5h0.841l-0.004,31.947l0.5,0.303l0.004-32.25H291.5v12.189c0,1.293-1.147,1.938-2,1.938s-2-0.646-2-1.938v-13.291
		c0-3.117,2.34-5.617,5.406-5.617l9.621,0.004c3.364,0,4.973,2.818,4.973,5.691v2.023h0.283c-1.172,0-2.283-0.611-3.283,0.008V149.5
		h-1v2.037c-1,1.063-2,2.484-2,4.117v13.291c0,1.16,0.984,1.914,1.725,2.243l0.196,9.94l0.6-0.009l0.053-9.773
		c0.126,0.022,0.174,0.036,0.301,0.036c1.097,0,2.126-0.838,2.126-2.438v-4.835c0-0.005,0.164-0.003,0.191-0.009l0.051,16.973
		l0.526,0.236l0.029-24.811H305.5v12.445c0,1.291-0.647,1.938-1.5,1.938s-1.5-0.646-1.5-1.938v-13.291
		c0-3.119,2.068-5.617,5.135-5.617l9.757,0.004c3.364,0,5.108,2.816,5.108,5.691v13.213c0,1.301-1.149,1.951-1.997,1.951
		s-2.003-0.65-2.003-1.951V156.5h-0.413l-0.008,24.623l0.5,0.365l0.008-23.988H318.5z M297.954,133.225
		c2.391,0,4.328,1.938,4.328,4.33c0,2.389-1.938,4.328-4.328,4.328c-2.392,0-4.329-1.939-4.329-4.328
		C293.625,135.164,295.563,133.225,297.954,133.225z M308.492,148.141c0.695,0.941,1.754,1.359,2.941,2.359H308.5v-2.023
		C308.5,148.205,308.522,148.413,308.492,148.141z M312.411,140.48c2.391,0,4.328,1.938,4.328,4.328s-1.938,4.33-4.328,4.33
		c-2.392,0-4.329-1.939-4.329-4.33S310.02,140.48,312.411,140.48z M304.196,149.254v1.663c-0.023,0.021-0.043,0.045-0.066,0.066
		l0.001-1.729H304.196z M306.5,157v6.584c0,0.008,0,0.02,0,0.025V157L306.5,157z"/>
	<polygon fill="#30B8DC" points="312.5,180.973 312.5,171.5 312.731,171.5 312.727,181.096 313.227,181.4 313.231,171.5 
		311.5,171.5 311.5,180.98 	"/>
	<path fill="#FFFFFF" d="M356.107,146.283c0.289,0.059,0.577,0.086,0.861,0.086c2.018,0,3.823-1.42,4.238-3.473
		c0.473-2.344-1.043-4.627-3.387-5.1c-0.289-0.059-0.578-0.087-0.861-0.087c-2.02,0-3.824,1.419-4.238,3.474
		C352.247,143.525,353.763,145.811,356.107,146.283z"/>
	<path fill="#30B8DC" d="M360.484,170.682l-0.029-0.113l-0.077-0.088l-0.687-0.787c0.225,0.078,0.464,0.119,0.709,0.119
		c0.834,0,1.911-0.527,2.207-2.014l0.008-0.035l0.002-0.037l0.65-13.311c0.309-1.568,0.126-3.124-0.516-4.385
		c-0.742-1.456-2.024-2.406-3.711-2.746l-2.063-0.417c2.281-0.004,4.266-1.632,4.72-3.873c0.255-1.265,0.002-2.553-0.711-3.628
		c-0.713-1.074-1.803-1.807-3.067-2.061c-0.316-0.064-0.64-0.097-0.96-0.097c-2.287,0-4.275,1.63-4.729,3.874
		c-0.255,1.264-0.002,2.553,0.711,3.627c0.531,0.8,1.271,1.408,2.136,1.773l-5.546-1.121c-0.38-0.077-0.761-0.115-1.132-0.115
		c-2.64,0-4.821,1.994-5.443,4.971l-0.021,0.047l-34.508-61.471c-0.217-0.408-0.481-0.795-0.779-1.146
		c-0.146-0.173-0.307-0.329-0.535-0.54c-0.12-0.123-0.246-0.24-0.355-0.325c-1.023-0.822-2.254-1.309-3.541-1.409
		c-0.196-0.017-0.289-0.017-0.676-0.003l-0.117-0.001c-0.162,0-0.323,0.008-0.456,0.025c-0.847,0.094-1.655,0.352-2.405,0.764
		l-0.272,0.161c-0.292,0.179-0.564,0.376-0.806,0.582c-0.163,0.137-0.31,0.287-0.453,0.441l-0.077,0.082l-0.011,0.011
		c-0.122,0.12-0.238,0.245-0.335,0.368c-0.201,0.252-0.382,0.521-0.569,0.853c-0.032,0.05-0.062,0.102-0.093,0.156l-3.017,5.839
		l-26.15,50.623l-8.993,1.331l-5.703,0.681c-0.584-0.546-4.025-3.763-5.638-5.341c-0.693-0.678-1.362-0.82-1.801-0.82
		c-0.802,0-1.511,0.48-1.807,1.223c-0.374,0.939-0.022,2.045,0.941,2.957c2.619,2.479,7,6.539,7.044,6.58l0.088,0.082l6.792-1.008
		l1.355,9.261l-2.028,3.927l-7.234,4.539l1.84,5.905l-2.43,4.703c-1.639,3.188-0.381,7.478,2.816,9.126
		c0.923,0.471,1.949,1.078,2.967,1.078h0.109c0.016,0,0.031-0.363,0.047-0.363c-0.447-0.717-0.886-1.62-1.303-2.361
		c-0.542-0.945-0.547-2.188-0.007-3.168c0.035-0.059,0.084-0.147,0.122-0.203c-0.471-0.45-0.618-1.191-0.308-1.795l0.089-0.184
		c0.15,0.502,0.441,0.931,0.828,1.262c0.13-0.11,0.257-0.229,0.401-0.316c-0.435-0.339-0.747-0.843-0.837-1.434l-3.744-12.029
		l9.57-6.006l-1.498-10.102l-0.329-2.408l-7.056,1.046c-0.634-0.588-4.541-4.212-6.952-6.495c-0.81-0.767-1.116-1.666-0.821-2.408
		c0.22-0.552,0.747-0.908,1.343-0.908c0.496,0,0.998,0.234,1.451,0.678c1.761,1.723,5.691,5.392,5.73,5.428l0.085,0.08l5.94-0.711
		l9.599-1.42c0.265-0.039,0.527-0.059,0.781-0.059c2.809,0,4.419,2.379,4.772,4.76c0.006,0.021,0.521,2.108,0.951,4.39
		c0.192,1.015,0.082,1.834-0.309,2.306c-0.204,0.246-0.47,0.377-0.768,0.377c-0.572,0-1.268-0.501-1.531-1.619
		c-0.43-1.822-1.168-4.802-1.168-4.802l-0.054-0.221l-1.526,0.227l2.239,14.87l5.538,15.674l0.521-0.009l-5.577-15.786l-0.11-0.73
		l30.719-59.491l39.443,70.276l-0.935,4.629l0.513-0.008l5.825-28.854l-1.066-0.215l-5.499,12.086
		c-0.222,1.102-0.979,1.596-1.723,1.596c-0.968,0-1.911-0.838-1.622-2.27l5.569-12.436c0.545-2.697,2.458-4.625,4.965-4.625
		c0.335,0,0.68,0.033,1.033,0.105l9.51,1.922c3.298,0.666,4.396,3.762,3.828,6.578l-0.653,13.348
		c-0.221,1.111-0.977,1.611-1.717,1.611c-0.959,0-1.893-0.841-1.603-2.281l0.599-13.074l-1.045-0.211l-2.49,12.318l4.14,4.744
		c0,0,2.026,7.701,2.778,13.076c0.363,2.605-0.727,3.449-1.487,3.639c-0.18,0.045-0.35,0.065-0.51,0.065
		c-1.277,0-1.939-1.364-2.37-3.122l-2.654-12.043l-5.082-5.189l-1.061-0.215l-2.696,13.358l3.695-0.063l-2.334-4.158l0.914-4.527
		l4.623,8.236c0.26,0.463,0.246,1.005,0.02,1.44c0.139,0.147,0.278,0.296,0.388,0.472c0.581,0.922,0.636,2.072,0.147,3.072
		c-0.391,0.751-0.802,1.487-1.223,2.216c0.879-0.088,1.745-0.348,2.542-0.788c0.897-0.504,1.623-1.194,2.169-1.992l0.063,0.289
		c0.371,1.516,1.067,3.515,2.858,3.515c0.202,0,0.414-0.026,0.63-0.081c0.555-0.137,2.329-0.846,1.862-4.191
		C362.527,178.474,360.504,170.76,360.484,170.682z M352.72,141.184c0.414-2.055,2.219-3.474,4.238-3.474
		c0.283,0,0.572,0.028,0.861,0.087c2.344,0.473,3.859,2.756,3.387,5.1c-0.415,2.053-2.221,3.473-4.238,3.473
		c-0.284,0-0.572-0.027-0.861-0.086C353.763,145.811,352.247,143.525,352.72,141.184z M358.876,154.361l-0.577,12.611
		c-0.075,0.397-0.073,0.779,0.003,1.129l-1.902-2.18l2.342-11.588L358.876,154.361z M302.744,95.025l-28.326,54.856
		c-0.25-1.219-0.816-2.408-1.689-3.295l28.545-55.261l0.101-0.18c0.032-0.059,0.065-0.117,0.109-0.179l0.236-0.252
		c0.052-0.044,0.113-0.088,0.183-0.13l0.182-0.098c0.12-0.054,0.247-0.091,0.389-0.113l0.394-0.008
		c0.251,0.029,0.491,0.123,0.72,0.289l0.249,0.232c0.069,0.082,0.129,0.167,0.203,0.306l36.352,64.756l-1.532,3.421L302.744,95.025z
		 M270.213,151.454l0.534-0.079c0.151,0.609,0.583,2.364,0.931,3.813l-0.736,1.428l-0.766-5.09L270.213,151.454z M347.186,152.002
		l-0.867,4.293l-0.712-1.27l1.393-3.061L347.186,152.002z M344.802,163.807l-0.913,4.525l-2.354-4.195
		c0.062-0.151,0.112-0.316,0.152-0.496l1.353-2.974L344.802,163.807z"/>
	<path fill="#FFFFFF" d="M354.224,181.777c-0.109-0.176-0.249-0.324-0.388-0.472c0.227-0.436,0.24-0.978-0.02-1.44l-4.623-8.236
		l-0.914,4.527l2.334,4.158l-3.695,0.063l2.696-13.358l1.061,0.215l5.082,5.189l2.654,12.043c0.431,1.758,1.093,3.122,2.37,3.122
		c0.16,0,0.33-0.021,0.51-0.065c0.761-0.189,1.851-1.033,1.487-3.639c-0.752-5.375-2.778-13.076-2.778-13.076l-4.14-4.744
		l2.49-12.318l1.045,0.211l-0.599,13.074c-0.29,1.44,0.644,2.281,1.603,2.281c0.74,0,1.496-0.5,1.717-1.611l0.653-13.348
		c0.568-2.816-0.53-5.912-3.828-6.578l-9.51-1.922c-0.354-0.072-0.698-0.105-1.033-0.105c-2.507,0-4.42,1.928-4.965,4.625
		l-5.569,12.436c-0.289,1.432,0.654,2.27,1.622,2.27c0.743,0,1.501-0.494,1.723-1.596l5.499-12.086l1.066,0.215l-5.825,28.854
		l-0.513,0.008l-22.857,0.396l-0.5,0.254l0.008-24.623h0.413v12.445c0,1.301,1.155,1.951,2.003,1.951s1.997-0.65,1.997-1.951
		v-13.213c0-2.875-1.67-5.691-5.034-5.691l-9.841-0.004c-3.066,0-5.125,2.498-5.125,5.617v13.291c0,1.291,0.647,1.938,1.5,1.938
		s1.5-0.646,1.5-1.938V156.5h1.798l-0.003,24.811l-0.5-0.114l-2.675-0.015l-0.5-0.021l-0.396-9.956
		c-0.74-0.329-1.725-1.099-1.725-2.259v-13.291c0-1.633,1-3.054,2-4.117V149.5h1v1.008c1-0.619,2.111-0.008,3.283-0.008H307.5
		v-2.023c0-2.873-1.398-5.691-4.763-5.691l-9.978-0.004c-3.064,0-5.26,2.5-5.26,5.617v13.291c0,1.293,1.147,1.938,2,1.938
		s2-0.646,2-1.938V149.5h1.341l-0.004,32.188l-0.5-0.178l-14.44,0.157l-0.521-0.037l-5.538-15.697l-2.239-14.882l1.526-0.232
		l0.054,0.218c0,0,0.738,2.978,1.168,4.8c0.264,1.119,0.959,1.618,1.531,1.618c0.298,0,0.563-0.131,0.768-0.377
		c0.391-0.472,0.501-1.291,0.309-2.306c-0.431-2.281-0.945-4.368-0.951-4.39c-0.354-2.381-1.964-4.76-4.772-4.76
		c-0.254,0-0.517,0.02-0.781,0.059l-9.599,1.42l-5.94,0.711l-0.085-0.08c-0.039-0.036-3.97-3.705-5.73-5.428
		c-0.453-0.443-0.955-0.678-1.451-0.678c-0.596,0-1.123,0.356-1.343,0.908c-0.295,0.742,0.012,1.642,0.821,2.408
		c2.411,2.283,6.318,5.907,6.952,6.495l7.056-1.046l0.329,2.408l1.498,10.102l-9.57,6.004l3.744,12.029
		c0.09,0.592,0.402,1.094,0.837,1.434c-0.145,0.086-0.271,0.203-0.401,0.312c-0.387-0.33-0.678-0.766-0.828-1.268l-0.089,0.172
		c-0.311,0.604-0.163,1.323,0.308,1.773c-0.038,0.056-0.087,0.1-0.122,0.158c-0.54,0.98-0.535,2.133,0.007,3.078
		c0.417,0.741,0.855,1.465,1.303,2.182c10.502,16.826,29.028,26.969,48.959,26.625c19.937-0.346,38.113-11.131,48.046-28.337
		c0.421-0.729,0.832-1.465,1.223-2.216C354.86,183.85,354.805,182.699,354.224,181.777z M297.693,163.5h1.081l-0.006,17.854
		l-0.5,0.146h-0.077l-0.5-0.127L297.693,163.5z M263.553,181.824l-4.484,0.077c0.31-0.44,0.462-0.993,0.377-1.566l-3.051-9.356
		l7.962-4.721l3.062,0.039l0.058,0.164l5.394,15.201l-0.522,0.009L263.553,181.824z M311.5,171.5h1.73l-0.004,9.838l-0.5-0.18
		l-0.402-0.092l-0.824-0.086V171.5z"/>
	<path fill="#FFFFFF" d="M159.67,179.199l-0.688-1.983c-0.732,0.457-1.589,0.731-2.512,0.737l0.156,0.156
		C157.879,178.114,158.895,178.502,159.67,179.199z"/>
	<path fill="#30B8DC" d="M153.715,162.057c0.007,0.017,0.016,0.029,0.022,0.047l2.169,6.248c-0.946,0.106-1.803,0.48-2.503,1.054
		l-2.227-5.839c-0.147,0.082-0.292,0.168-0.439,0.248L153,169.75c-0.854,0.871-1.386,2.062-1.386,3.377
		c0,2.662,2.166,4.828,4.829,4.828c0.01,0,0.018-0.002,0.027-0.002c0.923-0.006,1.779-0.28,2.512-0.737l0.688,1.983
		c-0.775-0.697-1.791-1.085-3.043-1.09c-0.008,0-0.014-0.002-0.021-0.002l-5.403-0.003l-4.245-11.528
		c-0.102-0.277-0.238-0.504-0.39-0.7c-0.154,0.069-0.309,0.14-0.463,0.207c0.15,0.172,0.283,0.392,0.384,0.666l4.083,11.923
		l-0.072-0.086v0.019l5.8,0.003c3.848,0,4.416,3.744,4.416,5.354l0.065,35.467c0,1.201-0.937,2.178-2.137,2.178
		s-2.158-0.636-2.158-1.836l0.026-20.27h-1.581l-0.002,20.27c0,1.2-0.977,2.006-2.178,2.006c-1.2,0-2.176-1.062-2.176-2.262
		l0.004-33.376l0.259-0.121l-7.086-18.255c-0.087-0.236-0.122-0.459-0.13-0.662c-0.16,0.061-0.322,0.116-0.483,0.176
		c0.022,0.209,0.062,0.424,0.146,0.653l6.795,17.495l-0.004,34.004c0,1.477,1.2,2.678,2.676,2.678c1.477,0,2.678-1.109,2.678-2.586
		l0.002-20.02h0.581l-0.007,20.02c0,1.477,1.201,2.631,2.677,2.631s2.676-1.223,2.676-2.699l0.011-35.479
		c0-0.494-0.035-0.962-0.096-1.398l0.085-0.032l-0.222-0.641c-0.124-0.546-0.288-1.052-0.516-1.485l-1.215-3.504
		c1.127-0.885,1.865-2.243,1.865-3.784c0-2.662-2.166-4.83-4.828-4.83c-0.009,0-0.018,0.003-0.026,0.003l-2.21-6.368
		c-0.02-0.052-0.047-0.092-0.068-0.142C153.998,161.881,153.856,161.967,153.715,162.057z M156.444,177.455
		c-2.392,0-4.329-1.939-4.329-4.328c0-2.391,1.938-4.33,4.329-4.33c2.391,0,4.328,1.939,4.328,4.33
		C160.772,175.516,158.834,177.455,156.444,177.455z"/>
	<path fill="#FFFFFF" d="M160.772,173.127c0-2.391-1.938-4.33-4.328-4.33c-2.392,0-4.329,1.939-4.329,4.33
		c0,2.389,1.938,4.328,4.329,4.328C158.834,177.455,160.772,175.516,160.772,173.127z"/>
	
		<rect x="104.898" y="58.757" transform="matrix(0.7955 0.6059 -0.6059 0.7955 66.2939 -48.7642)" fill="#FFFFFF" width="0.999" height="30.17"/>
	<polygon fill="#30B8DC" points="105.582,133.766 108.843,123.546 110.027,123.924 110.826,134.653 111.334,134.739 
		110.499,123.551 108.519,122.917 105.084,133.681 	"/>
	<polygon fill="#30B8DC" points="158.772,142.766 158.531,138.818 159.928,142.72 159.944,142.965 160.45,143.05 159.674,130.23 
		159.658,129.981 157.502,130.112 158.265,142.68 	"/>
	<path fill="#FFFFFF" d="M168.117,149.041c0.578-0.729,0.768-1.679,0.575-2.585c0.177-0.141,0.331-0.309,0.432-0.521
		c0.172-0.364,0.191-0.772,0.055-1.153l-5.177-14.458l-0.239,0.014l0.604,9.944l1.308,3.652l-1.604-0.271l-0.836-13.793l5.362-0.325
		l-7.145-19.987l1.473-0.088l1.77,2.815c0.451,1.178,1.353,1.43,2.053,1.173c0.731-0.266,1.322-1.114,0.892-2.345l-2.11-3.644
		c-0.549-1.361-1.831-3.536-4.5-3.536c-0.102,0-0.204,0.003-0.309,0.009l-7.254,0.439l-0.004,0.061
		c-2.855-0.167-4.239,2.115-4.793,3.495l-2.146,3.718c-0.411,1.189,0.18,2.037,0.911,2.303c0.704,0.258,1.602,0.005,2.031-1.129
		l1.792-2.86l1.906,0.133l-4.62,20.66l5.381-0.327l0.707,11.633l-0.507-0.086l-38.682-6.546l-0.509-0.086l-0.786-10.524l4.923,1.571
		l0.556-21.218l1.4,0.449l0.031,0.138l2.771,12.423c-0.002,1.271,0.747,2.313,1.492,2.313c0.011,0,0.021,0,0.032,0
		c0.77,0,1.604-1.047,1.648-2.335l-2.816-13.216c-0.024-1.537-0.466-4.28-3.214-5.156l-7.122-2.333l0.023-0.103l-3.655-12.507
		c-0.369-1.22-1.331-1.554-2.061-1.345c-0.711,0.205-1.335,0.943-1.022,2.087l4.469,17.248l-11.672,17.446l5.136,1.64l-3.559,11.15
		l-0.498-0.085l-19.66-3.327l-5.549-0.939l3.717-4.948l5.55,0.938l0.817,0.138l0.166-0.986l-0.307-0.052l-5.55-0.938l26.831-35.712
		l-0.375-1.448c-0.383-1.403,0.398-2.421,1.367-2.7c0.59-0.168,1.286-0.078,1.846,0.37l23.121-30.774l18.475,51.611
		c0.52-0.193,1.104-0.308,1.771-0.294l-0.002-0.038l1.283-0.078l-0.37-1.036c-1.348-0.812-2.287-2.243-2.39-3.917
		c-0.042-0.688,0.063-1.352,0.283-1.962l-17.123-47.825l-0.091-0.22c-0.002-0.002-0.027-0.074-0.062-0.141
		c-0.199-0.34-0.505-0.576-0.872-0.681l-0.385-0.058c-0.411,0.007-0.734,0.126-0.991,0.337c-0.042,0.045-0.084,0.087-0.129,0.129
		c-0.016,0.017-0.075,0.069-0.127,0.132l-55.397,73.738l-2.296-0.388l-0.166,0.986l1.785,0.302l-3.886,5.173
		c-0.651,0.144-1.259,0.472-1.723,1.006c-0.719,0.846-0.94,1.979-0.589,3.037c0.569,1.668,1.217,3.294,1.928,4.882
		c7.688,17.173,23.437,29.503,42.198,32.677c9.937,1.682,19.919,0.652,29.031-2.716c0.161-0.06,0.323-0.117,0.483-0.179
		c0.008,0.203,0.043,0.42,0.13,0.656l7.086,18.245l-0.259,0.101l-0.004,33.332c0,1.201,0.976,2.178,2.176,2.178
		c1.201,0,2.178-0.636,2.178-1.836l0.002-20.27h1.581l-0.007,20.27c0,1.2,0.977,2.006,2.177,2.006s2.176-1.062,2.176-2.262
		l0.011-35.511c0-1.609-0.722-5.374-4.569-5.374l-5.8-0.024v-0.019l0.072,0.086l-4.236-11.923c-0.101-0.274-0.156-0.494-0.307-0.666
		c0.154-0.067,0.347-0.138,0.501-0.207c1.415-0.632,2.827-1.314,4.188-2.062c0.146-0.08,0.301-0.166,0.448-0.248l2.231,5.839
		c0.7-0.573,1.559-0.947,2.506-1.054l-2.168-6.248c-0.007-0.018-0.015-0.03-0.022-0.047c0.141-0.09,0.284-0.176,0.424-0.267
		c4.367-2.81,8.373-6.243,11.888-10.24C166.742,150.735,167.444,149.902,168.117,149.041z M108.519,122.917l1.98,0.634l0.835,11.188
		l-0.508-0.086l-5.244-0.887l-0.498-0.084L108.519,122.917z M157.502,130.112l2.156-0.131l0.016,0.25l0.776,12.819l-0.507-0.085
		l-1.172-0.199l-0.507-0.086L157.502,130.112z"/>
	<rect x="151.5" y="226.5" fill="#FFFFFF" width="1" height="6"/>
	<rect x="158.5" y="226.5" fill="#FFFFFF" width="1" height="11"/>
	<rect x="156.5" y="223.5" fill="#FFFFFF" width="1" height="11"/>
</g>
</svg>
