<?xml version="1.0" encoding="utf-8"?>
<!-- Generator: Adobe Illustrator 16.0.0, SVG Export Plug-In . SVG Version: 6.00 Build 0)  -->
<!DOCTYPE svg PUBLIC "-//W3C//DTD SVG 1.1//EN" "http://www.w3.org/Graphics/SVG/1.1/DTD/svg11.dtd">
<svg version="1.1" id="Layer_1" xmlns="http://www.w3.org/2000/svg" xmlns:xlink="http://www.w3.org/1999/xlink" x="0px" y="0px"
	 width="36px" height="36px" viewBox="0 0 36 36" enable-background="new 0 0 36 36" xml:space="preserve">
<g>
	<path fill="#FFFFFF" d="M18,0.088C8.107,0.088,0.089,8.107,0.089,18c0,9.893,8.019,17.912,17.912,17.912
		c9.891,0,17.911-8.019,17.911-17.912C35.911,8.107,27.892,0.088,18,0.088z M15.69,12.821l-4.891,4.891l4.755,4.755L15.55,25.56
		l-7.848-7.849l8.017-8.018L15.69,12.821z M20.411,25.56v-1.667c0-0.405-0.052-0.811-0.056-1.217l-0.028-0.209l4.744-4.756
		l-4.898-4.891l-0.034-3.128l8.07,8.019L20.411,25.56z"/>
	<path fill="#32B9DD" d="M20.172,12.82l4.898,4.891l-4.744,4.756l0.028,0.209c0.004,0.406,0.056,0.812,0.056,1.217v1.667
		l7.797-7.849l-8.07-8.019L20.172,12.82z"/>
	<polygon fill="#32B9DD" points="15.55,25.56 15.554,22.466 10.799,17.711 15.69,12.821 15.719,9.693 7.702,17.711 	"/>
</g>
</svg>
