<?xml version="1.0" encoding="utf-8"?>
<!-- Generator: Adobe Illustrator 16.0.0, SVG Export Plug-In . SVG Version: 6.00 Build 0)  -->
<!DOCTYPE svg PUBLIC "-//W3C//DTD SVG 1.1//EN" "http://www.w3.org/Graphics/SVG/1.1/DTD/svg11.dtd">
<svg version="1.1" id="Layer_1" xmlns="http://www.w3.org/2000/svg" xmlns:xlink="http://www.w3.org/1999/xlink" x="0px" y="0px"
	 width="51.591px" height="112.514px" viewBox="0 0 51.591 112.514" enable-background="new 0 0 51.591 112.514"
	 xml:space="preserve">
<g>
	<path fill="#FFFFFF" d="M33.51,20.306c6.409,0,9.01,5.282,9.981,8.194l7.874,25.887c1.571,5.568-5.511,7.874-7.2,2.448
		l-7.086-23.769h-2.062l12.282,42.28H35.983v32.963c0,5.621-8.454,5.592-8.454,0v-33.18h-3.447l0.006,33.133
		c0,5.668-8.489,5.668-8.489,0l-0.003-32.916H4.246l12.185-42.28h-1.906L7.438,56.918c-1.688,5.199-8.832,3.066-7.196-2.507
		L8.109,28.5c0.843-2.953,3.427-8.194,9.896-8.194H33.51z"/>
	<circle fill="#FFFFFF" cx="25.802" cy="9.186" r="9.186"/>
</g>
</svg>
