<?xml version="1.0" encoding="utf-8"?>
<!-- Generator: Adobe Illustrator 16.0.0, SVG Export Plug-In . SVG Version: 6.00 Build 0)  -->
<!DOCTYPE svg PUBLIC "-//W3C//DTD SVG 1.1//EN" "http://www.w3.org/Graphics/SVG/1.1/DTD/svg11.dtd">
<svg version="1.1" id="Layer_1" xmlns="http://www.w3.org/2000/svg" xmlns:xlink="http://www.w3.org/1999/xlink" x="0px" y="0px"
	 width="1526.172px" height="404.062px" viewBox="0 0 1526.172 404.062" enable-background="new 0 0 1526.172 404.062"
	 xml:space="preserve">
<g>
	<g>
		<line fill="none" stroke="#54B9BA" stroke-miterlimit="10" x1="518.543" y1="86.796" x2="625.561" y2="102.281"/>
		<line fill="none" stroke="#54B9BA" stroke-miterlimit="10" x1="625.561" y1="102.281" x2="517.059" y2="116.148"/>
		<g>
			<g>
				<path fill="#E24D42" d="M715.417,92.503c-0.383-5.473-0.959-9.744-1.338-9.721c-0.371,0.023-0.416,4.213-0.119,9.584
					c-0.086,0.002-0.158-0.01-0.238-0.006c-1.645-0.75-11.774-0.965-15.407-1.16c-1.895-2.969-6.076-3.451-6.076-3.451
					s-0.467-2.904-3.238-2.459c-0.949,0.154-9.721,1.252-12.461,1.633c-2.746,0.389-10.059,6.715-10.059,6.715l1.143-1.91
					c-2.355,1.115-4.766,2.873-4.766,2.873s-17.301,1.457-24.654,0.615c-2.629-0.303-10.414-8.416-12.008-9.809
					c-1.595-1.389-2.105-1.465-3.517-1.375c-0.771,0.049-4.678,0.295-8.045,0.506c1.99,4.004,6.057,12.221,7.293,14.705l2.943-0.121
					l-3.336,1.201c-0.377,0.311-0.691,0.734-0.279,1.131c4.375,4.238,47.617,4.504,59.756,4.793l0.621,4.15
					c-1.424,0.436-2.443,1.742-2.346,3.293c0.113,1.814,1.678,3.193,3.496,3.08c1.811-0.115,3.193-1.678,3.08-3.492
					c-0.093-1.469-1.154-2.609-2.517-2.947l-0.176-4.047c0.148-0.002,0.311,0.004,0.441,0.006c5.398,0.012,14.188-0.992,20.367-2.1
					l0.509,1.812c-0.775,0.297-1.31,1.039-1.255,1.91c0.07,1.068,0.988,1.887,2.061,1.816c1.074-0.066,1.887-0.992,1.818-2.062
					c-0.057-0.922-0.756-1.611-1.637-1.754l-0.645-1.879c2.672-0.504,4.762-1.021,5.697-1.467c1.871-1.936,2.945-5.123,3.284-6.26
					c0.052,0,0.104,0,0.154-0.002c0.082-0.008,0.152-0.027,0.23-0.035c0.381,5.748,0.986,10.318,1.381,10.293
					c0.396-0.023,0.418-4.75,0.061-10.613c1.881-0.643,3.184-1.928,3.184-1.928S717.366,92.906,715.417,92.503z"/>
			</g>
			<path fill="#A7E9E4" d="M678.398,94.671c0.045,0.717-0.42,0.965-0.928,1.012c-0.475,0.045-6.791,0.348-7.86,0.309
				c-1.066-0.039-0.308-1.854-0.011-2.467c0.291-0.594,0.554-0.98,1.703-1.232c1.367-0.301,4.914-0.508,5.857-0.676
				c0.947-0.164,1.094,0.184,1.18,0.949C678.379,92.89,678.352,93.906,678.398,94.671z"/>
			<path fill="#F9AFAF" d="M683.871,113.404c0.045,0.721-0.504,1.34-1.219,1.385c-0.716,0.045-1.337-0.5-1.382-1.219
				c-0.045-0.721,0.502-1.342,1.221-1.383C683.203,112.138,683.826,112.685,683.871,113.404z"/>
			<path fill="#A7E9E4" d="M681.16,95.582c-0.795,0.014-1.049-0.559-1.08-1.059c-0.031-0.506-0.1-1.568-0.146-2.289
				c-0.043-0.717,0.41-0.994,1.092-1.037l7.93-0.865l0.76,4.758C689.713,95.089,682.4,95.56,681.16,95.582z"/>
			<path fill="#A7E9E4" d="M697.73,92.433c-1.664,2.316-4.911,2.412-5.863,2.471l-1.025-5.271c0.521-0.062,0.898-0.555,1.084-1.121
				l0.012,0.014l0.173,0.021c0.036,0.004,3.989,0.498,5.735,3.242C697.846,91.789,697.977,92.089,697.73,92.433z"/>
			<path fill="#F9AFAF" d="M705.121,107.021c0.43-0.025,0.791,0.297,0.816,0.723c0.027,0.422-0.295,0.791-0.721,0.816
				c-0.42,0.025-0.791-0.297-0.816-0.721C704.373,107.416,704.699,107.046,705.121,107.021z"/>
		</g>
		<path fill="#D8483D" d="M248.846,91.005c0,0-20.158-5.627-21.717-8.281c0,0,8.365,20.902,11.559,24.064
			c0,0-9.072,9.828-10.95,15.436c0,0,10.036,7.082,23.563,8.584L248.846,91.005z"/>
		<path fill="#E24D42" d="M514.197,75.353c0,0-19.424-4.9-64.588-1.992c-41.1,2.65-84.691,14.336-112.086,15.49
			c-57.5,2.424-89.967-6.527-89.967-6.527l3.451,54.961c0,0,37.869,8.041,70.469,6.67c32.598-1.375,74.246-14.613,115.643-17.248
			c39.797-2.531,79.377,3.209,79.377,3.209L514.197,75.353z"/>
		<path fill="#D8483D" d="M512.59,129.695c0.021,1.547,1.561,2.777,3.437,2.75l0,0c1.877-0.029,3.381-1.305,3.358-2.85
			l-0.809-54.256c-0.023-1.545-1.564-2.775-3.439-2.746l0,0c-1.877,0.029-3.381,1.303-3.358,2.848L512.59,129.695z"/>
	</g>
	<g>
		<path fill="#FFFFFF" d="M278.029,115.144c0.079,3.08-0.367,6.369-1.332,9.861c-1.488-0.037-2.973-0.09-4.459-0.162
			c1.106-3.01,1.618-6.283,1.528-9.818c-0.051-1.965-0.1-3.932-0.148-5.898c-0.055-2.092-0.756-3.162-2.107-3.232
			c-1.734-0.094-2.576,0.889-2.524,2.982c0.049,1.967,0.098,3.936,0.151,5.902c0.041,1.736,0.244,3.438,0.604,5.092
			c0.359,1.658,0.879,3.301,1.555,4.924c-1.496-0.082-2.99-0.182-4.484-0.303c-1.221-3.506-1.871-6.863-1.951-10.055
			c-0.043-1.66-0.086-3.326-0.127-4.99c-0.123-4.818,2.111-6.959,6.697-6.705c4.193,0.217,6.352,2.613,6.472,7.42
			C277.945,111.822,277.986,113.486,278.029,115.144z"/>
		<path fill="#FFFFFF" d="M298.178,120.589c0.152,4.086-1.943,6.094-6.289,5.818c-4.283-0.289-6.496-2.424-6.637-6.186
			c0.012-1.133,0.021-2.266,0.033-3.398c1.357,0.135,2.715,0.256,4.074,0.361c-0.031,1.119-0.064,2.238-0.096,3.357
			c0.076,1.814,0.914,2.791,2.513,2.896c1.836,0.119,2.721-0.777,2.651-2.656c-0.061-1.654-0.123-3.309-0.186-4.961
			c-0.771,0.393-1.633,0.551-2.584,0.473c-4.152-0.264-6.299-2.381-6.439-6.145c-0.006-0.152-0.012-0.305-0.016-0.455
			c-0.051-1.357,0.266-2.932,0.951-4.736c1.555,0.146,3.11,0.273,4.665,0.383c-1.104,1.994-1.637,3.518-1.596,4.586
			c0.006,0.154,0.012,0.312,0.018,0.467c0.07,1.873,0.789,2.869,2.16,2.971c1.271,0.086,2.178-0.223,2.715-0.906
			c-0.086-2.309-0.172-4.619-0.258-6.93c1.253,0.066,2.51,0.125,3.764,0.17C297.807,110.662,297.992,115.625,298.178,120.589z"/>
		<path fill="#FFFFFF" d="M318.283,116.835c0.109,2.904-0.271,6.043-1.137,9.404c-1.396,0.061-2.793,0.113-4.189,0.154
			c1.004-2.924,1.445-6.059,1.322-9.393c-0.072-1.855-0.14-3.711-0.21-5.566c-0.072-1.975-0.744-2.936-2.014-2.902
			c-1.631,0.041-2.41,1.039-2.336,3.016c0.068,1.855,0.139,3.713,0.209,5.566c0.06,1.641,0.27,3.23,0.627,4.768
			c0.357,1.539,0.863,3.053,1.518,4.535c-1.406,0.035-2.811,0.059-4.215,0.074c-1.188-3.215-1.836-6.33-1.949-9.338
			c-0.059-1.57-0.117-3.141-0.176-4.711c-0.17-4.539,1.9-6.777,6.211-6.885c3.939-0.109,5.994,2.037,6.164,6.57
			C318.166,113.697,318.225,115.265,318.283,116.835z"/>
		<path fill="#FFFFFF" d="M327.721,122.455c0.67-0.572,1.361-1.023,2.082-1.357c-1.213-1.215-2.197-2.553-2.953-4.01
			c-0.758-1.453-1.166-2.992-1.227-4.613c-0.016-0.416-0.031-0.836-0.047-1.252c-0.158-4.236,1.756-6.482,5.742-6.844
			c1.301-0.121,2.542,0.242,3.725,1.088c0.449-0.521,1.014-0.924,1.699-1.207c0.682-0.281,1.508-0.477,2.473-0.588
			c4.229-0.482,6.426,1.383,6.586,5.686c0.021,0.568,0.043,1.135,0.064,1.705c0.172,4.605-1.85,7.332-6.07,8.088
			c-4.141,0.217-6.299-2.037-6.473-6.664c-0.018-0.453-0.035-0.906-0.051-1.361c-0.036-0.924,0.072-1.82,0.316-2.691
			c-0.547-0.801-1.229-1.16-2.049-1.084c-1.383,0.129-2.033,1.266-1.951,3.426c0.014,0.381,0.027,0.762,0.043,1.139
			c0.064,1.729,0.57,3.475,1.52,5.24s2.518,2.832,4.707,3.18c4.469,0.195,6.75,1.395,6.846,3.709
			c-1.641,0.197-3.281,0.389-4.922,0.568c-0.176-1.213-1.398-1.701-3.668-1.49c-1.684,0.184-3.162,0.918-4.436,2.211
			C329.025,124.375,328.373,123.414,327.721,122.455z M341.795,110.369c-0.1-2.666-0.922-3.904-2.469-3.727
			c-1.48,0.166-2.182,1.408-2.102,3.73c0.021,0.588,0.043,1.178,0.064,1.768c0.09,2.836,0.887,4.178,2.393,4.008
			c1.547-0.18,2.271-1.576,2.174-4.186C341.836,111.433,341.816,110.902,341.795,110.369z"/>
		<path fill="#FFFFFF" d="M365.816,111.394c0.109,2.9-0.271,6.08-1.135,9.545c-1.395,0.219-2.789,0.436-4.184,0.646
			c1.004-3.053,1.443-6.242,1.32-9.566c-0.07-1.85-0.139-3.701-0.209-5.553c-0.074-1.969-0.744-2.854-2.012-2.662
			c-1.627,0.248-2.404,1.352-2.33,3.32c0.068,1.85,0.139,3.699,0.207,5.551c0.062,1.633,0.27,3.199,0.627,4.695
			c0.355,1.496,0.861,2.943,1.514,4.35c-1.402,0.213-2.805,0.42-4.207,0.623c-1.184-3.057-1.832-6.084-1.945-9.084
			c-0.059-1.566-0.117-3.129-0.176-4.693c-0.17-4.521,1.898-7.076,6.199-7.727c3.934-0.598,5.985,1.342,6.155,5.863
			C365.699,108.265,365.758,109.83,365.816,111.394z"/>
		<path fill="#FFFFFF" d="M400.064,107.894c0.189,5.051-1.871,7.912-6.18,8.615c-4.309,0.707-6.559-1.457-6.746-6.504
			c-0.01-0.229-0.018-0.457-0.028-0.686c-0.144-3.838,1.428-6.383,4.713-7.621c-0.004-0.953-0.234-1.527-0.693-1.721
			c-1.348-0.584-2.062-1.855-2.143-3.814c1.403-0.232,2.805-0.465,4.207-0.691c0.043,1.15,0.362,1.887,0.959,2.209
			c0.907,0.492,1.385,1.371,1.432,2.639c-0.01,0.295-0.02,0.594-0.029,0.891c2.834,0.328,4.328,2.354,4.484,6.059
			C400.049,107.478,400.057,107.685,400.064,107.894z M396.125,107.492c-0.09-2.441-0.988-3.527-2.688-3.248
			c-1.625,0.316-2.398,1.752-2.318,4.301c0.012,0.324,0.023,0.645,0.035,0.969c0.112,2.965,0.985,4.312,2.62,4.041
			c1.709-0.277,2.508-1.877,2.4-4.801C396.158,108.333,396.143,107.912,396.125,107.492z"/>
		<path fill="#FFFFFF" d="M419.816,102.898c0.107,2.902-0.271,6.07-1.137,9.51c-1.395,0.184-2.789,0.373-4.184,0.568
			c1.004-3.039,1.443-6.219,1.32-9.547c-0.07-1.85-0.139-3.701-0.209-5.551c-0.074-1.969-0.744-2.869-2.012-2.691
			c-1.627,0.229-2.404,1.334-2.332,3.301c0.07,1.852,0.138,3.703,0.209,5.553c0.061,1.635,0.27,3.199,0.627,4.697
			c0.355,1.498,0.861,2.951,1.514,4.361c-1.402,0.197-2.805,0.4-4.207,0.607c-1.184-3.055-1.832-6.076-1.945-9.076
			c-0.059-1.564-0.117-3.129-0.176-4.691c-0.17-4.516,1.896-7.111,6.197-7.717c3.936-0.553,5.986,1.461,6.156,5.982
			C419.699,99.767,419.756,101.333,419.816,102.898z"/>
		<path fill="#FFFFFF" d="M440.734,104.244c0.154,4.139-1.956,6.344-6.324,6.748c-4.256,0.402-6.461-1.408-6.615-5.543
			c-0.123-3.254-0.244-6.508-0.365-9.762c-0.125-3.334,1.406-5.191,4.599-5.51c2.274-0.227,4.549-0.43,6.825-0.611
			c0.037,0.994,0.076,1.988,0.113,2.982c-2.26,0.18-4.518,0.381-6.777,0.605c-0.704,0.068-1.029,0.793-0.979,2.168
			c0.014,0.398,0.029,0.799,0.045,1.201c1.305-0.445,2.176-0.684,2.609-0.725c4.354-0.406,6.609,1.492,6.762,5.572
			C440.662,102.33,440.697,103.287,440.734,104.244z M436.732,101.98c-0.082-2.184-1.006-3.203-2.773-3.037
			c-0.885,0.084-1.703,0.346-2.461,0.781c0.066,1.73,0.131,3.461,0.195,5.189c0.083,2.242,1.001,3.271,2.754,3.107
			c1.668-0.156,2.463-1.287,2.385-3.414C436.799,103.73,436.766,102.853,436.732,101.98z"/>
		<path fill="#FFFFFF" d="M461.15,102.843c0.169,4.564-1.869,6.809-6.111,6.898c-4.393,0.105-6.672-2.059-6.844-6.656
			c-0.021-0.541-0.041-1.082-0.06-1.623c0.217-1.207,0.434-2.414,0.652-3.623c1.387-0.064,2.775-0.117,4.164-0.158
			c-0.262,1.34-0.523,2.68-0.785,4.021c0.027,0.713,0.055,1.426,0.08,2.139c0.076,2.008,0.969,2.977,2.682,2.939
			c1.639-0.037,2.418-1.09,2.34-3.18c-0.037-0.992-0.074-1.982-0.111-2.975c-0.066-1.803-1.084-3.576-3.051-5.291
			c-1.967-1.713-2.998-3.857-3.096-6.471c1.305-0.049,2.613-0.088,3.918-0.117c0.082,1.959,1.104,3.91,3.068,5.893
			c1.963,1.982,2.992,4.119,3.084,6.371C461.104,101.623,461.127,102.234,461.15,102.843z"/>
		<path fill="#FFFFFF" d="M481.986,103.353c0.161,4.275-1.953,6.137-6.334,5.816c-4.265-0.299-6.49-2.822-6.675-7.777
			c-0.17-4.529-0.338-9.061-0.508-13.588c1.303,0.049,2.607,0.109,3.912,0.182c0.184,4.932,0.367,9.859,0.553,14.789
			c0.082,2.176,0.959,3.309,2.633,3.426c1.753,0.127,2.602-0.631,2.539-2.307c-0.02-0.535-0.039-1.068-0.059-1.602
			c-0.049-1.297-0.576-2.488-1.576-3.559c-1-1.072-1.541-2.359-1.623-3.871c0.17-1.012,0.342-2.023,0.513-3.035
			c1.407,0.1,2.813,0.215,4.221,0.346c-0.309,1.053-0.617,2.105-0.926,3.16c0.041,1.076,0.582,2.094,1.629,3.064
			c1.047,0.975,1.607,2.459,1.682,4.439C481.973,103.007,481.979,103.181,481.986,103.353z"/>
		<path fill="#FFFFFF" d="M495.432,103.64c-1.664-0.322-3.328-0.621-4.99-0.9c-0.01-0.223-0.018-0.451-0.025-0.678
			c-0.029-0.756,0.1-1.402,0.381-1.938c0.283-0.535,0.895-1.174,1.838-1.904c0.285-0.215,0.57-0.43,0.853-0.641
			c0.508-0.385,0.877-0.764,1.106-1.145c0.226-0.379,0.334-0.779,0.318-1.203c-0.025-0.646-0.264-1.195-0.721-1.645
			c-0.456-0.449-1.081-0.744-1.872-0.885c-0.748-0.133-1.548-0.115-2.402,0.051c-0.855,0.168-1.74,0.484-2.658,0.951
			c-0.055-1.449-0.109-2.895-0.162-4.346c1.1-0.219,2.107-0.346,3.021-0.377c0.916-0.031,1.801,0.031,2.658,0.186
			c2.249,0.404,3.981,1.211,5.194,2.379c1.217,1.166,1.857,2.641,1.922,4.404c0.033,0.906-0.116,1.678-0.448,2.316
			c-0.334,0.639-0.919,1.275-1.755,1.916c-0.283,0.203-0.568,0.408-0.854,0.611c-0.605,0.447-0.998,0.826-1.18,1.135
			s-0.264,0.668-0.248,1.086C495.416,103.222,495.424,103.431,495.432,103.64z M490.518,104.791c1.664,0.275,3.328,0.574,4.99,0.898
			c0.062,1.645,0.123,3.287,0.184,4.932c-1.663-0.322-3.326-0.623-4.99-0.902C490.641,108.076,490.578,106.433,490.518,104.791z"/>
	</g>
</g>
</svg>
