<?xml version="1.0" encoding="utf-8"?>
<!-- Generator: Adobe Illustrator 16.0.0, SVG Export Plug-In . SVG Version: 6.00 Build 0)  -->
<!DOCTYPE svg PUBLIC "-//W3C//DTD SVG 1.1//EN" "http://www.w3.org/Graphics/SVG/1.1/DTD/svg11.dtd">
<svg version="1.1" id="Layer_1" xmlns="http://www.w3.org/2000/svg" xmlns:xlink="http://www.w3.org/1999/xlink" x="0px" y="0px"
	 width="1780px" height="368px" viewBox="24.5 0.479 1780 368" enable-background="new 24.5 0.479 1780 368" xml:space="preserve">
<g display="none">
	
		<image display="inline" overflow="visible" enable-background="new    " width="369" height="369" xlink:href="pattern.jpg"  transform="matrix(1 0 0 1 -1.4119 2.441406e-04)">
	</image>
	<g display="inline">
		
			<image overflow="visible" enable-background="new    " width="369" height="369" xlink:href="pattern.jpg"  transform="matrix(1 0 0 1 365.4241 2.441406e-04)">
		</image>
	</g>
	<g display="inline">
		
			<image overflow="visible" enable-background="new    " width="369" height="369" xlink:href="pattern.jpg"  transform="matrix(1 0 0 1 733.2605 2.441406e-04)">
		</image>
	</g>
	<g display="inline">
		
			<image overflow="visible" enable-background="new    " width="369" height="369" xlink:href="pattern.jpg"  transform="matrix(1 0 0 1 1101.094 2.441406e-04)">
		</image>
	</g>
	<g display="inline">
		
			<image overflow="visible" enable-background="new    " width="369" height="369" xlink:href="pattern.jpg"  transform="matrix(1 0 0 1 1467.9299 2.441406e-04)">
		</image>
	</g>
	<g display="inline">
		
			<image overflow="visible" enable-background="new    " width="369" height="369" xlink:href="pattern.jpg"  transform="matrix(1 0 0 1 1833.7649 2.441406e-04)">
		</image>
	</g>
</g>
<image display="none" overflow="visible" enable-background="new    " width="540" height="70" xlink:href="../plane/gif_plane_eng.gif"  transform="matrix(1 0 0 1 219.0139 36.6331)">
</image>
<g>
	<path fill="#A7E9E4" d="M396.094,37.861h-58.995c-1.255,0-2.272,1.019-2.272,2.273s1.018,2.272,2.272,2.272h58.995
		c1.254,0,2.272-1.018,2.272-2.272S397.348,37.861,396.094,37.861z"/>
	<path fill="#A7E9E4" d="M179.172,69.721h-67.316c-1.434,0-2.596,1.066-2.596,2.38c0,1.316,1.163,2.383,2.596,2.383h67.316
		c1.432,0,2.593-1.065,2.593-2.383C181.765,70.788,180.604,69.721,179.172,69.721z"/>
	<path fill="#A7E9E4" d="M1174.281,113.303h-37.063c-0.789,0-1.431,1.018-1.431,2.273c0,1.255,0.642,2.272,1.431,2.272h37.063
		c0.787,0,1.428-1.018,1.428-2.272C1175.709,114.321,1175.069,113.303,1174.281,113.303z"/>
	<path fill="#A7E9E4" d="M500.995,10.064h-37.062c-0.789,0-1.428,1.019-1.428,2.274c0,1.255,0.639,2.272,1.428,2.272h37.062
		c0.789,0,1.429-1.018,1.429-2.272C502.424,11.082,501.784,10.064,500.995,10.064z"/>
	<path fill="#A7E9E4" d="M893.009,65.279h-37.064c-0.789,0-1.428,1.019-1.428,2.273s0.639,2.273,1.428,2.273h37.064
		c0.789,0,1.428-1.019,1.428-2.273S893.798,65.279,893.009,65.279z"/>
	<path fill="#A7E9E4" d="M60.363,49.529h37.064c0.79,0,1.428-1.018,1.428-2.271c0-1.257-0.639-2.274-1.428-2.274H60.363
		c-0.788,0-1.428,1.019-1.428,2.274C58.936,48.511,59.574,49.529,60.363,49.529z"/>
	<path fill="#A7E9E4" d="M1283.273,57.664h-67.316c-1.434,0-2.596,1.065-2.596,2.381c0,1.314,1.162,2.381,2.596,2.381h67.316
		c1.432,0,2.594-1.066,2.594-2.381C1285.866,58.73,1284.704,57.664,1283.273,57.664z"/>
	<path fill="#A7E9E4" d="M1576.964,69.83H1539.9c-0.789,0-1.43,1.018-1.43,2.272c0,1.256,0.641,2.273,1.43,2.273h37.064
		c0.786,0,1.428-1.019,1.428-2.273S1577.75,69.83,1576.964,69.83z"/>
	<path fill="#A7E9E4" d="M1669.976,47.148h-47.061c-1.002,0-1.813,1.066-1.813,2.381c0,1.315,0.812,2.382,1.813,2.382h47.061
		c1.001,0,1.812-1.066,1.812-2.382C1671.788,48.214,1670.977,47.148,1669.976,47.148z"/>
</g>
</svg>
