<?xml version="1.0" encoding="utf-8"?>
<!-- Generator: Adobe Illustrator 16.0.0, SVG Export Plug-In . SVG Version: 6.00 Build 0)  -->
<!DOCTYPE svg PUBLIC "-//W3C//DTD SVG 1.1//EN" "http://www.w3.org/Graphics/SVG/1.1/DTD/svg11.dtd">
<svg version="1.1" id="Layer_1" xmlns="http://www.w3.org/2000/svg" xmlns:xlink="http://www.w3.org/1999/xlink" x="0px" y="0px"
	 width="1780px" height="368px" viewBox="24.5 0.479 1780 368" enable-background="new 24.5 0.479 1780 368" xml:space="preserve">
<g display="none">
	
		<image display="inline" overflow="visible" enable-background="new    " width="369" height="369" xlink:href="pattern.jpg"  transform="matrix(1 0 0 1 -1.4119 2.441406e-04)">
	</image>
	<g display="inline">
		
			<image overflow="visible" enable-background="new    " width="369" height="369" xlink:href="pattern.jpg"  transform="matrix(1 0 0 1 365.4241 2.441406e-04)">
		</image>
	</g>
	<g display="inline">
		
			<image overflow="visible" enable-background="new    " width="369" height="369" xlink:href="pattern.jpg"  transform="matrix(1 0 0 1 733.2605 2.441406e-04)">
		</image>
	</g>
	<g display="inline">
		
			<image overflow="visible" enable-background="new    " width="369" height="369" xlink:href="pattern.jpg"  transform="matrix(1 0 0 1 1101.094 2.441406e-04)">
		</image>
	</g>
	<g display="inline">
		
			<image overflow="visible" enable-background="new    " width="369" height="369" xlink:href="pattern.jpg"  transform="matrix(1 0 0 1 1467.9299 2.441406e-04)">
		</image>
	</g>
	<g display="inline">
		
			<image overflow="visible" enable-background="new    " width="369" height="369" xlink:href="pattern.jpg"  transform="matrix(1 0 0 1 1833.7649 2.441406e-04)">
		</image>
	</g>
</g>
<polygon opacity="0.1" fill="#22272A" enable-background="new    " points="1689.909,369.199 1551.65,369.199 1551.65,178.212 
	1575.586,178.212 1575.615,168.854 1665.07,168.854 1665.111,178.212 1689.909,178.212 "/>
<polygon opacity="0.1" fill="#22272A" enable-background="new    " points="1319.385,368.897 1224.775,368.897 1224.775,221.701 
	1244.484,221.701 1244.506,214.49 1318.166,214.49 1318.198,221.701 "/>
<polygon opacity="0.1" fill="#22272A" enable-background="new    " points="1089.503,146.292 1089.503,78.538 1088.947,78.538 
	1057.75,78.538 1019.427,78.538 1019.427,99.07 1019.639,99.07 1019.639,368.53 1127.057,368.53 1127.057,146.292 "/>
<polygon opacity="0.1" fill="#22272A" enable-background="new    " points="748.614,235.977 748.614,368.53 835.89,368.53 
	835.89,207.811 836.062,207.811 836.062,195.565 804.925,195.565 763.291,195.565 762.839,195.565 762.839,235.977 "/>
<polygon opacity="0.1" fill="#22272A" enable-background="new    " points="443.251,369.199 370.407,369.199 370.407,242.36 
	370.407,242.36 370.421,236.146 430.163,236.146 430.185,246.825 443.251,246.825 "/>
<polygon opacity="0.1" fill="#22272A" enable-background="new    " points="646.119,369.413 552.822,369.413 552.822,181.163 
	556.09,181.163 556.109,155.535 639.348,155.535 639.375,181.163 646.119,181.163 "/>
<polygon opacity="0.1" fill="#22272A" enable-background="new    " points="142.598,369.413 204.483,369.413 204.483,275.027 
	193.769,275.027 193.756,270.402 153.716,270.402 153.697,275.027 142.598,275.027 "/>
<image display="none" overflow="visible" enable-background="new    " width="540" height="70" xlink:href="../plane/gif_plane_eng.gif"  transform="matrix(1 0 0 1 219.0139 36.6331)">
</image>
<path fill="none" d="M372.182,330.021c0.165-0.171,0.25-0.258,0.25-0.258s0.078-0.099,0.225-0.281
	c0.146-0.184,0.348-0.463,0.563-0.841c0.226-0.368,0.447-0.859,0.57-1.446c0.056-0.289,0.1-0.61,0.092-0.941
	c0.007,0.331-0.036,0.652-0.092,0.94c-0.123,0.587-0.345,1.078-0.57,1.446c-0.216,0.378-0.417,0.657-0.563,0.841
	c-0.146,0.183-0.225,0.281-0.225,0.281S372.347,329.849,372.182,330.021c-0.161,0.171-0.413,0.404-0.75,0.679
	c-0.335,0.272-0.774,0.58-1.312,0.859c-0.538,0.28-1.172,0.529-1.895,0.684c-0.714,0.146-1.517,0.22-2.302,0.061
	c-0.386-0.065-0.794-0.229-1.1-0.394c-0.2-0.119-0.394-0.248-0.5-0.363c-0.124-0.119-0.267-0.271-0.357-0.432
	c-0.413-0.634-0.439-1.471-0.202-2.275c0.239-0.806,0.716-1.591,1.32-2.272c0.132-0.137,0.336-0.38,0.487-0.515
	c0.151-0.144,0.302-0.287,0.478-0.43c-0.177,0.143-0.328,0.287-0.481,0.431c-0.149,0.134-0.354,0.377-0.484,0.515
	c-0.605,0.679-1.081,1.464-1.32,2.272c-0.239,0.804-0.212,1.641,0.201,2.275c0.091,0.163,0.234,0.313,0.357,0.432
	c0.107,0.114,0.301,0.241,0.5,0.363c0.306,0.165,0.714,0.331,1.098,0.394c0.786,0.16,1.59,0.086,2.305-0.061
	c0.724-0.154,1.358-0.404,1.896-0.684c0.536-0.279,0.978-0.587,1.312-0.859C371.769,330.425,372.021,330.193,372.182,330.021z"/>
</svg>
