<?xml version="1.0" encoding="utf-8"?>
<!-- Generator: Adobe Illustrator 16.0.0, SVG Export Plug-In . SVG Version: 6.00 Build 0)  -->
<!DOCTYPE svg PUBLIC "-//W3C//DTD SVG 1.1//EN" "http://www.w3.org/Graphics/SVG/1.1/DTD/svg11.dtd">
<svg version="1.1" id="Layer_1" xmlns="http://www.w3.org/2000/svg" xmlns:xlink="http://www.w3.org/1999/xlink" x="0px" y="0px"
	 width="159.508px" height="42.105px" viewBox="0 0 159.508 42.105" enable-background="new 0 0 159.508 42.105"
	 xml:space="preserve">
<g>
	<g>
		<path fill="none" d="M33.349,4.005c-1.31,1.734-2.633,3.463-3.921,5.197C30.716,7.468,32.039,5.739,33.349,4.005z"/>
		<path fill="none" d="M32.713,16.841c-0.235-0.657-1.045-2.193-1.131-2.328c-0.503-0.817-1.092-1.534-1.746-2.193
			c-0.521-0.525-1.097-0.968-1.689-1.382c-0.879-0.619-1.818-1.14-2.816-1.506c-1.353-0.503-2.774-0.762-4.22-0.768l0.021-4.332
			L21.11,8.663c-1.289-0.009-2.582,0.134-3.845,0.542c-0.474,0.149-0.926,0.388-1.387,0.597c-0.32,0.147-1.937,1.088-2.394,1.442
			c-0.286,0.222-0.581,0.433-0.845,0.679c-0.102,0.1-0.196,0.211-0.298,0.313c-0.568,0.563-1.076,1.169-1.52,1.82
			c-0.9,1.323-1.527,2.787-1.869,4.333c-0.308,1.402-0.397,2.853-0.205,4.301c0.124,0.917,0.375,1.822,0.713,2.712
			c0.128,0.337,0.277,0.666,0.435,0.99c0.094,0.194,0.158,0.389,0.26,0.578c0.039,0.068,0.051,0.143,0.09,0.209
			c0.892,1.564,2.086,2.848,3.443,3.849c1.506,1.104,3.226,1.813,5.036,2.161c1.724,0.333,3.503,0.294,5.253-0.13
			c1.097-0.27,2.18-0.636,3.217-1.221l0.004-0.002c0.755-0.434,1.446-0.939,2.082-1.494c0.559-0.494,1.062-1.043,1.52-1.617
			c1.13-1.438,1.898-3.091,2.312-4.847v-0.002c0.329-1.402,0.453-2.851,0.277-4.304c-0.021-0.211-0.06-0.418-0.103-0.636
			C33.174,18.234,32.964,17.53,32.713,16.841z"/>
		<path fill="#C42F30" d="M12.341,12.236c0.102-0.103,0.196-0.213,0.298-0.313L6.785,5.575c-0.23,0.213-0.312,0.286-0.533,0.503
			C5.339,6.992,4.4,8.114,3.674,9.181l7.147,4.875C11.266,13.405,11.773,12.799,12.341,12.236z"/>
		<path fill="#F5B72A" d="M10.822,14.056L3.674,9.181c-1.643,2.409-2.556,4.519-3.17,7.365l0,0l8.449,1.843
			C9.294,16.843,9.922,15.379,10.822,14.056z"/>
		<path fill="#EA5E2F" d="M8.953,18.39l-8.449-1.843H0.5c-0.55,2.535-0.644,4.734-0.29,7.299l8.539-1.154
			C8.556,21.242,8.646,19.792,8.953,18.39z"/>
		<path fill="#C42F30" d="M8.748,22.691l-8.539,1.154H0.205c0.213,1.596,0.598,3.102,1.169,4.617l8.086-3.059
			C9.124,24.513,8.872,23.608,8.748,22.691z"/>
		<path fill="#EE5F2D" d="M9.461,25.403l-8.086,3.059c0.226,0.592,0.448,1.107,0.721,1.684l7.8-3.753
			C9.738,26.068,9.589,25.74,9.461,25.403z"/>
		<path fill="#C42F30" d="M9.896,26.393l-7.8,3.753c0.184,0.369,0.367,0.736,0.567,1.086c2.471-1.403,4.86-2.763,7.493-4.261
			C10.054,26.781,9.99,26.587,9.896,26.393z"/>
		<path fill="#F5B72A" d="M10.246,27.18c-0.039-0.066-0.051-0.141-0.09-0.209c-2.633,1.498-5.022,2.857-7.493,4.261
			c1.477,2.699,3.397,4.876,5.932,6.738l5.095-6.94C12.333,30.028,11.138,28.744,10.246,27.18z"/>
		<path fill="#C42F30" d="M13.689,31.029l-5.095,6.94l0.004,0.002c2.548,1.867,5.253,3.106,8.082,3.704
			c0.679-2.829,1.361-5.656,2.044-8.485C16.916,32.843,15.196,32.134,13.689,31.029z"/>
		<path fill="#F5B72A" d="M18.725,33.19c-0.683,2.829-1.366,5.656-2.044,8.485c2.983,0.636,6.111,0.569,9.345-0.224l-2.048-8.392
			C22.228,33.484,20.449,33.523,18.725,33.19z"/>
		<path fill="#C42F30" d="M27.2,31.838c1.408,2.481,2.816,4.96,4.25,7.484c1.259-0.706,2.441-1.545,3.533-2.524
			c-1.903-2.154-3.798-4.301-5.701-6.454C28.646,30.898,27.955,31.404,27.2,31.838z"/>
		<path fill="#EA5E2F" d="M27.195,31.84c-1.037,0.585-2.121,0.951-3.217,1.221l2.048,8.392c1.967-0.479,3.768-1.195,5.424-2.13
			c-1.434-2.524-2.842-5.003-4.25-7.484L27.195,31.84z"/>
		<path fill="#F5B72A" d="M29.282,30.344c1.903,2.153,3.798,4.3,5.701,6.454c0.909-0.821,1.762-1.726,2.561-2.739l-6.742-5.332
			C30.344,29.301,29.841,29.85,29.282,30.344z"/>
		<path fill="#C42F30" d="M30.801,28.727l6.742,5.332c2.01-2.545,3.217-5.046,3.964-8.193l-8.394-1.986
			C32.7,25.635,31.932,27.289,30.801,28.727z"/>
		<path fill="#F5B72A" d="M41.926,18.569l-8.535,1.005c0.175,1.453,0.051,2.902-0.277,4.304l8.39,1.982l0.004,0.006
			C42.096,23.339,42.224,21.148,41.926,18.569z"/>
		<polygon fill="#909293" points="33.114,23.877 33.114,23.879 41.507,25.866 41.503,25.859 		"/>
		<path fill="#C42F30" d="M33.391,19.574l8.535-1.005c-0.039-0.305-0.107-0.779-0.158-1.084l-8.479,1.453
			C33.332,19.156,33.37,19.362,33.391,19.574z"/>
		<path fill="#EE5F2D" d="M33.289,18.938l8.479-1.453c-0.217-1.274-0.499-2.332-0.935-3.546l-8.12,2.902
			C32.964,17.53,33.174,18.234,33.289,18.938z"/>
		<path fill="#F5B72A" d="M32.713,16.841l8.12-2.902c-0.538-1.519-1.054-2.586-1.899-3.962l-7.352,4.536
			C31.667,14.647,32.478,16.184,32.713,16.841z"/>
		<path fill="#EE5F2D" d="M31.582,14.513l7.352-4.536c-0.849-1.372-1.817-2.579-2.953-3.731l-6.145,6.074
			C30.49,12.979,31.079,13.696,31.582,14.513z"/>
		<path fill="#C42F30" d="M28.147,10.937c0.593,0.414,1.169,0.857,1.689,1.382l6.145-6.074c-0.858-0.864-1.728-1.581-2.633-2.24
			c-1.31,1.734-2.633,3.463-3.921,5.197C28.996,9.78,28.569,10.359,28.147,10.937z"/>
		<path fill="#EE5F2D" d="M28.147,10.937c0.422-0.578,0.849-1.157,1.28-1.735c1.289-1.734,2.611-3.463,3.921-5.197
			c-1.511-1.101-3.106-1.995-5.01-2.699l-3.008,8.125C26.329,9.797,27.268,10.318,28.147,10.937z"/>
		<path fill="#F5B72A" d="M21.131,4.331L21.11,8.663c1.446,0.006,2.868,0.265,4.22,0.768l3.008-8.125
			c-2.432-0.9-4.6-1.293-7.186-1.306l0,0l0,0L21.131,4.331z"/>
		<path fill="#EA5E2F" d="M21.11,8.663l0.021-4.332L21.153,0l0,0c-2.266-0.008-4.348,0.303-6.503,0.994l2.616,8.21
			C18.529,8.797,19.822,8.654,21.11,8.663z"/>
		<path fill="#C42F30" d="M17.266,9.205l-2.616-8.21c-0.917,0.299-1.515,0.529-2.394,0.928l3.623,7.879
			C16.339,9.593,16.792,9.354,17.266,9.205z"/>
		<path fill="#F5B72A" d="M15.878,9.802l-3.623-7.879c-1.468,0.679-2.799,1.477-4.071,2.466l5.3,6.855
			C13.941,10.89,15.559,9.949,15.878,9.802z"/>
		<path fill="#EA5E2F" d="M13.485,11.244l-5.3-6.855c-0.508,0.389-0.935,0.753-1.4,1.187l5.854,6.348
			C12.904,11.677,13.199,11.466,13.485,11.244z"/>
	</g>
	<g>
		<g>
			<g>
				<path fill="#C42F30" d="M48.476,30.817c-0.768,0-1.297-0.085-1.788-0.17v-2.382c0.341,0.128,0.811,0.212,1.318,0.212
					c1.003,0,1.575-0.427,1.575-1.978V12.053h2.77v14.551C52.351,28.968,51.39,30.817,48.476,30.817z"/>
				<path fill="#C42F30" d="M62.583,26.436c0-0.491,0.021-1.299,0.124-1.895l-0.043-0.021c-0.619,1.254-1.848,2.129-3.571,2.129
					c-2.403,0-3.171-1.534-3.171-3.382v-5.343c-0.512-0.085-1.216-0.173-1.831-0.211v-1.703c1.404-0.171,3.085-0.235,4.553-0.192
					v6.787c0,1.105,0.299,1.765,1.297,1.765c1.382,0,2.466-1.573,2.466-3.424V15.84h2.706v8.488
					c0.512,0.085,1.233,0.172,1.852,0.213v1.703C65.625,26.414,63.987,26.478,62.583,26.436z"/>
				<path fill="#C42F30" d="M82.088,26.414v-6.702c0-1.128-0.252-1.831-1.255-1.831c-1.19,0-2.423,1.404-2.423,3.469v5.063h-2.68
					v-6.702c0-1.043-0.213-1.831-1.259-1.831c-1.255,0-2.424,1.489-2.424,3.469v5.063h-2.706v-8.49
					c-0.508-0.085-1.229-0.173-1.848-0.211v-1.703c1.34-0.171,3-0.235,4.404-0.192c0,0.51-0.042,1.297-0.128,1.916h0.021
					c0.64-1.299,1.916-2.129,3.49-2.129c1.869,0,2.659,1.105,2.915,2.129c0.491-1.045,1.66-2.129,3.443-2.129
					c2.049,0,3.175,1.128,3.175,3.533v7.275H82.088z"/>
				<path fill="#C42F30" d="M86.599,17.713v-1.703c1.34-0.171,2.957-0.235,4.361-0.192c0,0.529-0.021,1.233-0.107,1.784h0.043
					c0.593-1.231,1.724-1.976,3.32-1.976c2.509,0,3.87,1.807,3.87,4.938c0,3.68-1.912,5.997-5.573,5.997
					c-0.512,0-0.917-0.021-1.361-0.083v5.063h-2.705V17.924C87.939,17.839,87.213,17.751,86.599,17.713z M93.426,17.86
					c-1.425,0-2.274,1.658-2.274,3.469v2.936c0.423,0.126,0.871,0.19,1.426,0.19c1.553,0,2.658-0.978,2.658-3.595
					C95.236,18.88,94.66,17.86,93.426,17.86z"/>
				<path fill="#C42F30" d="M102.998,26.649c-1.02,0-2.039-0.109-2.932-0.341l0.167-2.576c0.811,0.28,1.958,0.512,3.004,0.512
					c1.399,0,2.487-0.576,2.487-1.895c0-2.746-6.024-1.489-6.024-6.211c0-2.554,2.022-4.323,5.47-4.323
					c0.812,0,1.746,0.109,2.595,0.258l-0.145,2.424c-0.812-0.233-1.703-0.382-2.573-0.382c-1.601,0-2.407,0.723-2.407,1.743
					c0,2.577,6.043,1.617,6.043,6.108C108.682,24.667,106.531,26.649,102.998,26.649z"/>
				<path fill="#C42F30" d="M114.575,26.629c-2.343,0-3.063-0.855-3.063-3.322v-5.362h-1.831V15.84h1.81v-3.253l2.723-0.728v3.981
					h2.572v2.106h-2.572v4.639c0,1.363,0.319,1.743,1.254,1.743c0.448,0,0.935-0.062,1.318-0.169v2.191
					C116.107,26.521,115.317,26.629,114.575,26.629z"/>
				<path fill="#C42F30" d="M124.658,26.436c0-0.615,0.021-1.257,0.103-1.81l-0.017-0.021c-0.513,1.19-1.81,2.024-3.384,2.024
					c-1.916,0-3.021-1.088-3.021-2.789c0-2.532,2.514-3.875,6.106-3.875v-0.574c0-1.107-0.533-1.679-2.065-1.679
					c-0.956,0-2.231,0.315-3.128,0.826l-0.23-2.272c1.062-0.386,2.424-0.661,3.785-0.661c3.405,0,4.361,1.359,4.361,3.68v5.042
					c0.512,0.085,1.237,0.172,1.852,0.213v1.703C127.679,26.414,126.041,26.478,124.658,26.436z M124.445,21.735
					c-2.872,0-3.512,0.826-3.512,1.679c0,0.681,0.469,1.126,1.259,1.126c1.34,0,2.253-1.273,2.253-2.556V21.735z"/>
				<path fill="#C42F30" d="M133.585,17.967h0.042c0.513-1.342,1.536-2.509,3.363-2.362l-0.129,2.68
					c-1.958-0.403-2.931,0.875-2.931,3.811v4.318h-2.706v-8.49c-0.512-0.085-1.233-0.173-1.852-0.211v-1.703
					c1.34-0.171,2.982-0.235,4.403-0.192C133.777,16.371,133.713,17.223,133.585,17.967z"/>
				<path fill="#C42F30" d="M142.828,26.629c-2.338,0-3.06-0.855-3.06-3.322v-5.362h-1.835V15.84h1.813v-3.253l2.723-0.728v3.981
					h2.573v2.106h-2.573v4.639c0,1.363,0.32,1.743,1.255,1.743c0.448,0,0.935-0.062,1.318-0.169v2.191
					C144.364,26.521,143.575,26.629,142.828,26.629z"/>
			</g>
		</g>
		<path fill="#C42F30" d="M152.95,11.784c-0.627-0.246-1.345-0.395-2.074-0.395c-1.545,0-2.654,0.973-2.654,2.723
			c0,1.658,0.905,2.633,2.492,2.633c0.367,0,0.695-0.049,0.994-0.141v-2.723h1.507v3.731c-0.776,0.312-1.737,0.484-2.676,0.484
			c-2.479,0-3.951-1.459-3.951-3.845c0-2.458,1.668-4.209,4.382-4.209c0.772,0,1.541,0.143,2.211,0.339L152.95,11.784z"/>
		<path fill="#C42F30" d="M159.461,15.338h-3.567c-0.013,1.082,0.521,1.603,1.587,1.603c0.568,0,1.183-0.128,1.682-0.361
			l0.137,1.148c-0.614,0.241-1.34,0.369-2.062,0.369c-1.83,0-2.851-0.915-2.851-2.942c0-1.763,0.974-3.058,2.701-3.058
			c1.678,0,2.42,1.144,2.42,2.571C159.508,14.865,159.496,15.098,159.461,15.338z M157.042,13.184c-0.614,0-1.041,0.455-1.122,1.148
			h2.116C158.057,13.615,157.665,13.184,157.042,13.184z"/>
	</g>
</g>
</svg>
