<?xml version="1.0" encoding="utf-8"?>
<!-- Generator: Adobe Illustrator 16.0.0, SVG Export Plug-In . SVG Version: 6.00 Build 0)  -->
<!DOCTYPE svg PUBLIC "-//W3C//DTD SVG 1.1//EN" "http://www.w3.org/Graphics/SVG/1.1/DTD/svg11.dtd">
<svg version="1.1" id="Layer_1" xmlns="http://www.w3.org/2000/svg" xmlns:xlink="http://www.w3.org/1999/xlink" x="0px" y="0px"
	 width="43.687px" height="52.37px" viewBox="0 0 43.687 52.37" enable-background="new 0 0 43.687 52.37" xml:space="preserve">
<g id="Armenia_1_">
	<polygon id="polygon2258_1_" fill="#DE435F" points="22.915,24.535 22.991,24.535 23.08,24.599 23.08,24.723 22.979,24.786 
		22.877,24.761 22.852,24.599 	"/>
	<polygon id="polygon2260_1_" fill="#DE435F" points="22.583,23.469 22.838,23.656 23.043,23.845 23.055,23.908 23.043,24.008 
		22.596,24.385 22.557,24.511 22.57,24.647 22.852,25.037 23.233,25.477 23.757,25.79 24.445,26.142 24.496,26.367 24.432,26.631 
		24.369,26.82 24.355,26.932 24.279,26.995 23.642,26.995 23.553,27.032 23.515,27.096 23.527,27.133 23.77,27.208 24.165,27.484 
		24.407,27.76 24.649,27.873 24.918,28.087 25.146,28.287 25.492,28.55 25.811,28.449 26.295,28.677 26.334,28.838 26.334,28.989 
		26.078,29.152 26.053,29.216 26.053,29.265 26.104,29.341 26.295,29.466 26.512,29.654 26.779,29.931 26.69,30.019 26.486,30.03 
		26.32,30.006 26.282,30.057 26.295,30.156 26.537,30.37 26.602,30.52 26.627,30.798 26.69,31.135 26.205,31.122 25.811,31.298 
		25.645,31.273 25.504,30.985 25.377,30.746 25.02,30.144 25.058,29.893 24.892,29.755 24.496,29.492 24.382,29.392 24.42,29.241 
		24.407,28.977 24.343,28.764 24.241,28.688 24.062,28.688 23.846,28.752 23.45,28.965 23.132,28.838 22.94,28.714 22.812,28.601 
		22.608,28.701 22.545,28.65 22.494,28.374 22.404,28.225 22.238,28.049 22.099,27.974 21.664,28.149 21.396,28.212 21.281,28.061 
		20.708,27.534 20.197,27.133 19.866,26.969 19.56,26.995 19.088,27.083 18.896,27.057 18.45,26.882 18.067,26.681 18.105,26.593 
		18.17,26.518 18.041,26.254 17.787,25.815 17.787,25.664 17.697,25.477 17.607,25.339 17.838,24.987 17.914,24.699 17.901,24.435 
		17.787,24.146 17.531,23.645 17.404,23.493 17.174,23.356 16.971,23.142 16.906,22.979 17.047,22.942 17.468,22.93 17.876,22.866 
		18.182,22.754 18.642,22.653 18.82,22.578 19.037,22.528 19.738,22.603 19.98,22.528 20.746,22.502 20.759,22.478 20.645,22.364 
		20.631,22.327 21.078,22.251 21.141,22.188 21.23,22.364 21.435,22.553 21.64,22.628 21.754,22.729 21.767,22.804 21.447,22.918 
		21.435,22.954 21.46,23.005 21.562,23.029 22.072,23.255 22.341,23.255 22.494,23.33 	"/>
	<polygon id="polygon2262_1_" fill="#DE435F" points="21.358,23.092 21.32,23.005 21.244,22.967 21.154,23.005 21.168,23.105 
		21.205,23.193 21.308,23.23 21.358,23.193 	"/>
</g>
</svg>
