<?xml version="1.0" encoding="utf-8"?>
<!-- Generator: Adobe Illustrator 16.0.0, SVG Export Plug-In . SVG Version: 6.00 Build 0)  -->
<!DOCTYPE svg PUBLIC "-//W3C//DTD SVG 1.1//EN" "http://www.w3.org/Graphics/SVG/1.1/DTD/svg11.dtd">
<svg version="1.1" id="Layer_1" xmlns="http://www.w3.org/2000/svg" xmlns:xlink="http://www.w3.org/1999/xlink" x="0px" y="0px"
	 width="43.687px" height="52.37px" viewBox="0 0 43.687 52.37" enable-background="new 0 0 43.687 52.37" xml:space="preserve">
<g id="Azerbaijan">
	<polygon id="polygon2249" fill="#DE435F" points="19.339,27.514 19.319,27.594 19.381,27.648 19.591,27.788 19.681,27.862 
		19.659,27.995 19.851,28.316 19.919,28.445 19.992,28.599 19.693,28.538 19.155,28.417 18.999,28.357 18.836,28.176 18.747,28.088 
		18.61,27.981 18.502,27.941 18.421,27.862 18.359,27.748 18.284,27.648 18.155,27.526 17.855,27.119 17.814,27.071 17.753,27.004 
		17.726,26.964 17.869,26.93 18.101,26.837 18.176,26.877 18.264,26.972 18.312,27.052 18.339,27.199 18.372,27.226 18.481,27.172 
		18.55,27.232 18.652,27.3 18.822,27.366 19.033,27.252 19.149,27.219 19.244,27.219 19.298,27.259 19.333,27.373 	"/>
	<polygon id="polygon2251" fill="#DE435F" points="17.604,24.239 17.597,24.185 17.644,24.165 17.686,24.185 17.706,24.232 
		17.706,24.286 17.679,24.307 17.624,24.286 	"/>
	<polygon id="polygon2253" fill="#DE435F" points="20.81,23.349 20.938,23.637 21.034,23.696 21.354,23.797 21.464,23.816 
		21.763,23.852 21.866,23.823 21.975,23.57 22.069,23.315 22.192,23.261 22.396,23.135 22.519,23.013 22.554,22.894 22.642,22.652 
		22.702,22.518 22.859,22.632 23.146,22.946 23.574,23.455 23.683,23.597 23.765,23.771 23.847,23.971 23.955,24.151 24.378,24.6 
		24.555,24.769 24.834,24.981 24.929,25.029 25.044,25.036 25.249,25.036 25.46,25.116 25.562,25.17 25.678,25.258 25.78,25.357 
		25.916,25.625 25.569,25.545 25.235,25.564 25.058,25.625 24.888,25.706 24.731,25.825 24.657,26.039 24.643,26.542 24.589,27.018 
		24.629,27.232 24.725,27.439 24.731,27.54 24.677,27.581 24.616,27.674 24.582,28.103 24.541,28.189 24.486,28.243 24.46,28.196 
		24.445,28.082 24.282,27.988 24.221,28.097 24.207,28.337 24.14,28.585 24.14,28.639 24.289,29.401 24.241,29.401 23.948,29.488 
		23.88,29.462 23.561,29.113 23.499,29.074 23.384,29.061 23.309,29.007 23.233,28.913 23.192,28.839 22.893,28.651 22.839,28.585 
		22.825,28.524 22.853,28.464 22.893,28.417 23.022,28.37 23.166,28.323 23.214,28.297 23.233,28.243 23.221,28.162 23.179,28.082 
		22.935,27.941 22.9,27.875 22.88,27.801 22.88,27.721 22.9,27.655 23.07,27.567 23.151,27.474 23.077,27.373 22.845,27.151 
		22.573,26.904 22.417,26.911 22.246,26.984 21.995,27.205 21.852,27.3 21.668,27.453 21.47,27.626 21.313,27.808 21.218,27.955 
		21.028,28.029 20.938,28.149 20.653,28.531 20.551,28.524 20.517,28.344 20.504,28.196 20.47,28.116 20.34,28.002 20.333,27.948 
		20.354,27.922 20.442,27.936 20.551,27.929 20.599,27.882 20.456,27.734 20.34,27.634 20.238,27.567 20.212,27.526 20.212,27.5 
		20.225,27.466 20.36,27.378 20.36,27.3 20.34,27.212 20.082,27.092 19.911,27.146 19.728,27.004 19.604,26.897 19.462,26.783 
		19.333,26.724 19.203,26.575 18.992,26.429 18.863,26.388 18.856,26.368 18.876,26.335 18.925,26.314 19.265,26.314 19.306,26.281 
		19.312,26.221 19.346,26.12 19.381,25.98 19.354,25.859 18.985,25.672 18.706,25.504 18.502,25.271 18.353,25.062 18.345,24.988 
		18.366,24.922 18.604,24.721 18.61,24.667 18.604,24.635 18.495,24.533 18.359,24.433 18.312,24.358 18.229,24.319 18.087,24.319 
		17.814,24.199 17.761,24.185 17.747,24.159 17.753,24.139 17.923,24.077 17.917,24.038 17.855,23.984 17.747,23.944 17.638,23.845 
		17.59,23.75 17.869,23.482 17.958,23.423 18.176,23.469 18.638,23.637 18.624,23.736 18.679,23.79 18.788,23.864 18.992,23.938 
		19.162,23.971 19.237,23.938 19.36,23.903 19.537,23.991 19.7,24.099 19.782,24.139 19.829,24.151 19.933,24.112 20.048,23.971 
		20.075,23.79 20.075,23.711 19.979,23.597 19.796,23.475 19.591,23.368 19.455,23.274 19.354,23.087 19.271,23.067 19.251,23.041 
		19.224,22.979 19.217,22.887 19.23,22.812 19.298,22.786 19.374,22.771 19.428,22.705 19.489,22.571 19.517,22.498 19.681,22.531 
		19.721,22.652 19.755,22.679 19.823,22.659 19.925,22.612 20.013,22.646 20.149,22.779 20.333,22.926 20.429,23.02 20.477,23.094 
		20.565,23.153 20.694,23.228 	"/>
	<polygon id="polygon2255" fill="#DE435F" points="18.577,25.002 18.536,25.002 18.502,25.036 18.516,25.122 18.57,25.136 
		18.624,25.103 18.624,25.036 	"/>
</g>
</svg>
