<?xml version="1.0" encoding="utf-8"?>
<!-- Generator: Adobe Illustrator 16.0.0, SVG Export Plug-In . SVG Version: 6.00 Build 0)  -->
<!DOCTYPE svg PUBLIC "-//W3C//DTD SVG 1.1//EN" "http://www.w3.org/Graphics/SVG/1.1/DTD/svg11.dtd">
<svg version="1.1" id="Layer_1" xmlns="http://www.w3.org/2000/svg" xmlns:xlink="http://www.w3.org/1999/xlink" x="0px" y="0px"
	 width="43.687px" height="52.37px" viewBox="0 0 43.687 52.37" enable-background="new 0 0 43.687 52.37" xml:space="preserve">
<polygon fill="#DE435F" points="33.035,29.984 32.616,29.71 32.15,29.466 31.842,29.252 31.608,28.824 31.422,28.777 31.376,28.718 
	31.313,28.579 31.298,28.367 31.329,28.198 31.483,28.137 31.654,28.106 31.778,27.954 31.919,27.647 31.98,27.481 31.903,27.419 
	31.376,27.176 31.173,27.039 30.986,27.039 30.614,26.962 30.273,26.838 30.102,26.688 29.854,26.519 29.404,26.289 29.078,26.092 
	29.048,25.953 29.14,25.389 29.171,24.839 29.094,24.733 28.908,24.642 28.581,24.564 27.853,24.611 27.309,24.077 27.122,23.954 
	26.812,23.878 26.363,23.726 26.099,23.603 26.037,23.648 25.865,24.259 25.524,23.832 25.354,23.726 25.105,23.665 24.873,23.665 
	24.314,23.893 23.91,24.123 23.709,24.246 23.615,24.306 23.305,24.412 23.166,24.55 22.715,24.534 22.482,24.428 22.389,24.321 
	22.404,24.138 22.418,24.115 22.527,23.923 22.514,23.816 22.45,23.726 21.876,23.451 21.628,23.298 20.884,23.068 19.951,22.656 
	19.609,22.382 19.563,22.198 19.191,22.016 18.727,21.848 18.4,21.908 18.09,21.924 17.546,21.618 17.081,21.604 16.568,21.71 
	16.459,21.757 16.34,21.8 16.336,21.801 14.753,21.693 14.303,21.436 13.931,21.191 12.982,21.007 12.487,20.824 11.975,20.549 
	11.416,20.307 10.997,20.413 10.393,20.29 9.74,20.168 9.523,20.26 9.367,20.565 9.259,20.871 10.033,21.358 11.059,22.107 
	11.276,22.214 12.363,22.458 13.2,23.054 13.496,23.526 14.521,23.923 14.814,24.273 15.189,25.243 15.279,25.481 15.73,26.626 
	16.18,27.436 16.228,27.831 16.273,28.137 16.15,28.656 15.623,29.527 15.855,29.618 16.305,29.724 16.584,29.861 16.74,29.908 
	17.049,29.603 17.562,29.603 18.012,29.634 18.261,29.679 18.556,29.771 18.912,29.831 19.035,29.679 19.177,29.267 19.238,29.221 
	19.3,29.176 19.549,29.144 19.797,29.176 19.922,29.236 20.076,29.557 20.387,29.679 20.961,30.183 21.302,30.396 21.396,30.487 
	21.317,30.597 21.365,30.717 21.566,30.885 21.83,30.947 22.094,30.915 22.25,30.977 22.374,31.067 22.42,31.206 22.436,31.298 
	22.606,31.252 23.117,31.236 23.615,31.159 23.988,31.022 24.547,30.9 24.764,30.808 25.027,30.747 25.881,30.839 26.176,30.747 
	27.106,30.717 27.122,30.687 26.983,30.549 26.968,30.503 27.512,30.412 27.588,30.336 28.225,29.724 28.427,29.587 28.924,29.694 
	29.979,30.076 29.947,30.305 30.072,30.427 30.319,30.597 30.785,30.764 31.173,30.839 31.345,30.764 31.624,30.687 32.027,30.885 
	32.398,31.129 32.586,31.222 32.695,31.252 32.928,31.159 33.191,30.839 33.254,30.427 33.254,30.244 "/>
</svg>
