<?xml version="1.0" encoding="utf-8"?>
<!-- Generator: Adobe Illustrator 16.0.0, SVG Export Plug-In . SVG Version: 6.00 Build 0)  -->
<!DOCTYPE svg PUBLIC "-//W3C//DTD SVG 1.1//EN" "http://www.w3.org/Graphics/SVG/1.1/DTD/svg11.dtd">
<svg version="1.1" id="Layer_1" xmlns="http://www.w3.org/2000/svg" xmlns:xlink="http://www.w3.org/1999/xlink" x="0px" y="0px"
	 width="72.153px" height="14.915px" viewBox="0 0 72.153 14.915" enable-background="new 0 0 72.153 14.915" xml:space="preserve">
<g>
	<g>
		<g>
			<g>
				<path fill="#FFFFFF" d="M1.144,14.413c-0.491,0-0.83-0.06-1.144-0.118v-1.652c0.219,0.089,0.519,0.146,0.843,0.146
					c0.643,0,1.008-0.297,1.008-1.373V1.394h1.771v10.096C3.621,13.129,3.008,14.413,1.144,14.413z"/>
				<path fill="#FFFFFF" d="M10.165,11.373c0-0.342,0.014-0.902,0.08-1.315l-0.028-0.015c-0.396,0.87-1.181,1.479-2.284,1.479
					c-1.535,0-2.027-1.066-2.027-2.347V5.467C5.578,5.408,5.127,5.348,4.734,5.321V4.141c0.898-0.119,1.973-0.164,2.912-0.134v4.709
					c0,0.767,0.191,1.224,0.829,1.224c0.885,0,1.578-1.091,1.578-2.376V4.021h1.73V9.91c0.327,0.06,0.788,0.119,1.184,0.147v1.182
					C12.111,11.357,11.063,11.402,10.165,11.373z"/>
				<path fill="#FFFFFF" d="M22.64,11.357V6.709c0-0.784-0.161-1.271-0.803-1.271c-0.761,0-1.549,0.976-1.549,2.408v3.512h-1.715
					V6.709c0-0.725-0.136-1.271-0.805-1.271c-0.803,0-1.551,1.034-1.551,2.408v3.512h-1.729V5.467
					c-0.325-0.059-0.786-0.119-1.182-0.146V4.141c0.856-0.119,1.919-0.164,2.816-0.134c0,0.354-0.027,0.899-0.082,1.329h0.014
					c0.409-0.901,1.226-1.478,2.232-1.478c1.194,0,1.7,0.767,1.864,1.478c0.313-0.726,1.061-1.478,2.202-1.478
					c1.31,0,2.03,0.782,2.03,2.451v5.048H22.64z"/>
				<path fill="#FFFFFF" d="M25.524,5.321V4.141c0.857-0.119,1.892-0.164,2.789-0.134c0,0.367-0.014,0.854-0.068,1.237h0.027
					c0.379-0.854,1.103-1.37,2.124-1.37c1.604,0,2.474,1.253,2.474,3.425c0,2.554-1.222,4.161-3.562,4.161
					c-0.328,0-0.588-0.016-0.871-0.058v3.513h-1.73V5.467C26.382,5.408,25.918,5.348,25.524,5.321z M29.892,5.424
					c-0.912,0-1.455,1.149-1.455,2.406v2.037c0.271,0.088,0.557,0.131,0.912,0.131c0.992,0,1.699-0.677,1.699-2.493
					C31.048,6.131,30.68,5.424,29.892,5.424z"/>
				<path fill="#FFFFFF" d="M36.013,11.521c-0.652,0-1.305-0.077-1.876-0.237l0.107-1.787c0.519,0.193,1.252,0.355,1.921,0.355
					c0.896,0,1.591-0.399,1.591-1.315c0-1.904-3.854-1.032-3.854-4.309c0-1.771,1.294-2.999,3.499-2.999
					c0.519,0,1.115,0.075,1.658,0.18L38.968,3.09c-0.519-0.16-1.089-0.265-1.646-0.265c-1.023,0-1.539,0.502-1.539,1.21
					c0,1.787,3.864,1.122,3.864,4.238C39.647,10.146,38.271,11.521,36.013,11.521z"/>
				<path fill="#FFFFFF" d="M43.416,11.507c-1.499,0-1.96-0.594-1.96-2.304V5.482h-1.17V4.021h1.156V1.765l1.741-0.505v2.762h1.646
					v1.461h-1.646V8.7c0,0.946,0.206,1.21,0.803,1.21c0.286,0,0.598-0.043,0.844-0.117v1.521
					C44.396,11.432,43.891,11.507,43.416,11.507z"/>
				<path fill="#FFFFFF" d="M49.865,11.373c0-0.427,0.013-0.873,0.064-1.256l-0.011-0.015c-0.327,0.826-1.157,1.404-2.164,1.404
					c-1.225,0-1.932-0.755-1.932-1.935c0-1.756,1.607-2.688,3.904-2.688V6.485c0-0.767-0.341-1.164-1.32-1.164
					c-0.611,0-1.428,0.219-2,0.573L46.26,4.317c0.68-0.268,1.55-0.459,2.421-0.459c2.178,0,2.788,0.943,2.788,2.555V9.91
					c0.328,0.06,0.792,0.119,1.186,0.147v1.182C51.797,11.357,50.749,11.402,49.865,11.373z M49.728,8.111
					c-1.836,0-2.245,0.572-2.245,1.165c0,0.473,0.3,0.781,0.805,0.781c0.856,0,1.44-0.883,1.44-1.772V8.111z"/>
				<path fill="#FFFFFF" d="M55.574,5.498h0.027c0.327-0.932,0.981-1.741,2.149-1.64l-0.081,1.86
					c-1.253-0.281-1.875,0.605-1.875,2.643v2.996h-1.73V5.467c-0.327-0.059-0.788-0.119-1.185-0.146V4.141
					c0.857-0.119,1.908-0.164,2.816-0.134C55.696,4.391,55.655,4.981,55.574,5.498z"/>
				<path fill="#FFFFFF" d="M61.484,11.507c-1.495,0-1.956-0.594-1.956-2.304V5.482h-1.174V4.021h1.16V1.765l1.74-0.505v2.762h1.646
					v1.461h-1.646V8.7c0,0.946,0.206,1.21,0.803,1.21c0.287,0,0.598-0.043,0.844-0.117v1.521
					C62.468,11.432,61.963,11.507,61.484,11.507z"/>
			</g>
		</g>
		<path fill="#FFFFFF" d="M67.958,1.207c-0.401-0.17-0.859-0.273-1.325-0.273c-0.989,0-1.698,0.675-1.698,1.889
			c0,1.15,0.578,1.827,1.594,1.827c0.235,0,0.444-0.034,0.636-0.098V2.663h0.963v2.588c-0.496,0.216-1.11,0.337-1.711,0.337
			c-1.585,0-2.527-1.013-2.527-2.668c0-1.705,1.067-2.92,2.804-2.92c0.494,0,0.984,0.099,1.413,0.234L67.958,1.207z"/>
		<path fill="#FFFFFF" d="M72.123,3.674h-2.282c-0.008,0.75,0.333,1.111,1.016,1.111c0.362,0,0.756-0.089,1.075-0.25l0.088,0.796
			c-0.394,0.168-0.856,0.257-1.318,0.257c-1.172,0-1.823-0.635-1.823-2.041c0-1.223,0.623-2.121,1.728-2.121
			c1.072,0,1.548,0.793,1.548,1.783C72.153,3.345,72.145,3.507,72.123,3.674z M70.575,2.179c-0.393,0-0.666,0.315-0.718,0.797h1.354
			C71.226,2.478,70.974,2.179,70.575,2.179z"/>
	</g>
</g>
</svg>
