<?xml version="1.0" encoding="utf-8"?>
<!-- Generator: Adobe Illustrator 16.0.0, SVG Export Plug-In . SVG Version: 6.00 Build 0)  -->
<!DOCTYPE svg PUBLIC "-//W3C//DTD SVG 1.1//EN" "http://www.w3.org/Graphics/SVG/1.1/DTD/svg11.dtd">
<svg version="1.1" id="Layer_1" xmlns="http://www.w3.org/2000/svg" xmlns:xlink="http://www.w3.org/1999/xlink" x="0px" y="0px"
	 width="43.688px" height="52.371px" viewBox="0 0 43.688 52.371" enable-background="new 0 0 43.688 52.371" xml:space="preserve">
<polygon fill="#31B9DD" points="24.711,24.939 24.506,24.787 24.224,24.66 23.584,24.234 23.34,24.181 23.122,24.13 22.814,23.929 
	22.648,23.892 22.469,23.742 22.072,23.25 21.738,22.986 21.521,22.845 21.444,22.722 21.431,22.582 21.431,22.531 21.354,22.531 
	21.214,22.556 21.124,22.593 20.982,22.544 20.828,22.507 20.764,22.556 20.738,22.683 20.842,22.884 21.02,23.199 21.008,23.453 
	20.88,23.476 20.752,23.275 20.636,23.236 20.509,23.25 20.239,23.49 20.035,23.691 19.996,23.83 19.933,23.98 19.906,24.093 
	19.92,24.458 19.548,24.523 19.471,24.572 19.432,24.687 19.484,25.152 19.522,25.404 19.754,25.794 19.765,25.921 19.726,25.996 
	19.587,26.16 19.51,26.21 19.471,26.236 19.471,26.375 19.587,26.525 19.702,26.716 19.804,26.728 19.906,26.664 20.059,26.677 
	20.035,26.751 19.996,26.839 20.035,26.916 20.779,27.396 21.444,28.113 21.636,28.542 22.085,28.832 22.085,28.642 22.11,28.353 
	22.085,28.253 22.11,28.076 22.008,27.849 21.867,27.685 21.995,27.396 22.175,27.042 22.353,26.765 22.558,26.476 22.699,26.199 
	22.841,25.958 22.981,25.884 23.046,25.933 23.085,26.035 23.096,26.349 23.135,26.451 23.238,26.525 23.429,26.488 23.647,26.414 
	23.942,26.248 23.994,26.261 24.006,26.224 24.056,25.933 23.981,25.732 23.865,25.556 23.929,25.455 24.146,25.455 24.326,25.468 
	24.377,25.304 24.737,25.189 24.737,25.089 "/>
</svg>
