<?xml version="1.0" standalone="no"?>
<!DOCTYPE svg PUBLIC "-//W3C//DTD SVG 1.1//EN" "http://www.w3.org/Graphics/SVG/1.1/DTD/svg11.dtd" >
<svg>
<metadata>
Created by FontForge 20090914 at Sun Sep  8 22:16:46 2013
 By www-data
Copyright (c) 2003 by Bitstream, Inc. All Rights Reserved.
DejaVu changes are in public domain
</metadata>
<defs>
<font id="BPGDejaVuSansM-ExtraLight" horiz-adv-x="1303" >
  <font-face 
    font-family="BPG DejaVu Sans M"
    font-weight="250"
    font-stretch="normal"
    units-per-em="2048"
    panose-1="2 11 2 3 3 8 4 2 2 4"
    ascent="1556"
    descent="-492"
    x-height="1120"
    cap-height="1493"
    bbox="-783 -483 2048 1638"
    underline-thickness="90"
    underline-position="-85"
    unicode-range="U+0020-U+2026"
  />
<missing-glyph horiz-adv-x="1229" 
d="M102 -362v1806h1024v-1806h-1024zM197 -287h835v1655h-835v-1655z" />
    <glyph glyph-name=".notdef" horiz-adv-x="1229" 
d="M102 -362v1806h1024v-1806h-1024zM197 -287h835v1655h-835v-1655z" />
    <glyph glyph-name="space" unicode=" " horiz-adv-x="651" 
 />
    <glyph glyph-name="exclam" unicode="!" horiz-adv-x="821" 
d="M383 1493h76v-1012h-76v1012zM362 128h97v-128h-97v128z" />
    <glyph glyph-name="quotedbl" unicode="&#x22;" horiz-adv-x="942" 
d="M328 1493v-555h-96v555h96zM706 1493v-555h-96v555h96z" />
    <glyph glyph-name="numbersign" unicode="#" horiz-adv-x="1716" 
d="M1087 939h-352l-104 -410h354zM866 1470l-114 -453h354l114 453h101l-115 -453h353v-78h-372l-102 -410h359v-77h-378l-112 -452h-101l113 452h-354l-113 -452h-99l112 452h-354v77h374l102 410h-362v78h382l112 453h100z" />
    <glyph glyph-name="dollar" unicode="$" 
d="M683 -301l-92.002 0.000976562v301c-21.333 0 -49.5 4.16699 -84.5 12.5s-72.333 19 -112 32s-79.334 27 -119.001 42s-74.834 29.167 -105.501 42.5v87c36 -16 75.167 -31.833 117.5 -47.5s83.333 -29.834 123 -42.501s75.667 -23 108 -31s56.833 -12 73.5 -12v569
c-70 11.333 -130.167 26.166 -180.5 44.499s-91.666 41 -123.999 68s-56.333 58.5 -72 94.5s-23.5 77.333 -23.5 124c0 102 34.167 181.5 102.5 238.5s167.5 90.167 297.5 99.5v235h91v-232c20 0 44.167 -1.5 72.5 -4.5s58.5 -7.33301 90.5 -13s64.833 -12.5 98.5 -20.5
s66.167 -17 97.5 -27v-85c-62.667 23.333 -124 40.666 -184 51.999s-118.333 17 -175 17v-532c80.667 -11.333 149.834 -26.666 207.501 -45.999s104.834 -43.5 141.501 -72.5s63.667 -62.667 81 -101s26 -82.166 26 -131.499c0 -106.667 -37.667 -190.5 -113 -251.5
s-189.666 -97.167 -342.999 -108.5v-301zM591.998 733.001v505.998c-102 -11.333 -178.667 -38.5 -230 -81.5s-77 -100.833 -77 -173.5c0 -35.333 5.83301 -66.666 17.5 -93.999s30 -51.166 55 -71.499s56.833 -37.5 95.5 -51.5s85 -25.333 139 -34zM682.998 632.999v-550
c124.667 15.333 216.167 46 274.5 92s87.5 107.333 87.5 184c0 35.333 -6.16699 67.5 -18.5 96.5s-32.833 55 -61.5 78s-66 42.833 -112 59.5s-102.667 30 -170 40z" />
    <glyph glyph-name="percent" unicode="%" horiz-adv-x="1946" 
d="M1490 705c-66.667 0 -118.501 -28.668 -155.501 -86.001s-55.5 -138 -55.5 -242c0 -50 4.83301 -95.167 14.5 -135.5s23.5 -74.666 41.5 -102.999s40 -50 66 -65s55.667 -22.5 89 -22.5c32.667 0 61.834 7.66699 87.501 23s47.5 37 65.5 65s31.833 62.167 41.5 102.5
s14.5 85.5 14.5 135.5s-4.66699 95.167 -14 135.5s-23 74.833 -41 103.5s-40 50.667 -66 66s-55.333 23 -88 23zM1488 783.999c46.667 0 88.665 -9.5 125.998 -28.5s69.333 -46.333 96 -82s47.167 -78.5 61.5 -128.5s21.5 -106 21.5 -168s-7.16699 -118 -21.5 -168
s-34.833 -92.667 -61.5 -128s-58.667 -62.5 -96 -81.5s-79.333 -28.5 -126 -28.5c-47.333 0 -90 9.5 -128 28.5s-70.167 46.167 -96.5 81.5s-46.5 78 -60.5 128s-21 106 -21 168s7.16699 118 21.5 168s34.833 92.833 61.5 128.5s58.834 63 96.501 82
s79.834 28.5 126.501 28.5zM458.997 1441c-66.667 0 -118.5 -28.666 -155.5 -85.999s-55.5 -138 -55.5 -242c0 -50 4.83301 -95.167 14.5 -135.5s23.5 -74.666 41.5 -102.999s40 -50 66 -65s55.667 -22.5 89 -22.5c32 0 60.833 7.5 86.5 22.5s47.667 36.5 66 64.5
s32.333 62.167 42 102.5s14.5 85.833 14.5 136.5s-4.83301 96.167 -14.5 136.5s-23.5 74.666 -41.5 102.999s-40 50.166 -66 65.499s-55 23 -87 23zM1385 1520h104l-932 -1549h-104zM456.997 1520c46.667 0 88.668 -9.5 126.001 -28.5s69.166 -46.333 95.499 -82
s46.666 -78.5 60.999 -128.5s21.5 -106 21.5 -168s-7 -118.167 -21 -168.5s-34.167 -93 -60.5 -128s-58.333 -62 -96 -81s-79.834 -28.5 -126.501 -28.5c-47.333 0 -90 9.5 -128 28.5s-70.167 46.167 -96.5 81.5s-46.5 78 -60.5 128s-21 106 -21 168s7.16699 118 21.5 168
s34.833 92.833 61.5 128.5s58.834 63 96.501 82s79.834 28.5 126.501 28.5z" />
    <glyph glyph-name="ampersand" unicode="&#x26;" horiz-adv-x="1597" 
d="M517 856c-30.667 -26 -60.334 -54.667 -89.001 -86s-54.167 -65.333 -76.5 -102s-40.166 -76.167 -53.499 -118.5s-20 -87.5 -20 -135.5c0 -121.333 34.167 -211.833 102.5 -271.5s163.5 -89.5 285.5 -89.5c42 0 80.333 3.83301 115 11.5s67 21.167 97 40.5
c92 55.333 159.333 112 202 170zM588 912l551 -563.999c12 14.667 27.833 37.334 47.5 68.001s43.5 70 71.5 118c40.667 69.333 62.334 158.333 65.001 267h101c-6.66699 -60.667 -15.167 -114.167 -25.5 -160.5s-24 -89.333 -41 -129s-37.667 -77.834 -62 -114.501
s-53.833 -75.667 -88.5 -117l263 -280h-127l-198 208c-44 -46.667 -86.167 -85.334 -126.5 -116.001s-79.833 -55 -118.5 -73s-76.5 -30.5 -113.5 -37.5s-73.833 -10.5 -110.5 -10.5c-178.667 0 -307 46.667 -385 140c-76.667 90.667 -115 189.334 -115 296.001
c0 105.333 25.333 200.333 76 285c17.333 29.333 42.5 63.166 75.5 101.499s74.5 81.5 124.5 129.5c-11.333 12.667 -23.5 28 -36.5 46s-25 37.5 -36 58.5s-20.167 43 -27.5 66s-11 45.5 -11 67.5c0 121.333 32 211.5 96 270.5s153.333 88.5 268 88.5
c24.667 0 49.834 -2.66699 75.501 -8s50.667 -12 75 -20s47.5 -16.833 69.5 -26.5s41.167 -18.667 57.5 -27s29.5 -15.333 39.5 -21s15.667 -8.83398 17 -9.50098v-99c-64.667 40 -124.834 71.5 -180.501 94.5s-103.834 34.5 -144.501 34.5s-77.667 -4.5 -111 -13.5
s-61.833 -24.167 -85.5 -45.5s-42 -49.666 -55 -84.999s-19.5 -79 -19.5 -131c0 -20 3.83301 -40.5 11.5 -61.5s18 -42.333 31 -64s28.333 -43 46 -64s36.5 -41.5 56.5 -61.5z" />
    <glyph glyph-name="quotesingle" unicode="'" horiz-adv-x="563" 
d="M327 1493v-555h-96v555h96z" />
    <glyph glyph-name="parenleft" unicode="(" horiz-adv-x="799" 
d="M588 1556c-89.333 -153.333 -155.666 -305.169 -198.999 -455.502s-65 -302.5 -65 -456.5c0 -154.667 21.667 -307.167 65 -457.5s109.666 -302.5 198.999 -456.5h-89c-92.667 158 -161.667 312 -207 462s-68 300.333 -68 451c0 148.667 22.667 298.334 68 449.001
s114.333 305.334 207 464.001h89z" />
    <glyph glyph-name="parenright" unicode=")" horiz-adv-x="799" 
d="M224 1556l89 -0.00195312c93.333 -156.667 162.5 -310.5 207.5 -461.5s67.5 -301.5 67.5 -451.5c0 -150.667 -22.667 -301 -68 -451s-114.333 -304 -207 -462h-89c88.667 152.667 154.834 304.334 198.501 455.001s65.5 303.334 65.5 458.001
c0 154 -21.833 306.333 -65.5 457s-109.834 302.667 -198.501 456z" />
    <glyph glyph-name="asterisk" unicode="*" horiz-adv-x="1024" 
d="M942 1278l-386 -222l388 -223l-23 -42l-388 225v-430h-48v428l-386 -221l-24 39l389 224l-387 222l24 40l384 -222v424h48v-424l386 222z" />
    <glyph glyph-name="plus" unicode="+" horiz-adv-x="1716" 
d="M908 1284v-600h591v-82h-591v-602h-101v602h-590v82h590v600h101z" />
    <glyph glyph-name="comma" unicode="," horiz-adv-x="651" 
d="M274 126h101v-44l-79 -320h-62l40 320v44z" />
    <glyph glyph-name="hyphen" unicode="-" horiz-adv-x="739" 
d="M100 602h539v-82h-539v82z" />
    <glyph glyph-name="period" unicode="." horiz-adv-x="651" 
d="M274 126h102v-126h-102v126z" />
    <glyph glyph-name="slash" unicode="/" horiz-adv-x="690" 
d="M552 1493h106l-520 -1683h-106z" />
    <glyph glyph-name="zero" unicode="0" 
d="M645 1438c-61.333 0 -114.666 -15.167 -159.999 -45.5s-82.833 -75 -112.5 -134s-51.834 -131.5 -66.501 -217.5s-22 -184.667 -22 -296s7.33301 -210 22 -296s36.834 -158.5 66.501 -217.5s67.167 -103.667 112.5 -134s98.666 -45.5 159.999 -45.5
c63.333 0 118.166 15.167 164.499 45.5s84.5 75 114.5 134s52.167 131.5 66.5 217.5s21.5 184.667 21.5 296s-7.16699 210 -21.5 296s-36.5 158.5 -66.5 217.5s-68.167 103.667 -114.5 134s-101.166 45.5 -164.499 45.5zM645 1520c144 0 258 -58.668 342 -176.001
c84 -118 126 -317.667 126 -599s-42 -481 -126 -599c-84 -117.333 -198 -176 -342 -176c-140 0 -252 58.667 -336 176c-84 116.667 -126 316.334 -126 599.001c0 281.333 42 481 126 599c84 117.333 196 176 336 176z" />
    <glyph glyph-name="one" unicode="1" 
d="M304 82h330v1319l-409 -164v92l407 164h102v-1411h330v-82h-760v82z" />
    <glyph glyph-name="two" unicode="2" 
d="M246 81l852.002 0.00292969v-81h-956v105l372 387l127 130l115.5 121c35 38 65.333 72.5 91 103.5s44.167 56.5 55.5 76.5c23.333 41.333 35 95 35 161c0 115.333 -35.333 208 -106 278c-50.667 50.667 -133.334 76 -248.001 76c-68 0 -144.667 -19.333 -230 -58
c-19.333 -9.33301 -45 -23.333 -77 -42s-71 -43 -117 -73v106c19.333 13.333 45 28.666 77 45.999s67.167 33.666 105.5 48.999s78.166 28.166 119.499 38.499s81.333 15.5 120 15.5c128 0 235.667 -33 323 -99c84.667 -66 127 -175 127 -327
c0 -66.667 -13.333 -129.5 -40 -188.5s-66.667 -119.167 -120 -180.5c-10 -9.33301 -27.833 -28 -53.5 -56l-105.5 -111z" />
    <glyph glyph-name="three" unicode="3" 
d="M831 805c39.333 -9.33301 74.8281 -24.832 106.495 -46.499s58.667 -48.5 81 -80.5s39.5 -68.667 51.5 -110s18 -86 18 -134c0 -73.333 -10.167 -138.666 -30.5 -195.999s-52.166 -105.666 -95.499 -144.999s-98.666 -69.5 -165.999 -90.5s-147.666 -31.5 -240.999 -31.5
c-64.667 0 -129.667 10 -195 30s-133.333 50.333 -204 91v109c56.667 -50 118 -87.167 184 -111.5s134 -36.5 204 -36.5c144.667 0 254.667 32 330 96s113 159 113 285c0 50.667 -9.16699 96.167 -27.5 136.5s-44.833 74.166 -79.5 101.499s-76.5 48.333 -125.5 63
s-104.5 22 -166.5 22h-174v84h182c116.667 0 205.167 22.833 265.5 68.5s90.5 113.167 90.5 202.5c0 106 -31.167 186.5 -93.5 241.5s-152.833 82.5 -271.5 82.5c-54.667 0 -113.5 -9.66699 -176.5 -29s-132.833 -49.333 -209.5 -90v104
c76.667 32.667 148.334 57 215.001 73s130 24.667 190 26c76.667 0 143.167 -9.16699 199.5 -27.5s103 -44.333 140 -78s64.333 -74.334 82 -122.001s26.5 -100.834 26.5 -159.501c0 -38 -4.66699 -74.5 -14 -109.5s-23.166 -66.833 -41.499 -95.5s-41.5 -53.667 -69.5 -75
s-60.667 -37.333 -98 -48z" />
    <glyph glyph-name="four" unicode="4" 
d="M824 1438l-620 -962h620v962zM746 1493h180v-1017h213v-80h-213v-396h-102v396h-724v104z" />
    <glyph glyph-name="five" unicode="5" 
d="M261 1493h709.001v-81h-608v-501c15.333 6 29.666 11.167 42.999 15.5s28 7.66602 44 9.99902s34.333 4.16602 55 5.49902s45.667 2 75 2c76 0 144.5 -10.833 205.5 -32.5s113 -52.667 156 -93s76.167 -89.166 99.5 -146.499s35 -121.666 35 -192.999
c0 -80 -11.667 -151.5 -35 -214.5s-57.333 -116.333 -102 -160s-99.5 -76.834 -164.5 -99.501s-139.167 -34 -222.5 -34c-56 0 -112.5 4.5 -169.5 13.5s-116.833 23.167 -179.5 42.5v102c52 -25.333 105.333 -44 160 -56s114 -18 178 -18c66 0 125.833 9.83301 179.5 29.5
s99.5 47.834 137.5 84.501s67.333 81.167 88 133.5s31 111.166 31 176.499c0 58.667 -10 111.834 -30 159.501s-48.667 88 -86 121s-82.5 58.5 -135.5 76.5s-112.167 27 -177.5 27c-12.667 0 -29.667 -1.83301 -51 -5.5s-45 -9.16699 -71 -16.5s-53.167 -16.5 -81.5 -27.5
s-55.833 -23.833 -82.5 -38.5v718z" />
    <glyph glyph-name="six" unicode="6" 
d="M928 757c-62 72.667 -146.001 109.001 -252.001 109.001c-53.333 0 -101.166 -9.5 -143.499 -28.5s-78.5 -46.167 -108.5 -81.5s-53 -78 -69 -128s-24 -106.333 -24 -169s8 -119.167 24 -169.5s39 -93 69 -128s66.167 -62 108.5 -81s90.166 -28.5 143.499 -28.5
c52.667 0 100.334 9.5 143.001 28.5s79 46 109 81s53 77.667 69 128s24 106.833 24 169.5c0 125.333 -31 224.666 -93 297.999zM1049 1460l0.000976562 -105.997c-48 28 -95 49.333 -141 64s-92.333 22 -139 22c-200 0 -339 -97.667 -417 -293
c-33.333 -81.333 -50 -216 -50 -404v-47c39.333 84.667 90.166 148 152.499 190s140.166 63 233.499 63c62 0 119.667 -11.667 173 -35s99.5 -55.833 138.5 -97.5s69.667 -91.334 92 -149.001s33.5 -120.5 33.5 -188.5c0 -76 -10.667 -145.167 -32 -207.5
s-51.333 -115.833 -90 -160.5s-85 -79.167 -139 -103.5s-113.667 -36.5 -179 -36.5c-79.333 0 -149.166 16.833 -209.499 50.5s-111 83.167 -152 148.5s-72 146.166 -93 242.499s-31.5 207.166 -31.5 332.499c0 134 13.167 249.667 39.5 347s64 177.833 113 241.5
s108.167 110.667 177.5 141s147 45.5 233 45.5c46.667 0 93.167 -5 139.5 -15s95.5 -25 147.5 -45z" />
    <glyph glyph-name="seven" unicode="7" 
d="M168 1493h908v-86l-542 -1407h-106l543 1411h-803v82z" />
    <glyph glyph-name="eight" unicode="8" 
d="M651 744c-55.333 0 -105.167 -7.83203 -149.5 -23.499s-82 -38.5 -113 -68.5s-54.667 -66.5 -71 -109.5s-24.5 -91.5 -24.5 -145.5c0 -54.667 8.33301 -103.5 25 -146.5s40.5 -79.333 71.5 -109s68.5 -52.334 112.5 -68.001s93.667 -23.5 149 -23.5
s105.333 8.16699 150 24.5s82.5 39.5 113.5 69.5s54.833 66.333 71.5 109s25 90.667 25 144c0 54 -8.33301 102.333 -25 145s-40.5 79 -71.5 109s-68.667 53 -113 69s-94.5 24 -150.5 24zM448.999 795.001c-33.333 12 -63.6689 28.666 -91.002 49.999
s-50.833 46.5 -70.5 75.5s-35 61.333 -46 97s-16.5 74.167 -16.5 115.5c0 59.333 9.83301 112.833 29.5 160.5s48 88.334 85 122.001s81.667 59.5 134 77.5s111.5 27 177.5 27c66.667 0 126.334 -9.16699 179.001 -27.5s97.334 -44.166 134.001 -77.499s64.667 -74 84 -122
s29 -101.333 29 -160c0 -45.333 -6.16699 -86.333 -18.5 -123s-28.833 -69.167 -49.5 -97.5s-44.5 -52.333 -71.5 -72s-54.833 -34.834 -83.5 -45.501c38 -12.667 72.5 -30.667 103.5 -54s57.833 -51 80.5 -83s40.167 -68.167 52.5 -108.5s18.5 -83.5 18.5 -129.5
c0 -73.333 -10.167 -137.833 -30.5 -193.5s-50 -102.5 -89 -140.5s-87 -66.667 -144 -86s-121.833 -29 -194.5 -29c-147.333 0 -260.5 38.333 -339.5 115s-118.5 188 -118.5 334c0 49.333 7 94.5 21 135.5s32.833 77.333 56.5 109s51 58.5 82 80.5s63.167 38.667 96.5 50z
M650.996 824c50 0 95 6.83301 135 20.5s74.167 33.667 102.5 60s50 58.5 65 96.5s22.5 81.333 22.5 130s-7.5 92 -22.5 130s-36.667 70.167 -65 96.5s-62.5 46.333 -102.5 60s-85 20.5 -135 20.5c-104 0 -184 -26.667 -240 -80s-84 -129 -84 -227s28 -173.667 84 -227
s136 -80 240 -80z" />
    <glyph glyph-name="nine" unicode="9" 
d="M275 31l-0.00488281 105.999c46.667 -28 93.334 -49.333 140.001 -64s93.334 -22 140.001 -22c198.667 0 337.667 97.667 417 293c33.333 84 50 218.667 50 404v47c-39.333 -84.667 -90.166 -148 -152.499 -190s-140.166 -63 -233.499 -63c-62 0 -119.667 11.667 -173 35
s-99.5 55.833 -138.5 97.5s-69.667 91.334 -92 149.001s-33.5 120.5 -33.5 188.5c0 76 10.833 145.333 32.5 208s51.834 116.167 90.501 160.5s85 78.666 139 102.999s113.333 36.5 178 36.5c80 0 150.167 -17 210.5 -51s111 -83.667 152 -149
s71.833 -146.166 92.5 -242.499s31 -206.833 31 -331.5c0 -135.333 -13.5 -251.833 -40.5 -349.5s-65 -178 -114 -241s-108.167 -109.5 -177.5 -139.5s-146.333 -45 -231 -45c-46.667 0 -93.167 5 -139.5 15s-95.5 25 -147.5 45zM395.995 733.999
c62 -72.667 145.999 -109 251.999 -109c52.667 0 100.334 9.5 143.001 28.5s79 46 109 81s53 77.667 69 128s24 106.833 24 169.5s-8 119 -24 169s-39 92.667 -69 128s-66.333 62.5 -109 81.5s-90.334 28.5 -143.001 28.5c-53.333 0 -101.166 -9.5 -143.499 -28.5
s-78.5 -46.167 -108.5 -81.5s-53 -78 -69 -128s-24 -106.333 -24 -169c0 -126 31 -225.333 93 -298z" />
    <glyph glyph-name="colon" unicode=":" horiz-adv-x="690" 
d="M294 128h102v-128h-102v128zM294 984h102v-127h-102v127z" />
    <glyph glyph-name="semicolon" unicode=";" horiz-adv-x="690" 
d="M295 984h101v-127h-101v127zM294 129h101v-47l-78 -320h-62l39 320v47z" />
    <glyph glyph-name="less" unicode="&#x3c;" horiz-adv-x="1716" 
d="M1499 1052l-1154 -412l1154 -407v-101l-1282 465v84l1282 465v-94z" />
    <glyph glyph-name="equal" unicode="=" horiz-adv-x="1716" 
d="M217 844h1282v-82h-1282v82zM217 522h1282v-82h-1282v82z" />
    <glyph glyph-name="greater" unicode="&#x3e;" horiz-adv-x="1716" 
d="M217 1052v94l1282 -465v-84l-1282 -465v101l1154 407z" />
    <glyph glyph-name="question" unicode="?" horiz-adv-x="1087" 
d="M441 126h102v-126h-102v126zM543 401l-102.004 0.00390625l1 154c0 58.667 11.333 114 34 166c16.667 40 56 90.333 118 151l90 89c21.333 20.667 39 39.667 53 57s25 33.666 33 48.999s13.667 30.166 17 44.499s5 29.5 5 45.5c0 41.333 -5.66699 79.333 -17 114
s-27.666 64.5 -48.999 89.5s-47 44.333 -77 58s-64 20.5 -102 20.5c-82 0 -145.333 -9.66699 -190 -29c-70 -30.667 -130.333 -75 -181 -133l-21 109c36 30 69.333 54 100 72s60.834 31.5 90.501 40.5s59.834 14.833 90.501 17.5s64.334 4 101.001 4
c45.333 0 89.666 -8.33301 132.999 -25s82 -40.334 116 -71.001s61.333 -67.834 82 -111.501s31 -92.167 31 -145.5c0 -25.333 -2.5 -49.333 -7.5 -72s-13.5 -45.667 -25.5 -69s-28.5 -47.666 -49.5 -72.999s-47.5 -53.666 -79.5 -84.999l-88 -86
c-17.333 -16.667 -31.666 -31.167 -42.999 -43.5s-20.833 -24 -28.5 -35s-13.5 -21.833 -17.5 -32.5s-7 -22.834 -9 -36.501s-3.5 -29.334 -4.5 -47.001l-3.5 -63.5v-123z" />
    <glyph glyph-name="at" unicode="@" horiz-adv-x="2048" 
d="M1332 238c-37.333 -51.333 -79.3359 -89.165 -126.003 -113.498s-102.334 -36.5 -167.001 -36.5c-53.333 0 -102 11 -146 33s-81.667 52.833 -113 92.5s-55.666 87 -72.999 142s-26 115.5 -26 181.5s8.83301 126.5 26.5 181.5s42.334 102.5 74.001 142.5
s69.334 71 113.001 93s91.834 33 144.501 33c64.667 0 120.5 -12.167 167.5 -36.5s88.833 -62.5 125.5 -114.5v131h92v-776c64 8 118.667 24.167 164 48.5s82.333 56 111 95s49.667 85.167 63 138.5s20 113.333 20 180c0 75.333 -11 147 -33 215s-59.667 135.667 -113 203
c-100.667 126 -203 207.667 -307 245c-106.667 37.333 -198 56 -274 56c-58 0 -116 -8.33301 -174 -25s-113.5 -41.334 -166.5 -74.001s-102.333 -73 -148 -121s-85.334 -103.167 -119.001 -165.5s-60 -131.666 -79 -207.999s-28.5 -159.166 -28.5 -248.499
c0 -66 7.16699 -131.833 21.5 -197.5s35.333 -128.5 63 -188.5s61.5 -115.833 101.5 -167.5s86 -96.5 138 -134.5s109.333 -67.833 172 -89.5s130.334 -32.5 203.001 -32.5c86 0 170.167 15.5 252.5 46.5s158.5 76.5 228.5 136.5l37 -80
c-74.667 -66.667 -156.5 -117.167 -245.5 -151.5s-179.833 -51.5 -272.5 -51.5c-72.667 0 -143.167 9.83301 -211.5 29.5s-132.833 48.167 -193.5 85.5s-116.167 82.666 -166.5 135.999s-93.666 113.833 -129.999 181.5s-64.666 141.667 -84.999 222
s-30.5 165.833 -30.5 256.5c0 63.333 6.16699 126.333 18.5 189s29.166 122.167 50.499 178.5s46.333 108.333 75 156s59.667 88.167 93 121.5c100.667 101.333 190.667 169.666 270 204.999c102.667 45.333 210.667 68 324 68c63.333 0 124.166 -5 182.499 -15
s113.833 -25.667 166.5 -47c50 -20 102.167 -52.667 156.5 -98s109.833 -103.333 166.5 -174c48 -60.667 85.667 -129 113 -205s41 -155 41 -237c0 -90.667 -11.333 -171 -34 -241s-55.5 -128.833 -98.5 -176.5s-96.167 -83.834 -159.5 -108.501s-135.333 -37 -216 -37h-30
c-2.66699 0 -5.66699 0.333008 -9 1v127zM771.997 537.001c0 -58 6.49707 -110 19.4971 -156s31.5 -85 55.5 -117s53.333 -56.5 88 -73.5s74 -25.5 118 -25.5c42.667 0 81.167 8.5 115.5 25.5s63.5 41.5 87.5 73.5s42.5 71 55.5 117s19.5 98 19.5 156
c0 56 -6.66699 106.833 -20 152.5s-32.166 84.667 -56.499 117s-53.666 57.333 -87.999 75s-72.833 26.5 -115.5 26.5s-81.167 -8.66699 -115.5 -26s-63.666 -42.166 -87.999 -74.499s-43 -71.333 -56 -117s-19.5 -96.834 -19.5 -153.501z" />
    <glyph glyph-name="A" unicode="A" horiz-adv-x="1401" 
d="M695 1392l-320 -840h635zM631 1493h131l571 -1493h-114l-178 469h-697l-177 -469h-106z" />
    <glyph glyph-name="B" unicode="B" horiz-adv-x="1341" 
d="M352 744v-663h375c126.667 0 220.667 26.833 282 80.5s92 137.5 92 251.5s-30.667 197.667 -92 251s-155.333 80 -282 80h-375zM352 1411v-585.001h350c115.333 0 200.833 23.833 256.5 71.5s83.5 121.834 83.5 222.501c0 100 -28 173.5 -84 220.5
s-141.333 70.5 -256 70.5h-350zM252 1493l464.999 0.00390625c68 0 128.5 -8.16699 181.5 -24.5s97.667 -40.166 134 -71.499s64 -70 83 -116s28.5 -98.333 28.5 -157c0 -51.333 -5.83301 -95.5 -17.5 -132.5s-27.167 -68.5 -46.5 -94.5s-41.666 -47 -66.999 -63
s-51.333 -28.333 -78 -37c92 -24.667 159.5 -70.334 202.5 -137.001s64.5 -147.334 64.5 -242.001c0 -66.667 -10.333 -125.834 -31 -177.501s-50.667 -95.334 -90 -131.001s-88 -62.834 -146 -81.501s-124 -28 -198 -28h-485v1493z" />
    <glyph glyph-name="C" unicode="C" horiz-adv-x="1430" 
d="M1319 1369l-0.000976562 -115c-68.667 62.667 -141 109 -217 139s-158 45 -246 45c-94 0 -177.167 -15.167 -249.5 -45.5s-133 -74.833 -182 -133.5s-86.167 -131 -111.5 -217s-38 -185 -38 -297s12.667 -211.167 38 -297.5s62.5 -159 111.5 -218
s109.667 -103.667 182 -134s155.5 -45.5 249.5 -45.5c88.667 0 170.834 15.333 246.501 46s147.834 77.334 216.501 140.001v-121c-142 -96 -300.333 -144 -475 -144c-105.333 0 -199.666 18 -282.999 54s-154 87.5 -212 154.5s-102.333 148.167 -133 243.5
s-46 202.666 -46 321.999c0 120 15.5 227.833 46.5 323.5s75.667 177 134 244s129.166 118.333 212.499 154s177 53.5 281 53.5c89.333 0 173.666 -12.5 252.999 -37.5s153.333 -62.833 222 -113.5z" />
    <glyph glyph-name="D" unicode="D" horiz-adv-x="1577" 
d="M351 1408l-0.00195312 -1327h296c112.667 0 210 13 292 39s149.833 66.333 203.5 121s93.334 123.667 119.001 207s38.5 182.666 38.5 297.999c0 114 -12.833 212.667 -38.5 296s-65.167 152.166 -118.5 206.499s-121.166 94.5 -203.499 120.5s-179.833 39 -292.5 39
h-296zM248.998 1493h366.999c136 0 253.5 -14.833 352.5 -44.5s181 -75 246 -136s113.167 -138.333 144.5 -232s47 -204.5 47 -332.5c0 -128.667 -15.667 -240 -47 -334s-79.5 -171.667 -144.5 -233s-147.167 -106.833 -246.5 -136.5s-216.666 -44.5 -351.999 -44.5h-367
v1493z" />
    <glyph glyph-name="E" unicode="E" horiz-adv-x="1294" 
d="M249 1493h844v-83h-742v-573h711v-81h-711v-675h760v-81h-862v1493z" />
    <glyph glyph-name="F" unicode="F" horiz-adv-x="1178" 
d="M250 1493h757v-83h-656v-573h592v-81h-592v-756h-101v1493z" />
    <glyph glyph-name="G" unicode="G" horiz-adv-x="1587" 
d="M1270 127l-0.000976562 523h-381v82h480v-653c-72.667 -36 -151.167 -62.667 -235.5 -80s-175.5 -26.666 -273.5 -27.999c-108 0 -204.667 17.667 -290 53s-157.5 86.166 -216.5 152.499s-104.167 147.333 -135.5 243s-47 204.167 -47 325.5c0 120.667 15.5 229 46.5 325
s76 177.333 135 244s131.167 117.667 216.5 153s182.333 53 291 53c180 0 337.667 -37.333 473 -112v-97c-68 38 -139.5 66.333 -214.5 85s-155.5 28 -241.5 28c-402 0 -603 -226.333 -603 -679c0 -229.333 50.5 -401.666 151.5 -516.999s251.5 -173 451.5 -173
c82.667 0 155.834 5.66699 219.501 17s121.5 29.666 173.5 54.999z" />
    <glyph glyph-name="H" unicode="H" horiz-adv-x="1540" 
d="M249 1493h101v-656h835v656h101v-1493h-101v756h-835v-756h-101v1493z" />
    <glyph glyph-name="I" unicode="I" horiz-adv-x="604" 
d="M248 1493h104v-1493h-104v1493z" />
    <glyph glyph-name="J" unicode="J" horiz-adv-x="604" 
d="M250 1493h100.001v-1389c0 -82 -5.33301 -152.5 -16 -211.5s-27.334 -107.5 -50.001 -145.5s-51.5 -66 -86.5 -84s-76.833 -27 -125.5 -27h-61v83h49c34 0 63.167 6.33301 87.5 19s44 33.834 59 63.501s26 69.167 33 118.5s10.5 110.666 10.5 183.999v1389z" />
    <glyph glyph-name="K" unicode="K" horiz-adv-x="1343" 
d="M354 1493h99v-643l684 643h133l-742 -699l791 -794h-131l-735 737v-737h-99v1493z" />
    <glyph glyph-name="L" unicode="L" horiz-adv-x="1141" 
d="M250 1493h100v-1411h727v-82h-827v1493z" />
    <glyph glyph-name="M" unicode="M" horiz-adv-x="1767" 
d="M329 1493h139l415 -1107l417 1107h138v-1493h-102v1311l-384 -1024h-138l-383 1024v-1311h-102v1493z" />
    <glyph glyph-name="N" unicode="N" horiz-adv-x="1532" 
d="M248 1493h148l724 -1365v1365h100v-1493h-142l-728 1374v-1374h-102v1493z" />
    <glyph glyph-name="O" unicode="O" horiz-adv-x="1612" 
d="M417 1255c-96 -125.333 -144 -295.333 -144 -510c0 -106.667 12.5 -202.834 37.5 -288.501s60.667 -158.667 107 -219s102.5 -106.666 168.5 -138.999s139.667 -48.5 221 -48.5s154.833 16.167 220.5 48.5s121.5 78.666 167.5 138.999s81.5 133.333 106.5 219
s37.5 181.834 37.5 288.501s-12.5 203 -37.5 289s-60.5 159.333 -106.5 220s-101.833 107.167 -167.5 139.5s-139.167 48.5 -220.5 48.5c-163.333 0 -293.333 -62.333 -390 -187zM807 1520c96.667 0 184.335 -18.4961 263.002 -55.4961s145.667 -89.167 201 -156.5
s98.166 -148.833 128.499 -244.5s45.5 -201.834 45.5 -318.501c0 -117.333 -15.167 -223.5 -45.5 -318.5s-73.333 -176.333 -129 -244s-122.834 -119.834 -201.501 -156.501s-166 -55 -262 -55c-96.667 0 -184.334 18.167 -263.001 54.5s-146 88.166 -202 155.499
s-99.167 148.666 -129.5 243.999s-45.5 202 -45.5 320c0 117.333 15.167 223.666 45.5 318.999s73.333 176.833 129 244.5s122.834 119.834 201.501 156.501s166.667 55 264 55z" />
    <glyph glyph-name="P" unicode="P" horiz-adv-x="1235" 
d="M350 1410v-685.998h307c55.333 0 104.666 7.5 147.999 22.5s80 37 110 66s52.833 64.833 68.5 107.5s23.5 92 23.5 148c0 54 -7.83301 102.167 -23.5 144.5s-38.5 78.166 -68.5 107.499s-66.667 51.666 -110 66.999s-92.666 23 -147.999 23h-307zM250 1493
l407 -0.000976562c149.333 0 262 -35.5 338 -106.5s114 -177.167 114 -318.5s-38.167 -247.666 -114.5 -318.999s-188.833 -107 -337.5 -107h-307v-642h-100v1493z" />
    <glyph glyph-name="Q" unicode="Q" horiz-adv-x="1612" 
d="M417 1252c-96 -124 -144.001 -293.333 -144.001 -508c0 -107.333 12.5 -203.833 37.5 -289.5s60.833 -158.5 107.5 -218.5s102.834 -106 168.501 -138s139.167 -48 220.5 -48s154.833 16 220.5 48s121.5 78 167.5 138s81.5 132.833 106.5 218.5s37.5 182.167 37.5 289.5
c0 106.667 -12.5 203 -37.5 289s-60.5 159 -106.5 219s-101.833 106.167 -167.5 138.5s-139.167 48.5 -220.5 48.5c-163.333 0 -293.333 -62.333 -390 -187zM1043 11l254.001 -274.999h-126l-227 246c-16.667 -3.33301 -31.167 -5.66602 -43.5 -6.99902
s-23.5 -2.16602 -33.5 -2.49902s-19.833 -0.5 -29.5 -0.5s-19.834 -0.333008 -30.501 -1c-96.667 0 -184.334 18.333 -263.001 55s-146 88.667 -202 156s-99.167 148.666 -129.5 243.999s-45.5 201.666 -45.5 318.999s15.167 223.666 45.5 318.999s73.333 176.833 129 244.5
s122.834 119.834 201.501 156.501s166.667 55 264 55c96.667 0 184.334 -18.5 263.001 -55.5s145.667 -89.167 201 -156.5s98.166 -148.833 128.499 -244.5s45.5 -201.834 45.5 -318.501c0 -88.667 -9 -172 -27 -250s-44 -148.5 -78 -211.5s-76 -117.667 -126 -164
s-107 -82.5 -171 -108.5z" />
    <glyph glyph-name="R" unicode="R" horiz-adv-x="1423" 
d="M867 700c19.333 -7.33301 39.333 -18.8311 60 -34.498s40.667 -35.5 60 -59.5c13.333 -17.333 29.5 -42.5 48.5 -75.5l68.5 -122.5l209 -408h-107l-213 410c-28.667 54.667 -55.667 99.167 -81 133.5s-52 61.166 -80 80.499s-58.667 32.666 -92 39.999
s-72.333 11 -117 11h-271v-675h-100v1493h405c303.333 0 455 -143.333 455 -430c0 -44.667 -4.5 -86.5 -13.5 -125.5s-23.333 -74 -43 -105s-45 -57.833 -76 -80.5s-68.5 -40 -112.5 -52zM352 1411v-653h330c216 0 324 109.333 324 328c0 216.667 -108 325 -324 325h-330z
" />
    <glyph glyph-name="S" unicode="S" horiz-adv-x="1300" 
d="M1084 1418l-0.00488281 -94c-32.667 16.667 -67 32 -103 46s-74 27.667 -114 41c-55.333 18 -125.333 27 -210 27c-52.667 0 -101.667 -5.5 -147 -16.5s-84.833 -29.5 -118.5 -55.5s-60 -60.167 -79 -102.5s-28.5 -94.833 -28.5 -157.5
c0 -38 6.83301 -71.833 20.5 -101.5s34 -56 61 -79s60.333 -43 100 -60s85.834 -32.5 138.501 -46.5l119 -31c72.667 -19.333 135 -41.833 187 -67.5s94.5 -54.334 127.5 -86.001s57.167 -66.5 72.5 -104.5s23 -78.333 23 -121c0 -162.667 -47.667 -275 -143 -337
c-52 -34 -104.833 -59.333 -158.5 -76s-107.5 -25 -161.5 -25c-48.667 0 -93.667 2.5 -135 7.5s-81.166 13 -119.499 24s-76.166 25.5 -113.499 43.5s-76 40 -116 66v98c46.667 -28 86.334 -50.833 119.001 -68.5s58.334 -30.167 77.001 -37.5c82.667 -34 160 -51 232 -51
c121.333 0 222.666 27 303.999 81c76 50.667 114 139.667 114 267c0 44 -9.16699 82.833 -27.5 116.5s-42.833 63 -73.5 88s-66 45.833 -106 62.5s-81.667 30.334 -125 41.001l-120 29c-62 14.667 -117.667 33.167 -167 55.5s-91 48.333 -125 78
s-60.167 63.334 -78.5 101.001s-27.5 79.5 -27.5 125.5c0 66 9.5 125 28.5 177s48 96.167 87 132.5s88.5 64.166 148.5 83.499s131 29 213 29c92.667 0 163.667 -8 213 -24c126.667 -41.333 197.334 -67.333 212.001 -78z" />
    <glyph glyph-name="T" unicode="T" horiz-adv-x="1251" 
d="M45 1493h1161v-82h-530v-1411h-101v1411h-530v82z" />
    <glyph glyph-name="U" unicode="U" horiz-adv-x="1499" 
d="M229 1493h100v-907c0 -94.667 8 -175.667 24 -243s41 -122.5 75 -165.5s77.5 -74.5 130.5 -94.5s116.833 -30 191.5 -30c74 0 137.5 10 190.5 30s96.5 51.5 130.5 94.5s59 98.167 75 165.5s24 148.333 24 243v907h100v-932c0 -194.667 -43.833 -341.667 -131.5 -441
s-217.167 -149 -388.5 -149c-173.333 0 -303.5 49.5 -390.5 148.5s-130.5 246.167 -130.5 441.5v932z" />
    <glyph glyph-name="V" unicode="V" horiz-adv-x="1401" 
d="M632 0l-570 1493h114l524 -1393l528 1393h105l-569 -1493h-132z" />
    <glyph glyph-name="W" unicode="W" horiz-adv-x="2025" 
d="M142 1493h103l341 -1375l340 1375h126l338 -1367l340 1367h103l-371 -1493h-143l-330 1330l-329 -1330h-148z" />
    <glyph glyph-name="X" unicode="X" horiz-adv-x="1403" 
d="M180 1493h114l418 -627l420 627h116l-479 -712l519 -781h-115l-468 702l-470 -702h-115l528 789z" />
    <glyph glyph-name="Y" unicode="Y" horiz-adv-x="1251" 
d="M46 1493h116l465 -688l462 688h114l-528 -782v-711h-101v711z" />
    <glyph glyph-name="Z" unicode="Z" horiz-adv-x="1403" 
d="M115 1493h1173v-81l-1076 -1330h1099v-82h-1219v81l1074 1329h-1051v83z" />
    <glyph glyph-name="bracketleft" unicode="[" horiz-adv-x="799" 
d="M232 1556h341v-104h-241v-1638h241v-84h-341v1826z" />
    <glyph glyph-name="backslash" unicode="\" horiz-adv-x="690" 
d="M138 1493l520 -1683h-106l-520 1683h106z" />
    <glyph glyph-name="bracketright" unicode="]" horiz-adv-x="799" 
d="M573 1556v-1826h-341v84h241v1638h-241v104h341z" />
    <glyph glyph-name="asciicircum" unicode="^" horiz-adv-x="1716" 
d="M917 1493l543 -557h-133l-469 431l-467 -431h-134l543 557h117z" />
    <glyph glyph-name="underscore" unicode="_" horiz-adv-x="1024" 
d="M1044 -405v-78h-1064v78h1064z" />
    <glyph glyph-name="grave" unicode="`" horiz-adv-x="1024" 
d="M330 1638l282 -374h-82l-326 374h126z" />
    <glyph glyph-name="a" unicode="a" horiz-adv-x="1255" 
d="M680 632c-74 0 -137.335 -6.66504 -190.002 -19.998s-96 -33 -130 -59s-58.833 -58.333 -74.5 -97s-23.5 -83.334 -23.5 -134.001c0 -50 7.5 -92.333 22.5 -127s35.167 -62.834 60.5 -84.501s54.333 -37.167 87 -46.5s67 -14 103 -14c69.333 0 129.333 14.667 180 44
s91.334 74 122.001 134c30.667 60.667 53.834 118.5 69.501 173.5s23.5 108.833 23.5 161.5v69h-250zM1023 639.002v-639.001h-91v304c-51.333 -148.667 -119.333 -243.334 -204 -284.001c-67.333 -32.667 -134.333 -49 -201 -49c-56 0 -106.167 7.5 -150.5 22.5
s-82 37.333 -113 67s-54.667 66.5 -71 110.5s-24.5 95 -24.5 153c0 57.333 10 109.5 30 156.5s51.5 87.333 94.5 121s98.167 59.667 165.5 78s148.666 27.5 243.999 27.5h228v18c0 48 -6.66699 92.833 -20 134.5s-34.5 77.834 -63.5 108.501s-66.5 54.667 -112.5 72
s-101.667 26 -167 26c-28 0 -54.833 -1.5 -80.5 -4.5s-52.667 -9 -81 -18s-58.666 -22 -90.999 -39s-68.833 -39.5 -109.5 -67.5v99c70.667 44 137.167 73.5 199.5 88.5s122.833 22.5 181.5 22.5c132 0 240.667 -40 326 -120c74 -69.333 111 -198.666 111 -387.999z" />
    <glyph glyph-name="b" unicode="b" horiz-adv-x="1300" 
d="M924 949c-77.333 78 -158.333 117 -243 117c-84 0 -164.333 -39 -241 -117c-76.667 -76.667 -115 -206.667 -115 -390s38.333 -313.333 115 -390c76.667 -78 157 -117 241 -117c84.667 0 165.667 39 243 117c77.333 78.667 116 208.667 116 390
c0 180.667 -38.667 310.667 -116 390zM324 864c42 97.333 87.667 164 137 200c75.333 55.333 146.333 83 213 83c66 0 127.333 -14.333 184 -43s105.667 -68.834 147 -120.501s73.666 -113.667 96.999 -186s35 -151.833 35 -238.5c0 -87.333 -11.667 -167.166 -35 -239.499
s-55.666 -134.333 -96.999 -186s-90.333 -91.667 -147 -120s-118 -42.5 -184 -42.5c-66.667 0 -137.667 27.667 -213 83c-49.333 36 -95 102.667 -137 200v-254h-90v1556h90v-692z" />
    <glyph glyph-name="c" unicode="c" horiz-adv-x="1126" 
d="M999 1066l0.00195312 -98.002c-35.333 21.333 -67 38.5 -95 51.5s-54.333 23 -79 30s-48.334 11.5 -71.001 13.5s-46 3 -70 3c-81.333 0 -150.5 -10.167 -207.5 -30.5s-103.667 -51.5 -140 -93.5s-62.833 -94.833 -79.5 -158.5s-25 -138.5 -25 -224.5
c0 -87.333 8.33301 -162.833 25 -226.5s43.167 -116.5 79.5 -158.5s83 -73.167 140 -93.5s126.167 -30.5 207.5 -30.5c106.667 0 211.667 28.667 315 86v-93c-50.667 -24 -103.667 -42 -159 -54s-110 -18 -164 -18c-164 0 -294.333 44.333 -391 133
s-145 240.334 -145 455.001s48.333 366.334 145 455.001s227 133 391 133c25.333 0 52.666 -2 81.999 -6s58.5 -9.66699 87.5 -17s56.833 -16 83.5 -26s50 -20.667 70 -32z" />
    <glyph glyph-name="d" unicode="d" horiz-adv-x="1300" 
d="M1047 864v692h90v-1556h-90v254c-42 -97.333 -87.667 -164 -137 -200c-75.333 -55.333 -146.333 -83 -213 -83c-66 0 -127.333 14.167 -184 42.5s-105.667 68.333 -147 120s-73.666 113.667 -96.999 186s-35 152.166 -35 239.499c0 86.667 11.667 166.167 35 238.5
s55.666 134.333 96.999 186s90.333 91.834 147 120.501s118 43 184 43c66.667 0 137.667 -27.667 213 -83c49.333 -36 95 -102.667 137 -200zM447 169c76.667 -78 157.668 -117 243.001 -117c83.333 0 163.666 39 240.999 117c76.667 76.667 115 206.667 115 390
s-38.333 313.333 -115 390c-78 78 -158.333 117 -241 117c-85.333 0 -166.333 -39 -243 -117c-77.333 -79.333 -116 -209.333 -116 -390s38.667 -310.667 116 -390z" />
    <glyph glyph-name="e" unicode="e" horiz-adv-x="1260" 
d="M1105 606v-57.999h-850c0 -180 35 -306 105 -378c76.667 -80 191.667 -120 345 -120c18.667 0 42 2.16699 70 6.5s58 10.833 90 19.5s65 19.5 99 32.5s66.667 28.167 98 45.5v-97c-32 -13.333 -65.5 -25.333 -100.5 -36s-69 -19.667 -102 -27s-64 -13 -93 -17
s-53.167 -6 -72.5 -6c-90 0 -168.333 12.833 -235 38.5s-122 63.167 -166 112.5s-76.833 109.666 -98.5 180.999s-32.5 153 -32.5 245c0 101.333 11.667 189.5 35 264.5s56.5 137.333 99.5 187s95.333 86.667 157 111s131.167 36.5 208.5 36.5
c75.333 0 140.833 -13.167 196.5 -39.5s101.667 -63.333 138 -111s63.5 -104.667 81.5 -171s27 -139.5 27 -219.5zM1012 626.001c0 72.667 -7.83398 136.498 -23.501 191.498s-38.5 100.833 -68.5 137.5s-66.5 64.334 -109.5 83.001s-91.833 28 -146.5 28
c-113.333 0 -206.666 -33.333 -279.999 -100c-69.333 -63.333 -111 -176.666 -125 -339.999h753z" />
    <glyph glyph-name="f" unicode="f" horiz-adv-x="721" 
d="M714 1556l0.000976562 -78h-130c-76.667 0 -132.834 -21.667 -168.501 -65s-53.5 -108 -53.5 -194v-99h302v-78h-302v-1042h-93v1042h-176v78h176v78c0 62 7.33301 115.667 22 161s35.667 82.5 63 111.5s60.5 50.5 99.5 64.5s83.167 21 132.5 21h128z" />
    <glyph glyph-name="g" unicode="g" horiz-adv-x="1229" 
d="M976 573c0 77.333 -8.16602 146.333 -24.499 207s-40 112 -71 154s-68.667 74 -113 96s-94.833 33 -151.5 33c-56 0 -106.167 -11 -150.5 -33s-81.833 -54 -112.5 -96s-54.167 -93.333 -70.5 -154s-24.5 -129.667 -24.5 -207s8 -146.166 24 -206.499
s39.167 -111.5 69.5 -153.5s67.666 -74 111.999 -96s95.166 -33 152.499 -33s108.333 11 153 33s82.334 54 113.001 96s54 93.167 70 153.5s24 129.166 24 206.499zM1068 139c0 -232.667 -44.334 -385.001 -133.001 -457.001c-89.333 -72 -201.666 -108 -336.999 -108
c-66.667 0 -128 4.66699 -184 14s-111.333 24.333 -166 45v105c54 -30 107.333 -51.833 160 -65.5s106.334 -20.5 161.001 -20.5c110 0 205.667 23.667 287 71c80 46.667 120 174.334 120 383.001v175c-16.667 -48 -38 -89.667 -64 -125s-54.833 -64.5 -86.5 -87.5
s-65.334 -40.167 -101.001 -51.5s-71.834 -17 -108.501 -17c-71.333 0 -135 13 -191 39s-103.333 63.5 -142 112.5s-68 109.167 -88 180.5s-30 152 -30 242s10.167 170.5 30.5 241.5s49.833 131 88.5 180s85.834 86.5 141.501 112.5s119.167 39 190.5 39
c82 0 153 -22.667 213 -68s109 -111 147 -197v238h92v-981z" />
    <glyph glyph-name="h" unicode="h" horiz-adv-x="1298" 
d="M1078 676l0.000976562 -675.995h-92v670c0 72.667 -6.16699 134.167 -18.5 184.5s-30.666 91.166 -54.999 122.499s-55 54 -92 68s-79.833 21 -128.5 21c-56 0 -106.667 -7.83301 -152 -23.5s-84 -40.834 -116 -75.501s-56.667 -79.5 -74 -134.5s-26 -121.5 -26 -199.5
v-633h-92v1556h92v-643c11.333 31.333 27.666 61.166 48.999 89.499s48 53.166 80 74.499s69.667 38.333 113 51s92.666 19 147.999 19c54.667 0 104.5 -10 149.5 -30s83.333 -49.833 115 -89.5s56.167 -88.834 73.5 -147.501s26 -126.667 26 -204z" />
    <glyph glyph-name="i" unicode="i" horiz-adv-x="569" 
d="M230 1120h92v-1120h-92v1120zM230 1556l92 -126h-92v126z" />
    <glyph glyph-name="j" unicode="j" horiz-adv-x="569" 
d="M239 1120l92.001 -0.00195312v-1140c0 -77.333 -5.66699 -142 -17 -194s-29 -93.667 -53 -125s-54.833 -53.666 -92.5 -66.999s-82.834 -20 -135.501 -20h-70v78h49c74 0 130.667 16.667 170 50c38 32.667 57 125.334 57 278.001v1140zM239.001 1556h92v-126h-92v126z
" />
    <glyph glyph-name="k" unicode="k" horiz-adv-x="1186" 
d="M325 1556h93v-945l557 509h126l-579 -529l598 -591h-119l-583 574v-574h-93v1556z" />
    <glyph glyph-name="l" unicode="l" horiz-adv-x="569" 
d="M232 1556h92v-1556h-92v1556z" />
    <glyph glyph-name="m" unicode="m" horiz-adv-x="1995" 
d="M1038 876c34 88.667 87.1689 155.998 159.502 201.998s157.833 69 256.5 69c47.333 0 90.833 -7.66699 130.5 -23s73.667 -41.166 102 -77.499s50.5 -84.666 66.5 -144.999s24 -135.5 24 -225.5v-676h-91v670c0 78.667 -5.66699 143.5 -17 194.5s-27.333 91.5 -48 121.5
s-45.334 50.833 -74.001 62.5s-60.334 17.5 -95.001 17.5c-102 0 -192.667 -31.667 -272 -95c-86 -69.333 -129 -182 -129 -338v-633h-92v670c0 76 -5.5 139.333 -16.5 190s-26.5 91.167 -46.5 121.5s-44.5 52 -73.5 65s-61.5 19.5 -97.5 19.5
c-102.667 0 -193.334 -32 -272.001 -96c-86 -69.333 -129 -181.666 -129 -336.999v-633h-92v1120h92v-210c33.333 73.333 83.833 131.166 151.5 173.499s152.834 63.5 255.501 63.5c64.667 0 127.667 -22 189 -66c46.667 -34 86 -102.333 118 -205z" />
    <glyph glyph-name="n" unicode="n" horiz-adv-x="1298" 
d="M1078 676l0.000976562 -676h-92v670c0 73.333 -6 135.166 -18 185.499s-29.5 91.166 -52.5 122.499s-51.833 53.833 -86.5 67.5s-74.334 20.5 -119.001 20.5c-106.667 0 -197.334 -32 -272.001 -96c-76 -65.333 -114 -177.666 -114 -336.999v-633h-92v1120h92v-210
c20 41.333 44.333 77 73 107s60 54.667 94 74s70 33.5 108 42.5s76.333 13.5 115 13.5c54.667 0 104.334 -9 149.001 -27s83 -46.167 115 -84.5s56.667 -87.166 74 -146.499s26 -130.333 26 -213z" />
    <glyph glyph-name="o" unicode="o" horiz-adv-x="1253" 
d="M358 929c-66.667 -90.667 -100 -213.332 -100 -367.999c0 -78.667 8.5 -149.5 25.5 -212.5s41.5 -116.667 73.5 -161s70.833 -78.333 116.5 -102s97.167 -35.5 154.5 -35.5s108.833 12 154.5 36s84.5 58.333 116.5 103s56.5 98.5 73.5 161.5s25.5 133.167 25.5 210.5
c0 75.333 -8.5 144 -25.5 206s-41.5 115.167 -73.5 159.5s-70.833 78.666 -116.5 102.999s-97.167 36.5 -154.5 36.5c-114 0 -204 -45.667 -270 -137zM627 1147c71.333 0 135.667 -14.165 193 -42.498s106 -68.166 146 -119.499s70.667 -113 92 -185s32 -152 32 -240
c0 -91.333 -10.833 -173.5 -32.5 -246.5s-52.5 -135.333 -92.5 -187s-88.667 -91.334 -146 -119.001s-121.333 -41.5 -192 -41.5c-72 0 -136.833 13.833 -194.5 41.5s-106.5 67.167 -146.5 118.5s-70.667 113.666 -92 186.999s-32 155.666 -32 246.999
c0 88.667 10.833 169.167 32.5 241.5s52.5 134 92.5 185s88.667 90.5 146 118.5s122 42 194 42z" />
    <glyph glyph-name="p" unicode="p" horiz-adv-x="1300" 
d="M324 254v-680h-90v1546h90v-256c42 97.333 87.667 164 137 200c75.333 55.333 146.333 83 213 83c66 0 127.333 -14.333 184 -43s105.667 -68.834 147 -120.501s73.666 -113.667 96.999 -186s35 -151.833 35 -238.5c0 -87.333 -11.667 -167.166 -35 -239.499
s-55.666 -134.333 -96.999 -186s-90.333 -91.667 -147 -120s-118 -42.5 -184 -42.5c-66.667 0 -137.667 27.667 -213 83c-49.333 36 -95 102.667 -137 200zM924 949c-77.333 78 -158.333 117 -243 117c-84 0 -164.333 -39 -241 -117
c-76.667 -76.667 -115 -206.667 -115 -390s38.333 -313.333 115 -390c76.667 -78 157 -117 241 -117c84.667 0 165.667 39 243 117c77.333 78.667 116 208.667 116 390c0 180.667 -38.667 310.667 -116 390z" />
    <glyph glyph-name="q" unicode="q" horiz-adv-x="1300" 
d="M447 169c76.667 -78 157.668 -117 243.001 -117c83.333 0 163.666 39 240.999 117c76.667 76.667 115 206.667 115 390s-38.333 313.333 -115 390c-78 78 -158.333 117 -241 117c-85.333 0 -166.333 -39 -243 -117c-77.333 -79.333 -116 -209.333 -116 -390
s38.667 -310.667 116 -390zM1047 254c-42 -97.333 -87.667 -164 -137 -200c-75.333 -55.333 -146.333 -83 -213 -83c-66 0 -127.333 14.167 -184 42.5s-105.667 68.333 -147 120s-73.666 113.667 -96.999 186s-35 152.166 -35 239.499c0 86.667 11.667 166.167 35 238.5
s55.666 134.333 96.999 186s90.333 91.834 147 120.501s118 43 184 43c66.667 0 137.667 -27.667 213 -83c49.333 -36 95 -102.667 137 -200v256h90v-1546h-90v680z" />
    <glyph glyph-name="r" unicode="r" horiz-adv-x="842" 
d="M840 1041c-15.333 7.33301 -34.167 13.335 -56.5 18.002s-52.166 7 -89.499 7c-114 0 -208 -42 -282 -126c-58.667 -66.667 -88 -183.334 -88 -350.001v-590h-90v1120h90v-210c18 36.667 40.5 69.667 67.5 99s57.167 54.166 90.5 74.499s69.666 36 108.999 47
s80.333 16.5 123 16.5c26.667 0 49.667 -0.5 69 -1.5s38.333 -3.83301 57 -8.5v-96z" />
    <glyph glyph-name="s" unicode="s" horiz-adv-x="1067" 
d="M866 1087l-0.00195312 -100.999c-64.667 35.333 -105 55.333 -121 60c-50.667 11.333 -108.667 18 -174 20c-46 0 -88.333 -3.66699 -127 -11s-72 -20 -100 -38s-50 -42.5 -66 -73.5s-24 -70.5 -24 -118.5c0 -30 6 -56.167 18 -78.5s29.333 -42 52 -59
s50.167 -31.667 82.5 -44s68.833 -22.833 109.5 -31.5l63 -14c114 -25.333 198.667 -61.333 254 -108s84.333 -107 87 -181c0 -54 -7.83301 -102 -23.5 -144s-40.167 -77.333 -73.5 -106s-76.333 -50.5 -129 -65.5s-116 -22.5 -190 -22.5c-46 0 -85 1.66699 -117 5
s-60.5 8 -85.5 14s-48.833 13.333 -71.5 22l-76 29v115c82.667 -47.333 135.334 -74 158.001 -80c32.667 -9.33301 65.334 -16 98.001 -20s65.334 -6 98.001 -6c54.667 0 102 6 142 18s73 28.833 99 50.5s45.167 47.5 57.5 77.5s18.5 63 18.5 99
c0 34.667 -6.16699 64.167 -18.5 88.5s-30.833 45.333 -55.5 63s-55 32.667 -91 45s-78 24.166 -126 35.499l-64 15c-106 24.667 -183.833 60.667 -233.5 108s-74.5 103 -74.5 167c0 59.333 10.167 110 30.5 152s48.166 76.167 83.499 102.5s76.333 45.5 123 57.5
s96.667 18 150 18c92.667 0 156.667 -5 192 -15c42 -11.333 83.667 -26.333 125 -45z" />
    <glyph glyph-name="t" unicode="t" horiz-adv-x="803" 
d="M329 1438l0.000976562 -317.999h379v-78h-379v-673c0 -84.667 11 -144.334 33 -179.001c23.333 -38 51.166 -66.167 83.499 -84.5s70.5 -27.5 114.5 -27.5h148v-78h-143c-90 0 -167.667 26.667 -233 80c-64 52.667 -96 149 -96 289v673h-134v78h134v318h93z" />
    <glyph glyph-name="u" unicode="u" horiz-adv-x="1298" 
d="M232 444l0.00195312 676.001h92v-670c0 -73.333 6 -135.333 18 -186s29.5 -91.5 52.5 -122.5s51.667 -53.333 86 -67s74.166 -20.5 119.499 -20.5c106 0 196.667 32 272 96c76 64.667 114 177 114 337v633h92v-1120h-92v210c-20 -41.333 -44.5 -77 -73.5 -107
s-60.5 -54.667 -94.5 -74s-70 -33.5 -108 -42.5s-76 -13.5 -114 -13.5c-54.667 0 -104.334 9 -149.001 27s-83 46.167 -115 84.5s-56.667 87.166 -74 146.499s-26 130.333 -26 213z" />
    <glyph glyph-name="v" unicode="v" horiz-adv-x="1212" 
d="M130 1120h96l380 -1019l379 1019h97l-417 -1120h-118z" />
    <glyph glyph-name="w" unicode="w" horiz-adv-x="1675" 
d="M130 1120h95l263 -998l261 998h117l263 -1003l262 1003h95l-293 -1120h-128l-258 982l-257 -982h-126z" />
    <glyph glyph-name="x" unicode="x" horiz-adv-x="1212" 
d="M1068 1120l-405 -538l435 -582h-110l-380 510l-384 -510h-110l438 586l-398 534h109l345 -465l350 465h110z" />
    <glyph glyph-name="y" unicode="y" horiz-adv-x="1212" 
d="M610 -104c-40.667 -100.667 -83.665 -169.333 -128.998 -206c-63.333 -51.333 -124 -77 -182 -77h-137v78h117c55.333 0 103.166 20.333 143.499 61s74.166 95.667 101.499 165l33 83l-447 1120h98l398 -998l399 998h97z" />
    <glyph glyph-name="z" unicode="z" horiz-adv-x="1075" 
d="M113 1120h874v-106l-810 -936h810v-78h-899v102l809 939h-784v79z" />
    <glyph glyph-name="braceleft" unicode="{" 
d="M883 -248l-0.000976562 -86h-41c-48 0 -88.5 5.33301 -121.5 16s-59.667 29.667 -80 57s-34.833 65 -43.5 113s-13 109 -13 183v253c0 42 -3.16699 80.167 -9.5 114.5s-16.166 63.666 -29.499 87.999s-30.166 43.333 -50.499 57s-44.833 20.5 -73.5 20.5h-74v88h74
c27.333 0 58.666 12 93.999 36c46 30.667 69 111.334 69 242.001v254c0 74 4.33301 134.833 13 182.5s23.167 85.167 43.5 112.5s47 46.333 80 57s73.5 16 121.5 16h41v-85h-45c-32 0 -57.833 -3.16699 -77.5 -9.5s-35 -18.333 -46 -36s-18.5 -42.5 -22.5 -74.5
s-6 -74 -6 -126v-289c0 -53.333 -2.33301 -98.5 -7 -135.5s-12.334 -68 -23.001 -93s-24.667 -45 -42 -60s-38.333 -26.833 -63 -35.5c24.667 -9.33301 45.667 -21.5 63 -36.5s31.333 -35 42 -60s18.334 -56 23.001 -93s7 -82.167 7 -135.5v-290c0 -52 2 -94 6 -126
s11.5 -56.833 22.5 -74.5s26.5 -29.5 46.5 -35.5s45.667 -9 77 -9h45z" />
    <glyph glyph-name="bar" unicode="|" horiz-adv-x="690" 
d="M396 1565v-2048h-96v2048h96z" />
    <glyph glyph-name="braceright" unicode="}" 
d="M347 -248l46.001 0.000976562c31.333 0 56.833 3.16699 76.5 9.5s35.167 18.333 46.5 36s19 42.5 23 74.5s6 73.667 6 125v290c0 52.667 2.33301 97.5 7 134.5s12.167 68 22.5 93s24.166 45.167 41.499 60.5s38.666 27.666 63.999 36.999
c-25.333 8.66699 -46.5 20.5 -63.5 35.5s-30.833 35 -41.5 60s-18.334 56 -23.001 93s-7 82.167 -7 135.5v289c0 51.333 -2 93 -6 125s-11.667 57 -23 75s-26.833 30.167 -46.5 36.5s-45.167 9.5 -76.5 9.5h-46v85h42c48 0 88.5 -5.33301 121.5 -16s59.667 -29.667 80 -57
s34.833 -64.833 43.5 -112.5s13 -108.5 13 -182.5v-254c0 -130.667 23 -211.334 69 -242.001c34.667 -24 66 -36 94 -36h73v-88h-73c-28.667 0 -53.167 -6.83301 -73.5 -20.5s-37.166 -32.667 -50.499 -57s-23.166 -53.666 -29.499 -87.999s-9.5 -72.5 -9.5 -114.5v-253
c0 -74 -4.33301 -135 -13 -183s-23.167 -85.667 -43.5 -113s-47 -46.333 -80 -57s-73.5 -16 -121.5 -16h-42v86z" />
    <glyph glyph-name="asciitilde" unicode="~" horiz-adv-x="1716" 
d="M1499 782l-0.00390625 -96.999c-34.667 -26.667 -67.834 -49.334 -99.501 -68.001s-62.834 -33.834 -93.501 -45.501s-61.5 -20.167 -92.5 -25.5s-62.833 -8 -95.5 -8c-19.333 0 -39.166 2 -59.499 6s-42.166 9.16699 -65.499 15.5s-48.833 14 -76.5 23
s-58.5 18.5 -92.5 28.5c-104.667 41.333 -187.667 62 -249 62c-59.333 0 -117.5 -12.833 -174.5 -38.5s-118.167 -66.167 -183.5 -121.5v97c34.667 26.667 67.834 49.334 99.501 68.001s62.834 34 93.501 46s61.334 20.667 92.001 26s62.667 8 96 8
c71.333 0 157 -20 257 -60c60 -25.333 114 -44.333 162 -57s89.333 -19 124 -19c28.667 0 56.834 3 84.501 9s56 15.5 85 28.5s58.833 29.5 89.5 49.5s63.667 44.333 99 73z" />
    <glyph glyph-name="nonbreakingspace" unicode="&#xa0;" horiz-adv-x="651" 
 />
    <glyph glyph-name="currency" unicode="&#xa4;" 
d="M889 951l221.999 222l70 -73l-219 -220c28.667 -36 49.334 -73.833 62.001 -113.5s19 -80.5 19 -122.5c0 -48.667 -7.66699 -92.5 -23 -131.5s-35.666 -74.5 -60.999 -106.5l222 -222l-70 -73l-225 225c-36 -28 -73.833 -47.833 -113.5 -59.5s-80.5 -17.5 -122.5 -17.5
c-46.667 0 -89.167 6.83301 -127.5 20.5s-73.5 32.167 -105.5 55.5l-224 -224l-70 73l220 221c-30.667 38 -52.5 76.833 -65.5 116.5s-19.5 80.5 -19.5 122.5c0 18 1.66699 37.833 5 59.5s8.5 43.167 15.5 64.5s15.667 42 26 62s22.166 37 35.499 51l-217 219l70 73
l221 -221c36.667 28.667 74.667 49 114 61s80 18 122 18c29.333 0 56.333 -2.66699 81 -8s47 -12 67 -20s37.667 -16.667 53 -26s28 -18 38 -26zM950.999 644c0 38.667 -7.33301 76.666 -22 113.999s-35.334 70.333 -62.001 99s-58.5 51.834 -95.5 69.501
s-77.5 26.5 -121.5 26.5c-39.333 0 -77 -7.83301 -113 -23.5s-67.833 -37.334 -95.5 -65.001s-49.834 -60.667 -66.501 -99s-25 -80.166 -25 -125.499c0 -39.333 7.83301 -77.166 23.5 -113.499s37 -68.5 64 -96.5s59 -50.5 96 -67.5s77.167 -25.5 120.5 -25.5
c38 0 74.667 7.66699 110 23s66.833 36.666 94.5 63.999s49.834 59.833 66.501 97.5s25.334 78.5 26.001 122.5z" />
    <glyph glyph-name="brokenbar" unicode="&#xa6;" horiz-adv-x="690" 
d="M390 408v-758h-100v758h100zM390 1432v-758h-100v758h100z" />
    <glyph glyph-name="section" unicode="&#xa7;" horiz-adv-x="1024" 
d="M412 954c-62 -10.667 -104.667 -24.002 -128 -40.002c-58.667 -40.667 -88 -91.334 -88 -152.001c0 -87.333 60.667 -166 182 -236c146 -85.333 220 -129.333 222 -132c41.333 6.66699 75.833 16.334 103.5 29.001s49.667 27.334 66 44.001s28 35.167 35 55.5
s10.5 41.5 10.5 63.5c0 82.667 -60.333 161.334 -181 236.001c-135.333 84 -209.333 128 -222 132zM829 1462l0.00292969 -102.001c-23.333 10.667 -47.5 20.834 -72.5 30.501s-49.667 18 -74 25s-48 12.5 -71 16.5s-44.5 6 -64.5 6
c-93.333 0 -165.666 -13.333 -216.999 -40s-77 -64.334 -77 -113.001c0 -52 23.667 -102.833 71 -152.5s118.666 -101.167 213.999 -154.5l25 -14c74 -42 134.333 -78.833 181 -110.5s81 -60.5 103 -86.5c21.333 -26 37.666 -53.667 48.999 -83s17 -61.333 17 -96
c0 -42.667 -15.667 -90.667 -47 -144c-26.667 -44 -88.667 -82.667 -186 -116c34 -24 61.833 -49.167 83.5 -75.5s39 -51.666 52 -75.999s22 -46.333 27 -66s7.5 -34.5 7.5 -44.5c0 -36 -8.83301 -68.833 -26.5 -98.5s-42.5 -55 -74.5 -76s-70.5 -37.167 -115.5 -48.5
s-94.833 -17 -149.5 -17c-56 0 -107.833 5 -155.5 15s-97.5 24.333 -149.5 43v102c23.333 -11.333 47.5 -21.666 72.5 -30.999s49.667 -17.5 74 -24.5s48.166 -12.5 71.499 -16.5s44.666 -6 63.999 -6c93.333 0 165.666 13.167 216.999 39.5s77 63.833 77 112.5
c0 52 -23.667 102.833 -71 152.5s-118.666 101.5 -213.999 155.5l-25 14c-74 40.667 -134.5 77.167 -181.5 109.5s-81.167 61.5 -102.5 87.5c-44 52 -66 111.667 -66 179c0 42.667 15.667 90.667 47 144c26.667 44 88.667 82.667 186 116c-34 24 -61.833 49.167 -83.5 75.5
s-39 51.666 -52 75.999s-22 46.333 -27 66s-7.5 34.5 -7.5 44.5c0 36 8.83301 68.667 26.5 98s42.5 54.5 74.5 75.5s70.5 37.333 115.5 49s94.833 17.5 149.5 17.5c56 0 107.833 -5 155.5 -15s97.5 -24.333 149.5 -43z" />
    <glyph glyph-name="copyright" unicode="&#xa9;" horiz-adv-x="2048" 
d="M1024 1434c-56.667 0 -112.999 -7.16895 -168.999 -21.502s-109.667 -35.333 -161 -63s-99 -61.667 -143 -102s-82.333 -86.166 -115 -137.499s-58.167 -107.833 -76.5 -169.5s-27.5 -127.834 -27.5 -198.501c0 -56.667 7.5 -113 22.5 -169s36.667 -109.5 65 -160.5
s62.833 -98.5 103.5 -142.5s86.5 -82.167 137.5 -114.5s107.167 -57.666 168.5 -75.999s126.333 -27.5 195 -27.5c58 0 115.167 7.33301 171.5 22s110.166 36 161.499 64s98.666 62.167 141.999 102.5s81 86 113 137s57 107.167 75 168.5s27 126.666 27 195.999
c0 58.667 -7.33301 116.5 -22 173.5s-36 111.167 -64 162.5s-62.167 98.833 -102.5 142.5s-86 81.334 -137 113.001s-107.167 56.334 -168.5 74.001s-126.666 26.5 -195.999 26.5zM1308 1430c70.667 -30 134.332 -69.168 190.999 -117.501s104.667 -102.833 144 -163.5
s69.5 -125.667 90.5 -195s31.5 -140.333 31.5 -213c0 -60.667 -7.83301 -121.167 -23.5 -181.5s-38.334 -118 -68.001 -173s-66 -106 -109 -153s-92 -87.833 -147 -122.5s-115.5 -61.834 -181.5 -81.501s-136.667 -29.5 -212 -29.5c-62 0 -123.167 8 -183.5 24
s-118 39 -173 69s-106 66.5 -153 109.5s-87.667 92 -122 147s-61.166 115.333 -80.499 181s-29 135.834 -29 210.501c0 61.333 7.83301 122.5 23.5 183.5s38.334 119 68.001 174s66 106 109 153s92 87.833 147 122.5s115.5 61.834 181.5 81.501s136.667 29.5 212 29.5
c103.333 0 198 -18.333 284 -55zM1323 1137v-84.001c-44 26 -87.667 45.167 -131 57.5s-88 18.5 -134 18.5c-62.667 0 -118.5 -8.66699 -167.5 -26s-90.167 -42.5 -123.5 -75.5s-58.833 -73.333 -76.5 -121s-26.5 -101.834 -26.5 -162.501c0 -62 9.16699 -117 27.5 -165
s44.833 -88.5 79.5 -121.5s77.167 -58 127.5 -75s107.833 -25.5 172.5 -25.5c40 0 80.5 5.66699 121.5 17s84.5 31 130.5 59v-87c-46 -19.333 -91.167 -33.666 -135.5 -42.999s-90.5 -14 -138.5 -14c-72 0 -136.833 10.667 -194.5 32s-106.667 51.5 -147 90.5
s-71.333 86.333 -93 142s-32.5 118.167 -32.5 187.5c0 68.667 10.833 130.834 32.5 186.501s52.667 103.167 93 142.5s89.333 69.5 147 90.5s122.5 31.5 194.5 31.5c48.667 0 95.5 -4.66699 140.5 -14s89.5 -23 133.5 -41z" />
    <glyph glyph-name="guillemotleft" unicode="&#xab;" horiz-adv-x="1253" 
d="M1096 1024v-123l-339 -301l339 -301v-122l-469 418v11zM662 1024v-123l-339 -301l339 -301v-122l-469 418v11z" />
    <glyph glyph-name="logicalnot" unicode="&#xac;" horiz-adv-x="1716" 
d="M215 818h1251v-530h-99v448h-1152v82z" />
    <glyph glyph-name="sfthyphen" unicode="&#xad;" horiz-adv-x="739" 
d="M100 602h539v-82h-539v82z" />
    <glyph glyph-name="registered" unicode="&#xae;" horiz-adv-x="2048" 
d="M1024 1434c-56.667 0 -112.999 -7.16895 -168.999 -21.502s-109.667 -35.333 -161 -63s-99 -61.667 -143 -102s-82.333 -86.166 -115 -137.499s-58.167 -107.833 -76.5 -169.5s-27.5 -127.834 -27.5 -198.501c0 -56.667 7.5 -113 22.5 -169s36.667 -109.5 65 -160.5
s62.833 -98.5 103.5 -142.5s86.5 -82.167 137.5 -114.5s107.167 -57.666 168.5 -75.999s126.333 -27.5 195 -27.5c58 0 115.167 7.33301 171.5 22s110.166 36 161.499 64s98.666 62.167 141.999 102.5s81 86 113 137s57 107.167 75 168.5s27 126.666 27 195.999
c0 58.667 -7.33301 116.5 -22 173.5s-36 111.167 -64 162.5s-62.167 98.833 -102.5 142.5s-86 81.334 -137 113.001s-107.167 56.334 -168.5 74.001s-126.666 26.5 -195.999 26.5zM1308 1430c70.667 -30 134.332 -69.168 190.999 -117.501s104.667 -102.833 144 -163.5
s69.5 -125.667 90.5 -195s31.5 -140.333 31.5 -213c0 -60.667 -7.83301 -121.167 -23.5 -181.5s-38.334 -118 -68.001 -173s-66 -106 -109 -153s-92 -87.833 -147 -122.5s-115.5 -61.834 -181.5 -81.501s-136.667 -29.5 -212 -29.5c-62 0 -123.167 8 -183.5 24
s-118 39 -173 69s-106 66.5 -153 109.5s-87.667 92 -122 147s-61.166 115.333 -80.499 181s-29 135.834 -29 210.501c0 61.333 7.83301 122.5 23.5 183.5s38.334 119 68.001 174s66 106 109 153s92 87.833 147 122.5s115.5 61.834 181.5 81.501s136.667 29.5 212 29.5
c103.333 0 198 -18.333 284 -55zM996.999 1108l-149 0.000976562v-335h149c38.667 0 71.334 3 98.001 9s48.167 15.667 64.5 29s28 30.5 35 51.5s10.5 46.5 10.5 76.5s-3.5 55.833 -10.5 77.5s-18.667 39.167 -35 52.5s-37.833 23.166 -64.5 29.499s-59.334 9.5 -98.001 9.5
zM1004 1190c56.667 0 104.336 -5.16797 143.003 -15.501s69.667 -26 93 -47s40 -47 50 -78s15 -66.833 15 -107.5c0 -60.667 -13.167 -110 -39.5 -148s-63.833 -63 -112.5 -75c13.333 -4.66699 32.5 -21 57.5 -49s51.5 -64.333 79.5 -109l137 -223h-100l-129 209
c-19.333 30.667 -36.333 55.667 -51 75s-28.834 34.333 -42.501 45s-27.834 17.834 -42.501 21.501s-31.334 5.5 -50.001 5.5h-166v-356h-90v852h248z" />
    <glyph glyph-name="macron" unicode="&#xaf;" horiz-adv-x="1024" 
d="M213 1526h598v-88h-598v88z" />
    <glyph glyph-name="degree" unicode="&#xb0;" horiz-adv-x="1024" 
d="M512 1395c-29.333 0 -55.999 -5.16602 -79.999 -15.499s-44.833 -24.5 -62.5 -42.5s-31.334 -38.833 -41.001 -62.5s-14.5 -48.834 -14.5 -75.501c0 -27.333 5.16699 -53 15.5 -77s24.333 -44.833 42 -62.5s38.5 -31.667 62.5 -42s50 -15.5 78 -15.5
c27.333 0 53 5.16699 77 15.5s45 24.333 63 42s32.167 38.5 42.5 62.5s15.5 49.667 15.5 77c0 26.667 -5.16699 52 -15.5 76s-24.5 44.833 -42.5 62.5s-39 31.667 -63 42s-49.667 15.5 -77 15.5zM512.001 1473c31.333 0 63.333 -6.00293 96 -18.0029
s62.167 -29.5 88.5 -52.5s48 -51.667 65 -86s25.5 -73.833 25.5 -118.5c0 -37.333 -7.33301 -72.666 -22 -105.999s-34.5 -62.5 -59.5 -87.5s-54.167 -44.667 -87.5 -59s-68.666 -21.5 -105.999 -21.5c-36.667 0 -71.5 7.16699 -104.5 21.5s-62.167 33.833 -87.5 58.5
s-45.5 53.834 -60.5 87.501s-22.5 69.5 -22.5 107.5c0 36.667 7 71.5 21 104.5s33.333 62 58 87s53.667 44.833 87 59.5s69.666 22.334 108.999 23.001z" />
    <glyph glyph-name="plusminus" unicode="&#xb1;" horiz-adv-x="1716" 
d="M908 1284v-434h591v-83h-591v-427h-101v427h-590v83h590v434h101zM215 82h1285v-82h-1285v82z" />
    <glyph glyph-name="acute" unicode="&#xb4;" horiz-adv-x="989" 
d="M651 1638h128l-326 -376h-82z" />
    <glyph glyph-name="paragraph" unicode="&#xb6;" 
d="M633 1493l423.002 0.00195312v-1690h-91v1610h-240v-1610h-92v884c-78 5.33301 -145.833 18.5 -203.5 39.5s-105.5 48.667 -143.5 83s-66.333 75.166 -85 122.499s-28 100 -28 158c0 60 11 114.833 33 164.5s53.167 92.167 93.5 127.5s88.666 62.666 144.999 81.999
s119.166 29 188.499 29z" />
    <glyph glyph-name="periodcentered" unicode="&#xb7;" horiz-adv-x="651" 
d="M272 752h104v-126h-104v126z" />
    <glyph glyph-name="ordmasculine" unicode="&#xba;" horiz-adv-x="965" 
d="M139 592h688v-82h-688v82zM741 1411c62.667 -72.667 93.9961 -172 93.9961 -298c0 -63.333 -8.33301 -120 -25 -170s-40.167 -92.5 -70.5 -127.5s-67.166 -61.667 -110.499 -80s-92 -27.5 -146 -27.5c-55.333 0 -104.833 9.5 -148.5 28.5s-80.667 46 -111 81
s-53.666 77.5 -69.999 127.5s-24.5 106 -24.5 168c0 62.667 8.16699 119 24.5 169s39.833 92.667 70.5 128s67.834 62.5 111.501 81.5s92.834 28.5 147.501 28.5c109.333 0 195.333 -36.333 258 -109zM482.996 1440c-39.333 0 -75.002 -7.66699 -107.002 -23
s-59.167 -37.333 -81.5 -66s-39.666 -63.334 -51.999 -104.001s-18.5 -86.334 -18.5 -137.001c0 -48 6.16699 -92 18.5 -132s29.833 -74.333 52.5 -103s49.834 -50.834 81.501 -66.501s67.167 -23.5 106.5 -23.5s75 7.83301 107 23.5s59.167 37.834 81.5 66.501
s39.5 63 51.5 103s18 84 18 132c0 50 -6 95.333 -18 136s-29.167 75.334 -51.5 104.001s-49.333 50.834 -81 66.501s-67.5 23.5 -107.5 23.5z" />
    <glyph glyph-name="guillemotright" unicode="&#xbb;" horiz-adv-x="1253" 
d="M193 1024l469 -418v-11l-469 -418v122l339 301l-339 301v123zM627 1024l469 -418v-11l-469 -418v122l339 301l-339 301v123z" />
    <glyph glyph-name="divide" unicode="&#xf7;" horiz-adv-x="1716" 
d="M804 1134h102v-127h-102v127zM804 278h102v-128h-102v128zM215 685h1285v-82h-1285v82z" />
    <glyph glyph-name="uni10A0" unicode="&#x10a0;" horiz-adv-x="960" 
d="M860 454c0 -302.667 -128 -453.999 -384 -453.999c-250.667 0 -376 144.667 -376 434c0 80.667 6.33301 150.667 19 210h103c-14.667 -83.333 -22 -153.333 -22 -210c0 -233.333 93.333 -350 280 -350s280 123.333 280 370c0 150 -63 269.667 -189 359
c-125.333 87.333 -188 191.666 -188 312.999h97c0 -92 63.333 -184 190 -276s190 -224 190 -396z" />
    <glyph glyph-name="uni10A1" unicode="&#x10a1;" horiz-adv-x="960" 
d="M860 526c0 -350.667 -125.334 -526.002 -376.001 -526.002c-256 0 -384 175 -384 525c0 316.667 119.333 490.334 358 521.001l20 108c0.666992 2 1 5 1 9v10c0 58 -29.333 112 -88 162c-64.667 54.667 -97 135 -97 241h102c0 -73.333 29.333 -141.666 88 -204.999
c27.333 -30 47.333 -60.5 60 -91.5s19.334 -62.833 20.001 -95.5v-12c0 -5.33301 -0.333008 -9.33301 -1 -12l-20 -114c211.333 -46 317 -219.333 317 -520zM760.999 525.998c-0.666992 290.667 -92.334 436 -275.001 436c-190.667 0 -286 -144 -286 -432
c0 -297.333 95.333 -446 286 -446c182.667 0 274.334 147.333 275.001 442z" />
    <glyph glyph-name="uni10A2" unicode="&#x10a2;" horiz-adv-x="1062" 
d="M961 54c0 -338.667 -140.999 -507.998 -422.999 -507.998c-292 0 -438 169.333 -438 508c0 318.667 157 483.667 471 495c72 68.667 108 146 108 232c0 121.333 -61.667 182 -185 182c-117.333 0 -176 -49.667 -176 -149c0 -15.333 0.5 -29.5 1.5 -42.5
s2.16699 -24.833 3.5 -35.5l-88 -1l-4 41.5c-1.33301 14.333 -2 29.166 -2 44.499c0 150 88.333 225 265 225c191.333 0 287 -82.667 287 -248c0 -46 -9.5 -91.167 -28.5 -135.5s-46.5 -88.5 -82.5 -132.5c99.333 -28.667 172.666 -82.334 219.999 -161.001
s71 -183.667 71 -315zM860.001 54.002c0 270.667 -106.332 406.999 -318.999 408.999c-114.667 -1.33301 -200.334 -35.666 -257.001 -102.999s-85 -169.333 -85 -306c0 -283.333 112 -425 336 -425c216.667 0 325 141.667 325 425z" />
    <glyph glyph-name="uni10A3" unicode="&#x10a3;" horiz-adv-x="1487" 
d="M196 -255c51.333 49.333 146.002 87.998 284.002 115.998c-253.333 162 -380 409 -380 741c0 288.667 114.333 433 343 433c113.333 0 207.666 -47.667 282.999 -143c58.667 102.667 155.667 154 291 154c246.667 0 370 -166.333 370 -499
c0 -331.333 -122.667 -497 -368 -497c-118.667 0 -206.834 42 -264.501 126s-86.5 211 -86.5 381c0 38 1.5 77.167 4.5 117.5s7.83301 82.5 14.5 126.5c-54 101.333 -130 152 -228 152c-173.333 0 -260 -117 -260 -351c0 -175.333 34 -321.5 102 -438.5
s170.333 -207.833 307 -272.5c305.333 -79.333 479 -194.666 521 -345.999h-108c-79.333 152.667 -229 239.334 -449 260.001c-94.667 0 -202.667 -44.667 -324 -134zM1297 555.998c0 270.667 -92.667 406 -278 406c-177.333 0 -266 -135 -266 -405
c0 -281.333 88.667 -422 266 -422c185.333 0 278 140.333 278 421z" />
    <glyph glyph-name="uni10A4" unicode="&#x10a4;" horiz-adv-x="980" 
d="M860 -20c0 -290 -126.332 -435.001 -378.999 -435.001c-130.667 0 -226.667 36.167 -288 108.5s-92 180.833 -92 325.5c0 23.333 1.16699 49.166 3.5 77.499s5.83301 59.5 10.5 93.5h99c-4.66699 -38 -8.16699 -72.167 -10.5 -102.5s-3.5 -57.166 -3.5 -80.499
c0 -225.333 93.667 -338 281 -338c185.333 0 278.666 112.667 279.999 338v696c-1.33301 199.333 -86.333 299 -255 299c-86.667 0 -149.5 -21 -188.5 -63s-58.5 -105.333 -58.5 -190c0 -28 1.66699 -54.167 5 -78.5s8 -47.166 14 -68.499h-95c-16 66.667 -24 118 -24 154
c0 220 115.333 330 346 330c236.667 0 355 -127.667 355 -383v-683z" />
    <glyph glyph-name="uni10A5" unicode="&#x10a5;" horiz-adv-x="979" 
d="M859 -88c0 -244.667 -121.001 -367 -363.001 -367c-264 0 -396 136 -396 408c0 71.333 5 127 15 167h100c-10 -54 -15 -109.667 -15 -167c0 -216 98.667 -324 296 -324c175.333 0 263 95.333 263 286v160c0 180.667 -81 271 -243 271h-103v80h103
c78.667 0 137.834 23.167 177.501 69.5s59.5 117.833 59.5 214.5c0 168 -85.667 252 -257 252c-90 0 -155.667 -19.333 -197 -58s-62 -96.334 -62 -173.001c0 -15.333 0.833008 -32.166 2.5 -50.499s4.16699 -38.5 7.5 -60.5h-95
c-3.33301 21.333 -5.83301 42.166 -7.5 62.499s-2.5 39.833 -2.5 58.5c0 203.333 117.667 305 353 305c236.667 0 355 -113.333 355 -340c0 -152.667 -66.667 -258.667 -200 -318c139.333 -45.333 209 -149.666 209 -312.999v-163z" />
    <glyph glyph-name="uni10A6" unicode="&#x10a6;" horiz-adv-x="959" 
d="M859 545c0 -363.333 -127 -545 -381 -545c-252 0 -378 181.667 -378 545c0 227.333 60.667 371.666 182 432.999v20c-134.667 38.667 -202 132.334 -202 281.001c0 198 97.333 297 292 297c182 0 273 -94.333 273 -283c0 -96.667 -37.667 -180 -113 -250v-15
c218 -26 327 -187 327 -483zM759 551c0 139.333 -23.668 242.668 -71.001 310.001s-118.666 101 -213.999 101c-94 0 -163.167 -34.333 -207.5 -103s-66.5 -173.334 -66.5 -314.001c0 -307.333 92.667 -461 278 -461c187.333 0 281 155.667 281 467zM553.999 1267
c0 150.667 -61.999 226 -185.999 226c-132 0 -198 -74.333 -198 -223c0 -140 61.667 -215.667 185 -227c125.333 4 191.666 78.667 198.999 224z" />
    <glyph glyph-name="uni10A7" unicode="&#x10a7;" horiz-adv-x="1453" 
d="M1353 600c-0.666992 -94 -11.167 -190 -31.5 -288s-51.5 -198.667 -93.5 -302h-109c92 204.667 138 399.667 138 585c0 244.667 -83.667 367 -251 367c-90 0 -164.333 -50 -223 -150c19.333 -46 33.666 -93.333 42.999 -142s14 -100 14 -154
c0 -344 -122.333 -516 -367 -516c-248.667 0 -373 176.667 -373 530c0 344 125 516 375 516c124.667 0 215 -48 271 -144c58.667 96 145.334 144 260.001 144c231.333 0 347 -148.667 347 -446zM738 520c-0.666992 294.667 -88.333 442 -263 442c-184 0 -276 -142 -276 -426
c0 -301.333 91.333 -452 274 -452c176 0 264.333 145.333 265 436z" />
    <glyph glyph-name="uni10A8" unicode="&#x10a8;" horiz-adv-x="959" 
d="M859 545c0 -167.333 -36.333 -345.666 -109 -534.999h-100c73.333 253.333 110 431.666 110 534.999c0 278 -93.333 417 -280 417c-187.333 0 -281 -139 -281 -417c0 -104 37 -282.333 111 -535h-100c-73.333 194 -110 372.333 -110 535c0 334 126.667 501 380 501
c252.667 0 379 -167 379 -501z" />
    <glyph glyph-name="uni10A9" unicode="&#x10a9;" horiz-adv-x="980" 
d="M860 -28c0 -284.667 -128.333 -427.002 -385 -427.002c-250 0 -375 151.667 -375 455c0 38.667 4 78.667 12 120h96c-2.66699 -25.333 -4.66699 -48 -6 -68s-2 -37.333 -2 -52c0 -247.333 91.333 -371 274 -371c190 0 285 114.333 285 343v118c0 188 -85 282 -255 282
h-165v82h165c158.667 0 238 83.333 238 250c0 102.667 -62.333 216.334 -187 341.001h126c107.333 -123.333 161 -237.666 161 -342.999c0 -144.667 -61 -241.667 -183 -291c134 -36 201 -143 201 -321v-118z" />
    <glyph glyph-name="uni10AA" unicode="&#x10aa;" horiz-adv-x="1986" 
d="M314 -286c64 58 172.665 105.667 325.998 143c-360 142.667 -540 381 -540 715c0 316 111.667 474 335 474c135.333 0 233.666 -62.667 294.999 -188c62.667 128.667 146.334 193 251.001 193c58.667 0 108.834 -16.5 150.501 -49.5s76.5 -81.833 104.5 -146.5
c66 127.333 163.667 191 293 191c238 0 357 -149.667 357 -449c0 -153.333 -47 -312 -141 -476h-108c102 186 153 344.667 153 476c0 124.667 -21.667 216.667 -65 276s-109.666 89 -198.999 89c-160.667 0 -241 -101 -241 -303v-278h-92l-2 278c0 206.667 -70 310 -210 310
c-136.667 0 -205 -103.333 -205 -310v-278h-90l-1 278c-1.33301 202 -84.666 303 -249.999 303c-156.667 0 -235 -131.667 -235 -395c0 -362.667 230 -598.334 690 -707.001c258 -40 430.667 -145 518 -315h-125c-76.667 138 -233.334 219.333 -470.001 244
c-188.667 -1.33301 -334.667 -46.666 -438 -135.999z" />
    <glyph glyph-name="uni10AB" unicode="&#x10ab;" horiz-adv-x="980" 
d="M860 474c0 -316 -121.333 -474 -364 -474c-264 0 -396 175 -396 525c0 176 31.833 306.833 95.5 392.5s159.5 128.5 287.5 128.5c116 0 208.667 -55 278 -165v378c0 155.333 -93.667 233 -281 233c-158 0 -237 -77 -237 -231h-102c0 210 113 315 339 315
c253.333 0 380 -106 380 -318v-784zM760 475c0 324.667 -93.333 487 -280 487c-187.333 0 -281 -145 -281 -435c0 -295.333 100.333 -443 301 -443c173.333 0 260 130.333 260 391z" />
    <glyph glyph-name="uni10AC" unicode="&#x10ac;" horiz-adv-x="980" 
d="M880 525c0 -350 -127.667 -524.999 -383 -524.999c-250.667 0 -376 161.667 -376 485v822c0 87.333 21.5 152.166 64.5 194.499s109.5 63.5 199.5 63.5h382v-92h-382c-112 0 -168 -52.667 -168 -158v-457c55.333 125.333 149.333 188 282 188
c254 0 381 -173.667 381 -521zM780 526.001c0 290.667 -95 436.001 -285 436.001c-94.667 0 -164.167 -39.333 -208.5 -118s-66.5 -198.334 -66.5 -359.001c0 -267.333 91.667 -401 275 -401c190 0 285 147.333 285 442z" />
    <glyph glyph-name="uni10AD" unicode="&#x10ad;" horiz-adv-x="1523" 
d="M1422 561c0 -166.667 -37 -350.334 -111 -551.001h-99c74 228 111 411.667 111 551c0 267.333 -90 401 -270 401c-166.667 0 -250 -116.667 -250 -350v-252h-85v252c0 233.333 -83 350 -249 350c-92 0 -159.667 -33.5 -203 -100.5s-65 -168.833 -65 -305.5
c0 -128.667 36.667 -310.667 110 -546h-101c-73.333 202.667 -110 386.334 -110 551.001c0 323.333 123.333 485 370 485c141.333 0 238.666 -63.667 291.999 -191c63.333 127.333 161.333 191 294 191c124.667 0 216.834 -40 276.501 -120s89.5 -201.667 89.5 -365z" />
    <glyph glyph-name="uni10AE" unicode="&#x10ae;" horiz-adv-x="960" 
d="M860 424c0 -282.667 -128 -423.997 -384 -423.997c-250.667 0 -376 141.333 -376 424c0 72 7.33301 139.667 22 203l102 1c-8.66699 -46 -15 -85.833 -19 -119.5s-6 -61.167 -6 -82.5c0 -228 92.333 -342 277 -342c189.333 0 284 113.333 284 340
c0 273.333 -104.667 410 -314 410h-103v75h122c170.667 0 256 75.333 256 226c0 111.333 -68.667 196.666 -206 255.999c-136.667 58 -205 119.667 -205 185h112c0 -41.333 65.333 -90.333 196 -147s196 -155.334 196 -296.001c0 -132.667 -65 -220.334 -195 -263.001
c160 -59.333 240.333 -208 241 -446z" />
    <glyph glyph-name="uni10AF" unicode="&#x10af;" horiz-adv-x="982" 
d="M860 -48c0 -136.667 -31.499 -238.667 -94.499 -306s-160.167 -101 -291.5 -101c-249.333 0 -374 134.667 -374 404c0 24 0.5 47.333 1.5 70s2.16699 44.667 3.5 66h100c-1.33301 -21.333 -2.5 -43.333 -3.5 -66s-1.5 -45.667 -1.5 -69c0 -214 89.667 -321 269 -321
c194.667 0 292 108.333 292 325v1006l-520 -88c212.667 -68.667 319 -169 319 -301c0 -164 -153.333 -246.333 -460 -247v97c127.333 0 221.166 12.5 281.499 37.5s90.5 62.833 90.5 113.5c0 122 -124 210 -372 264v79l760 159v-1122z" />
    <glyph glyph-name="uni10B0" unicode="&#x10b0;" horiz-adv-x="1544" 
d="M1444 597c0 -204.667 -32.9961 -400.332 -98.9961 -586.999h-110c66.667 240 100 435.667 100 587c0 243.333 -92.667 365 -278 365c-78.667 0 -136.834 -30.333 -174.501 -91s-56.834 -153 -57.501 -277l-1 -238h-105v238c0 124 -18.5 216.333 -55.5 277
s-94.833 91 -173.5 91c-192.667 0 -289 -115 -289 -345c0 -162.667 30.333 -365 91 -607h-101c-30.667 95.333 -53.334 193.166 -68.001 293.499s-22 206.166 -22 317.499c0 187.333 69 373 207 557c139.333 185.333 409 319.333 809 402l16 -87
c-427.333 -79.333 -716.333 -256.666 -867 -531.999c70.667 56.667 142.667 85 216 85c133.333 0 230.666 -68.667 291.999 -206c57.333 137.333 154 206 290 206c253.333 0 380 -149.667 380 -449z" />
    <glyph glyph-name="uni10B1" unicode="&#x10b1;" horiz-adv-x="980" 
d="M880 465c0 -310 -123.999 -464.999 -371.999 -464.999c-258.667 0 -388 171.667 -388 515v1061h99v-1061c1.33301 -287.333 97.666 -431 288.999 -431c182 0 273 127 273 381c0 150.667 -43.333 259.334 -130 326.001c-86 66 -129 130.333 -129 193
c0 32.667 0.5 63.667 1.5 93s2.83301 57.333 5.5 84h98c-4.66699 -36.667 -8.16699 -69.334 -10.5 -98.001s-3.5 -53.667 -3.5 -75c0 -38.667 44.333 -97.334 133 -176.001c89.333 -79.333 134 -195 134 -347z" />
    <glyph glyph-name="uni10B2" unicode="&#x10b2;" horiz-adv-x="1183" 
d="M100 300c0 469.333 152 718 456 746l-13 190h102l-13 -194c300.667 -24.667 451 -271.667 451 -741c0 -252 -41 -441 -123 -567s-203.667 -189 -365 -189c-330 0 -495 251.667 -495 755zM198 300c0 -447.333 131 -671 393 -671c266.667 0 400 223.667 400 671
c0 402 -119.667 623.667 -359 665l15 -586h-105l14 585c-238.667 -40 -358 -261.333 -358 -664z" />
    <glyph glyph-name="uni10B3" unicode="&#x10b3;" horiz-adv-x="958" 
d="M857 -23c0 -145.333 -31.668 -253.5 -95.001 -324.5s-160.666 -106.5 -291.999 -106.5c-247.333 0 -371 143.667 -371 431c0 41.333 8.66699 109.333 26 204h96c-7.33301 -56.667 -12.833 -101.5 -16.5 -134.5s-5.5 -55.5 -5.5 -67.5c0 -233.333 90.333 -350 271 -350
c192 0 288 116 288 348v756c-1.33301 153.333 -61 230 -179 230c-101.333 0 -152 -93.333 -152 -280v-203h-91v203c0 186.667 -64 280 -192 280h-110v83h106c119.333 0 200 -48.667 242 -146c41.333 97.333 111.333 146 210 146c176.667 0 265 -104.333 265 -313v-756z" />
    <glyph glyph-name="uni10B4" unicode="&#x10b4;" horiz-adv-x="1494" 
d="M1354 -98c0 -237.333 -153.667 -356 -461 -356c-298 0 -447 99.333 -447 298h105c0 -143.333 114 -215 342 -215c240 0 360 91 360 273v71c0 133.333 -56 200 -168 200h-84v81h84c125.333 0 188 134 188 402c0 198 -74.333 297 -223 297
c-122.667 0 -203 -40.667 -241 -122c38.667 -82 58 -185.333 58 -310c0 -314.667 -119.333 -472 -358 -472c-122 0 -214 41 -276 123s-93 205 -93 369c0 336.667 120.667 505 362 505c118 0 207.667 -48 269 -144c77.333 89.333 170.333 134 279 134
c216 0 324 -128 324 -384c0 -230.667 -67 -379 -201 -445c120.667 -28 181 -104.667 181 -230v-75zM766 521c0 294 -88 441 -264 441c-174 0 -261 -140.333 -261 -421c0 -272.667 87 -409 261 -409c176 0 264 129.667 264 389z" />
    <glyph glyph-name="uni10B5" unicode="&#x10b5;" horiz-adv-x="958" 
d="M858 -33c0 -280.667 -127.335 -421.001 -382.002 -421.001c-250.667 0 -376 140.333 -376 421c0 27.333 7.66699 78.333 23 153h105c-19.333 -70 -29 -121 -29 -153c0 -224.667 92.333 -337 277 -337c189.333 0 284 112.333 284 337v619c0 126.667 -23.167 221 -69.5 283
s-118.166 93 -215.499 93c-161.333 0 -242 -80.333 -242 -241c0 -56 22.333 -140.667 67 -254h-93c-44 102.667 -66 187.334 -66 254.001c0 216.667 113 325 339 325c106.667 0 200.334 -46 281.001 -138v668h97v-1609z" />
    <glyph glyph-name="uni10B6" unicode="&#x10b6;" horiz-adv-x="1522" 
d="M230 -210c64 30.667 145.667 50.665 245 59.998c-250 178.667 -375 414.334 -375 707.001c0 326 124.333 489 373 489c143.333 0 240 -74 290 -222c52.667 148 150.667 222 294 222c240 0 361.667 -146 365 -438v-3c0 -146.667 -36 -308.334 -108 -485.001h-106
c72 198.667 108 361.334 108 488.001c0 236 -85 354 -255 354c-165.333 0 -248 -111 -248 -333v-252h-105v252c0 222 -77.667 333 -233 333c-183.333 0 -275 -135 -275 -405c0 -329.333 159.667 -565 479 -707c249.333 -67.333 394 -168.666 434 -303.999h-117
c-34 119.333 -165 196 -393 230c-3.33301 0.666992 -6.33301 1 -9 1h-26c-112 0 -223.333 -30 -334 -90z" />
    <glyph glyph-name="uni10B7" unicode="&#x10b7;" horiz-adv-x="980" 
d="M860 -55c-0.666992 -266.667 -128.667 -400 -384 -400c-250.667 0 -376 134.667 -376 404h100c0 -108 22.5 -188.333 67.5 -241s114.5 -79 208.5 -79c188.667 0 283 107.333 283 322v270c-72.667 -78.667 -167 -118 -283 -118c-250.667 0 -376 161.667 -376 485
c0 192.667 23 341.667 69 447h115c-56.667 -129.333 -85 -278.333 -85 -447c0 -264.667 92.333 -397 277 -397c96.667 0 168 24.167 214 72.5s69 122.5 69 222.5v550h101v-1091z" />
    <glyph glyph-name="uni10B8" unicode="&#x10b8;" horiz-adv-x="980" 
d="M860 495c0 -330 -114.666 -495 -343.999 -495c-138.667 0 -242.667 43.5 -312 130.5s-104 218.5 -104 394.5c0 347.333 125 521 375 521c131.333 0 228.666 -60 291.999 -180v379c0 164.667 -50.333 247 -151 247c-103.333 0 -155 -64.667 -155 -194v-113h-97v115
c0 128 -58.667 192 -176 192l-86 -30v114h96c94.667 0 166 -53.667 214 -161c46 107.333 114.333 161 205 161c162 0 243 -110.333 243 -331v-750zM762.001 495c0 155.333 -23.167 272 -69.5 350s-118.833 117 -217.5 117c-183.333 0 -275 -147 -275 -441
c0 -291.333 105.333 -437 316 -437c162.667 0 244.667 137 246 411z" />
    <glyph glyph-name="uni10B9" unicode="&#x10b9;" horiz-adv-x="980" 
d="M639 1029c160.667 -66.667 241 -207.666 241 -422.999c0 -196.667 -39.667 -395.334 -119 -596.001h-109c85.333 218 128 416.667 128 596c0 238 -90 357 -270 357c-194 0 -291 -108.667 -291 -326v-627h-98v1244c0 214.667 103.333 322 310 322
c106.667 0 185.5 -24.5 236.5 -73.5s76.5 -123.5 76.5 -223.5c0 -88.667 -35 -172 -105 -250zM651 1264c0 152.667 -72.333 228.999 -217 228.999c-143.333 0 -215 -84 -215 -252v-344c54 99.333 164.667 149 332 149c66.667 68.667 100 141.334 100 218.001z" />
    <glyph glyph-name="uni10BA" unicode="&#x10ba;" horiz-adv-x="1050" 
d="M920 585c0 -109.333 -57.999 -192.33 -173.999 -248.997c136 -43.333 204 -168.666 204 -375.999c0 -276 -137.667 -414 -413 -414c-291.333 0 -437 182.667 -437 548v287c0 99.333 6.83301 203.666 20.5 312.999s34.5 226.333 62.5 351l103 1
c-28 -132 -49.5 -251.833 -64.5 -359.5s-22.5 -205.834 -22.5 -294.501v-298c0 -156.667 28.167 -273.334 84.5 -350.001s141.166 -115 254.499 -115c107.333 0 186.333 30.167 237 90.5s76 152.833 76 277.5c0 199.333 -80.667 299 -242 299h-134v81h126
c76.667 0 133 17 169 51s54 86 54 156c0 84 -37 149.667 -111 197s-111.667 135.666 -113 264.999h93c0 -103.333 37.667 -182 113 -236c76 -54 114 -129 114 -225z" />
    <glyph glyph-name="uni10BB" unicode="&#x10bb;" horiz-adv-x="982" 
d="M860 487c0 -163.333 -31.5 -285.333 -94.5 -366s-159.5 -121 -289.5 -121c-250.667 0 -376 169.667 -376 509c0 358 125.333 537 376 537c150 0 246.667 -61.667 290 -185v716h94v-1090zM761 487c0 159.333 -23.167 278.333 -69.5 357s-118.5 118 -216.5 118
c-184 0 -276 -151 -276 -453c0 -283.333 92.333 -425 277 -425c190 0 285 134.333 285 403z" />
    <glyph glyph-name="uni10BC" unicode="&#x10bc;" horiz-adv-x="980" 
d="M120 1245c0 220.667 80.999 331 242.999 331c90.667 0 159 -53.667 205 -161c48 107.333 119.333 161 214 161h96v-114l-86 30c-117.333 0 -176 -64 -176 -192v-115h-97v113c0 129.333 -51.667 194 -155 194c-100.667 0 -151 -82.333 -151 -247v-379
c62.667 120 153.334 180 272.001 180c263.333 0 395 -173.667 395 -521c0 -176 -34.667 -307.5 -104 -394.5s-173.333 -130.5 -312 -130.5c-229.333 0 -344 165 -344 495v750zM217.999 495c0.666992 -274 82.667 -411 246 -411c210.667 0 316 147 316 441
c0 291.333 -98.333 437 -295 437c-178 0 -267 -149 -267 -447v-20z" />
    <glyph glyph-name="uni10BD" unicode="&#x10bd;" horiz-adv-x="959" 
d="M460 702l0.000976562 204h-114c-101.333 0 -152 -47.667 -152 -143c0 -94 44.333 -141 133 -141l60 -2v-74h-69c-145.333 5.33301 -218 77 -218 215c0 149.333 80.333 223.666 241 222.999l119 -1v593h94v-593h225v-75h-225v-206c0 -78.667 13 -150.334 39 -215.001
s64 -123 114 -175c101.333 -105.333 152 -218 152 -338c0 -285.333 -127.333 -428 -382 -428c-251.333 0 -377 152.333 -377 457c0 48.667 5 107.667 15 177h100c-4.66699 -46 -8.33398 -84.167 -11.001 -114.5s-4 -53.166 -4 -68.499c0 -244.667 93.333 -367 280 -367
c186 0 279 115.667 279 347c0 106 -49.333 208 -148 306c-98.667 96.667 -149 236.334 -151 419.001z" />
    <glyph glyph-name="uni10BE" unicode="&#x10be;" horiz-adv-x="980" 
d="M880 525c0 -350 -125.332 -525 -375.999 -525c-256 0 -384 175 -384 525v1051h89v-712c19.333 62.667 53.666 108.667 102.999 138s114 44 194 44c249.333 0 374 -173.667 374 -521zM780.001 523c0 292.667 -93.667 438.999 -281 438.999
c-186.667 0 -280 -135.667 -280 -407c0 -157.333 22.5 -275.166 67.5 -353.499s117.167 -117.5 216.5 -117.5c184.667 0 277 146.333 277 439z" />
    <glyph glyph-name="uni10BF" unicode="&#x10bf;" horiz-adv-x="960" 
d="M860 -60c0 -263.333 -128.332 -395 -384.999 -395c-250 0 -375 135 -375 405c0 60 6 127 18 201h105c-15.333 -62.667 -23 -129.667 -23 -201c0 -213.333 92.667 -320 278 -320c188.667 0 283 104.333 283 313c0 70.667 -14.5 134.5 -43.5 191.5
s-71.833 107.833 -128.5 152.5s-99.334 96.5 -128.001 155.5s-43 126.5 -43 202.5v80l-317 100v100l317 -108v312h86v-330l356 -107v-107l-356 114v-54c0 -121.333 59.333 -232 178 -332s178 -224.333 178 -373z" />
    <glyph glyph-name="uni10C0" unicode="&#x10c0;" horiz-adv-x="959" 
d="M859 362c0 -241.333 -125.667 -362 -377 -362c-254.667 0 -382 138.667 -382 416v101h101v-101c0 -221.333 91.667 -332 275 -332c190 0 285 92.667 285 278c0 153.333 -62.667 230 -188 230h-151v80h151c62 0 107.5 14.167 136.5 42.5s43.5 70.833 43.5 127.5
c0 111.333 -60 167 -180 167h-151v82h149c114.667 0 172 52.333 172 157c0 82.667 -65 131.667 -195 147c-129.333 15.333 -194 75.666 -194 180.999h106c0 -60 63.333 -100.333 190 -121c127.333 -21.333 191 -91.666 191 -210.999c0 -87.333 -45 -151.333 -135 -192
c96.667 -38.667 145 -110.667 145 -216c0 -90 -43.667 -158.667 -131 -206c92.667 -58.667 139 -148 139 -268z" />
    <glyph glyph-name="uni10C1" unicode="&#x10c1;" horiz-adv-x="959" 
d="M859 272c0 -181.333 -125.667 -272.002 -377 -272.002c-254.667 0 -382 138.667 -382 416v1161h101v-1161c0 -221.333 91.667 -332 275 -332c190 0 285 62.667 285 188c0 120 -66 180 -198 180h-101v80h101c68.667 0 119 10.5 151 31.5s48 53.5 48 97.5
c0 85.333 -66.333 128 -199 128h-101v82h99c134.667 0 202 52.333 202 157c0 83.333 -66.667 126.666 -200 129.999l-103 -4v82l103 1c120 0.666992 180 50.334 180 149.001c0 70.667 -60 106 -180 106h-50v79h47c94.667 0 164.5 -15.5 209.5 -46.5
s67.5 -78.833 67.5 -143.5c0 -97.333 -45.667 -160 -137 -188c52 -18.667 91.5 -42 118.5 -70s40.5 -61 40.5 -99c0 -101.333 -57.667 -164.666 -173 -189.999c114.667 -32.667 172 -92 172 -178c0 -77.333 -52.667 -133.666 -158 -168.999
c105.333 -37.333 158.333 -109 159 -215z" />
    <glyph glyph-name="uni10C2" unicode="&#x10c2;" horiz-adv-x="960" 
d="M141 -50c72.667 0 155.666 29.667 248.999 89c-193.333 165.333 -290 345.333 -290 540c0 311.333 126.667 467 380 467s380 -155.667 380 -467c0 -193.333 -100.333 -373.333 -301 -540c95.333 -59.333 177 -89 245 -89h10v-109
c-149.333 46.667 -260.666 97.667 -333.999 153c-78 -55.333 -191 -106.333 -339 -153v109zM199.999 579c0 -204 93.333 -364.333 280 -481c96 60 166.667 129.5 212 208.5s68 171.167 68 276.5c0 252.667 -95 379 -285 379c-183.333 0 -275 -127.667 -275 -383z" />
    <glyph glyph-name="uni10C3" unicode="&#x10c3;" horiz-adv-x="960" 
d="M860 -48c0 -271.333 -128.333 -406.999 -385 -406.999c-250 0 -375 135.667 -375 407l20 168h102l-22 -168c0.666992 -214.667 94 -322 280 -322c186.667 0 280 107.333 280 322v60c0 113.333 -25.333 197.166 -76 251.499s-128 81.5 -232 81.5h-94v90h94
c190.667 0 294 147.333 310 442v74h-528v-284h-93v349l719 29c0 -392 -85.333 -609.333 -256 -652c170.667 -72.667 256 -199.667 256 -381v-60z" />
    <glyph glyph-name="uni10C4" unicode="&#x10c4;" horiz-adv-x="961" 
d="M861 -48c0 -270.667 -127.001 -405.999 -381.001 -405.999c-253.333 0 -380 135.333 -380 406c0 20.667 0.833008 45 2.5 73s4.16699 60 7.5 96h100c-3.33301 -36 -5.83301 -68.5 -7.5 -97.5s-2.5 -54.5 -2.5 -76.5c0 -212 93.333 -318 280 -318s280 107.667 280 323v129
c0 180.667 -95.333 271 -286 271h-116v87h116c96.667 3.33301 167.834 48.666 213.501 135.999s68.5 216.333 68.5 387c-46 -17.333 -91.833 -29.833 -137.5 -37.5s-93.5 -11.5 -143.5 -11.5c-250 0 -375 105.333 -375 316c0 230.667 127.333 346 382 346v-81
c-188 -1.33301 -282 -89 -282 -263c0 -158 93.333 -237 280 -237c108 0 234.667 34.333 380 103v-184c0 -134.667 -19.5 -244 -58.5 -328s-99.5 -145 -181.5 -183c160.667 -50 241 -157 241 -321v-129z" />
    <glyph glyph-name="uni10C5" unicode="&#x10c5;" horiz-adv-x="1074" 
d="M860 612v-247c0 -243.333 -128 -365 -384 -365c-250.667 0 -376 121.667 -376 365c0 220 124 330 372 330h288v181h-288c-248 0 -372 111.333 -372 334c0 244 125.667 366 377 366c255.333 0 383 -122 383 -366v-251h114v-83h-114v-181h114v-83h-114zM760 612h-288
c-181.333 0 -272 -80.333 -272 -241c0 -191.333 92 -287 276 -287c189.333 0 284 99 284 297v231zM200 1208c0 -166 90.667 -249 272 -249h288v251c0 188 -93.333 282 -280 282s-280 -94.667 -280 -284z" />
    <glyph glyph-name="uni10D0" unicode="&#x10d0;" horiz-adv-x="1076" 
d="M976 626c0 -427.333 -147.667 -640.998 -443 -640.998c-288.667 0 -433 204.333 -433 613c0 54 1.83301 105.5 5.5 154.5s9.16699 96.5 16.5 142.5h116c-8.66699 -62.667 -15.167 -118.334 -19.5 -167.001s-6.5 -92 -6.5 -130c0 -346.667 108.667 -520 326 -520
s326 182.667 326 548c0 213.333 -72.667 382.666 -218 507.999c-144.667 124.667 -217 272 -217 442h109c0 -129.333 73 -262.333 219 -399c146 -137.333 219 -321 219 -551z" />
    <glyph glyph-name="uni10D1" unicode="&#x10d1;" horiz-adv-x="1076" 
d="M976 564c0 -386 -144.333 -579.001 -433 -579.001c-295.333 0 -443 192.667 -443 578c0 324 137.667 501.667 413 533l9 102c2 12 3 23.667 3 35c0 60 -30.667 104 -92 132c-72.667 32.667 -109 103 -109 211h117c0 -74.667 33 -133 99 -175
c55.333 -35.333 83 -87 83 -155c0.666992 -7.33301 0.5 -14.333 -0.5 -21s-1.83301 -13.667 -2.5 -21l-9 -108c243.333 -47.333 365 -224.666 365 -531.999zM864 563.999c-1.33301 293.333 -107.667 440 -319 440c-222 0 -333 -145.333 -333 -436c0 -326 111 -489 333 -489
c212.667 0 319 161.667 319 485z" />
    <glyph glyph-name="uni10D2" unicode="&#x10d2;" horiz-adv-x="1158" 
d="M1057 537c0 -367.333 -156.668 -550.999 -470.001 -550.999c-324.667 0 -487 183.667 -487 551c0 357.333 174.667 541.666 524 552.999c81.333 73.333 122 158.666 122 255.999c0 91.333 -63 137 -189 137c-140 0 -210 -44 -210 -132c0 -16.667 0.5 -31.667 1.5 -45
s2.16699 -25.666 3.5 -36.999l-102 -2c-2 14 -3.66699 28.667 -5 44s-2 31.333 -2 48c0 145.333 104.667 218 314 218c200 0 300 -80.667 300 -242c0 -42 -10.5 -85 -31.5 -129s-51.833 -89.333 -92.5 -136c110.667 -30.667 192.334 -90 245.001 -178s79 -206.333 79 -355z
M946.999 537.001c0 306 -118.999 460 -356.999 462c-126.667 -1.33301 -221.334 -40 -284.001 -116s-94 -191.333 -94 -346c0 -306 123.667 -459 371 -459c242.667 0 364 153 364 459z" />
    <glyph glyph-name="uni10D3" unicode="&#x10d3;" horiz-adv-x="1655" 
d="M208 197c56.667 52.667 163.667 93.667 321 123c-286 172 -429 434 -429 786c0 312.667 129.333 469 388 469c129.333 0 239.333 -58.333 330 -175c60.667 118 167 177 319 177c278.667 0 418 -176.333 418 -529c0 -351.333 -138.667 -527 -416 -527
c-138.667 0 -241.667 44.5 -309 133.5s-101 223.5 -101 403.5c0 40 3 81.333 9 124s14.667 88 26 136c-61.333 110 -147.333 165 -258 165c-196 0 -294 -125.667 -294 -377c0 -184 38.833 -338.833 116.5 -464.5s193.167 -222.167 346.5 -289.5
c344.667 -84 540.667 -203 588 -357h-122c-90 155.333 -259.333 244 -508 266c-109.333 0 -231.333 -47.333 -366 -142zM1453 1058c0 282.667 -104.667 424 -314 424c-200.667 0 -301 -141.333 -301 -424c0 -296 100.333 -444 301 -444c209.333 0 314 148 314 444z" />
    <glyph glyph-name="uni10D4" unicode="&#x10d4;" horiz-adv-x="1096" 
d="M976 446c0 -307.333 -145.666 -461.001 -436.999 -461.001c-150.667 0 -261.334 38.167 -332.001 114.5s-106 190.833 -106 343.5c0 25.333 1.33301 53.333 4 84s6.66699 64 12 100h111c-5.33301 -40 -9.33301 -76.167 -12 -108.5s-4 -61.166 -4 -86.499
c0 -236 109 -354 327 -354c216 0 324.667 118 326 354v739c-1.33301 208 -100.333 312 -297 312c-101.333 0 -174.5 -22.333 -219.5 -67s-67.5 -111.334 -67.5 -200.001c0 -30 1.16699 -57.333 3.5 -82s5.83301 -48 10.5 -70h-109c-12 70.667 -18 125.334 -18 164.001
c0 232.667 133 349 399 349c272.667 0 409 -135.333 409 -406v-725z" />
    <glyph glyph-name="uni10D5" unicode="&#x10d5;" horiz-adv-x="1075" 
d="M975 374c0 -259.333 -139.334 -388.995 -418.001 -388.995c-304.667 0 -457 144 -457 432c0 75.333 4 134.666 12 177.999h113c-4.66699 -28.667 -8 -57.834 -10 -87.501s-3 -59.834 -3 -90.501c0 -226 115 -339 345 -339c205.333 0 308 100 308 300v140
c0 191.333 -95 287 -285 287h-119v85h119c86.667 0 152.834 26.167 198.501 78.5s72.167 133.166 79.5 242.499c0 181.333 -100.333 272 -301 272c-106 0 -182.333 -20.833 -229 -62.5s-70 -103.834 -70 -186.501c0 -14.667 0.333008 -31 1 -49s1.66699 -37.667 3 -59h-109
c-1.33301 23.333 -2.5 45.5 -3.5 66.5s-1.5 41.167 -1.5 60.5c0 216 135.667 324 407 324c273.333 0 410 -123.333 410 -370c0 -168.667 -77 -288 -231 -358c160.667 -46.667 241 -157 241 -331v-144z" />
    <glyph glyph-name="uni10D6" unicode="&#x10d6;" horiz-adv-x="1098" 
d="M998 525c0 -360 -146 -540 -438 -540c-291.333 0 -437 180 -437 540c0 223.333 70.333 372.333 211 447c-156 38.667 -234 136.667 -234 294c0 206.667 112.667 310 338 310c210.667 0 316 -98.667 316 -296c0 -104 -40.333 -190 -121 -258
c243.333 -39.333 365 -205 365 -497zM886 531c0 137.333 -27.332 239.168 -81.999 305.501s-137.334 99.5 -248.001 99.5c-110 0 -191.167 -33.833 -243.5 -101.5s-78.5 -170.834 -78.5 -309.501c0 -298 108.667 -447 326 -447s326 151 326 453zM644.001 1264
c0 145.333 -70.333 218 -211 218c-148 0 -222 -71.667 -222 -215c0 -70.667 18 -127 54 -169s89.667 -63 161 -63c145.333 0 218 76.333 218 229z" />
    <glyph glyph-name="uni10D7" unicode="&#x10d7;" horiz-adv-x="1682" 
d="M1582 887c-0.666992 -144.667 -10.832 -290 -30.499 -436s-48.834 -296.333 -87.501 -451h-129c89.333 307.333 134 600.333 134 879c0 402.667 -99 604 -297 604c-107.333 0 -190.333 -82 -249 -246c34.667 -145.333 52 -301.333 52 -468
c0 -522.667 -144.667 -784 -434 -784c-294 0 -441 268.333 -441 805c0 523.333 147.667 785 443 785c148 0 258.333 -73.333 331 -220c64 146.667 163.333 220 298 220c273.333 0 410 -229.333 410 -688zM864.002 775c-1.33301 472 -108.333 708 -321 708
c-220.667 0 -331 -228 -331 -684c0 -479.333 109.667 -719 329 -719c214 0 321.667 231.667 323 695z" />
    <glyph glyph-name="uni10D8" unicode="&#x10d8;" horiz-adv-x="1075" 
d="M975 805c0 -253.333 -41.999 -526.332 -125.999 -818.999h-115c86.667 347.333 130 620.333 130 819c0 451.333 -108.667 677 -326 677c-218.667 0 -328 -225.667 -328 -677c0 -98.667 11.167 -215.834 33.5 -351.501s55.166 -291.5 98.499 -467.5h-115
c-84.667 292.667 -127 565.667 -127 819c0 513.333 146 770 438 770c291.333 0 437 -256.667 437 -770z" />
    <glyph glyph-name="uni10D9" unicode="&#x10d9;" horiz-adv-x="1076" 
d="M976 438c0 -152.667 -36.8311 -266.331 -110.498 -340.998s-184.834 -112 -333.501 -112c-288 0 -432 161 -432 483c0 20.667 0.666992 41.5 2 62.5s3.33301 42.5 6 64.5h110c-2.66699 -28 -4.5 -52.333 -5.5 -73s-1.5 -38.667 -1.5 -54c0 -260 106.667 -390 320 -390
c222.667 0 334 120 334 360v125c0 199.333 -99.667 299 -299 299h-190v87h190c95.333 0 165.666 22.167 210.999 66.5s68 111.166 68 200.499c0 107.333 -48.333 227.333 -145 360h140c76.667 -130.667 115 -251.667 115 -363c0 -155.333 -70.333 -258.333 -211 -309
c154.667 -38.667 232 -152.334 232 -341.001v-125z" />
    <glyph glyph-name="uni10DA" unicode="&#x10da;" horiz-adv-x="2123" 
d="M330 164c68.667 60.667 185.666 111 350.999 151c-387.333 151.333 -581 403.333 -581 756c0 333.333 120.333 500 361 500c145.333 0 251 -59.333 317 -178c68 122.667 158.333 184 271 184c62.667 0 116.5 -15.5 161.5 -46.5s82.5 -77.833 112.5 -140.5
c70.667 120.667 176 181 316 181c256 0 384 -154.333 384 -463c0 -153.333 -45 -331.333 -135 -534h-121c96.667 208 145 386 145 534c0 126 -22.5 219.167 -67.5 279.5s-113.5 90.5 -205.5 90.5c-175.333 0 -263 -105 -263 -315v-294h-104l-2 294
c0 212.667 -73.667 319 -221 319c-144 0 -216 -106.333 -216 -319v-294h-102l-1 294c-1.33301 210 -91 315 -269 315c-166.667 0 -250 -137.667 -250 -413c0 -382.667 246.667 -631.667 740 -747c277.333 -42 463 -149.667 557 -323h-134c-83.333 139.333 -252 222 -506 248
c-203.333 -0.666992 -360.666 -48.667 -471.999 -144z" />
    <glyph glyph-name="uni10DB" unicode="&#x10db;" horiz-adv-x="1096" 
d="M976 484c0 -333.333 -139.668 -500 -419.001 -500c-304.667 0 -457 184 -457 552c0 375.333 147 563 441 563c134.667 0 242.334 -59.333 323.001 -178v332c0 152.667 -108.667 229 -326 229c-182 0 -273 -65.667 -273 -197h-118c0 194 130.333 291 391 291
c292 0 438 -108 438 -324v-768zM863.999 487c0 344.667 -108.667 517 -326 517s-326 -155.333 -326 -466c0 -306.667 116.333 -460 349 -460c201.333 0 302.333 136.333 303 409z" />
    <glyph glyph-name="uni10DC" unicode="&#x10dc;" horiz-adv-x="1096" 
d="M996 564c0 -386 -147 -579 -441 -579c-289.333 0 -434 183 -434 549v771c0 173.333 101.667 260 305 260h440v-93h-440c-129.333 0 -194 -53 -194 -159v-403c62.667 126.667 171 190 325 190c292.667 0 439 -178.667 439 -536zM884 565
c0 293.333 -110.667 440.001 -332 440.001c-110 0 -190.833 -38.833 -242.5 -116.5s-77.5 -195.834 -77.5 -354.501c0 -302.667 106.667 -454 320 -454c221.333 0 332 161.667 332 485z" />
    <glyph glyph-name="uni10DD" unicode="&#x10dd;" horiz-adv-x="1715" 
d="M1614 831c0 -258 -42.334 -536.333 -127.001 -835h-109c42.667 171.333 74.5 326.333 95.5 465s31.5 262 31.5 370c0 218.667 -26.333 382 -79 490s-131 162 -235 162c-186 0 -279 -191.333 -279 -574v-416h-114v416c0 382.667 -91.667 574 -275 574
c-207.333 0 -311 -219.667 -311 -659c0 -201.333 42 -477.333 126 -828h-112c-84 302 -126 580.333 -126 835c0 496 141.333 744 424 744c160.667 0 271.667 -99 333 -297c72.667 198 185.334 297 338.001 297c279.333 0 419 -248 419 -744z" />
    <glyph glyph-name="uni10DE" unicode="&#x10de;" horiz-adv-x="1076" 
d="M976 493c0 -338.667 -147.667 -507.997 -443 -507.997c-288.667 0 -433 169.333 -433 508c0 36 1.16699 70.667 3.5 104s5.83301 67 10.5 101l114 1c-12 -92 -18 -160 -18 -204c0 -276.667 107.667 -415 323 -415c221.333 0 332 137.667 332 413
c0 272.667 -122 409 -366 409h-119v81h141c199.333 0 299 76 299 228c0 99.333 -67 165.666 -201 198.999c-134 32.667 -201.667 88 -203 166h125c0 -42.667 64.667 -82.667 194 -120c125.333 -37.333 188 -116 188 -236c0 -70.667 -17.833 -128.834 -53.5 -174.501
s-92.834 -79.834 -171.501 -102.501c184.667 -60 277.334 -210 278.001 -450z" />
    <glyph glyph-name="uni10DF" unicode="&#x10df;" horiz-adv-x="1098" 
d="M976 409c0 -143.333 -36.667 -249.832 -110 -319.499s-185.666 -104.5 -336.999 -104.5c-142.667 0 -249.834 39.833 -321.501 119.5s-107.5 200.167 -107.5 361.5c0 48.667 2 95.667 6 141h110c-4 -45.333 -6 -92.333 -6 -141c0 -258.667 104.667 -388 314 -388
c227.333 0 341 110.667 341 332v1071l-552 -44c206.667 -64.667 310 -166 310 -304c0 -170.667 -174.333 -256.334 -523 -257.001v101c145.333 0 252.833 13 322.5 39s104.5 65.333 104.5 118c0 126.667 -142.333 218 -427 274v83l876 85v-1167z" />
    <glyph glyph-name="uni10E0" unicode="&#x10e0;" horiz-adv-x="1699" 
d="M1599 650c0 -246 -36.999 -462.331 -110.999 -648.998h-122c80.667 241.333 121 457.666 121 648.999c0 236 -106.667 354 -320 354c-172 0 -258 -109 -258 -327l-2 -329h-117v329c0 111.333 -20.667 193.666 -62 246.999s-106.666 80 -195.999 80
c-213.333 0 -320 -111.333 -320 -334c0 -201.333 34 -424.333 102 -669h-113c-34 95.333 -59.167 198.333 -75.5 309s-24.5 232 -24.5 364c0 187.333 74.333 368.333 223 543c149.333 176 447.333 295.667 894 359l35 -95c-480.667 -54 -803.334 -209.333 -968.001 -466
c79.333 57.333 159.666 86 240.999 86c148 0 256.667 -69 326 -207c64 138 171.667 207 323 207c282.667 0 424 -150.333 424 -451z" />
    <glyph glyph-name="uni10E1" unicode="&#x10e1;" horiz-adv-x="1096" 
d="M996 494c0 -339.333 -143 -508.999 -429 -508.999c-298 0 -447 173.333 -447 520v1071h111v-1071c0.666992 -284.667 112.667 -427 336 -427c211.333 0 317 138.667 317 416c0 145.333 -50.333 258.333 -151 339c-100 80 -150 151.667 -150 215c0 66 3 125.667 9 179h112
c-5.33301 -38 -9.33301 -71.333 -12 -100s-4 -53.667 -4 -75c0 -38.667 51.333 -104.334 154 -197.001s154 -213 154 -361z" />
    <glyph glyph-name="uni10E2" unicode="&#x10e2;" horiz-adv-x="1376" 
d="M100 770c0 487.333 182 745.667 546 775l-16 53h122l-16 -57c360 -27.333 540 -284.333 540 -771c0 -262 -49 -458.5 -147 -589.5s-243.667 -196.5 -437 -196.5c-394.667 0 -592 262 -592 786zM212 770.001c0 -461.333 158.333 -691.999 475 -691.999
c318 0 477 230.667 477 692c0 417.333 -142.667 647.666 -428 690.999l18 -780h-125l17 779c-289.333 -42 -434 -272 -434 -690z" />
    <glyph glyph-name="uni10E3" unicode="&#x10e3;" horiz-adv-x="1158" 
d="M1037 482c0 -167.333 -36.668 -291.831 -110.001 -373.498s-185.666 -122.5 -336.999 -122.5c-286 0 -429 165.333 -429 496c0 48 10 120 30 216h108c-8.66699 -58.667 -15.167 -105.834 -19.5 -141.501s-6.5 -59.834 -6.5 -72.501c0 -270.667 105.667 -406 317 -406
c224.667 0 337 134.667 337 404v763c-0.666992 158.667 -63.334 238 -188.001 238c-116.667 0 -175 -96.667 -175 -290v-219h-105v219c0 193.333 -74 290 -222 290h-137v93h133c137.333 0 230.333 -51.333 279 -154c46.667 102.667 127.334 154 242.001 154
c188.667 0 283 -110.333 283 -331v-763z" />
    <glyph glyph-name="uni10E4" unicode="&#x10e4;" horiz-adv-x="1685" 
d="M1561 363c0 -251.333 -195 -377 -585 -377c-358.667 0 -538 88.667 -538 266h127c0 -114.667 137 -172 411 -172c308.667 0 463 94.333 463 283v166c0 141.333 -80.667 212 -242 212h-61v86h61c91.333 0 158.5 29.5 201.5 88.5s64.5 148.833 64.5 269.5
c0 101.333 -22.333 176 -67 224s-113 72 -205 72c-128.667 0 -224 -44 -286 -132c46.667 -88.667 70 -201.667 70 -339c0 -367.333 -143.667 -551 -431 -551c-296 0 -444 190.667 -444 572c0 364 145.333 546 436 546c72 0 134.167 -12 186.5 -36s95.833 -59 130.5 -105
c81.333 93.333 195.333 140 342 140c260 0 390 -132.333 390 -397c0 -198 -80.667 -332 -242 -402c145.333 -30 218 -111.333 218 -244v-170zM864 1010c0 315.333 -109.333 473 -328 473c-216 0 -324 -150.667 -324 -452c0 -319.333 108 -479 324 -479
c218.667 0 328 152.667 328 458z" />
    <glyph glyph-name="uni10E5" unicode="&#x10e5;" horiz-adv-x="1096" 
d="M866 1577l110 -0.000976562v-1131c0 -307.333 -145.667 -461 -437 -461c-150.667 0 -261.334 38.167 -332.001 114.5s-106 190.833 -106 343.5c0 25.333 1.33301 53.333 4 84s6.66699 64 12 100h111c-5.33301 -40 -9.33301 -76.167 -12 -108.5s-4 -61.166 -4 -86.499
c0 -236 109 -354 327 -354c217.333 0 326 118 326 354l1 814c-149.333 91.333 -278.666 139 -387.999 143c-70 0 -120.333 -22.333 -151 -67s-46 -111.334 -46 -200.001c0 -30 1.16699 -57.333 3.5 -82s5.83301 -48 10.5 -70h-109c-12 70.667 -18 125.334 -18 164.001
c0 232.667 103 349 309 349c64.667 0 129 -10.5 193 -31.5s129.333 -52.5 196 -94.5v220z" />
    <glyph glyph-name="uni10E6" unicode="&#x10e6;" horiz-adv-x="1618" 
d="M240 244c34 16.667 74.3301 30.668 120.997 42.001s100.334 19.666 161.001 24.999c-281.333 170 -422 418.333 -422 745c0 346.667 133.333 520 400 520c154.667 0 258.334 -79.333 311.001 -238c56.667 158.667 162 238 316 238c258 0 388.333 -155.333 391 -466v-3
c0 -153.333 -38.667 -324.333 -116 -513h-114c80 210.667 120 382.667 120 516c0 248 -92.667 372 -278 372c-90 0 -156.667 -29.167 -200 -87.5s-65 -145.833 -65 -262.5v-267h-113v267c0 233.333 -83.333 350 -250 350c-194.667 0 -292 -142 -292 -426
c0 -348.667 170.333 -598 511 -748c266.667 -72 421.667 -176 465 -312h-125c-36 119.333 -176.333 197 -421 233c-3.33301 0.666992 -6.66602 1 -9.99902 1h-27c-120 0 -239.667 -31.667 -359 -95z" />
    <glyph glyph-name="uni10E7" unicode="&#x10e7;" horiz-adv-x="1096" 
d="M976 412c-0.666992 -284.667 -148.332 -427 -442.999 -427c-288.667 0 -433 153.667 -433 461h112c0 -124 26.167 -216.167 78.5 -276.5s133.166 -90.5 242.499 -90.5c220.667 0 331 113 331 339v378c-86.667 -80.667 -197 -121 -331 -121c-288.667 0 -433 161 -433 483
c0 126.667 20 265.667 60 417h128c-52 -179.333 -78 -318.333 -78 -417c0 -262.667 107.667 -394 323 -394c112.667 0 196 26 250 78s81 131 81 237v497h112v-1164z" />
    <glyph glyph-name="uni10E8" unicode="&#x10e8;" horiz-adv-x="1096" 
d="M976 545c0 -373.333 -132.001 -560 -396.001 -560c-320 0 -480 193.333 -480 580c0 357.333 144 536 432 536c151.333 0 262 -60.667 332 -182v373c0 126 -56.333 189 -169 189c-119.333 0 -179 -45.333 -179 -136v-84h-112v86c0 89.333 -67.667 134 -203 134l-99 -20
v115h111c110 0 192.333 -54.333 247 -163c52.667 108.667 131.334 163 236.001 163c186.667 0 280 -94.667 280 -284v-747zM863.999 545c0 306 -110.668 459 -332.001 459c-109.333 0 -190.166 -36.5 -242.499 -109.5s-78.5 -184.167 -78.5 -333.5
c0 -320.667 123 -481 369 -481c188 0 282.667 155 284 465z" />
    <glyph glyph-name="uni10E9" unicode="&#x10e9;" horiz-adv-x="1096" 
d="M718 1082c185.333 -67.333 277.999 -228.001 277.999 -482.001c0 -197.333 -45.667 -397 -137 -599h-126c101.333 222.667 152 422.334 152 599.001c0 270 -105 405 -315 405c-226 0 -339 -105.667 -339 -317v-687h-110v1251c0 216 119.333 324 358 324
c122.667 0 213.334 -22 272.001 -66s88 -111.333 88 -202c0 -72.667 -40.333 -148 -121 -226zM731.999 1312c0 114 -83.334 171 -250.001 171c-167.333 0 -251 -81.333 -251 -244v-290c62.667 100 191.334 150 386.001 150c76.667 68.667 115 139.667 115 213z" />
    <glyph glyph-name="uni10EA" unicode="&#x10ea;" horiz-adv-x="1234" 
d="M1098 1088c0 -114.667 -70.667 -202.666 -212 -263.999c165.333 -46 248 -179 248 -399c0 -147.333 -42 -257.333 -126 -330s-209.667 -109 -377 -109c-354 0 -531 193.667 -531 581v305c0 208 24 442.667 72 704l115 1c-51.333 -274.667 -77 -505.667 -77 -693v-317
c0 -163.333 35.167 -285.333 105.5 -366s175.833 -121 316.5 -121c133.333 0 232 31.667 296 95s96 159.333 96 288c0 212.667 -101.333 319 -304 319h-164v85h153c96 0 166.5 18 211.5 54s67.5 91.333 67.5 166c0 89.333 -40.333 159.333 -121 210s-123.667 144 -129 280
h113c0 -110.667 41 -194.334 123 -251.001c82.667 -56.667 124 -136 124 -238z" />
    <glyph glyph-name="uni10EB" unicode="&#x10eb;" horiz-adv-x="1096" 
d="M974 535c0 -184.667 -36.333 -322.5 -109 -413.5s-183.667 -136.5 -333 -136.5c-288 0 -432 193.333 -432 580c0 356 144 534 432 534c172 0 283 -62.333 333 -187v665h109v-1042zM864 535c0 312.667 -111 469 -333 469c-213.333 0 -320 -146.333 -320 -439
c0 -324.667 107 -487 321 -487c221.333 0 332 152.333 332 457z" />
    <glyph glyph-name="uni10EC" unicode="&#x10ec;" horiz-adv-x="1096" 
d="M120 1292c0 189.333 93.333 284 280 284c104.667 0 183.334 -54.333 236.001 -163c54.667 108.667 137 163 247 163h111v-115l-99 20c-135.333 0 -203 -44.667 -203 -134v-86h-112v84c0 90.667 -59.667 136 -179 136c-112.667 0 -169 -63 -169 -189v-373
c70 121.333 180.667 182 332 182c288 0 432 -178.667 432 -536c0 -193.333 -40.333 -338.333 -121 -435s-200.334 -145 -359.001 -145c-264 0 -396 186.667 -396 560v747zM232 545c0.666992 -310 95.334 -465 284.001 -465c125.333 0 218.166 40 278.499 120
s90.5 201.667 90.5 365c0 292.667 -107 439 -321 439c-221.333 0 -332 -153 -332 -459z" />
    <glyph glyph-name="uni10ED" unicode="&#x10ed;" horiz-adv-x="1075" 
d="M519 1213v165h-135c-58.667 0 -102.334 -9.5 -131.001 -28.5s-43 -48.5 -43 -88.5c0 -76.667 50.667 -115 152 -115l69 -2v-90h-80c-167.333 0 -251 68.667 -251 206c0 139.333 92.667 209 278 209h141v106h104v-106h260v-91h-260v-165c0 -122.667 59 -247 177 -373
c116.667 -124.667 175 -261.667 175 -411s-36.667 -260.833 -110 -334.5s-183.333 -110.5 -330 -110.5c-290 0 -435 142.667 -435 428c0 46 1.5 86.833 4.5 122.5s7.16699 67.5 12.5 95.5h113c-5.33301 -36 -9.66602 -72.167 -12.999 -108.5s-5 -74.5 -5 -114.5
c0 -219.333 108.667 -329 326 -329s326 117.667 326 353c0 136.667 -57 266.667 -171 390s-172 254 -174 392z" />
    <glyph glyph-name="uni10EE" unicode="&#x10ee;" horiz-adv-x="1096" 
d="M122 1577h109v-665c50 124.667 161 187 333 187c288 0 432 -178 432 -534c0 -386.667 -144 -580 -432 -580c-149.333 0 -260.333 45.5 -333 136.5s-109 228.833 -109 413.5v1042zM232 535c0 -304.667 110.667 -457 332 -457c214 0 321 162.333 321 487
c0 292.667 -106.667 439 -320 439c-222 0 -333 -156.333 -333 -469z" />
    <glyph glyph-name="uni10EF" unicode="&#x10ef;" horiz-adv-x="1076" 
d="M976 481c0 -330.667 -148 -496.001 -444 -496.001c-288 0 -432 169 -432 507c0 30 1 61.667 3 95s4.66699 69 8 107h117c-5.33301 -30 -9.5 -61.667 -12.5 -95s-4.5 -69 -4.5 -107c0 -274.667 108.333 -412 325 -412c219.333 0 329 136 329 408
c0 133.333 -67 249.666 -201 348.999c-134.667 98.667 -202 216.334 -202 353.001v80l-361 100v101l361 -108v213h109v-231l405 -108v-108l-405 115v-54c0 -109.333 67.333 -217.333 202 -324c135.333 -107.333 203 -235.666 203 -384.999z" />
    <glyph glyph-name="uni10F0" unicode="&#x10f0;" horiz-adv-x="1075" 
d="M975 381c0 -263.333 -144.999 -395 -434.999 -395c-293.333 0 -440 140 -440 420v102h112v-102c0 -110.667 26.167 -192.834 78.5 -246.501s133.166 -80.5 242.499 -80.5c114 0 197.667 25.5 251 76.5s80 128.167 80 231.5c0 146.667 -73 220 -219 220h-174v94h174
c72.667 0 126.667 14.5 162 43.5s53 74.833 53 137.5c0 118.667 -73.333 178 -220 178h-174v93h172c144.667 0 217 57.667 217 173c0 104 -74 156 -222 156h-312v95h318c217.333 0 326 -84.667 326 -254c0 -95.333 -57 -167 -171 -215
c117.333 -39.333 176 -115.666 176 -228.999c0 -102 -51.667 -177.667 -155 -227c106.667 -56.667 160 -147 160 -271z" />
    <glyph glyph-name="uni10F1" unicode="&#x10f1;" horiz-adv-x="1075" 
d="M975 260c0 -183.333 -145 -274.998 -435 -274.998c-293.333 0 -440 140 -440 420v1172h111v-1172c0 -216.667 107.333 -325 322 -325c220.667 0 331 60 331 180c0 117.333 -76.667 176 -230 176h-117v91h117c76.667 0 133.5 10.167 170.5 30.5s55.5 51.5 55.5 93.5
c0 84 -78.667 126 -236 126h-112v92h109c156.667 0 235 48 235 144c0 88 -79 132 -237 132h-114v93l114 1c70.667 0.666992 123.167 12.5 157.5 35.5s51.5 59.5 51.5 109.5c0 65.333 -69.667 98 -209 98h-58v94h54c109.333 0 190 -16 242 -48s78 -81.333 78 -148
c0 -98 -52.667 -161.667 -158 -191c125.333 -37.333 188 -97.333 188 -180c0 -96.667 -66.333 -157.334 -199 -182.001c135.333 -33.333 203 -93.333 203 -180c0 -78.667 -59 -135.334 -177 -170.001c121.333 -38 182.333 -110.333 183 -217z" />
    <glyph glyph-name="uni10F2" unicode="&#x10f2;" horiz-adv-x="1076" 
d="M147 -16c85.333 0 183.332 49.335 293.999 148.002c-227.333 243.333 -341 503 -341 779c0 444 146 666 438 666s438 -222 438 -666c0 -274.667 -119.333 -534.334 -358 -779.001c118.667 -98.667 216.667 -148 294 -148h11v-125
c-171.333 65.333 -299.666 138 -384.999 218c-90 -78.667 -220.333 -151.334 -391 -218.001v125zM209.999 911.002c0 -290 109.334 -532 328.001 -726c111.333 98 193.666 207.167 246.999 327.5s80 254.833 80 403.5c0 378 -111 567 -333 567
c-214.667 0 -322 -190.667 -322 -572z" />
    <glyph glyph-name="uni10F3" unicode="&#x10f3;" horiz-adv-x="1076" 
d="M976 417c0 -288 -148 -431.999 -444 -431.999c-288 0 -432 167.333 -432 502l23 178h114l-26 -178c0.666992 -272.667 109.667 -409 327 -409c218 0 327 113 327 339v133c0 235.333 -133 353 -399 353h-69v96h109c222 0 338.667 133 350 399v79h-602v-302h-107v370
l829 31c0 -370 -98.333 -577.333 -295 -622c196.667 -76.667 295 -211.334 295 -404.001v-133z" />
    <glyph glyph-name="uni10F4" unicode="&#x10f4;" horiz-adv-x="1074" 
d="M974 424c0 -292 -146 -437.999 -438 -437.999c-290.667 0 -436 146 -436 438c0 16 0.5 35 1.5 57s2.83301 47 5.5 75h112c-2.66699 -28 -4.5 -53.333 -5.5 -76s-1.5 -42.667 -1.5 -60c0 -227.333 108 -341 324 -341c218.667 0 328 115 328 345v51
c0 174.667 -111.667 262 -335 262h-133v88h133c224 0 336 158.333 336 475c-100 -52.667 -190.167 -91.5 -270.5 -116.5s-153.5 -37.5 -219.5 -37.5c-183.333 0 -275 69.333 -275 208c0 147.333 96.333 221 289 221v-93c-118.667 -0.666992 -178 -42.667 -178 -126
c0 -77.333 55 -116 165 -116c140.667 0 303.667 59.667 489 179h109v-119c0 -290.667 -77.333 -462.334 -232 -515.001c154.667 -44.667 232 -148 232 -310v-51z" />
    <glyph glyph-name="uni10F5" unicode="&#x10f5;" horiz-adv-x="1161" 
d="M975 663v-270c0 -272 -148 -408 -444 -408c-287.333 0 -431 136 -431 408c0 242.667 142 364 426 364h338v169h-338c-284 0 -426 117 -426 351c0 199.333 144 299 432 299c295.333 0 443 -99.667 443 -299v-254h126v-97h-126v-169h126v-94h-126zM864 663h-338
c-210 0 -315 -87.667 -315 -263c0 -214.667 106.667 -322 320 -322c222 0 333 110.667 333 332v253zM211 1274c0 -167.333 105 -251 315 -251h338v254c0 137.333 -109.667 206 -329 206c-216 0 -324 -69.667 -324 -209z" />
    <glyph glyph-name="uni2010" unicode="&#x2010;" horiz-adv-x="739" 
d="M100 602h539v-82h-539v82z" />
    <glyph glyph-name="uni2011" unicode="&#x2011;" horiz-adv-x="739" 
d="M100 602h539v-82h-539v82z" />
    <glyph glyph-name="figuredash" unicode="&#x2012;" 
d="M100 602h1103v-82h-1103v82z" />
    <glyph glyph-name="endash" unicode="&#x2013;" horiz-adv-x="1024" 
d="M100 602h824v-82h-824v82z" />
    <glyph glyph-name="emdash" unicode="&#x2014;" horiz-adv-x="2048" 
d="M100 602h1848v-82h-1848v82z" />
    <glyph glyph-name="uni2015" unicode="&#x2015;" horiz-adv-x="2048" 
d="M0 602h2048v-82h-2048v82z" />
    <glyph glyph-name="quoteleft" unicode="&#x2018;" horiz-adv-x="651" 
d="M335 1022h-101v151l79 320h62l-40 -320v-151z" />
    <glyph glyph-name="quoteright" unicode="&#x2019;" horiz-adv-x="651" 
d="M274 1493h101v-151l-79 -320h-62l40 320v151z" />
    <glyph glyph-name="quotesinglbase" unicode="&#x201a;" horiz-adv-x="651" 
d="M274 237h101v-151l-79 -325h-62l40 325v151z" />
    <glyph glyph-name="quotereversed" unicode="&#x201b;" horiz-adv-x="651" 
d="M-274 1493v-151l40 -320h-62l-79 320v151h101z" />
    <glyph glyph-name="quotedblleft" unicode="&#x201c;" horiz-adv-x="1061" 
d="M335 1022h-101v151l79 320h62l-40 -320v-151zM749 1022h-101v151l79 320h62l-40 -320v-151z" />
    <glyph glyph-name="quotedblright" unicode="&#x201d;" horiz-adv-x="1061" 
d="M274 1493h101v-151l-79 -320h-62l40 320v151zM682 1493h101v-151l-79 -320h-62l40 320v151z" />
    <glyph glyph-name="quotedblbase" unicode="&#x201e;" horiz-adv-x="1061" 
d="M274 237h101v-151l-79 -325h-62l40 325v151zM685 237h101v-151l-79 -325h-62l40 325v151z" />
    <glyph glyph-name="uni201F" unicode="&#x201f;" horiz-adv-x="1061" 
d="M-274 1493v-151l40 -320h-62l-79 320v151h101zM-682 1493v-151l40 -320h-62l-79 320v151h101z" />
    <glyph glyph-name="dagger" unicode="&#x2020;" horiz-adv-x="1024" 
d="M462 1493h101v-427h404v-82h-404v-1181h-101v1181h-405v82h405v427z" />
    <glyph glyph-name="daggerdbl" unicode="&#x2021;" horiz-adv-x="1024" 
d="M967 230h-404v-427h-101v427h-405v82h405v672h-405v82h405v427h101v-427h404v-82h-404v-672h404v-82z" />
    <glyph glyph-name="ellipsis" unicode="&#x2026;" horiz-adv-x="2048" 
d="M290 126h102v-126h-102v126zM972 128h102v-126h-102v126zM1653 126h102v-126h-102v126z" />
  </font>
</defs>
</svg>
