<?xml version="1.0" encoding="utf-8"?>
<!-- Generator: Adobe Illustrator 16.0.0, SVG Export Plug-In . SVG Version: 6.00 Build 0)  -->
<!DOCTYPE svg PUBLIC "-//W3C//DTD SVG 1.1//EN" "http://www.w3.org/Graphics/SVG/1.1/DTD/svg11.dtd">
<svg version="1.1" id="Layer_1" xmlns="http://www.w3.org/2000/svg" xmlns:xlink="http://www.w3.org/1999/xlink" x="0px" y="0px"
	 width="28.347px" height="28.347px" viewBox="0 0 28.347 28.347" enable-background="new 0 0 28.347 28.347" xml:space="preserve">
<path fill-rule="evenodd" clip-rule="evenodd" fill="#FFFDF6" d="M22.894,7.418c-0.359,0.523-0.716,1.051-1.146,1.682
	c0.53-0.137,0.997-0.256,1.466-0.377c0.035,0.043,0.07,0.086,0.107,0.129c-0.432,0.461-0.83,0.961-1.306,1.369
	c-0.324,0.279-0.461,0.555-0.465,0.977c-0.029,5.1-3.805,9.446-8.839,10.153c-2.399,0.338-4.665-0.104-6.771-1.32
	c-0.098-0.057-0.186-0.131-0.408-0.287c1.938,0.109,3.605-0.281,5.215-1.4c-1.561-0.326-2.664-1.07-3.213-2.629
	c0.453,0,0.789,0,1.125,0c-1.455-0.791-2.355-1.885-2.389-3.659c0.432,0.125,0.772,0.223,1.117,0.322
	c-1.107-1.479-1.535-2.996-0.596-4.779C7.016,7.807,7.192,7.952,7.344,8.12c1.707,1.854,3.83,2.885,6.312,3.215
	c0.334,0.043,0.559,0.094,0.533-0.412c-0.074-1.512,0.482-2.746,1.84-3.504c1.299-0.729,2.652-0.727,3.863,0.137
	c0.61,0.434,1.108,0.48,1.73,0.193c0.371-0.172,0.753-0.316,1.13-0.473C22.8,7.321,22.847,7.37,22.894,7.418z"/>
</svg>
